%TF.GenerationSoftware,KiCad,Pcbnew,7.0.7*%
%TF.CreationDate,2024-02-09T11:11:51-05:00*%
%TF.ProjectId,control-module-pcb,636f6e74-726f-46c2-9d6d-6f64756c652d,rev?*%
%TF.SameCoordinates,Original*%
%TF.FileFunction,Drillmap*%
%TF.FilePolarity,Positive*%
%FSLAX45Y45*%
G04 Gerber Fmt 4.5, Leading zero omitted, Abs format (unit mm)*
G04 Created by KiCad (PCBNEW 7.0.7) date 2024-02-09 11:11:51*
%MOMM*%
%LPD*%
G01*
G04 APERTURE LIST*
%ADD10C,0.038100*%
%ADD11C,0.200000*%
G04 APERTURE END LIST*
D10*
X14200000Y-5600000D02*
X20025000Y-5600000D01*
X20025000Y-13190000D01*
X14200000Y-13190000D01*
X14200000Y-5600000D01*
D11*
X14458872Y-13503389D02*
X14458872Y-13303389D01*
X14458872Y-13303389D02*
X14506491Y-13303389D01*
X14506491Y-13303389D02*
X14535062Y-13312913D01*
X14535062Y-13312913D02*
X14554110Y-13331960D01*
X14554110Y-13331960D02*
X14563634Y-13351008D01*
X14563634Y-13351008D02*
X14573157Y-13389103D01*
X14573157Y-13389103D02*
X14573157Y-13417674D01*
X14573157Y-13417674D02*
X14563634Y-13455770D01*
X14563634Y-13455770D02*
X14554110Y-13474817D01*
X14554110Y-13474817D02*
X14535062Y-13493865D01*
X14535062Y-13493865D02*
X14506491Y-13503389D01*
X14506491Y-13503389D02*
X14458872Y-13503389D01*
X14658872Y-13503389D02*
X14658872Y-13370055D01*
X14658872Y-13408151D02*
X14668396Y-13389103D01*
X14668396Y-13389103D02*
X14677919Y-13379579D01*
X14677919Y-13379579D02*
X14696967Y-13370055D01*
X14696967Y-13370055D02*
X14716015Y-13370055D01*
X14782681Y-13503389D02*
X14782681Y-13370055D01*
X14782681Y-13303389D02*
X14773157Y-13312913D01*
X14773157Y-13312913D02*
X14782681Y-13322436D01*
X14782681Y-13322436D02*
X14792205Y-13312913D01*
X14792205Y-13312913D02*
X14782681Y-13303389D01*
X14782681Y-13303389D02*
X14782681Y-13322436D01*
X14906491Y-13503389D02*
X14887443Y-13493865D01*
X14887443Y-13493865D02*
X14877919Y-13474817D01*
X14877919Y-13474817D02*
X14877919Y-13303389D01*
X15011253Y-13503389D02*
X14992205Y-13493865D01*
X14992205Y-13493865D02*
X14982681Y-13474817D01*
X14982681Y-13474817D02*
X14982681Y-13303389D01*
X15239824Y-13503389D02*
X15239824Y-13303389D01*
X15239824Y-13303389D02*
X15306491Y-13446246D01*
X15306491Y-13446246D02*
X15373157Y-13303389D01*
X15373157Y-13303389D02*
X15373157Y-13503389D01*
X15554110Y-13503389D02*
X15554110Y-13398627D01*
X15554110Y-13398627D02*
X15544586Y-13379579D01*
X15544586Y-13379579D02*
X15525538Y-13370055D01*
X15525538Y-13370055D02*
X15487443Y-13370055D01*
X15487443Y-13370055D02*
X15468396Y-13379579D01*
X15554110Y-13493865D02*
X15535062Y-13503389D01*
X15535062Y-13503389D02*
X15487443Y-13503389D01*
X15487443Y-13503389D02*
X15468396Y-13493865D01*
X15468396Y-13493865D02*
X15458872Y-13474817D01*
X15458872Y-13474817D02*
X15458872Y-13455770D01*
X15458872Y-13455770D02*
X15468396Y-13436722D01*
X15468396Y-13436722D02*
X15487443Y-13427198D01*
X15487443Y-13427198D02*
X15535062Y-13427198D01*
X15535062Y-13427198D02*
X15554110Y-13417674D01*
X15649348Y-13370055D02*
X15649348Y-13570055D01*
X15649348Y-13379579D02*
X15668396Y-13370055D01*
X15668396Y-13370055D02*
X15706491Y-13370055D01*
X15706491Y-13370055D02*
X15725538Y-13379579D01*
X15725538Y-13379579D02*
X15735062Y-13389103D01*
X15735062Y-13389103D02*
X15744586Y-13408151D01*
X15744586Y-13408151D02*
X15744586Y-13465293D01*
X15744586Y-13465293D02*
X15735062Y-13484341D01*
X15735062Y-13484341D02*
X15725538Y-13493865D01*
X15725538Y-13493865D02*
X15706491Y-13503389D01*
X15706491Y-13503389D02*
X15668396Y-13503389D01*
X15668396Y-13503389D02*
X15649348Y-13493865D01*
X15830300Y-13484341D02*
X15839824Y-13493865D01*
X15839824Y-13493865D02*
X15830300Y-13503389D01*
X15830300Y-13503389D02*
X15820777Y-13493865D01*
X15820777Y-13493865D02*
X15830300Y-13484341D01*
X15830300Y-13484341D02*
X15830300Y-13503389D01*
X15830300Y-13379579D02*
X15839824Y-13389103D01*
X15839824Y-13389103D02*
X15830300Y-13398627D01*
X15830300Y-13398627D02*
X15820777Y-13389103D01*
X15820777Y-13389103D02*
X15830300Y-13379579D01*
X15830300Y-13379579D02*
X15830300Y-13398627D01*
M02*
