%TF.GenerationSoftware,KiCad,Pcbnew,7.0.7*%
%TF.CreationDate,2024-02-09T11:11:41-05:00*%
%TF.ProjectId,control-module-pcb,636f6e74-726f-46c2-9d6d-6f64756c652d,rev?*%
%TF.SameCoordinates,Original*%
%TF.FileFunction,Copper,L4,Bot*%
%TF.FilePolarity,Positive*%
%FSLAX46Y46*%
G04 Gerber Fmt 4.6, Leading zero omitted, Abs format (unit mm)*
G04 Created by KiCad (PCBNEW 7.0.7) date 2024-02-09 11:11:41*
%MOMM*%
%LPD*%
G01*
G04 APERTURE LIST*
%TA.AperFunction,ComponentPad*%
%ADD10R,1.750000X1.750000*%
%TD*%
%TA.AperFunction,ComponentPad*%
%ADD11C,1.750000*%
%TD*%
%TA.AperFunction,ComponentPad*%
%ADD12R,1.700000X1.700000*%
%TD*%
%TA.AperFunction,ComponentPad*%
%ADD13O,1.700000X1.700000*%
%TD*%
%TA.AperFunction,ComponentPad*%
%ADD14R,1.800000X1.800000*%
%TD*%
%TA.AperFunction,ComponentPad*%
%ADD15C,1.800000*%
%TD*%
%TA.AperFunction,ComponentPad*%
%ADD16C,3.600000*%
%TD*%
%TA.AperFunction,ConnectorPad*%
%ADD17C,5.700000*%
%TD*%
%TA.AperFunction,ViaPad*%
%ADD18C,0.685800*%
%TD*%
%TA.AperFunction,ViaPad*%
%ADD19C,0.889000*%
%TD*%
%TA.AperFunction,Conductor*%
%ADD20C,0.177800*%
%TD*%
G04 APERTURE END LIST*
D10*
%TO.P,J4,1,1*%
%TO.N,/IGNITION1*%
X196000000Y-59750000D03*
D11*
%TO.P,J4,2,2*%
%TO.N,/ACCESSORY1*%
X196000000Y-63250000D03*
%TO.P,J4,3,3*%
%TO.N,/IGNITION2*%
X196000000Y-66750000D03*
%TO.P,J4,4,4*%
%TO.N,/ACCESSORY2*%
X196000000Y-70250000D03*
%TO.P,J4,5,5*%
%TO.N,/STARTER*%
X196000000Y-73750000D03*
%TD*%
D12*
%TO.P,J2,1,Pin_1*%
%TO.N,/BOOT*%
X144725000Y-67125000D03*
D13*
%TO.P,J2,2,Pin_2*%
%TO.N,GND*%
X147265000Y-67125000D03*
%TD*%
D14*
%TO.P,J5,1,P1*%
%TO.N,GND*%
X146400000Y-128600000D03*
D15*
%TO.P,J5,2,P2*%
%TO.N,+BATT*%
X146400000Y-125100000D03*
%TD*%
D12*
%TO.P,J1,1,Pin_1*%
%TO.N,/TX*%
X152170000Y-67125000D03*
D13*
%TO.P,J1,2,Pin_2*%
%TO.N,/RX*%
X154710000Y-67125000D03*
%TO.P,J1,3,Pin_3*%
%TO.N,GND*%
X157250000Y-67125000D03*
%TD*%
D10*
%TO.P,J3,1,1*%
%TO.N,/HEAD_UNIT_PWR*%
X196000000Y-80250000D03*
D11*
%TO.P,J3,2,2*%
%TO.N,GND*%
X196000000Y-83750000D03*
%TO.P,J3,3,3*%
%TO.N,/HEAD_UNIT_SHUTDOWN*%
X196000000Y-87250000D03*
%TO.P,J3,4,4*%
%TO.N,/L_BLIND_SPOT_PWR*%
X196000000Y-90750000D03*
%TO.P,J3,5,5*%
%TO.N,GND*%
X196000000Y-94250000D03*
%TO.P,J3,6,6*%
%TO.N,/R_BLIND_SPOT_PWR*%
X196000000Y-97750000D03*
%TO.P,J3,7,7*%
%TO.N,GND*%
X196000000Y-101250000D03*
%TO.P,J3,8,8*%
%TO.N,/DASH_CAM_PWR*%
X196000000Y-104750000D03*
%TO.P,J3,9,9*%
%TO.N,GND*%
X196000000Y-108250000D03*
%TO.P,J3,10,10*%
%TO.N,/DASH_CAM_SHUTDOWN*%
X196000000Y-111750000D03*
%TO.P,J3,11,11*%
%TO.N,/BACKUP_CAM_PWR*%
X196000000Y-115250000D03*
%TO.P,J3,12,12*%
%TO.N,GND*%
X196000000Y-118750000D03*
%TD*%
D16*
%TO.P,REF\u002A\u002A,1*%
%TO.N,N/C*%
X171500000Y-122500000D03*
D17*
X171500000Y-122500000D03*
%TD*%
D16*
%TO.P,REF\u002A\u002A,1*%
%TO.N,N/C*%
X171750000Y-64500000D03*
D17*
X171750000Y-64500000D03*
%TD*%
D12*
%TO.P,JP1,1,A*%
%TO.N,/Power Supply/VCC*%
X149000000Y-98225300D03*
D13*
%TO.P,JP1,2,C*%
%TO.N,Net-(JP1-C)*%
X149000000Y-100765300D03*
%TO.P,JP1,3,B*%
%TO.N,GND*%
X149000000Y-103305300D03*
%TD*%
D18*
%TO.N,GND*%
X167800000Y-100700000D03*
%TO.N,Net-(U1-GPIO5{slash}TOUCH5{slash}ADC1_CH4)*%
X159750000Y-92500000D03*
X153250000Y-92500000D03*
%TO.N,/5V*%
X179750000Y-98500000D03*
X158050000Y-129855300D03*
X179750000Y-123400000D03*
X156350000Y-129855300D03*
D19*
X179755000Y-100900000D03*
D18*
X158050000Y-127355300D03*
X156450000Y-127355300D03*
X179750000Y-106900000D03*
D19*
X179750000Y-127950000D03*
D18*
X156350000Y-128555300D03*
D19*
X179809149Y-94740000D03*
X179700000Y-111500000D03*
X179700000Y-109200000D03*
D18*
X157350000Y-100955300D03*
D19*
X179809149Y-92640000D03*
D18*
X179750000Y-115100000D03*
D19*
X179700000Y-119700000D03*
X179755000Y-103100000D03*
X179700000Y-117404901D03*
D18*
X157250000Y-127355300D03*
X158050000Y-128555300D03*
D19*
X179700000Y-125700000D03*
X148700000Y-117800000D03*
D18*
X155100000Y-129900000D03*
X159500000Y-129900000D03*
X179750000Y-90400000D03*
D19*
%TO.N,GND*%
X183274650Y-119000000D03*
D18*
X168400000Y-67900000D03*
X175700000Y-82200000D03*
X151550000Y-127355300D03*
D19*
X183200000Y-111800000D03*
D18*
X176800000Y-108300000D03*
X176800000Y-116600000D03*
X153550000Y-109055300D03*
X175600000Y-85400000D03*
X162850000Y-109855300D03*
D19*
X183089973Y-103500150D03*
D18*
X164050000Y-129855300D03*
D19*
X183200000Y-110700000D03*
D18*
X164650000Y-109855300D03*
D19*
X183300000Y-127300000D03*
D18*
X152950000Y-109955300D03*
X176800000Y-124900000D03*
X176900000Y-77200000D03*
X162950000Y-127355300D03*
X160950000Y-108955300D03*
X153400000Y-85000000D03*
X149850000Y-109955300D03*
X150900000Y-86100000D03*
X165600000Y-96000000D03*
D19*
X183089900Y-102500000D03*
D18*
X149850000Y-108855300D03*
X149500000Y-86100000D03*
X152300000Y-81100000D03*
X152300000Y-86100000D03*
X150450000Y-129855300D03*
X161350000Y-109855300D03*
X151650000Y-109955300D03*
X176700000Y-62100000D03*
X151650000Y-108855300D03*
X151550000Y-128655300D03*
X148800000Y-88700000D03*
X148400000Y-82200000D03*
X162950000Y-129855300D03*
X150750000Y-108855300D03*
X178000000Y-93700000D03*
X163750000Y-108855300D03*
X161750000Y-129855300D03*
X149500000Y-81100000D03*
X176600000Y-100100000D03*
D19*
X183300000Y-128300000D03*
D18*
X162950000Y-128655300D03*
X153300000Y-71100000D03*
X150450000Y-127355300D03*
X153400000Y-83600000D03*
X168700000Y-80300000D03*
X148400000Y-85000000D03*
X152750000Y-129855300D03*
X153400000Y-82200000D03*
X175300000Y-73200000D03*
X148400000Y-83600000D03*
X176800000Y-68500000D03*
X150900000Y-81100000D03*
X162850000Y-108855300D03*
X151550000Y-129855300D03*
X166900000Y-77100000D03*
X164050000Y-127355300D03*
X164650000Y-108855300D03*
X161750000Y-127355300D03*
X161300000Y-97900000D03*
D19*
X182975500Y-94000000D03*
D18*
X152750000Y-127355300D03*
D19*
X182983605Y-95118414D03*
X183274727Y-120000386D03*
D18*
%TO.N,+BATT*%
X149750000Y-107055300D03*
X159600000Y-113400000D03*
X185974150Y-78770000D03*
X164650000Y-106955300D03*
X153550000Y-107555300D03*
X185974150Y-84770000D03*
X164650000Y-105955300D03*
X151750000Y-106055300D03*
X162850000Y-105955300D03*
X149750000Y-106055300D03*
X162850000Y-106955300D03*
X163750000Y-105955300D03*
X151750000Y-107055300D03*
X185974150Y-60020000D03*
X150750000Y-106055300D03*
X185974150Y-66270000D03*
X185974150Y-72520000D03*
X161050000Y-107455300D03*
D19*
%TO.N,/HEAD_UNIT_PWR*%
X188100000Y-93500000D03*
%TO.N,/L_BLIND_SPOT_PWR*%
X188200000Y-102000000D03*
%TO.N,/R_BLIND_SPOT_PWR*%
X188400000Y-110200000D03*
%TO.N,/DASH_CAM_PWR*%
X188500000Y-118500000D03*
%TO.N,/BACKUP_CAM_PWR*%
X188400000Y-126800000D03*
D18*
%TO.N,/IGNITION1*%
X181574150Y-60670000D03*
%TO.N,/ACCESSORY1*%
X177000000Y-67000000D03*
X181574150Y-66870000D03*
X174600000Y-75800000D03*
%TO.N,/IGNITION2*%
X181574150Y-73170000D03*
%TO.N,/ACCESSORY2*%
X181474150Y-79270000D03*
%TO.N,/STARTER*%
X181474150Y-85370000D03*
%TO.N,/TX*%
X148700000Y-70308300D03*
%TO.N,/RX*%
X149800000Y-70308300D03*
%TO.N,/BOOT*%
X153700000Y-74700000D03*
%TO.N,/HEAD_UNIT_SHUTDOWN*%
X189900000Y-89700000D03*
X153000000Y-89630598D03*
%TO.N,/DASH_CAM_SHUTDOWN*%
X167300000Y-105100000D03*
X190700000Y-113700000D03*
%TO.N,/EN*%
X161300000Y-68500000D03*
X159500000Y-77700000D03*
%TO.N,Net-(U1-GPIO6{slash}TOUCH6{slash}ADC1_CH5)*%
X166600000Y-80300000D03*
X159100000Y-87700000D03*
%TO.N,Net-(U1-GPIO7{slash}TOUCH7{slash}ADC1_CH6)*%
X159100000Y-88800000D03*
X168700000Y-82300000D03*
%TD*%
D20*
%TO.N,Net-(U1-GPIO5{slash}TOUCH5{slash}ADC1_CH4)*%
X153250000Y-92500000D02*
X159750000Y-92500000D01*
%TO.N,/ACCESSORY1*%
X174600000Y-75800000D02*
X174600000Y-69400000D01*
X174600000Y-69400000D02*
X177000000Y-67000000D01*
%TO.N,/TX*%
X148986700Y-70308300D02*
X152170000Y-67125000D01*
X148700000Y-70308300D02*
X148986700Y-70308300D01*
%TO.N,/RX*%
X149800000Y-70308300D02*
X151526700Y-70308300D01*
X151526700Y-70308300D02*
X154710000Y-67125000D01*
%TO.N,/BOOT*%
X151900000Y-74700000D02*
X153700000Y-74700000D01*
X144725000Y-67125000D02*
X144725000Y-67525000D01*
X144725000Y-67525000D02*
X151900000Y-74700000D01*
%TO.N,/HEAD_UNIT_SHUTDOWN*%
X153000000Y-89630598D02*
X153069402Y-89700000D01*
X153069402Y-89700000D02*
X189900000Y-89700000D01*
%TO.N,/DASH_CAM_SHUTDOWN*%
X190700000Y-113700000D02*
X173300000Y-113700000D01*
X173300000Y-113700000D02*
X167300000Y-107700000D01*
X167300000Y-107700000D02*
X167300000Y-105100000D01*
%TO.N,/EN*%
X161300000Y-75900000D02*
X159500000Y-77700000D01*
X161300000Y-68500000D02*
X161300000Y-75900000D01*
%TO.N,Net-(U1-GPIO6{slash}TOUCH6{slash}ADC1_CH5)*%
X159200000Y-87700000D02*
X159100000Y-87700000D01*
X166600000Y-80300000D02*
X159200000Y-87700000D01*
%TO.N,Net-(U1-GPIO7{slash}TOUCH7{slash}ADC1_CH6)*%
X165500000Y-82400000D02*
X159100000Y-88800000D01*
X168600000Y-82400000D02*
X165500000Y-82400000D01*
X168700000Y-82300000D02*
X168600000Y-82400000D01*
%TD*%
%TA.AperFunction,Conductor*%
%TO.N,GND*%
G36*
X199692539Y-56520185D02*
G01*
X199738294Y-56572989D01*
X199749500Y-56624500D01*
X199749500Y-131275500D01*
X199729815Y-131342539D01*
X199677011Y-131388294D01*
X199625500Y-131399500D01*
X142624500Y-131399500D01*
X142557461Y-131379815D01*
X142511706Y-131327011D01*
X142500500Y-131275500D01*
X142500500Y-129547844D01*
X145000000Y-129547844D01*
X145006401Y-129607372D01*
X145006403Y-129607379D01*
X145056645Y-129742086D01*
X145056649Y-129742093D01*
X145142809Y-129857187D01*
X145142812Y-129857190D01*
X145257906Y-129943350D01*
X145257913Y-129943354D01*
X145392620Y-129993596D01*
X145392627Y-129993598D01*
X145452155Y-129999999D01*
X145452172Y-130000000D01*
X146150000Y-130000000D01*
X146150000Y-129313658D01*
X146169685Y-129246619D01*
X146222489Y-129200864D01*
X146290184Y-129190719D01*
X146360677Y-129200000D01*
X146360684Y-129200000D01*
X146439316Y-129200000D01*
X146439323Y-129200000D01*
X146509815Y-129190719D01*
X146578849Y-129201484D01*
X146631105Y-129247864D01*
X146650000Y-129313658D01*
X146650000Y-130000000D01*
X147347828Y-130000000D01*
X147347844Y-129999999D01*
X147407372Y-129993598D01*
X147407379Y-129993596D01*
X147542086Y-129943354D01*
X147542093Y-129943350D01*
X147600002Y-129899999D01*
X154624763Y-129899999D01*
X154644012Y-130033888D01*
X154644013Y-130033893D01*
X154679789Y-130112228D01*
X154700205Y-130156933D01*
X154700208Y-130156936D01*
X154700209Y-130156938D01*
X154750053Y-130214461D01*
X154788786Y-130259160D01*
X154902579Y-130332291D01*
X154967472Y-130351345D01*
X155032366Y-130370400D01*
X155032367Y-130370400D01*
X155167633Y-130370400D01*
X155297421Y-130332291D01*
X155411214Y-130259160D01*
X155499795Y-130156933D01*
X155555987Y-130033890D01*
X155575237Y-129900000D01*
X155568810Y-129855299D01*
X155874763Y-129855299D01*
X155894012Y-129989188D01*
X155894013Y-129989193D01*
X155940571Y-130091138D01*
X155950205Y-130112233D01*
X155950208Y-130112236D01*
X155950209Y-130112238D01*
X155988933Y-130156928D01*
X156038786Y-130214460D01*
X156152579Y-130287591D01*
X156217473Y-130306645D01*
X156282366Y-130325700D01*
X156282367Y-130325700D01*
X156417633Y-130325700D01*
X156547421Y-130287591D01*
X156661214Y-130214460D01*
X156749795Y-130112233D01*
X156805987Y-129989190D01*
X156825237Y-129855300D01*
X156825237Y-129855299D01*
X157574763Y-129855299D01*
X157594012Y-129989188D01*
X157594013Y-129989193D01*
X157640571Y-130091138D01*
X157650205Y-130112233D01*
X157650208Y-130112236D01*
X157650209Y-130112238D01*
X157688933Y-130156928D01*
X157738786Y-130214460D01*
X157852579Y-130287591D01*
X157917473Y-130306645D01*
X157982366Y-130325700D01*
X157982367Y-130325700D01*
X158117633Y-130325700D01*
X158247421Y-130287591D01*
X158361214Y-130214460D01*
X158449795Y-130112233D01*
X158505987Y-129989190D01*
X158518810Y-129900000D01*
X159024763Y-129900000D01*
X159044012Y-130033888D01*
X159044013Y-130033893D01*
X159079789Y-130112228D01*
X159100205Y-130156933D01*
X159100208Y-130156936D01*
X159100209Y-130156938D01*
X159150053Y-130214461D01*
X159188786Y-130259160D01*
X159302579Y-130332291D01*
X159367472Y-130351345D01*
X159432366Y-130370400D01*
X159432367Y-130370400D01*
X159567633Y-130370400D01*
X159697421Y-130332291D01*
X159811214Y-130259160D01*
X159899795Y-130156933D01*
X159955987Y-130033890D01*
X159975237Y-129900000D01*
X159955987Y-129766110D01*
X159955986Y-129766109D01*
X159955986Y-129766106D01*
X159927891Y-129704588D01*
X159899795Y-129643067D01*
X159868865Y-129607372D01*
X159811216Y-129540842D01*
X159811211Y-129540838D01*
X159697419Y-129467708D01*
X159567634Y-129429600D01*
X159567633Y-129429600D01*
X159432367Y-129429600D01*
X159432366Y-129429600D01*
X159302580Y-129467708D01*
X159188788Y-129540838D01*
X159188783Y-129540842D01*
X159100209Y-129643061D01*
X159100203Y-129643071D01*
X159044013Y-129766106D01*
X159044012Y-129766111D01*
X159024763Y-129900000D01*
X158518810Y-129900000D01*
X158525237Y-129855300D01*
X158505987Y-129721410D01*
X158505986Y-129721409D01*
X158505986Y-129721406D01*
X158477890Y-129659888D01*
X158449795Y-129598367D01*
X158406016Y-129547844D01*
X158361216Y-129496142D01*
X158361211Y-129496138D01*
X158316973Y-129467708D01*
X158247421Y-129423009D01*
X158247420Y-129423008D01*
X158247419Y-129423008D01*
X158117634Y-129384900D01*
X158117633Y-129384900D01*
X157982367Y-129384900D01*
X157982366Y-129384900D01*
X157852580Y-129423008D01*
X157738788Y-129496138D01*
X157738783Y-129496142D01*
X157650209Y-129598361D01*
X157650203Y-129598371D01*
X157594013Y-129721406D01*
X157594012Y-129721411D01*
X157574763Y-129855299D01*
X156825237Y-129855299D01*
X156805987Y-129721410D01*
X156805986Y-129721409D01*
X156805986Y-129721406D01*
X156777891Y-129659888D01*
X156749795Y-129598367D01*
X156706016Y-129547844D01*
X156661216Y-129496142D01*
X156661211Y-129496138D01*
X156616973Y-129467708D01*
X156547421Y-129423009D01*
X156547420Y-129423008D01*
X156547419Y-129423008D01*
X156417634Y-129384900D01*
X156417633Y-129384900D01*
X156282367Y-129384900D01*
X156282366Y-129384900D01*
X156152580Y-129423008D01*
X156038788Y-129496138D01*
X156038783Y-129496142D01*
X155950209Y-129598361D01*
X155950203Y-129598371D01*
X155894013Y-129721406D01*
X155894012Y-129721411D01*
X155874763Y-129855299D01*
X155568810Y-129855299D01*
X155555987Y-129766110D01*
X155555986Y-129766109D01*
X155555986Y-129766106D01*
X155527891Y-129704588D01*
X155499795Y-129643067D01*
X155468865Y-129607372D01*
X155411216Y-129540842D01*
X155411211Y-129540838D01*
X155297419Y-129467708D01*
X155167634Y-129429600D01*
X155167633Y-129429600D01*
X155032367Y-129429600D01*
X155032366Y-129429600D01*
X154902580Y-129467708D01*
X154788788Y-129540838D01*
X154788783Y-129540842D01*
X154700209Y-129643061D01*
X154700203Y-129643071D01*
X154644013Y-129766106D01*
X154644012Y-129766111D01*
X154624763Y-129899999D01*
X147600002Y-129899999D01*
X147657187Y-129857190D01*
X147657190Y-129857187D01*
X147743350Y-129742093D01*
X147743354Y-129742086D01*
X147793596Y-129607379D01*
X147793598Y-129607372D01*
X147799999Y-129547844D01*
X147800000Y-129547827D01*
X147800000Y-128850000D01*
X147113658Y-128850000D01*
X147046619Y-128830315D01*
X147000864Y-128777511D01*
X146990719Y-128709816D01*
X147005177Y-128600000D01*
X146999292Y-128555299D01*
X155874763Y-128555299D01*
X155894012Y-128689188D01*
X155894013Y-128689193D01*
X155924812Y-128756631D01*
X155950205Y-128812233D01*
X155950208Y-128812236D01*
X155950209Y-128812238D01*
X156028499Y-128902589D01*
X156038786Y-128914460D01*
X156152579Y-128987591D01*
X156217473Y-129006645D01*
X156282366Y-129025700D01*
X156282367Y-129025700D01*
X156417633Y-129025700D01*
X156547421Y-128987591D01*
X156661214Y-128914460D01*
X156749795Y-128812233D01*
X156805987Y-128689190D01*
X156825237Y-128555300D01*
X156825237Y-128555299D01*
X157574763Y-128555299D01*
X157594012Y-128689188D01*
X157594013Y-128689193D01*
X157624812Y-128756631D01*
X157650205Y-128812233D01*
X157650208Y-128812236D01*
X157650209Y-128812238D01*
X157728499Y-128902589D01*
X157738786Y-128914460D01*
X157852579Y-128987591D01*
X157917473Y-129006645D01*
X157982366Y-129025700D01*
X157982367Y-129025700D01*
X158117633Y-129025700D01*
X158247421Y-128987591D01*
X158361214Y-128914460D01*
X158449795Y-128812233D01*
X158505987Y-128689190D01*
X158525237Y-128555300D01*
X158505987Y-128421410D01*
X158505986Y-128421409D01*
X158505986Y-128421406D01*
X158473375Y-128350000D01*
X158449795Y-128298367D01*
X158449790Y-128298361D01*
X158361216Y-128196142D01*
X158361211Y-128196138D01*
X158247419Y-128123008D01*
X158117634Y-128084900D01*
X158117633Y-128084900D01*
X157982367Y-128084900D01*
X157982366Y-128084900D01*
X157852580Y-128123008D01*
X157738788Y-128196138D01*
X157738783Y-128196142D01*
X157650209Y-128298361D01*
X157650203Y-128298371D01*
X157594013Y-128421406D01*
X157594012Y-128421411D01*
X157574763Y-128555299D01*
X156825237Y-128555299D01*
X156805987Y-128421410D01*
X156805986Y-128421409D01*
X156805986Y-128421406D01*
X156773375Y-128350000D01*
X156749795Y-128298367D01*
X156749790Y-128298361D01*
X156661216Y-128196142D01*
X156661211Y-128196138D01*
X156547419Y-128123008D01*
X156417634Y-128084900D01*
X156417633Y-128084900D01*
X156282367Y-128084900D01*
X156282366Y-128084900D01*
X156152580Y-128123008D01*
X156038788Y-128196138D01*
X156038783Y-128196142D01*
X155950209Y-128298361D01*
X155950203Y-128298371D01*
X155894013Y-128421406D01*
X155894012Y-128421411D01*
X155874763Y-128555299D01*
X146999292Y-128555299D01*
X146990719Y-128490183D01*
X147001484Y-128421151D01*
X147047864Y-128368895D01*
X147113658Y-128350000D01*
X147800000Y-128350000D01*
X147800000Y-127950000D01*
X179173064Y-127950000D01*
X179192723Y-128099322D01*
X179250359Y-128238468D01*
X179342045Y-128357955D01*
X179461532Y-128449641D01*
X179600678Y-128507277D01*
X179732627Y-128524648D01*
X179749999Y-128526936D01*
X179750000Y-128526936D01*
X179750001Y-128526936D01*
X179765562Y-128524887D01*
X179899322Y-128507277D01*
X180038468Y-128449641D01*
X180157955Y-128357955D01*
X180249641Y-128238468D01*
X180307277Y-128099322D01*
X180326936Y-127950000D01*
X180307277Y-127800678D01*
X180249641Y-127661532D01*
X180157955Y-127542045D01*
X180038468Y-127450359D01*
X180038464Y-127450357D01*
X179899325Y-127392724D01*
X179899323Y-127392723D01*
X179899322Y-127392723D01*
X179824661Y-127382893D01*
X179750001Y-127373064D01*
X179749999Y-127373064D01*
X179600678Y-127392723D01*
X179600674Y-127392724D01*
X179461535Y-127450357D01*
X179461532Y-127450358D01*
X179461532Y-127450359D01*
X179342045Y-127542045D01*
X179257555Y-127652155D01*
X179250357Y-127661535D01*
X179192724Y-127800674D01*
X179192723Y-127800678D01*
X179173064Y-127950000D01*
X147800000Y-127950000D01*
X147800000Y-127652172D01*
X147799999Y-127652155D01*
X147793598Y-127592627D01*
X147793596Y-127592620D01*
X147743354Y-127457913D01*
X147743350Y-127457906D01*
X147666538Y-127355299D01*
X155974763Y-127355299D01*
X155994012Y-127489188D01*
X155994013Y-127489193D01*
X156040571Y-127591138D01*
X156050205Y-127612233D01*
X156050208Y-127612236D01*
X156050209Y-127612238D01*
X156135989Y-127711233D01*
X156138786Y-127714460D01*
X156252579Y-127787591D01*
X156317473Y-127806645D01*
X156382366Y-127825700D01*
X156382367Y-127825700D01*
X156517633Y-127825700D01*
X156647421Y-127787591D01*
X156761214Y-127714460D01*
X156761219Y-127714453D01*
X156767914Y-127708654D01*
X156770152Y-127711237D01*
X156815049Y-127682375D01*
X156884919Y-127682366D01*
X156929850Y-127711233D01*
X156932086Y-127708654D01*
X156938783Y-127714457D01*
X156938786Y-127714460D01*
X157052579Y-127787591D01*
X157117473Y-127806645D01*
X157182366Y-127825700D01*
X157182367Y-127825700D01*
X157317633Y-127825700D01*
X157447421Y-127787591D01*
X157561214Y-127714460D01*
X157561219Y-127714453D01*
X157567914Y-127708654D01*
X157570152Y-127711237D01*
X157615049Y-127682375D01*
X157684919Y-127682366D01*
X157729850Y-127711233D01*
X157732086Y-127708654D01*
X157738783Y-127714457D01*
X157738786Y-127714460D01*
X157852579Y-127787591D01*
X157917473Y-127806645D01*
X157982366Y-127825700D01*
X157982367Y-127825700D01*
X158117633Y-127825700D01*
X158247421Y-127787591D01*
X158361214Y-127714460D01*
X158449795Y-127612233D01*
X158505987Y-127489190D01*
X158525237Y-127355300D01*
X158505987Y-127221410D01*
X158505986Y-127221409D01*
X158505986Y-127221406D01*
X158477890Y-127159888D01*
X158449795Y-127098367D01*
X158449790Y-127098361D01*
X158361216Y-126996142D01*
X158361211Y-126996138D01*
X158247419Y-126923008D01*
X158117634Y-126884900D01*
X158117633Y-126884900D01*
X157982367Y-126884900D01*
X157982366Y-126884900D01*
X157852580Y-126923008D01*
X157738788Y-126996138D01*
X157732086Y-127001946D01*
X157729852Y-126999368D01*
X157684893Y-127028241D01*
X157615023Y-127028216D01*
X157570143Y-126999373D01*
X157567914Y-127001946D01*
X157561216Y-126996142D01*
X157561214Y-126996140D01*
X157447421Y-126923009D01*
X157447420Y-126923008D01*
X157447419Y-126923008D01*
X157317634Y-126884900D01*
X157317633Y-126884900D01*
X157182367Y-126884900D01*
X157182366Y-126884900D01*
X157052580Y-126923008D01*
X156938788Y-126996138D01*
X156932086Y-127001946D01*
X156929852Y-126999368D01*
X156884893Y-127028241D01*
X156815023Y-127028216D01*
X156770143Y-126999373D01*
X156767914Y-127001946D01*
X156761216Y-126996142D01*
X156761214Y-126996140D01*
X156647421Y-126923009D01*
X156647420Y-126923008D01*
X156647419Y-126923008D01*
X156517634Y-126884900D01*
X156517633Y-126884900D01*
X156382367Y-126884900D01*
X156382366Y-126884900D01*
X156252580Y-126923008D01*
X156138788Y-126996138D01*
X156138783Y-126996142D01*
X156050209Y-127098361D01*
X156050203Y-127098371D01*
X155994013Y-127221406D01*
X155994012Y-127221411D01*
X155974763Y-127355299D01*
X147666538Y-127355299D01*
X147657190Y-127342812D01*
X147657187Y-127342809D01*
X147542093Y-127256649D01*
X147542086Y-127256645D01*
X147407379Y-127206403D01*
X147407372Y-127206401D01*
X147347844Y-127200000D01*
X146650000Y-127200000D01*
X146650000Y-127886341D01*
X146630315Y-127953380D01*
X146577511Y-127999135D01*
X146509815Y-128009280D01*
X146439333Y-128000001D01*
X146439328Y-128000000D01*
X146439323Y-128000000D01*
X146360677Y-128000000D01*
X146360671Y-128000000D01*
X146360666Y-128000001D01*
X146290185Y-128009280D01*
X146221150Y-127998514D01*
X146168894Y-127952134D01*
X146150000Y-127886341D01*
X146150000Y-127200000D01*
X145452155Y-127200000D01*
X145392627Y-127206401D01*
X145392620Y-127206403D01*
X145257913Y-127256645D01*
X145257906Y-127256649D01*
X145142812Y-127342809D01*
X145142809Y-127342812D01*
X145056649Y-127457906D01*
X145056645Y-127457913D01*
X145006403Y-127592620D01*
X145006401Y-127592627D01*
X145000000Y-127652155D01*
X145000000Y-128350000D01*
X145686342Y-128350000D01*
X145753381Y-128369685D01*
X145799136Y-128422489D01*
X145809280Y-128490183D01*
X145794823Y-128600000D01*
X145809280Y-128709816D01*
X145798516Y-128778849D01*
X145752136Y-128831105D01*
X145686342Y-128850000D01*
X145000000Y-128850000D01*
X145000000Y-129547844D01*
X142500500Y-129547844D01*
X142500500Y-126800000D01*
X187823064Y-126800000D01*
X187842723Y-126949321D01*
X187842724Y-126949325D01*
X187864520Y-127001946D01*
X187900359Y-127088468D01*
X187992045Y-127207955D01*
X188111532Y-127299641D01*
X188250678Y-127357277D01*
X188382627Y-127374648D01*
X188399999Y-127376936D01*
X188400000Y-127376936D01*
X188400001Y-127376936D01*
X188415562Y-127374887D01*
X188549322Y-127357277D01*
X188688468Y-127299641D01*
X188807955Y-127207955D01*
X188899641Y-127088468D01*
X188957277Y-126949322D01*
X188976936Y-126800000D01*
X188957277Y-126650678D01*
X188899641Y-126511532D01*
X188807955Y-126392045D01*
X188688468Y-126300359D01*
X188688464Y-126300357D01*
X188549325Y-126242724D01*
X188549323Y-126242723D01*
X188549322Y-126242723D01*
X188474661Y-126232893D01*
X188400001Y-126223064D01*
X188399999Y-126223064D01*
X188250678Y-126242723D01*
X188250674Y-126242724D01*
X188111535Y-126300357D01*
X187992045Y-126392045D01*
X187900357Y-126511535D01*
X187842724Y-126650674D01*
X187842723Y-126650678D01*
X187823064Y-126799999D01*
X187823064Y-126800000D01*
X142500500Y-126800000D01*
X142500500Y-125099999D01*
X145367528Y-125099999D01*
X145387366Y-125301423D01*
X145406951Y-125365986D01*
X145446120Y-125495110D01*
X145446121Y-125495113D01*
X145446122Y-125495114D01*
X145446123Y-125495117D01*
X145541527Y-125673605D01*
X145541531Y-125673612D01*
X145669931Y-125830068D01*
X145826387Y-125958468D01*
X145826394Y-125958472D01*
X146004882Y-126053876D01*
X146004883Y-126053876D01*
X146004890Y-126053880D01*
X146198575Y-126112633D01*
X146198574Y-126112633D01*
X146216634Y-126114411D01*
X146400000Y-126132472D01*
X146601425Y-126112633D01*
X146795110Y-126053880D01*
X146973611Y-125958469D01*
X147130068Y-125830068D01*
X147236812Y-125700000D01*
X179123064Y-125700000D01*
X179142723Y-125849321D01*
X179142724Y-125849325D01*
X179187932Y-125958468D01*
X179200359Y-125988468D01*
X179292045Y-126107955D01*
X179411532Y-126199641D01*
X179550678Y-126257277D01*
X179682627Y-126274648D01*
X179699999Y-126276936D01*
X179700000Y-126276936D01*
X179700001Y-126276936D01*
X179715562Y-126274887D01*
X179849322Y-126257277D01*
X179988468Y-126199641D01*
X180107955Y-126107955D01*
X180199641Y-125988468D01*
X180257277Y-125849322D01*
X180276936Y-125700000D01*
X180257277Y-125550678D01*
X180199641Y-125411532D01*
X180107955Y-125292045D01*
X179988468Y-125200359D01*
X179988464Y-125200357D01*
X179849325Y-125142724D01*
X179849323Y-125142723D01*
X179849322Y-125142723D01*
X179774660Y-125132893D01*
X179700001Y-125123064D01*
X179699999Y-125123064D01*
X179550678Y-125142723D01*
X179550674Y-125142724D01*
X179411535Y-125200357D01*
X179292045Y-125292045D01*
X179200357Y-125411535D01*
X179142724Y-125550674D01*
X179142723Y-125550678D01*
X179123064Y-125699999D01*
X179123064Y-125700000D01*
X147236812Y-125700000D01*
X147258469Y-125673611D01*
X147353880Y-125495110D01*
X147412633Y-125301425D01*
X147432472Y-125100000D01*
X147412633Y-124898575D01*
X147353880Y-124704890D01*
X147353876Y-124704882D01*
X147258472Y-124526394D01*
X147258468Y-124526387D01*
X147130068Y-124369931D01*
X146973612Y-124241531D01*
X146973605Y-124241527D01*
X146795117Y-124146123D01*
X146795114Y-124146122D01*
X146795113Y-124146121D01*
X146795110Y-124146120D01*
X146601425Y-124087367D01*
X146601423Y-124087366D01*
X146601425Y-124087366D01*
X146400000Y-124067528D01*
X146198576Y-124087366D01*
X146084217Y-124122056D01*
X146004890Y-124146120D01*
X146004887Y-124146121D01*
X146004885Y-124146122D01*
X146004882Y-124146123D01*
X145826394Y-124241527D01*
X145826387Y-124241531D01*
X145669931Y-124369931D01*
X145541531Y-124526387D01*
X145541527Y-124526394D01*
X145446123Y-124704882D01*
X145446122Y-124704885D01*
X145387366Y-124898576D01*
X145367528Y-125099999D01*
X142500500Y-125099999D01*
X142500500Y-122500003D01*
X168517454Y-122500003D01*
X168537621Y-122846252D01*
X168537622Y-122846263D01*
X168597845Y-123187804D01*
X168597848Y-123187818D01*
X168697323Y-123520090D01*
X168834696Y-123838555D01*
X168834702Y-123838568D01*
X169008120Y-124138938D01*
X169008124Y-124138944D01*
X169215227Y-124417132D01*
X169215238Y-124417146D01*
X169338162Y-124547437D01*
X169453253Y-124669425D01*
X169453259Y-124669430D01*
X169453261Y-124669432D01*
X169718944Y-124892367D01*
X169718952Y-124892373D01*
X170008723Y-125082959D01*
X170318666Y-125238618D01*
X170318667Y-125238619D01*
X170318670Y-125238620D01*
X170318674Y-125238622D01*
X170644596Y-125357248D01*
X170982086Y-125437234D01*
X171326580Y-125477500D01*
X171326587Y-125477500D01*
X171673413Y-125477500D01*
X171673420Y-125477500D01*
X172017914Y-125437234D01*
X172355404Y-125357248D01*
X172681326Y-125238622D01*
X172991273Y-125082961D01*
X173281053Y-124892369D01*
X173546747Y-124669425D01*
X173784763Y-124417144D01*
X173991881Y-124138936D01*
X174165300Y-123838564D01*
X174302676Y-123520091D01*
X174338629Y-123400000D01*
X179274763Y-123400000D01*
X179294012Y-123533888D01*
X179294013Y-123533893D01*
X179340571Y-123635838D01*
X179350205Y-123656933D01*
X179438786Y-123759160D01*
X179552579Y-123832291D01*
X179573957Y-123838568D01*
X179682366Y-123870400D01*
X179682367Y-123870400D01*
X179817633Y-123870400D01*
X179947421Y-123832291D01*
X180061214Y-123759160D01*
X180149795Y-123656933D01*
X180205987Y-123533890D01*
X180225237Y-123400000D01*
X180205987Y-123266110D01*
X180205986Y-123266109D01*
X180205986Y-123266106D01*
X180170226Y-123187804D01*
X180149795Y-123143067D01*
X180061214Y-123040840D01*
X179947421Y-122967709D01*
X179947420Y-122967708D01*
X179947419Y-122967708D01*
X179817634Y-122929600D01*
X179817633Y-122929600D01*
X179682367Y-122929600D01*
X179682366Y-122929600D01*
X179552580Y-122967708D01*
X179438788Y-123040838D01*
X179438783Y-123040842D01*
X179350209Y-123143061D01*
X179350203Y-123143071D01*
X179294013Y-123266106D01*
X179294012Y-123266111D01*
X179274763Y-123400000D01*
X174338629Y-123400000D01*
X174402151Y-123187822D01*
X174462379Y-122846252D01*
X174482546Y-122500000D01*
X174462379Y-122153748D01*
X174402151Y-121812178D01*
X174302676Y-121479909D01*
X174165300Y-121161436D01*
X173991881Y-120861064D01*
X173991879Y-120861061D01*
X173991875Y-120861055D01*
X173784772Y-120582867D01*
X173784761Y-120582853D01*
X173669672Y-120460868D01*
X173546747Y-120330575D01*
X173546740Y-120330569D01*
X173546738Y-120330567D01*
X173281055Y-120107632D01*
X173281047Y-120107626D01*
X172991276Y-119917040D01*
X172681333Y-119761381D01*
X172681332Y-119761380D01*
X172512692Y-119700000D01*
X179123064Y-119700000D01*
X179142723Y-119849321D01*
X179142724Y-119849325D01*
X179170772Y-119917040D01*
X179200359Y-119988468D01*
X179292045Y-120107955D01*
X179411532Y-120199641D01*
X179550678Y-120257277D01*
X179682627Y-120274648D01*
X179699999Y-120276936D01*
X179700000Y-120276936D01*
X179700001Y-120276936D01*
X179715562Y-120274887D01*
X179849322Y-120257277D01*
X179988468Y-120199641D01*
X180107955Y-120107955D01*
X180199641Y-119988468D01*
X180257277Y-119849322D01*
X180276936Y-119700000D01*
X180257277Y-119550678D01*
X180199641Y-119411532D01*
X180107955Y-119292045D01*
X179988468Y-119200359D01*
X179988464Y-119200357D01*
X179849325Y-119142724D01*
X179849323Y-119142723D01*
X179849322Y-119142723D01*
X179774660Y-119132893D01*
X179700001Y-119123064D01*
X179699999Y-119123064D01*
X179550678Y-119142723D01*
X179550674Y-119142724D01*
X179411535Y-119200357D01*
X179411532Y-119200358D01*
X179411532Y-119200359D01*
X179292045Y-119292045D01*
X179204092Y-119406668D01*
X179200357Y-119411535D01*
X179142724Y-119550674D01*
X179142723Y-119550678D01*
X179123064Y-119699999D01*
X179123064Y-119700000D01*
X172512692Y-119700000D01*
X172355401Y-119642751D01*
X172169978Y-119598805D01*
X172017914Y-119562766D01*
X171673420Y-119522500D01*
X171326580Y-119522500D01*
X170982086Y-119562765D01*
X170982086Y-119562766D01*
X170644598Y-119642751D01*
X170318667Y-119761380D01*
X170318666Y-119761381D01*
X170008723Y-119917040D01*
X169718952Y-120107626D01*
X169718944Y-120107632D01*
X169453261Y-120330567D01*
X169453251Y-120330577D01*
X169215238Y-120582853D01*
X169215227Y-120582867D01*
X169008124Y-120861055D01*
X169008120Y-120861061D01*
X168834702Y-121161431D01*
X168834696Y-121161444D01*
X168697323Y-121479909D01*
X168597848Y-121812181D01*
X168597845Y-121812195D01*
X168537622Y-122153736D01*
X168537621Y-122153747D01*
X168517454Y-122499996D01*
X168517454Y-122500003D01*
X142500500Y-122500003D01*
X142500500Y-118500000D01*
X187923064Y-118500000D01*
X187942723Y-118649321D01*
X187942724Y-118649325D01*
X187984427Y-118750006D01*
X188000359Y-118788468D01*
X188092045Y-118907955D01*
X188211532Y-118999641D01*
X188350678Y-119057277D01*
X188482627Y-119074648D01*
X188499999Y-119076936D01*
X188500000Y-119076936D01*
X188500001Y-119076936D01*
X188515562Y-119074887D01*
X188649322Y-119057277D01*
X188788468Y-118999641D01*
X188907955Y-118907955D01*
X188999641Y-118788468D01*
X189015572Y-118750006D01*
X194620288Y-118750006D01*
X194639103Y-118977085D01*
X194639105Y-118977093D01*
X194695045Y-119197993D01*
X194786577Y-119406664D01*
X194786579Y-119406668D01*
X194866874Y-119529570D01*
X195244890Y-119151554D01*
X195306213Y-119118069D01*
X195375904Y-119123053D01*
X195425386Y-119157007D01*
X195532404Y-119277805D01*
X195532406Y-119277807D01*
X195553034Y-119292045D01*
X195583501Y-119313075D01*
X195583503Y-119313076D01*
X195627493Y-119367358D01*
X195635153Y-119436807D01*
X195604050Y-119499372D01*
X195600744Y-119502807D01*
X195219015Y-119884535D01*
X195219016Y-119884537D01*
X195245366Y-119905046D01*
X195245372Y-119905050D01*
X195445769Y-120013499D01*
X195445780Y-120013504D01*
X195661298Y-120087492D01*
X195886065Y-120125000D01*
X196113935Y-120125000D01*
X196338701Y-120087492D01*
X196554219Y-120013504D01*
X196554230Y-120013499D01*
X196754633Y-119905047D01*
X196780982Y-119884537D01*
X196780982Y-119884536D01*
X196399254Y-119502807D01*
X196365769Y-119441484D01*
X196370753Y-119371792D01*
X196412625Y-119315859D01*
X196416460Y-119313100D01*
X196467595Y-119277806D01*
X196574615Y-119157005D01*
X196633801Y-119119881D01*
X196703666Y-119120649D01*
X196755108Y-119151554D01*
X197133124Y-119529571D01*
X197213420Y-119406669D01*
X197304954Y-119197993D01*
X197360894Y-118977093D01*
X197360896Y-118977085D01*
X197379712Y-118750006D01*
X197379712Y-118749993D01*
X197360896Y-118522914D01*
X197360894Y-118522906D01*
X197304954Y-118302006D01*
X197213420Y-118093330D01*
X197133124Y-117970427D01*
X196755108Y-118348444D01*
X196693785Y-118381929D01*
X196624093Y-118376945D01*
X196574612Y-118342990D01*
X196467599Y-118222198D01*
X196467597Y-118222196D01*
X196467595Y-118222194D01*
X196416496Y-118186923D01*
X196416495Y-118186922D01*
X196372505Y-118132639D01*
X196364845Y-118063190D01*
X196395949Y-118000625D01*
X196399254Y-117997191D01*
X196780983Y-117615461D01*
X196754632Y-117594952D01*
X196754627Y-117594949D01*
X196554230Y-117486500D01*
X196554219Y-117486495D01*
X196338701Y-117412507D01*
X196113935Y-117375000D01*
X195886065Y-117375000D01*
X195661298Y-117412507D01*
X195445780Y-117486495D01*
X195445769Y-117486500D01*
X195245373Y-117594948D01*
X195219016Y-117615462D01*
X195600745Y-117997192D01*
X195634230Y-118058515D01*
X195629246Y-118128207D01*
X195587374Y-118184140D01*
X195583504Y-118186923D01*
X195532407Y-118222192D01*
X195532404Y-118222194D01*
X195425387Y-118342992D01*
X195366197Y-118380118D01*
X195296332Y-118379350D01*
X195244891Y-118348445D01*
X194866874Y-117970428D01*
X194786578Y-118093333D01*
X194786577Y-118093335D01*
X194695045Y-118302006D01*
X194639105Y-118522906D01*
X194639103Y-118522914D01*
X194620288Y-118749993D01*
X194620288Y-118750006D01*
X189015572Y-118750006D01*
X189057277Y-118649322D01*
X189076936Y-118500000D01*
X189057277Y-118350678D01*
X188999641Y-118211532D01*
X188907955Y-118092045D01*
X188788468Y-118000359D01*
X188788464Y-118000357D01*
X188649325Y-117942724D01*
X188649323Y-117942723D01*
X188649322Y-117942723D01*
X188574660Y-117932893D01*
X188500001Y-117923064D01*
X188499999Y-117923064D01*
X188350678Y-117942723D01*
X188350674Y-117942724D01*
X188211535Y-118000357D01*
X188211532Y-118000358D01*
X188211532Y-118000359D01*
X188126836Y-118065349D01*
X188092045Y-118092045D01*
X188000357Y-118211535D01*
X187942724Y-118350674D01*
X187942723Y-118350678D01*
X187923064Y-118499999D01*
X187923064Y-118500000D01*
X142500500Y-118500000D01*
X142500500Y-117800000D01*
X148123064Y-117800000D01*
X148136827Y-117904542D01*
X148142723Y-117949321D01*
X148142724Y-117949325D01*
X148190782Y-118065349D01*
X148200359Y-118088468D01*
X148292045Y-118207955D01*
X148411532Y-118299641D01*
X148550678Y-118357277D01*
X148682627Y-118374648D01*
X148699999Y-118376936D01*
X148700000Y-118376936D01*
X148700001Y-118376936D01*
X148715562Y-118374887D01*
X148849322Y-118357277D01*
X148988468Y-118299641D01*
X149107955Y-118207955D01*
X149199641Y-118088468D01*
X149257277Y-117949322D01*
X149276936Y-117800000D01*
X149257277Y-117650678D01*
X149199641Y-117511532D01*
X149117820Y-117404901D01*
X179123064Y-117404901D01*
X179142723Y-117554222D01*
X179142724Y-117554226D01*
X179168088Y-117615461D01*
X179200359Y-117693369D01*
X179292045Y-117812856D01*
X179411532Y-117904542D01*
X179550678Y-117962178D01*
X179682627Y-117979549D01*
X179699999Y-117981837D01*
X179700000Y-117981837D01*
X179700001Y-117981837D01*
X179715562Y-117979788D01*
X179849322Y-117962178D01*
X179988468Y-117904542D01*
X180107955Y-117812856D01*
X180199641Y-117693369D01*
X180257277Y-117554223D01*
X180276936Y-117404901D01*
X180257277Y-117255579D01*
X180199641Y-117116433D01*
X180107955Y-116996946D01*
X179988468Y-116905260D01*
X179988464Y-116905258D01*
X179849325Y-116847625D01*
X179849323Y-116847624D01*
X179849322Y-116847624D01*
X179774661Y-116837794D01*
X179700001Y-116827965D01*
X179699999Y-116827965D01*
X179550678Y-116847624D01*
X179550674Y-116847625D01*
X179411535Y-116905258D01*
X179292045Y-116996946D01*
X179200357Y-117116436D01*
X179142724Y-117255575D01*
X179142723Y-117255579D01*
X179123064Y-117404900D01*
X179123064Y-117404901D01*
X149117820Y-117404901D01*
X149107955Y-117392045D01*
X148988468Y-117300359D01*
X148988464Y-117300357D01*
X148849325Y-117242724D01*
X148849323Y-117242723D01*
X148849322Y-117242723D01*
X148774660Y-117232893D01*
X148700001Y-117223064D01*
X148699999Y-117223064D01*
X148550678Y-117242723D01*
X148550674Y-117242724D01*
X148411535Y-117300357D01*
X148292045Y-117392045D01*
X148200357Y-117511535D01*
X148142724Y-117650674D01*
X148142723Y-117650678D01*
X148137103Y-117693369D01*
X148123064Y-117800000D01*
X142500500Y-117800000D01*
X142500500Y-115100000D01*
X179274763Y-115100000D01*
X179294012Y-115233888D01*
X179294013Y-115233893D01*
X179340571Y-115335838D01*
X179350205Y-115356933D01*
X179350208Y-115356936D01*
X179350209Y-115356938D01*
X179427836Y-115446524D01*
X179438786Y-115459160D01*
X179552579Y-115532291D01*
X179617473Y-115551345D01*
X179682366Y-115570400D01*
X179682367Y-115570400D01*
X179817633Y-115570400D01*
X179947421Y-115532291D01*
X180061214Y-115459160D01*
X180149795Y-115356933D01*
X180198630Y-115249999D01*
X194992649Y-115249999D01*
X195012004Y-115446522D01*
X195069330Y-115635501D01*
X195162414Y-115809648D01*
X195162419Y-115809655D01*
X195287694Y-115962305D01*
X195393921Y-116049482D01*
X195440346Y-116087582D01*
X195440349Y-116087583D01*
X195440351Y-116087585D01*
X195614498Y-116180669D01*
X195614500Y-116180669D01*
X195614503Y-116180671D01*
X195803476Y-116237995D01*
X195803475Y-116237995D01*
X195822831Y-116239901D01*
X196000000Y-116257351D01*
X196196524Y-116237995D01*
X196385497Y-116180671D01*
X196559654Y-116087582D01*
X196712305Y-115962305D01*
X196837582Y-115809654D01*
X196930671Y-115635497D01*
X196987995Y-115446524D01*
X197007351Y-115250000D01*
X196987995Y-115053476D01*
X196930671Y-114864503D01*
X196930669Y-114864500D01*
X196930669Y-114864498D01*
X196837585Y-114690351D01*
X196837583Y-114690349D01*
X196837582Y-114690346D01*
X196787729Y-114629600D01*
X196712305Y-114537694D01*
X196559655Y-114412419D01*
X196559648Y-114412414D01*
X196385501Y-114319330D01*
X196291010Y-114290666D01*
X196196524Y-114262005D01*
X196196522Y-114262004D01*
X196196524Y-114262004D01*
X196000000Y-114242649D01*
X195803477Y-114262004D01*
X195614498Y-114319330D01*
X195440351Y-114412414D01*
X195440344Y-114412419D01*
X195287694Y-114537694D01*
X195162419Y-114690344D01*
X195162414Y-114690351D01*
X195069330Y-114864498D01*
X195012004Y-115053477D01*
X194992649Y-115249999D01*
X180198630Y-115249999D01*
X180205987Y-115233890D01*
X180225237Y-115100000D01*
X180205987Y-114966110D01*
X180205986Y-114966109D01*
X180205986Y-114966106D01*
X180177891Y-114904588D01*
X180149795Y-114843067D01*
X180061214Y-114740840D01*
X179947421Y-114667709D01*
X179947420Y-114667708D01*
X179947419Y-114667708D01*
X179817634Y-114629600D01*
X179817633Y-114629600D01*
X179682367Y-114629600D01*
X179682366Y-114629600D01*
X179552580Y-114667708D01*
X179438788Y-114740838D01*
X179438783Y-114740842D01*
X179350209Y-114843061D01*
X179350203Y-114843071D01*
X179294013Y-114966106D01*
X179294012Y-114966111D01*
X179274763Y-115100000D01*
X142500500Y-115100000D01*
X142500500Y-113399999D01*
X159124763Y-113399999D01*
X159144012Y-113533888D01*
X159144013Y-113533893D01*
X159190571Y-113635838D01*
X159200205Y-113656933D01*
X159288786Y-113759160D01*
X159402579Y-113832291D01*
X159455579Y-113847853D01*
X159532366Y-113870400D01*
X159532367Y-113870400D01*
X159667633Y-113870400D01*
X159797421Y-113832291D01*
X159911214Y-113759160D01*
X159999795Y-113656933D01*
X160055987Y-113533890D01*
X160075237Y-113400000D01*
X160055987Y-113266110D01*
X160055986Y-113266109D01*
X160055986Y-113266106D01*
X160027890Y-113204588D01*
X159999795Y-113143067D01*
X159911214Y-113040840D01*
X159797421Y-112967709D01*
X159797420Y-112967708D01*
X159797419Y-112967708D01*
X159667634Y-112929600D01*
X159667633Y-112929600D01*
X159532367Y-112929600D01*
X159532366Y-112929600D01*
X159402580Y-112967708D01*
X159288788Y-113040838D01*
X159288783Y-113040842D01*
X159200209Y-113143061D01*
X159200203Y-113143071D01*
X159144013Y-113266106D01*
X159144012Y-113266111D01*
X159124763Y-113399999D01*
X142500500Y-113399999D01*
X142500500Y-107555300D01*
X153074763Y-107555300D01*
X153094012Y-107689188D01*
X153094013Y-107689193D01*
X153122945Y-107752543D01*
X153150205Y-107812233D01*
X153150208Y-107812236D01*
X153150209Y-107812238D01*
X153215503Y-107887591D01*
X153238786Y-107914460D01*
X153352579Y-107987591D01*
X153394684Y-107999954D01*
X153482366Y-108025700D01*
X153482367Y-108025700D01*
X153617633Y-108025700D01*
X153747421Y-107987591D01*
X153861214Y-107914460D01*
X153949795Y-107812233D01*
X154002904Y-107695941D01*
X154005986Y-107689193D01*
X154005987Y-107689188D01*
X154012098Y-107646684D01*
X154025237Y-107555300D01*
X154010860Y-107455300D01*
X160574763Y-107455300D01*
X160594012Y-107589188D01*
X160594013Y-107589193D01*
X160637375Y-107684140D01*
X160650205Y-107712233D01*
X160650208Y-107712236D01*
X160650209Y-107712238D01*
X160736860Y-107812238D01*
X160738786Y-107814460D01*
X160852579Y-107887591D01*
X160917473Y-107906645D01*
X160982366Y-107925700D01*
X160982367Y-107925700D01*
X161117633Y-107925700D01*
X161247421Y-107887591D01*
X161361214Y-107814460D01*
X161449795Y-107712233D01*
X161504095Y-107593333D01*
X161505986Y-107589193D01*
X161505987Y-107589188D01*
X161525237Y-107455300D01*
X161505987Y-107321410D01*
X161505986Y-107321409D01*
X161505986Y-107321406D01*
X161477557Y-107259157D01*
X161449795Y-107198367D01*
X161413888Y-107156928D01*
X161361216Y-107096142D01*
X161361211Y-107096138D01*
X161297665Y-107055299D01*
X161247421Y-107023009D01*
X161247420Y-107023008D01*
X161247419Y-107023008D01*
X161117634Y-106984900D01*
X161117633Y-106984900D01*
X160982367Y-106984900D01*
X160982366Y-106984900D01*
X160852580Y-107023008D01*
X160738788Y-107096138D01*
X160738783Y-107096142D01*
X160650209Y-107198361D01*
X160650203Y-107198371D01*
X160594013Y-107321406D01*
X160594012Y-107321411D01*
X160574763Y-107455300D01*
X154010860Y-107455300D01*
X154005987Y-107421410D01*
X154005986Y-107421409D01*
X154005986Y-107421406D01*
X153977891Y-107359888D01*
X153949795Y-107298367D01*
X153875159Y-107212233D01*
X153861216Y-107196142D01*
X153861211Y-107196138D01*
X153800207Y-107156933D01*
X153747421Y-107123009D01*
X153747420Y-107123008D01*
X153747419Y-107123008D01*
X153617634Y-107084900D01*
X153617633Y-107084900D01*
X153482367Y-107084900D01*
X153482366Y-107084900D01*
X153352580Y-107123008D01*
X153238788Y-107196138D01*
X153238783Y-107196142D01*
X153150209Y-107298361D01*
X153150203Y-107298371D01*
X153094013Y-107421406D01*
X153094012Y-107421411D01*
X153074763Y-107555300D01*
X142500500Y-107555300D01*
X142500500Y-107055300D01*
X149274763Y-107055300D01*
X149294012Y-107189188D01*
X149294013Y-107189193D01*
X149340571Y-107291138D01*
X149350205Y-107312233D01*
X149350208Y-107312236D01*
X149350209Y-107312238D01*
X149415503Y-107387591D01*
X149438786Y-107414460D01*
X149552579Y-107487591D01*
X149596969Y-107500625D01*
X149682366Y-107525700D01*
X149682367Y-107525700D01*
X149817633Y-107525700D01*
X149947421Y-107487591D01*
X150061214Y-107414460D01*
X150149795Y-107312233D01*
X150205987Y-107189190D01*
X150225237Y-107055300D01*
X150205987Y-106921410D01*
X150205986Y-106921409D01*
X150205986Y-106921406D01*
X150177891Y-106859888D01*
X150149795Y-106798367D01*
X150121844Y-106766110D01*
X150061216Y-106696142D01*
X150061215Y-106696141D01*
X150061214Y-106696140D01*
X150004379Y-106659614D01*
X149958626Y-106606812D01*
X149948682Y-106537653D01*
X149977707Y-106474098D01*
X150004377Y-106450986D01*
X150061214Y-106414460D01*
X150116217Y-106350984D01*
X150155603Y-106305531D01*
X150158202Y-106307783D01*
X150198483Y-106272876D01*
X150267641Y-106262929D01*
X150331198Y-106291951D01*
X150343579Y-106306239D01*
X150344397Y-106305531D01*
X150429539Y-106403789D01*
X150438786Y-106414460D01*
X150552579Y-106487591D01*
X150607745Y-106503789D01*
X150682366Y-106525700D01*
X150682367Y-106525700D01*
X150817633Y-106525700D01*
X150947421Y-106487591D01*
X151061214Y-106414460D01*
X151116217Y-106350984D01*
X151155603Y-106305531D01*
X151158202Y-106307783D01*
X151198483Y-106272876D01*
X151267641Y-106262929D01*
X151331198Y-106291951D01*
X151343579Y-106306239D01*
X151344397Y-106305531D01*
X151429539Y-106403789D01*
X151438786Y-106414460D01*
X151438788Y-106414461D01*
X151495619Y-106450985D01*
X151541374Y-106503789D01*
X151551317Y-106572948D01*
X151522292Y-106636503D01*
X151495619Y-106659615D01*
X151438788Y-106696138D01*
X151438783Y-106696142D01*
X151350209Y-106798361D01*
X151350203Y-106798371D01*
X151294013Y-106921406D01*
X151294012Y-106921411D01*
X151274763Y-107055299D01*
X151294012Y-107189188D01*
X151294013Y-107189193D01*
X151340571Y-107291138D01*
X151350205Y-107312233D01*
X151350208Y-107312236D01*
X151350209Y-107312238D01*
X151415503Y-107387591D01*
X151438786Y-107414460D01*
X151552579Y-107487591D01*
X151596969Y-107500625D01*
X151682366Y-107525700D01*
X151682367Y-107525700D01*
X151817633Y-107525700D01*
X151947421Y-107487591D01*
X152061214Y-107414460D01*
X152149795Y-107312233D01*
X152205987Y-107189190D01*
X152225237Y-107055300D01*
X152210859Y-106955299D01*
X162374763Y-106955299D01*
X162394012Y-107089188D01*
X162394013Y-107089193D01*
X162439681Y-107189188D01*
X162450205Y-107212233D01*
X162450208Y-107212236D01*
X162450209Y-107212238D01*
X162536860Y-107312238D01*
X162538786Y-107314460D01*
X162652579Y-107387591D01*
X162717473Y-107406645D01*
X162782366Y-107425700D01*
X162782367Y-107425700D01*
X162917633Y-107425700D01*
X163047421Y-107387591D01*
X163161214Y-107314460D01*
X163249795Y-107212233D01*
X163303357Y-107094949D01*
X163305986Y-107089193D01*
X163305987Y-107089188D01*
X163325237Y-106955300D01*
X163305987Y-106821410D01*
X163305986Y-106821409D01*
X163305986Y-106821406D01*
X163277890Y-106759888D01*
X163249795Y-106698367D01*
X163216216Y-106659615D01*
X163161216Y-106596142D01*
X163161215Y-106596141D01*
X163161214Y-106596140D01*
X163104379Y-106559614D01*
X163058626Y-106506812D01*
X163048682Y-106437653D01*
X163077707Y-106374098D01*
X163104377Y-106350986D01*
X163161214Y-106314460D01*
X163206289Y-106262440D01*
X163265065Y-106224668D01*
X163334935Y-106224668D01*
X163393710Y-106262440D01*
X163438786Y-106314460D01*
X163552579Y-106387591D01*
X163607745Y-106403789D01*
X163682366Y-106425700D01*
X163682367Y-106425700D01*
X163817633Y-106425700D01*
X163947421Y-106387591D01*
X164061214Y-106314460D01*
X164106289Y-106262440D01*
X164165065Y-106224668D01*
X164234935Y-106224668D01*
X164293710Y-106262440D01*
X164338786Y-106314460D01*
X164338788Y-106314461D01*
X164395619Y-106350985D01*
X164441374Y-106403789D01*
X164451317Y-106472948D01*
X164422292Y-106536503D01*
X164395619Y-106559615D01*
X164338788Y-106596138D01*
X164338783Y-106596142D01*
X164250209Y-106698361D01*
X164250203Y-106698371D01*
X164194013Y-106821406D01*
X164194012Y-106821411D01*
X164174763Y-106955299D01*
X164194012Y-107089188D01*
X164194013Y-107089193D01*
X164239681Y-107189188D01*
X164250205Y-107212233D01*
X164250208Y-107212236D01*
X164250209Y-107212238D01*
X164336860Y-107312238D01*
X164338786Y-107314460D01*
X164452579Y-107387591D01*
X164517473Y-107406645D01*
X164582366Y-107425700D01*
X164582367Y-107425700D01*
X164717633Y-107425700D01*
X164847421Y-107387591D01*
X164961214Y-107314460D01*
X165049795Y-107212233D01*
X165103357Y-107094949D01*
X165105986Y-107089193D01*
X165105987Y-107089188D01*
X165125237Y-106955300D01*
X165105987Y-106821410D01*
X165105986Y-106821409D01*
X165105986Y-106821406D01*
X165077890Y-106759888D01*
X165049795Y-106698367D01*
X165016216Y-106659615D01*
X164961216Y-106596142D01*
X164961215Y-106596141D01*
X164961214Y-106596140D01*
X164904379Y-106559614D01*
X164858626Y-106506812D01*
X164848682Y-106437653D01*
X164877707Y-106374098D01*
X164904377Y-106350986D01*
X164961214Y-106314460D01*
X165049795Y-106212233D01*
X165105987Y-106089190D01*
X165125237Y-105955300D01*
X165105987Y-105821410D01*
X165105986Y-105821409D01*
X165105986Y-105821406D01*
X165076732Y-105757350D01*
X165049795Y-105698367D01*
X165034461Y-105680671D01*
X164961216Y-105596142D01*
X164961211Y-105596138D01*
X164847419Y-105523008D01*
X164717634Y-105484900D01*
X164717633Y-105484900D01*
X164582367Y-105484900D01*
X164582366Y-105484900D01*
X164452580Y-105523008D01*
X164338788Y-105596138D01*
X164338783Y-105596142D01*
X164293712Y-105648157D01*
X164234934Y-105685931D01*
X164165064Y-105685931D01*
X164106288Y-105648157D01*
X164061216Y-105596142D01*
X164061211Y-105596138D01*
X163947419Y-105523008D01*
X163817634Y-105484900D01*
X163817633Y-105484900D01*
X163682367Y-105484900D01*
X163682366Y-105484900D01*
X163552580Y-105523008D01*
X163438788Y-105596138D01*
X163438783Y-105596142D01*
X163393712Y-105648157D01*
X163334934Y-105685931D01*
X163265064Y-105685931D01*
X163206288Y-105648157D01*
X163161216Y-105596142D01*
X163161211Y-105596138D01*
X163047419Y-105523008D01*
X162917634Y-105484900D01*
X162917633Y-105484900D01*
X162782367Y-105484900D01*
X162782366Y-105484900D01*
X162652580Y-105523008D01*
X162538788Y-105596138D01*
X162538783Y-105596142D01*
X162450209Y-105698361D01*
X162450203Y-105698371D01*
X162394013Y-105821406D01*
X162394012Y-105821411D01*
X162374763Y-105955300D01*
X162394012Y-106089188D01*
X162394013Y-106089193D01*
X162439681Y-106189188D01*
X162450205Y-106212233D01*
X162450208Y-106212236D01*
X162450209Y-106212238D01*
X162536860Y-106312238D01*
X162538786Y-106314460D01*
X162538788Y-106314461D01*
X162595619Y-106350985D01*
X162641374Y-106403789D01*
X162651317Y-106472948D01*
X162622292Y-106536503D01*
X162595619Y-106559615D01*
X162538788Y-106596138D01*
X162538783Y-106596142D01*
X162450209Y-106698361D01*
X162450203Y-106698371D01*
X162394013Y-106821406D01*
X162394012Y-106821411D01*
X162374763Y-106955299D01*
X152210859Y-106955299D01*
X152205987Y-106921410D01*
X152205986Y-106921409D01*
X152205986Y-106921406D01*
X152177891Y-106859888D01*
X152149795Y-106798367D01*
X152121844Y-106766110D01*
X152061216Y-106696142D01*
X152061215Y-106696141D01*
X152061214Y-106696140D01*
X152004379Y-106659614D01*
X151958626Y-106606812D01*
X151948682Y-106537653D01*
X151977707Y-106474098D01*
X152004377Y-106450986D01*
X152061214Y-106414460D01*
X152149795Y-106312233D01*
X152205987Y-106189190D01*
X152225237Y-106055300D01*
X152205987Y-105921410D01*
X152205986Y-105921409D01*
X152205986Y-105921406D01*
X152167778Y-105837745D01*
X152149795Y-105798367D01*
X152061214Y-105696140D01*
X151947421Y-105623009D01*
X151947420Y-105623008D01*
X151947419Y-105623008D01*
X151817634Y-105584900D01*
X151817633Y-105584900D01*
X151682367Y-105584900D01*
X151682366Y-105584900D01*
X151552580Y-105623008D01*
X151438788Y-105696138D01*
X151438783Y-105696142D01*
X151344397Y-105805069D01*
X151341803Y-105802821D01*
X151301469Y-105837745D01*
X151232307Y-105847662D01*
X151168762Y-105818613D01*
X151156415Y-105804364D01*
X151155603Y-105805069D01*
X151061216Y-105696142D01*
X151061211Y-105696138D01*
X151037141Y-105680669D01*
X150947421Y-105623009D01*
X150947420Y-105623008D01*
X150947419Y-105623008D01*
X150817634Y-105584900D01*
X150817633Y-105584900D01*
X150682367Y-105584900D01*
X150682366Y-105584900D01*
X150552580Y-105623008D01*
X150438788Y-105696138D01*
X150438783Y-105696142D01*
X150344397Y-105805069D01*
X150341803Y-105802821D01*
X150301469Y-105837745D01*
X150232307Y-105847662D01*
X150168762Y-105818613D01*
X150156415Y-105804364D01*
X150155603Y-105805069D01*
X150061216Y-105696142D01*
X150061211Y-105696138D01*
X150037141Y-105680669D01*
X149947421Y-105623009D01*
X149947420Y-105623008D01*
X149947419Y-105623008D01*
X149817634Y-105584900D01*
X149817633Y-105584900D01*
X149682367Y-105584900D01*
X149682366Y-105584900D01*
X149552580Y-105623008D01*
X149438788Y-105696138D01*
X149438783Y-105696142D01*
X149350209Y-105798361D01*
X149350203Y-105798371D01*
X149294013Y-105921406D01*
X149294012Y-105921411D01*
X149274763Y-106055300D01*
X149294012Y-106189188D01*
X149294013Y-106189193D01*
X149332231Y-106272876D01*
X149350205Y-106312233D01*
X149350208Y-106312236D01*
X149350209Y-106312238D01*
X149415503Y-106387591D01*
X149438786Y-106414460D01*
X149438788Y-106414461D01*
X149495619Y-106450985D01*
X149541374Y-106503789D01*
X149551317Y-106572948D01*
X149522292Y-106636503D01*
X149495619Y-106659615D01*
X149438788Y-106696138D01*
X149438783Y-106696142D01*
X149350209Y-106798361D01*
X149350203Y-106798371D01*
X149294013Y-106921406D01*
X149294012Y-106921411D01*
X149274763Y-107055300D01*
X142500500Y-107055300D01*
X142500500Y-105099999D01*
X166824763Y-105099999D01*
X166844012Y-105233888D01*
X166844013Y-105233893D01*
X166890571Y-105335838D01*
X166900205Y-105356933D01*
X166988786Y-105459160D01*
X166988788Y-105459161D01*
X167026639Y-105483487D01*
X167072393Y-105536291D01*
X167083599Y-105587802D01*
X167083600Y-107692695D01*
X167083515Y-107695941D01*
X167081488Y-107734609D01*
X167088372Y-107752543D01*
X167093897Y-107771194D01*
X167097891Y-107789983D01*
X167097892Y-107789986D01*
X167098587Y-107790942D01*
X167114029Y-107819381D01*
X167114454Y-107820489D01*
X167114456Y-107820492D01*
X167128035Y-107834071D01*
X167140672Y-107848867D01*
X167151963Y-107864408D01*
X167151965Y-107864410D01*
X167152988Y-107865000D01*
X167178673Y-107884709D01*
X173141817Y-113847853D01*
X173144052Y-113850208D01*
X173169959Y-113878981D01*
X173169961Y-113878983D01*
X173187502Y-113886792D01*
X173204607Y-113896079D01*
X173220712Y-113906538D01*
X173220716Y-113906540D01*
X173221884Y-113906725D01*
X173252918Y-113915917D01*
X173254003Y-113916400D01*
X173273208Y-113916400D01*
X173292606Y-113917926D01*
X173311579Y-113920932D01*
X173312721Y-113920626D01*
X173344817Y-113916400D01*
X190208454Y-113916400D01*
X190275493Y-113936085D01*
X190302166Y-113959197D01*
X190388783Y-114059157D01*
X190388786Y-114059160D01*
X190502579Y-114132291D01*
X190567472Y-114151345D01*
X190632366Y-114170400D01*
X190632367Y-114170400D01*
X190767633Y-114170400D01*
X190897421Y-114132291D01*
X191011214Y-114059160D01*
X191099795Y-113956933D01*
X191155987Y-113833890D01*
X191175237Y-113700000D01*
X191155987Y-113566110D01*
X191155986Y-113566109D01*
X191155986Y-113566106D01*
X191116012Y-113478577D01*
X191099795Y-113443067D01*
X191011214Y-113340840D01*
X190897421Y-113267709D01*
X190897420Y-113267708D01*
X190897419Y-113267708D01*
X190767634Y-113229600D01*
X190767633Y-113229600D01*
X190632367Y-113229600D01*
X190632366Y-113229600D01*
X190502580Y-113267708D01*
X190388788Y-113340838D01*
X190388783Y-113340842D01*
X190302166Y-113440803D01*
X190243388Y-113478577D01*
X190208454Y-113483600D01*
X173440997Y-113483600D01*
X173373958Y-113463915D01*
X173353316Y-113447281D01*
X171406035Y-111500000D01*
X179123064Y-111500000D01*
X179142723Y-111649321D01*
X179142724Y-111649325D01*
X179184424Y-111749999D01*
X179200359Y-111788468D01*
X179292045Y-111907955D01*
X179411532Y-111999641D01*
X179550678Y-112057277D01*
X179682627Y-112074648D01*
X179699999Y-112076936D01*
X179700000Y-112076936D01*
X179700001Y-112076936D01*
X179715562Y-112074887D01*
X179849322Y-112057277D01*
X179988468Y-111999641D01*
X180107955Y-111907955D01*
X180199641Y-111788468D01*
X180215575Y-111750000D01*
X194992649Y-111750000D01*
X195012004Y-111946522D01*
X195069330Y-112135501D01*
X195162414Y-112309648D01*
X195162419Y-112309655D01*
X195287694Y-112462305D01*
X195393921Y-112549482D01*
X195440346Y-112587582D01*
X195440349Y-112587583D01*
X195440351Y-112587585D01*
X195614498Y-112680669D01*
X195614500Y-112680669D01*
X195614503Y-112680671D01*
X195803476Y-112737995D01*
X195803475Y-112737995D01*
X195821095Y-112739730D01*
X196000000Y-112757351D01*
X196196524Y-112737995D01*
X196385497Y-112680671D01*
X196559654Y-112587582D01*
X196712305Y-112462305D01*
X196837582Y-112309654D01*
X196930671Y-112135497D01*
X196987995Y-111946524D01*
X197007351Y-111750000D01*
X196987995Y-111553476D01*
X196930671Y-111364503D01*
X196930669Y-111364500D01*
X196930669Y-111364498D01*
X196837585Y-111190351D01*
X196837583Y-111190349D01*
X196837582Y-111190346D01*
X196756909Y-111092045D01*
X196712305Y-111037694D01*
X196559655Y-110912419D01*
X196559648Y-110912414D01*
X196385501Y-110819330D01*
X196245745Y-110776936D01*
X196196524Y-110762005D01*
X196196522Y-110762004D01*
X196196524Y-110762004D01*
X196017619Y-110744384D01*
X196000000Y-110742649D01*
X195999999Y-110742649D01*
X195803477Y-110762004D01*
X195614498Y-110819330D01*
X195440351Y-110912414D01*
X195440344Y-110912419D01*
X195287694Y-111037694D01*
X195162419Y-111190344D01*
X195162414Y-111190351D01*
X195069330Y-111364498D01*
X195012004Y-111553477D01*
X194992649Y-111750000D01*
X180215575Y-111750000D01*
X180257277Y-111649322D01*
X180276936Y-111500000D01*
X180257277Y-111350678D01*
X180199641Y-111211532D01*
X180107955Y-111092045D01*
X179988468Y-111000359D01*
X179988464Y-111000357D01*
X179849325Y-110942724D01*
X179849323Y-110942723D01*
X179849322Y-110942723D01*
X179774660Y-110932893D01*
X179700001Y-110923064D01*
X179699999Y-110923064D01*
X179550678Y-110942723D01*
X179550674Y-110942724D01*
X179411535Y-111000357D01*
X179411532Y-111000358D01*
X179411532Y-111000359D01*
X179362875Y-111037695D01*
X179292045Y-111092045D01*
X179200357Y-111211535D01*
X179142724Y-111350674D01*
X179142723Y-111350678D01*
X179123064Y-111499999D01*
X179123064Y-111500000D01*
X171406035Y-111500000D01*
X170106035Y-110200000D01*
X187823064Y-110200000D01*
X187842723Y-110349322D01*
X187900359Y-110488468D01*
X187992045Y-110607955D01*
X188111532Y-110699641D01*
X188250678Y-110757277D01*
X188382627Y-110774648D01*
X188399999Y-110776936D01*
X188400000Y-110776936D01*
X188400001Y-110776936D01*
X188415562Y-110774887D01*
X188549322Y-110757277D01*
X188688468Y-110699641D01*
X188807955Y-110607955D01*
X188899641Y-110488468D01*
X188957277Y-110349322D01*
X188976936Y-110200000D01*
X188957277Y-110050678D01*
X188899641Y-109911532D01*
X188807955Y-109792045D01*
X188688468Y-109700359D01*
X188688464Y-109700357D01*
X188549325Y-109642724D01*
X188549323Y-109642723D01*
X188549322Y-109642723D01*
X188474661Y-109632893D01*
X188400001Y-109623064D01*
X188399999Y-109623064D01*
X188250678Y-109642723D01*
X188250674Y-109642724D01*
X188111535Y-109700357D01*
X187992045Y-109792045D01*
X187900357Y-109911535D01*
X187842724Y-110050674D01*
X187842723Y-110050678D01*
X187823064Y-110200000D01*
X170106035Y-110200000D01*
X169106035Y-109200000D01*
X179123064Y-109200000D01*
X179142723Y-109349321D01*
X179142724Y-109349325D01*
X179165804Y-109405046D01*
X179200359Y-109488468D01*
X179292045Y-109607955D01*
X179411532Y-109699641D01*
X179550678Y-109757277D01*
X179682627Y-109774648D01*
X179699999Y-109776936D01*
X179700000Y-109776936D01*
X179700001Y-109776936D01*
X179715562Y-109774887D01*
X179849322Y-109757277D01*
X179988468Y-109699641D01*
X180107955Y-109607955D01*
X180199641Y-109488468D01*
X180257277Y-109349322D01*
X180276936Y-109200000D01*
X180257277Y-109050678D01*
X180199641Y-108911532D01*
X180107955Y-108792045D01*
X179988468Y-108700359D01*
X179988464Y-108700357D01*
X179849325Y-108642724D01*
X179849323Y-108642723D01*
X179849322Y-108642723D01*
X179774660Y-108632893D01*
X179700001Y-108623064D01*
X179699999Y-108623064D01*
X179550678Y-108642723D01*
X179550674Y-108642724D01*
X179411535Y-108700357D01*
X179411532Y-108700358D01*
X179411532Y-108700359D01*
X179292045Y-108792045D01*
X179204092Y-108906668D01*
X179200357Y-108911535D01*
X179142724Y-109050674D01*
X179142723Y-109050678D01*
X179123064Y-109199999D01*
X179123064Y-109200000D01*
X169106035Y-109200000D01*
X168156041Y-108250006D01*
X194620288Y-108250006D01*
X194639103Y-108477085D01*
X194639105Y-108477093D01*
X194695045Y-108697993D01*
X194786577Y-108906664D01*
X194786579Y-108906668D01*
X194866874Y-109029570D01*
X195244890Y-108651554D01*
X195306213Y-108618069D01*
X195375904Y-108623053D01*
X195425386Y-108657007D01*
X195532404Y-108777805D01*
X195532406Y-108777807D01*
X195553034Y-108792045D01*
X195583501Y-108813075D01*
X195583503Y-108813076D01*
X195627493Y-108867358D01*
X195635153Y-108936807D01*
X195604050Y-108999372D01*
X195600744Y-109002807D01*
X195219015Y-109384535D01*
X195219016Y-109384537D01*
X195245366Y-109405046D01*
X195245372Y-109405050D01*
X195445769Y-109513499D01*
X195445780Y-109513504D01*
X195661298Y-109587492D01*
X195886065Y-109625000D01*
X196113935Y-109625000D01*
X196338701Y-109587492D01*
X196554219Y-109513504D01*
X196554230Y-109513499D01*
X196754633Y-109405047D01*
X196780982Y-109384537D01*
X196780982Y-109384536D01*
X196399254Y-109002807D01*
X196365769Y-108941484D01*
X196370753Y-108871792D01*
X196412625Y-108815859D01*
X196416460Y-108813100D01*
X196467595Y-108777806D01*
X196574615Y-108657005D01*
X196633801Y-108619881D01*
X196703666Y-108620649D01*
X196755108Y-108651554D01*
X197133124Y-109029571D01*
X197213420Y-108906669D01*
X197304954Y-108697993D01*
X197360894Y-108477093D01*
X197360896Y-108477085D01*
X197379712Y-108250006D01*
X197379712Y-108249993D01*
X197360896Y-108022914D01*
X197360894Y-108022906D01*
X197304954Y-107802006D01*
X197213420Y-107593330D01*
X197133124Y-107470427D01*
X196755108Y-107848444D01*
X196693785Y-107881929D01*
X196624093Y-107876945D01*
X196574612Y-107842990D01*
X196467599Y-107722198D01*
X196467597Y-107722196D01*
X196467595Y-107722194D01*
X196429561Y-107695941D01*
X196416495Y-107686922D01*
X196372505Y-107632639D01*
X196364845Y-107563190D01*
X196395949Y-107500625D01*
X196399254Y-107497191D01*
X196780983Y-107115461D01*
X196754632Y-107094952D01*
X196754627Y-107094949D01*
X196554230Y-106986500D01*
X196554219Y-106986495D01*
X196338701Y-106912507D01*
X196113935Y-106875000D01*
X195886065Y-106875000D01*
X195661298Y-106912507D01*
X195445780Y-106986495D01*
X195445769Y-106986500D01*
X195245373Y-107094948D01*
X195219016Y-107115462D01*
X195600745Y-107497192D01*
X195634230Y-107558515D01*
X195629246Y-107628207D01*
X195587374Y-107684140D01*
X195583504Y-107686923D01*
X195532407Y-107722192D01*
X195532404Y-107722194D01*
X195425387Y-107842992D01*
X195366197Y-107880118D01*
X195296332Y-107879350D01*
X195244891Y-107848445D01*
X194866874Y-107470428D01*
X194786578Y-107593333D01*
X194786577Y-107593335D01*
X194695045Y-107802006D01*
X194639105Y-108022906D01*
X194639103Y-108022914D01*
X194620288Y-108249993D01*
X194620288Y-108250006D01*
X168156041Y-108250006D01*
X167552719Y-107646684D01*
X167519234Y-107585361D01*
X167516400Y-107559003D01*
X167516400Y-106900000D01*
X179274763Y-106900000D01*
X179294012Y-107033888D01*
X179294013Y-107033893D01*
X179331265Y-107115461D01*
X179350205Y-107156933D01*
X179350208Y-107156936D01*
X179350209Y-107156938D01*
X179398118Y-107212228D01*
X179438786Y-107259160D01*
X179552579Y-107332291D01*
X179617473Y-107351345D01*
X179682366Y-107370400D01*
X179682367Y-107370400D01*
X179817633Y-107370400D01*
X179947421Y-107332291D01*
X180061214Y-107259160D01*
X180149795Y-107156933D01*
X180205987Y-107033890D01*
X180225237Y-106900000D01*
X180205987Y-106766110D01*
X180205986Y-106766109D01*
X180205986Y-106766106D01*
X180177891Y-106704588D01*
X180149795Y-106643067D01*
X180144107Y-106636503D01*
X180061216Y-106540842D01*
X180061211Y-106540838D01*
X180003562Y-106503789D01*
X179947421Y-106467709D01*
X179947420Y-106467708D01*
X179947419Y-106467708D01*
X179817634Y-106429600D01*
X179817633Y-106429600D01*
X179682367Y-106429600D01*
X179682366Y-106429600D01*
X179552580Y-106467708D01*
X179438788Y-106540838D01*
X179438783Y-106540842D01*
X179350209Y-106643061D01*
X179350203Y-106643071D01*
X179294013Y-106766106D01*
X179294012Y-106766111D01*
X179274763Y-106900000D01*
X167516400Y-106900000D01*
X167516400Y-105587802D01*
X167536085Y-105520763D01*
X167573359Y-105483487D01*
X167611214Y-105459160D01*
X167699795Y-105356933D01*
X167755987Y-105233890D01*
X167775237Y-105100000D01*
X167755987Y-104966110D01*
X167755986Y-104966109D01*
X167755986Y-104966106D01*
X167727891Y-104904588D01*
X167699795Y-104843067D01*
X167699790Y-104843061D01*
X167619151Y-104749999D01*
X194992649Y-104749999D01*
X195012004Y-104946522D01*
X195069330Y-105135501D01*
X195162414Y-105309648D01*
X195162419Y-105309655D01*
X195287694Y-105462305D01*
X195393921Y-105549482D01*
X195440346Y-105587582D01*
X195440349Y-105587583D01*
X195440351Y-105587585D01*
X195614498Y-105680669D01*
X195614500Y-105680669D01*
X195614503Y-105680671D01*
X195803476Y-105737995D01*
X195803475Y-105737995D01*
X195821095Y-105739730D01*
X196000000Y-105757351D01*
X196196524Y-105737995D01*
X196385497Y-105680671D01*
X196559654Y-105587582D01*
X196712305Y-105462305D01*
X196837582Y-105309654D01*
X196930671Y-105135497D01*
X196987995Y-104946524D01*
X197007351Y-104750000D01*
X196987995Y-104553476D01*
X196930671Y-104364503D01*
X196930669Y-104364500D01*
X196930669Y-104364498D01*
X196837585Y-104190351D01*
X196837583Y-104190349D01*
X196837582Y-104190346D01*
X196799482Y-104143921D01*
X196712305Y-104037694D01*
X196582866Y-103931467D01*
X196559654Y-103912418D01*
X196559652Y-103912417D01*
X196559648Y-103912414D01*
X196385501Y-103819330D01*
X196288746Y-103789980D01*
X196196524Y-103762005D01*
X196196522Y-103762004D01*
X196196524Y-103762004D01*
X196017619Y-103744384D01*
X196000000Y-103742649D01*
X195999999Y-103742649D01*
X195803477Y-103762004D01*
X195614498Y-103819330D01*
X195440351Y-103912414D01*
X195440344Y-103912419D01*
X195287694Y-104037694D01*
X195162419Y-104190344D01*
X195162414Y-104190351D01*
X195069330Y-104364498D01*
X195012004Y-104553477D01*
X194992649Y-104749999D01*
X167619151Y-104749999D01*
X167611216Y-104740842D01*
X167611211Y-104740838D01*
X167497419Y-104667708D01*
X167367634Y-104629600D01*
X167367633Y-104629600D01*
X167232367Y-104629600D01*
X167232366Y-104629600D01*
X167102580Y-104667708D01*
X166988788Y-104740838D01*
X166988783Y-104740842D01*
X166900209Y-104843061D01*
X166900203Y-104843071D01*
X166844013Y-104966106D01*
X166844012Y-104966111D01*
X166824763Y-105099999D01*
X142500500Y-105099999D01*
X142500500Y-103555300D01*
X147669364Y-103555300D01*
X147726567Y-103768786D01*
X147726570Y-103768792D01*
X147826399Y-103982878D01*
X147961894Y-104176382D01*
X148128917Y-104343405D01*
X148322421Y-104478900D01*
X148536507Y-104578729D01*
X148536516Y-104578733D01*
X148750000Y-104635934D01*
X148750000Y-103917601D01*
X148769685Y-103850562D01*
X148822489Y-103804807D01*
X148891647Y-103794863D01*
X148964237Y-103805300D01*
X148964238Y-103805300D01*
X149035762Y-103805300D01*
X149035763Y-103805300D01*
X149108353Y-103794863D01*
X149177512Y-103804807D01*
X149230315Y-103850562D01*
X149250000Y-103917601D01*
X149250000Y-104635933D01*
X149463483Y-104578733D01*
X149463492Y-104578729D01*
X149677578Y-104478900D01*
X149871082Y-104343405D01*
X150038105Y-104176382D01*
X150173600Y-103982878D01*
X150273429Y-103768792D01*
X150273432Y-103768786D01*
X150330636Y-103555300D01*
X149613347Y-103555300D01*
X149546308Y-103535615D01*
X149500553Y-103482811D01*
X149490609Y-103413653D01*
X149494369Y-103396367D01*
X149500000Y-103377188D01*
X149500000Y-103233411D01*
X149494369Y-103214233D01*
X149494370Y-103144364D01*
X149522882Y-103100000D01*
X179178064Y-103100000D01*
X179197723Y-103249321D01*
X179197724Y-103249325D01*
X179250686Y-103377188D01*
X179255359Y-103388468D01*
X179347045Y-103507955D01*
X179466532Y-103599641D01*
X179605678Y-103657277D01*
X179737627Y-103674648D01*
X179754999Y-103676936D01*
X179755000Y-103676936D01*
X179755001Y-103676936D01*
X179770562Y-103674887D01*
X179904322Y-103657277D01*
X180043468Y-103599641D01*
X180162955Y-103507955D01*
X180254641Y-103388468D01*
X180312277Y-103249322D01*
X180331936Y-103100000D01*
X180312277Y-102950678D01*
X180254641Y-102811532D01*
X180162955Y-102692045D01*
X180043468Y-102600359D01*
X180043464Y-102600357D01*
X179904325Y-102542724D01*
X179904323Y-102542723D01*
X179904322Y-102542723D01*
X179829661Y-102532893D01*
X179755001Y-102523064D01*
X179754999Y-102523064D01*
X179605678Y-102542723D01*
X179605674Y-102542724D01*
X179466535Y-102600357D01*
X179466532Y-102600358D01*
X179466532Y-102600359D01*
X179430875Y-102627720D01*
X179347045Y-102692045D01*
X179255357Y-102811535D01*
X179197724Y-102950674D01*
X179197723Y-102950678D01*
X179178064Y-103099999D01*
X179178064Y-103100000D01*
X149522882Y-103100000D01*
X149532145Y-103085586D01*
X149595701Y-103056562D01*
X149613347Y-103055300D01*
X150330636Y-103055300D01*
X150330635Y-103055299D01*
X150273432Y-102841813D01*
X150273429Y-102841807D01*
X150173600Y-102627722D01*
X150173599Y-102627720D01*
X150038113Y-102434226D01*
X150038108Y-102434220D01*
X149871082Y-102267194D01*
X149677578Y-102131699D01*
X149463492Y-102031870D01*
X149463483Y-102031866D01*
X149344557Y-102000000D01*
X187623064Y-102000000D01*
X187642723Y-102149321D01*
X187642724Y-102149325D01*
X187691545Y-102267191D01*
X187700359Y-102288468D01*
X187792045Y-102407955D01*
X187911532Y-102499641D01*
X188050678Y-102557277D01*
X188182627Y-102574648D01*
X188199999Y-102576936D01*
X188200000Y-102576936D01*
X188200001Y-102576936D01*
X188215562Y-102574887D01*
X188349322Y-102557277D01*
X188488468Y-102499641D01*
X188607955Y-102407955D01*
X188699641Y-102288468D01*
X188757277Y-102149322D01*
X188776936Y-102000000D01*
X188757277Y-101850678D01*
X188699641Y-101711532D01*
X188607955Y-101592045D01*
X188488468Y-101500359D01*
X188488464Y-101500357D01*
X188349325Y-101442724D01*
X188349323Y-101442723D01*
X188349322Y-101442723D01*
X188274661Y-101432893D01*
X188200001Y-101423064D01*
X188199999Y-101423064D01*
X188050678Y-101442723D01*
X188050674Y-101442724D01*
X187911535Y-101500357D01*
X187911532Y-101500358D01*
X187911532Y-101500359D01*
X187792045Y-101592045D01*
X187730109Y-101672762D01*
X187700357Y-101711535D01*
X187642724Y-101850674D01*
X187642723Y-101850678D01*
X187623064Y-101999999D01*
X187623064Y-102000000D01*
X149344557Y-102000000D01*
X149235326Y-101970732D01*
X149235318Y-101970731D01*
X149221242Y-101969499D01*
X149156175Y-101944043D01*
X149115199Y-101887451D01*
X149111323Y-101817689D01*
X149145780Y-101756906D01*
X149196055Y-101727312D01*
X149375883Y-101672762D01*
X149545698Y-101581994D01*
X149694541Y-101459841D01*
X149816694Y-101310998D01*
X149907462Y-101141183D01*
X149963357Y-100956924D01*
X149963517Y-100955300D01*
X156874763Y-100955300D01*
X156894012Y-101089188D01*
X156894013Y-101089193D01*
X156939350Y-101188464D01*
X156950205Y-101212233D01*
X156950208Y-101212236D01*
X156950209Y-101212238D01*
X156982935Y-101250006D01*
X157038786Y-101314460D01*
X157152579Y-101387591D01*
X157217472Y-101406645D01*
X157282366Y-101425700D01*
X157282367Y-101425700D01*
X157417633Y-101425700D01*
X157547421Y-101387591D01*
X157661214Y-101314460D01*
X157749795Y-101212233D01*
X157805987Y-101089190D01*
X157825237Y-100955300D01*
X157817286Y-100900000D01*
X179178064Y-100900000D01*
X179197723Y-101049322D01*
X179255359Y-101188468D01*
X179347045Y-101307955D01*
X179466532Y-101399641D01*
X179605678Y-101457277D01*
X179737627Y-101474648D01*
X179754999Y-101476936D01*
X179755000Y-101476936D01*
X179755001Y-101476936D01*
X179770562Y-101474887D01*
X179904322Y-101457277D01*
X180043468Y-101399641D01*
X180162955Y-101307955D01*
X180207421Y-101250006D01*
X194620288Y-101250006D01*
X194639103Y-101477085D01*
X194639105Y-101477093D01*
X194695045Y-101697993D01*
X194786577Y-101906664D01*
X194786579Y-101906668D01*
X194866874Y-102029570D01*
X195244890Y-101651554D01*
X195306213Y-101618069D01*
X195375904Y-101623053D01*
X195425386Y-101657007D01*
X195532404Y-101777805D01*
X195532406Y-101777807D01*
X195577869Y-101809187D01*
X195583501Y-101813075D01*
X195583503Y-101813076D01*
X195627493Y-101867358D01*
X195635153Y-101936807D01*
X195604050Y-101999372D01*
X195600744Y-102002807D01*
X195219015Y-102384535D01*
X195219016Y-102384537D01*
X195245366Y-102405046D01*
X195245372Y-102405050D01*
X195445769Y-102513499D01*
X195445780Y-102513504D01*
X195661298Y-102587492D01*
X195886065Y-102625000D01*
X196113935Y-102625000D01*
X196338701Y-102587492D01*
X196554219Y-102513504D01*
X196554230Y-102513499D01*
X196754633Y-102405047D01*
X196780982Y-102384537D01*
X196780982Y-102384536D01*
X196399254Y-102002807D01*
X196365769Y-101941484D01*
X196370753Y-101871792D01*
X196412625Y-101815859D01*
X196416460Y-101813100D01*
X196467595Y-101777806D01*
X196574615Y-101657005D01*
X196633801Y-101619881D01*
X196703666Y-101620649D01*
X196755108Y-101651554D01*
X197133124Y-102029571D01*
X197213420Y-101906669D01*
X197304954Y-101697993D01*
X197360894Y-101477093D01*
X197360896Y-101477085D01*
X197379712Y-101250006D01*
X197379712Y-101249993D01*
X197360896Y-101022914D01*
X197360894Y-101022906D01*
X197304954Y-100802006D01*
X197213420Y-100593330D01*
X197133124Y-100470427D01*
X196755108Y-100848444D01*
X196693785Y-100881929D01*
X196624093Y-100876945D01*
X196574612Y-100842990D01*
X196467599Y-100722198D01*
X196467597Y-100722196D01*
X196467595Y-100722194D01*
X196462047Y-100718365D01*
X196416495Y-100686922D01*
X196372505Y-100632639D01*
X196364845Y-100563190D01*
X196395949Y-100500625D01*
X196399254Y-100497191D01*
X196780983Y-100115461D01*
X196754632Y-100094952D01*
X196754627Y-100094949D01*
X196554230Y-99986500D01*
X196554219Y-99986495D01*
X196338701Y-99912507D01*
X196113935Y-99875000D01*
X195886065Y-99875000D01*
X195661298Y-99912507D01*
X195445780Y-99986495D01*
X195445769Y-99986500D01*
X195245373Y-100094948D01*
X195219016Y-100115462D01*
X195600745Y-100497192D01*
X195634230Y-100558515D01*
X195629246Y-100628207D01*
X195587374Y-100684140D01*
X195583504Y-100686923D01*
X195532407Y-100722192D01*
X195532404Y-100722194D01*
X195425387Y-100842992D01*
X195366197Y-100880118D01*
X195296332Y-100879350D01*
X195244891Y-100848445D01*
X194866874Y-100470428D01*
X194786578Y-100593333D01*
X194786577Y-100593335D01*
X194695045Y-100802006D01*
X194639105Y-101022906D01*
X194639103Y-101022914D01*
X194620288Y-101249993D01*
X194620288Y-101250006D01*
X180207421Y-101250006D01*
X180254641Y-101188468D01*
X180312277Y-101049322D01*
X180331936Y-100900000D01*
X180312277Y-100750678D01*
X180254641Y-100611532D01*
X180162955Y-100492045D01*
X180043468Y-100400359D01*
X180043464Y-100400357D01*
X179904325Y-100342724D01*
X179904323Y-100342723D01*
X179904322Y-100342723D01*
X179829661Y-100332893D01*
X179755001Y-100323064D01*
X179754999Y-100323064D01*
X179605678Y-100342723D01*
X179605674Y-100342724D01*
X179466535Y-100400357D01*
X179466532Y-100400358D01*
X179466532Y-100400359D01*
X179347045Y-100492045D01*
X179267172Y-100596138D01*
X179255357Y-100611535D01*
X179197724Y-100750674D01*
X179197723Y-100750678D01*
X179180682Y-100880118D01*
X179178064Y-100900000D01*
X157817286Y-100900000D01*
X157805987Y-100821410D01*
X157805986Y-100821409D01*
X157805986Y-100821406D01*
X157760676Y-100722194D01*
X157749795Y-100698367D01*
X157692841Y-100632639D01*
X157661216Y-100596142D01*
X157661211Y-100596138D01*
X157547419Y-100523008D01*
X157417634Y-100484900D01*
X157417633Y-100484900D01*
X157282367Y-100484900D01*
X157282366Y-100484900D01*
X157152580Y-100523008D01*
X157038788Y-100596138D01*
X157038783Y-100596142D01*
X156950209Y-100698361D01*
X156950203Y-100698371D01*
X156894013Y-100821406D01*
X156894012Y-100821411D01*
X156874763Y-100955300D01*
X149963517Y-100955300D01*
X149982230Y-100765300D01*
X149963357Y-100573676D01*
X149907462Y-100389417D01*
X149816694Y-100219602D01*
X149816693Y-100219600D01*
X149694541Y-100070758D01*
X149545699Y-99948606D01*
X149545692Y-99948602D01*
X149375884Y-99857838D01*
X149191626Y-99801943D01*
X149000000Y-99783070D01*
X148808373Y-99801943D01*
X148624115Y-99857838D01*
X148454307Y-99948602D01*
X148454300Y-99948606D01*
X148305458Y-100070758D01*
X148183306Y-100219600D01*
X148183302Y-100219607D01*
X148092538Y-100389415D01*
X148036643Y-100573673D01*
X148017770Y-100765300D01*
X148036643Y-100956926D01*
X148092538Y-101141184D01*
X148183302Y-101310992D01*
X148183306Y-101310999D01*
X148305458Y-101459841D01*
X148454300Y-101581993D01*
X148454307Y-101581997D01*
X148624112Y-101672760D01*
X148624114Y-101672760D01*
X148624117Y-101672762D01*
X148803941Y-101727311D01*
X148862378Y-101765608D01*
X148890834Y-101829420D01*
X148880274Y-101898487D01*
X148834050Y-101950881D01*
X148778757Y-101969499D01*
X148764681Y-101970731D01*
X148764673Y-101970732D01*
X148536516Y-102031866D01*
X148536507Y-102031870D01*
X148322422Y-102131699D01*
X148322420Y-102131700D01*
X148128926Y-102267186D01*
X148128920Y-102267191D01*
X147961891Y-102434220D01*
X147961886Y-102434226D01*
X147826400Y-102627720D01*
X147826399Y-102627722D01*
X147726570Y-102841807D01*
X147726567Y-102841813D01*
X147669364Y-103055299D01*
X147669364Y-103055300D01*
X148386653Y-103055300D01*
X148453692Y-103074985D01*
X148499447Y-103127789D01*
X148509391Y-103196947D01*
X148505631Y-103214233D01*
X148500000Y-103233411D01*
X148500000Y-103377188D01*
X148505631Y-103396367D01*
X148505630Y-103466236D01*
X148467855Y-103525014D01*
X148404299Y-103554038D01*
X148386653Y-103555300D01*
X147669364Y-103555300D01*
X142500500Y-103555300D01*
X142500500Y-99087858D01*
X148022500Y-99087858D01*
X148029898Y-99125049D01*
X148058077Y-99167222D01*
X148100250Y-99195401D01*
X148100252Y-99195402D01*
X148128205Y-99200962D01*
X148137441Y-99202800D01*
X148137442Y-99202800D01*
X149862559Y-99202800D01*
X149869957Y-99201328D01*
X149899748Y-99195402D01*
X149941922Y-99167222D01*
X149970102Y-99125048D01*
X149977500Y-99087858D01*
X149977500Y-98499999D01*
X179274763Y-98499999D01*
X179294012Y-98633888D01*
X179294013Y-98633893D01*
X179340571Y-98735838D01*
X179350205Y-98756933D01*
X179438786Y-98859160D01*
X179552579Y-98932291D01*
X179617473Y-98951345D01*
X179682366Y-98970400D01*
X179682367Y-98970400D01*
X179817633Y-98970400D01*
X179947421Y-98932291D01*
X180061214Y-98859160D01*
X180149795Y-98756933D01*
X180205987Y-98633890D01*
X180225237Y-98500000D01*
X180205987Y-98366110D01*
X180205986Y-98366109D01*
X180205986Y-98366106D01*
X180177891Y-98304588D01*
X180149795Y-98243067D01*
X180061214Y-98140840D01*
X180052906Y-98135501D01*
X179947419Y-98067708D01*
X179817634Y-98029600D01*
X179817633Y-98029600D01*
X179682367Y-98029600D01*
X179682366Y-98029600D01*
X179552580Y-98067708D01*
X179438788Y-98140838D01*
X179438783Y-98140842D01*
X179350209Y-98243061D01*
X179350203Y-98243071D01*
X179294013Y-98366106D01*
X179294012Y-98366111D01*
X179274763Y-98499999D01*
X149977500Y-98499999D01*
X149977500Y-97750000D01*
X194992649Y-97750000D01*
X195012004Y-97946522D01*
X195069330Y-98135501D01*
X195162414Y-98309648D01*
X195162419Y-98309655D01*
X195287694Y-98462305D01*
X195393921Y-98549482D01*
X195440346Y-98587582D01*
X195440349Y-98587583D01*
X195440351Y-98587585D01*
X195614498Y-98680669D01*
X195614500Y-98680669D01*
X195614503Y-98680671D01*
X195803476Y-98737995D01*
X195803475Y-98737995D01*
X195821095Y-98739730D01*
X196000000Y-98757351D01*
X196196524Y-98737995D01*
X196385497Y-98680671D01*
X196559654Y-98587582D01*
X196712305Y-98462305D01*
X196837582Y-98309654D01*
X196930671Y-98135497D01*
X196987995Y-97946524D01*
X197007351Y-97750000D01*
X196987995Y-97553476D01*
X196930671Y-97364503D01*
X196930669Y-97364500D01*
X196930669Y-97364498D01*
X196837585Y-97190351D01*
X196837583Y-97190349D01*
X196837582Y-97190346D01*
X196799482Y-97143921D01*
X196712305Y-97037694D01*
X196559655Y-96912419D01*
X196559648Y-96912414D01*
X196385501Y-96819330D01*
X196291010Y-96790666D01*
X196196524Y-96762005D01*
X196196522Y-96762004D01*
X196196524Y-96762004D01*
X196000000Y-96742649D01*
X195803477Y-96762004D01*
X195614498Y-96819330D01*
X195440351Y-96912414D01*
X195440344Y-96912419D01*
X195287694Y-97037694D01*
X195162419Y-97190344D01*
X195162414Y-97190351D01*
X195069330Y-97364498D01*
X195012004Y-97553477D01*
X194992649Y-97750000D01*
X149977500Y-97750000D01*
X149977500Y-97362742D01*
X149970102Y-97325552D01*
X149970101Y-97325550D01*
X149941922Y-97283377D01*
X149899749Y-97255198D01*
X149862559Y-97247800D01*
X149862558Y-97247800D01*
X148137442Y-97247800D01*
X148137441Y-97247800D01*
X148100250Y-97255198D01*
X148058077Y-97283377D01*
X148029898Y-97325550D01*
X148022500Y-97362741D01*
X148022500Y-99087858D01*
X142500500Y-99087858D01*
X142500500Y-94740000D01*
X179232213Y-94740000D01*
X179237190Y-94777807D01*
X179251872Y-94889321D01*
X179251873Y-94889325D01*
X179277005Y-94950000D01*
X179309508Y-95028468D01*
X179401194Y-95147955D01*
X179520681Y-95239641D01*
X179659827Y-95297277D01*
X179791776Y-95314648D01*
X179809148Y-95316936D01*
X179809149Y-95316936D01*
X179809150Y-95316936D01*
X179824711Y-95314887D01*
X179958471Y-95297277D01*
X180097617Y-95239641D01*
X180217104Y-95147955D01*
X180308790Y-95028468D01*
X180366426Y-94889322D01*
X180386085Y-94740000D01*
X180366426Y-94590678D01*
X180308790Y-94451532D01*
X180217104Y-94332045D01*
X180110189Y-94250006D01*
X194620288Y-94250006D01*
X194639103Y-94477085D01*
X194639105Y-94477093D01*
X194695045Y-94697993D01*
X194786577Y-94906664D01*
X194786579Y-94906668D01*
X194866874Y-95029570D01*
X195244890Y-94651554D01*
X195306213Y-94618069D01*
X195375904Y-94623053D01*
X195425386Y-94657007D01*
X195532404Y-94777805D01*
X195532406Y-94777807D01*
X195577869Y-94809187D01*
X195583501Y-94813075D01*
X195583503Y-94813076D01*
X195627493Y-94867358D01*
X195635153Y-94936807D01*
X195604050Y-94999372D01*
X195600744Y-95002807D01*
X195219015Y-95384535D01*
X195219016Y-95384537D01*
X195245366Y-95405046D01*
X195245372Y-95405050D01*
X195445769Y-95513499D01*
X195445780Y-95513504D01*
X195661298Y-95587492D01*
X195886065Y-95625000D01*
X196113935Y-95625000D01*
X196338701Y-95587492D01*
X196554219Y-95513504D01*
X196554230Y-95513499D01*
X196754633Y-95405047D01*
X196780982Y-95384537D01*
X196780982Y-95384536D01*
X196399254Y-95002807D01*
X196365769Y-94941484D01*
X196370753Y-94871792D01*
X196412625Y-94815859D01*
X196416460Y-94813100D01*
X196467595Y-94777806D01*
X196574615Y-94657005D01*
X196633801Y-94619881D01*
X196703666Y-94620649D01*
X196755108Y-94651554D01*
X197133124Y-95029571D01*
X197213420Y-94906669D01*
X197304954Y-94697993D01*
X197360894Y-94477093D01*
X197360896Y-94477085D01*
X197379712Y-94250006D01*
X197379712Y-94249993D01*
X197360896Y-94022914D01*
X197360894Y-94022906D01*
X197304954Y-93802006D01*
X197213420Y-93593330D01*
X197133124Y-93470427D01*
X196755108Y-93848444D01*
X196693785Y-93881929D01*
X196624093Y-93876945D01*
X196574612Y-93842990D01*
X196467599Y-93722198D01*
X196467597Y-93722196D01*
X196467595Y-93722194D01*
X196416496Y-93686923D01*
X196416495Y-93686922D01*
X196372505Y-93632639D01*
X196364845Y-93563190D01*
X196395949Y-93500625D01*
X196399254Y-93497191D01*
X196780983Y-93115461D01*
X196754632Y-93094952D01*
X196754627Y-93094949D01*
X196554230Y-92986500D01*
X196554219Y-92986495D01*
X196338701Y-92912507D01*
X196113935Y-92875000D01*
X195886065Y-92875000D01*
X195661298Y-92912507D01*
X195445780Y-92986495D01*
X195445769Y-92986500D01*
X195245373Y-93094948D01*
X195219016Y-93115462D01*
X195600745Y-93497192D01*
X195634230Y-93558515D01*
X195629246Y-93628207D01*
X195587374Y-93684140D01*
X195583504Y-93686923D01*
X195532407Y-93722192D01*
X195532404Y-93722194D01*
X195425387Y-93842992D01*
X195366197Y-93880118D01*
X195296332Y-93879350D01*
X195244891Y-93848445D01*
X194866874Y-93470428D01*
X194786578Y-93593333D01*
X194786577Y-93593335D01*
X194695045Y-93802006D01*
X194639105Y-94022906D01*
X194639103Y-94022914D01*
X194620288Y-94249993D01*
X194620288Y-94250006D01*
X180110189Y-94250006D01*
X180097617Y-94240359D01*
X180097613Y-94240357D01*
X179958474Y-94182724D01*
X179958472Y-94182723D01*
X179958471Y-94182723D01*
X179883810Y-94172893D01*
X179809150Y-94163064D01*
X179809148Y-94163064D01*
X179659827Y-94182723D01*
X179659823Y-94182724D01*
X179520684Y-94240357D01*
X179401194Y-94332045D01*
X179309506Y-94451535D01*
X179251873Y-94590674D01*
X179251872Y-94590678D01*
X179232213Y-94740000D01*
X142500500Y-94740000D01*
X142500500Y-93500000D01*
X187523064Y-93500000D01*
X187542723Y-93649321D01*
X187542724Y-93649325D01*
X187572906Y-93722192D01*
X187600359Y-93788468D01*
X187692045Y-93907955D01*
X187811532Y-93999641D01*
X187950678Y-94057277D01*
X188082627Y-94074648D01*
X188099999Y-94076936D01*
X188100000Y-94076936D01*
X188100001Y-94076936D01*
X188115562Y-94074887D01*
X188249322Y-94057277D01*
X188388468Y-93999641D01*
X188507955Y-93907955D01*
X188599641Y-93788468D01*
X188657277Y-93649322D01*
X188676936Y-93500000D01*
X188657277Y-93350678D01*
X188599641Y-93211532D01*
X188507955Y-93092045D01*
X188388468Y-93000359D01*
X188388464Y-93000357D01*
X188249325Y-92942724D01*
X188249323Y-92942723D01*
X188249322Y-92942723D01*
X188141047Y-92928468D01*
X188100001Y-92923064D01*
X188099999Y-92923064D01*
X187950678Y-92942723D01*
X187950674Y-92942724D01*
X187811535Y-93000357D01*
X187811532Y-93000358D01*
X187811532Y-93000359D01*
X187692045Y-93092045D01*
X187611298Y-93197277D01*
X187600357Y-93211535D01*
X187542724Y-93350674D01*
X187542723Y-93350678D01*
X187523064Y-93499999D01*
X187523064Y-93500000D01*
X142500500Y-93500000D01*
X142500500Y-92499999D01*
X152774763Y-92499999D01*
X152794012Y-92633888D01*
X152794013Y-92633893D01*
X152831694Y-92716400D01*
X152850205Y-92756933D01*
X152850208Y-92756936D01*
X152850209Y-92756938D01*
X152878269Y-92789321D01*
X152938786Y-92859160D01*
X153052579Y-92932291D01*
X153088111Y-92942724D01*
X153182366Y-92970400D01*
X153182367Y-92970400D01*
X153317633Y-92970400D01*
X153447421Y-92932291D01*
X153561214Y-92859160D01*
X153621730Y-92789322D01*
X153647834Y-92759197D01*
X153706612Y-92721423D01*
X153741546Y-92716400D01*
X159258454Y-92716400D01*
X159325493Y-92736085D01*
X159352166Y-92759197D01*
X159438783Y-92859157D01*
X159438786Y-92859160D01*
X159552579Y-92932291D01*
X159588111Y-92942724D01*
X159682366Y-92970400D01*
X159682367Y-92970400D01*
X159817633Y-92970400D01*
X159947421Y-92932291D01*
X160061214Y-92859160D01*
X160149795Y-92756933D01*
X160203197Y-92640000D01*
X179232213Y-92640000D01*
X179247608Y-92756938D01*
X179251872Y-92789321D01*
X179251873Y-92789325D01*
X179307269Y-92923064D01*
X179309508Y-92928468D01*
X179401194Y-93047955D01*
X179520681Y-93139641D01*
X179659827Y-93197277D01*
X179791776Y-93214648D01*
X179809148Y-93216936D01*
X179809149Y-93216936D01*
X179809150Y-93216936D01*
X179824711Y-93214887D01*
X179958471Y-93197277D01*
X180097617Y-93139641D01*
X180217104Y-93047955D01*
X180308790Y-92928468D01*
X180366426Y-92789322D01*
X180386085Y-92640000D01*
X180366426Y-92490678D01*
X180308790Y-92351532D01*
X180217104Y-92232045D01*
X180097617Y-92140359D01*
X180097613Y-92140357D01*
X179958474Y-92082724D01*
X179958472Y-92082723D01*
X179958471Y-92082723D01*
X179844431Y-92067709D01*
X179809150Y-92063064D01*
X179809148Y-92063064D01*
X179659827Y-92082723D01*
X179659823Y-92082724D01*
X179520684Y-92140357D01*
X179520681Y-92140358D01*
X179520681Y-92140359D01*
X179401194Y-92232045D01*
X179392737Y-92243067D01*
X179309506Y-92351535D01*
X179251873Y-92490674D01*
X179251872Y-92490678D01*
X179232213Y-92640000D01*
X160203197Y-92640000D01*
X160205987Y-92633890D01*
X160225237Y-92500000D01*
X160205987Y-92366110D01*
X160205986Y-92366109D01*
X160205986Y-92366106D01*
X160166012Y-92278577D01*
X160149795Y-92243067D01*
X160147833Y-92240803D01*
X160061216Y-92140842D01*
X160061211Y-92140838D01*
X160038283Y-92126103D01*
X159947421Y-92067709D01*
X159947420Y-92067708D01*
X159947419Y-92067708D01*
X159817634Y-92029600D01*
X159817633Y-92029600D01*
X159682367Y-92029600D01*
X159682366Y-92029600D01*
X159552580Y-92067708D01*
X159438788Y-92140838D01*
X159438783Y-92140842D01*
X159352166Y-92240803D01*
X159293388Y-92278577D01*
X159258454Y-92283600D01*
X153741546Y-92283600D01*
X153674507Y-92263915D01*
X153647834Y-92240803D01*
X153561216Y-92140842D01*
X153561211Y-92140838D01*
X153538283Y-92126103D01*
X153447421Y-92067709D01*
X153447420Y-92067708D01*
X153447419Y-92067708D01*
X153317634Y-92029600D01*
X153317633Y-92029600D01*
X153182367Y-92029600D01*
X153182366Y-92029600D01*
X153052580Y-92067708D01*
X152938788Y-92140838D01*
X152938783Y-92140842D01*
X152850209Y-92243061D01*
X152850203Y-92243071D01*
X152794013Y-92366106D01*
X152794012Y-92366111D01*
X152774763Y-92499999D01*
X142500500Y-92499999D01*
X142500500Y-89630597D01*
X152524763Y-89630597D01*
X152544012Y-89764486D01*
X152544013Y-89764491D01*
X152575709Y-89833893D01*
X152600205Y-89887531D01*
X152600208Y-89887534D01*
X152600209Y-89887536D01*
X152688781Y-89989753D01*
X152688786Y-89989758D01*
X152802579Y-90062889D01*
X152867473Y-90081943D01*
X152932366Y-90100998D01*
X152932367Y-90100998D01*
X153067633Y-90100998D01*
X153197421Y-90062889D01*
X153311214Y-89989758D01*
X153337694Y-89959198D01*
X153396472Y-89921423D01*
X153431408Y-89916400D01*
X179275091Y-89916400D01*
X179342130Y-89936085D01*
X179387885Y-89988889D01*
X179397829Y-90058047D01*
X179368804Y-90121603D01*
X179350206Y-90143065D01*
X179350203Y-90143071D01*
X179294013Y-90266106D01*
X179294012Y-90266111D01*
X179274763Y-90400000D01*
X179294012Y-90533888D01*
X179294013Y-90533893D01*
X179340571Y-90635838D01*
X179350205Y-90656933D01*
X179350208Y-90656936D01*
X179350209Y-90656938D01*
X179430848Y-90750000D01*
X179438786Y-90759160D01*
X179552579Y-90832291D01*
X179617473Y-90851345D01*
X179682366Y-90870400D01*
X179682367Y-90870400D01*
X179817633Y-90870400D01*
X179947421Y-90832291D01*
X180061214Y-90759160D01*
X180069152Y-90749999D01*
X194992649Y-90749999D01*
X195012004Y-90946522D01*
X195069330Y-91135501D01*
X195162414Y-91309648D01*
X195162419Y-91309655D01*
X195287694Y-91462305D01*
X195393921Y-91549482D01*
X195440346Y-91587582D01*
X195440349Y-91587583D01*
X195440351Y-91587585D01*
X195614498Y-91680669D01*
X195614500Y-91680669D01*
X195614503Y-91680671D01*
X195803476Y-91737995D01*
X195803475Y-91737995D01*
X195821095Y-91739730D01*
X196000000Y-91757351D01*
X196196524Y-91737995D01*
X196385497Y-91680671D01*
X196559654Y-91587582D01*
X196712305Y-91462305D01*
X196837582Y-91309654D01*
X196930671Y-91135497D01*
X196987995Y-90946524D01*
X197007351Y-90750000D01*
X196987995Y-90553476D01*
X196930671Y-90364503D01*
X196930669Y-90364500D01*
X196930669Y-90364498D01*
X196837585Y-90190351D01*
X196837583Y-90190349D01*
X196837582Y-90190346D01*
X196781166Y-90121603D01*
X196712305Y-90037694D01*
X196559655Y-89912419D01*
X196559648Y-89912414D01*
X196385501Y-89819330D01*
X196204709Y-89764488D01*
X196196524Y-89762005D01*
X196196522Y-89762004D01*
X196196524Y-89762004D01*
X196000000Y-89742649D01*
X195803477Y-89762004D01*
X195614498Y-89819330D01*
X195440351Y-89912414D01*
X195440344Y-89912419D01*
X195287694Y-90037694D01*
X195162419Y-90190344D01*
X195162414Y-90190351D01*
X195069330Y-90364498D01*
X195012004Y-90553477D01*
X194992649Y-90749999D01*
X180069152Y-90749999D01*
X180149795Y-90656933D01*
X180205987Y-90533890D01*
X180225237Y-90400000D01*
X180205987Y-90266110D01*
X180205986Y-90266109D01*
X180205986Y-90266106D01*
X180171389Y-90190351D01*
X180149795Y-90143067D01*
X180131195Y-90121602D01*
X180102171Y-90058047D01*
X180112115Y-89988889D01*
X180157869Y-89936085D01*
X180224909Y-89916400D01*
X189408454Y-89916400D01*
X189475493Y-89936085D01*
X189502166Y-89959197D01*
X189588783Y-90059157D01*
X189588786Y-90059160D01*
X189702579Y-90132291D01*
X189767472Y-90151345D01*
X189832366Y-90170400D01*
X189832367Y-90170400D01*
X189967633Y-90170400D01*
X190097421Y-90132291D01*
X190211214Y-90059160D01*
X190299795Y-89956933D01*
X190355987Y-89833890D01*
X190375237Y-89700000D01*
X190355987Y-89566110D01*
X190355986Y-89566109D01*
X190355986Y-89566106D01*
X190327891Y-89504588D01*
X190299795Y-89443067D01*
X190239661Y-89373669D01*
X190211216Y-89340842D01*
X190211211Y-89340838D01*
X190188283Y-89326103D01*
X190097421Y-89267709D01*
X190097420Y-89267708D01*
X190097419Y-89267708D01*
X189967634Y-89229600D01*
X189967633Y-89229600D01*
X189832367Y-89229600D01*
X189832366Y-89229600D01*
X189702580Y-89267708D01*
X189588788Y-89340838D01*
X189588783Y-89340842D01*
X189502166Y-89440803D01*
X189443388Y-89478577D01*
X189408454Y-89483600D01*
X159303981Y-89483600D01*
X159236942Y-89463915D01*
X159191187Y-89411111D01*
X159181243Y-89341953D01*
X159210268Y-89278397D01*
X159269046Y-89240623D01*
X159269047Y-89240623D01*
X159297418Y-89232292D01*
X159297419Y-89232292D01*
X159301608Y-89229600D01*
X159411214Y-89159160D01*
X159499795Y-89056933D01*
X159555987Y-88933890D01*
X159575237Y-88800000D01*
X159562800Y-88713503D01*
X159572745Y-88644345D01*
X159597855Y-88608179D01*
X160956034Y-87250000D01*
X194992649Y-87250000D01*
X195012004Y-87446522D01*
X195069330Y-87635501D01*
X195162414Y-87809648D01*
X195162419Y-87809655D01*
X195287694Y-87962305D01*
X195393921Y-88049482D01*
X195440346Y-88087582D01*
X195440349Y-88087583D01*
X195440351Y-88087585D01*
X195614498Y-88180669D01*
X195614500Y-88180669D01*
X195614503Y-88180671D01*
X195803476Y-88237995D01*
X195803475Y-88237995D01*
X195821095Y-88239730D01*
X196000000Y-88257351D01*
X196196524Y-88237995D01*
X196385497Y-88180671D01*
X196559654Y-88087582D01*
X196712305Y-87962305D01*
X196837582Y-87809654D01*
X196930671Y-87635497D01*
X196987995Y-87446524D01*
X197007351Y-87250000D01*
X196987995Y-87053476D01*
X196930671Y-86864503D01*
X196930669Y-86864500D01*
X196930669Y-86864498D01*
X196837585Y-86690351D01*
X196837583Y-86690349D01*
X196837582Y-86690346D01*
X196799482Y-86643921D01*
X196712305Y-86537694D01*
X196559655Y-86412419D01*
X196559648Y-86412414D01*
X196385501Y-86319330D01*
X196291010Y-86290666D01*
X196196524Y-86262005D01*
X196196522Y-86262004D01*
X196196524Y-86262004D01*
X196000000Y-86242649D01*
X195803477Y-86262004D01*
X195614498Y-86319330D01*
X195440351Y-86412414D01*
X195440344Y-86412419D01*
X195287694Y-86537694D01*
X195162419Y-86690344D01*
X195162414Y-86690351D01*
X195069330Y-86864498D01*
X195012004Y-87053477D01*
X194992649Y-87250000D01*
X160956034Y-87250000D01*
X162836036Y-85369999D01*
X180998913Y-85369999D01*
X181018162Y-85503888D01*
X181018163Y-85503893D01*
X181064721Y-85605838D01*
X181074355Y-85626933D01*
X181162936Y-85729160D01*
X181276729Y-85802291D01*
X181341623Y-85821345D01*
X181406516Y-85840400D01*
X181406517Y-85840400D01*
X181541783Y-85840400D01*
X181671571Y-85802291D01*
X181785364Y-85729160D01*
X181873945Y-85626933D01*
X181930137Y-85503890D01*
X181949387Y-85370000D01*
X181930137Y-85236110D01*
X181930136Y-85236109D01*
X181930136Y-85236106D01*
X181902040Y-85174588D01*
X181873945Y-85113067D01*
X181799309Y-85026933D01*
X181785366Y-85010842D01*
X181785361Y-85010838D01*
X181671569Y-84937708D01*
X181541784Y-84899600D01*
X181541783Y-84899600D01*
X181406517Y-84899600D01*
X181406516Y-84899600D01*
X181276730Y-84937708D01*
X181162938Y-85010838D01*
X181162933Y-85010842D01*
X181074359Y-85113061D01*
X181074353Y-85113071D01*
X181018163Y-85236106D01*
X181018162Y-85236111D01*
X180998913Y-85369999D01*
X162836036Y-85369999D01*
X163436035Y-84770000D01*
X185498913Y-84770000D01*
X185518162Y-84903888D01*
X185518163Y-84903893D01*
X185564721Y-85005838D01*
X185574355Y-85026933D01*
X185574358Y-85026936D01*
X185574359Y-85026938D01*
X185648994Y-85113071D01*
X185662936Y-85129160D01*
X185776729Y-85202291D01*
X185841623Y-85221345D01*
X185906516Y-85240400D01*
X185906517Y-85240400D01*
X186041783Y-85240400D01*
X186171571Y-85202291D01*
X186285364Y-85129160D01*
X186373945Y-85026933D01*
X186417560Y-84931428D01*
X186430136Y-84903893D01*
X186430137Y-84903888D01*
X186449387Y-84770000D01*
X186430137Y-84636110D01*
X186430136Y-84636109D01*
X186430136Y-84636106D01*
X186381482Y-84529571D01*
X186373945Y-84513067D01*
X186319297Y-84450000D01*
X186285366Y-84410842D01*
X186285361Y-84410838D01*
X186262433Y-84396103D01*
X186171571Y-84337709D01*
X186171570Y-84337708D01*
X186171569Y-84337708D01*
X186041784Y-84299600D01*
X186041783Y-84299600D01*
X185906517Y-84299600D01*
X185906516Y-84299600D01*
X185776730Y-84337708D01*
X185662938Y-84410838D01*
X185662933Y-84410842D01*
X185574359Y-84513061D01*
X185574353Y-84513071D01*
X185518163Y-84636106D01*
X185518162Y-84636111D01*
X185498913Y-84770000D01*
X163436035Y-84770000D01*
X164456029Y-83750006D01*
X194620288Y-83750006D01*
X194639103Y-83977085D01*
X194639105Y-83977093D01*
X194695045Y-84197993D01*
X194786577Y-84406664D01*
X194786579Y-84406668D01*
X194866874Y-84529570D01*
X195244890Y-84151554D01*
X195306213Y-84118069D01*
X195375904Y-84123053D01*
X195425386Y-84157007D01*
X195532404Y-84277805D01*
X195532406Y-84277807D01*
X195563979Y-84299600D01*
X195583501Y-84313075D01*
X195583503Y-84313076D01*
X195627493Y-84367358D01*
X195635153Y-84436807D01*
X195604050Y-84499372D01*
X195600744Y-84502807D01*
X195219015Y-84884535D01*
X195219016Y-84884537D01*
X195245366Y-84905046D01*
X195245372Y-84905050D01*
X195445769Y-85013499D01*
X195445780Y-85013504D01*
X195661298Y-85087492D01*
X195886065Y-85125000D01*
X196113935Y-85125000D01*
X196338701Y-85087492D01*
X196554219Y-85013504D01*
X196554230Y-85013499D01*
X196754633Y-84905047D01*
X196780982Y-84884537D01*
X196780982Y-84884536D01*
X196399254Y-84502807D01*
X196365769Y-84441484D01*
X196370753Y-84371792D01*
X196412625Y-84315859D01*
X196416460Y-84313100D01*
X196467595Y-84277806D01*
X196574615Y-84157005D01*
X196633801Y-84119881D01*
X196703666Y-84120649D01*
X196755108Y-84151554D01*
X197133124Y-84529571D01*
X197213420Y-84406669D01*
X197304954Y-84197993D01*
X197360894Y-83977093D01*
X197360896Y-83977085D01*
X197379712Y-83750006D01*
X197379712Y-83749993D01*
X197360896Y-83522914D01*
X197360894Y-83522906D01*
X197304954Y-83302006D01*
X197213420Y-83093330D01*
X197133124Y-82970427D01*
X196755108Y-83348444D01*
X196693785Y-83381929D01*
X196624093Y-83376945D01*
X196574612Y-83342990D01*
X196467599Y-83222198D01*
X196467597Y-83222196D01*
X196467595Y-83222194D01*
X196416496Y-83186923D01*
X196416495Y-83186922D01*
X196372505Y-83132639D01*
X196364845Y-83063190D01*
X196395949Y-83000625D01*
X196399254Y-82997191D01*
X196780983Y-82615461D01*
X196754632Y-82594952D01*
X196754627Y-82594949D01*
X196554230Y-82486500D01*
X196554219Y-82486495D01*
X196338701Y-82412507D01*
X196113935Y-82375000D01*
X195886065Y-82375000D01*
X195661298Y-82412507D01*
X195445780Y-82486495D01*
X195445769Y-82486500D01*
X195245373Y-82594948D01*
X195219016Y-82615462D01*
X195600745Y-82997192D01*
X195634230Y-83058515D01*
X195629246Y-83128207D01*
X195587374Y-83184140D01*
X195583504Y-83186923D01*
X195532407Y-83222192D01*
X195532404Y-83222194D01*
X195425387Y-83342992D01*
X195366197Y-83380118D01*
X195296332Y-83379350D01*
X195244891Y-83348445D01*
X194866874Y-82970428D01*
X194786578Y-83093333D01*
X194786577Y-83093335D01*
X194695045Y-83302006D01*
X194639105Y-83522906D01*
X194639103Y-83522914D01*
X194620288Y-83749993D01*
X194620288Y-83750006D01*
X164456029Y-83750006D01*
X165553316Y-82652719D01*
X165614640Y-82619234D01*
X165640998Y-82616400D01*
X168295106Y-82616400D01*
X168362145Y-82636085D01*
X168382077Y-82653355D01*
X168382082Y-82653350D01*
X168388779Y-82659153D01*
X168388786Y-82659160D01*
X168502579Y-82732291D01*
X168567473Y-82751345D01*
X168632366Y-82770400D01*
X168632367Y-82770400D01*
X168767633Y-82770400D01*
X168897421Y-82732291D01*
X169011214Y-82659160D01*
X169099795Y-82556933D01*
X169155987Y-82433890D01*
X169175237Y-82300000D01*
X169155987Y-82166110D01*
X169155986Y-82166109D01*
X169155986Y-82166106D01*
X169127891Y-82104588D01*
X169099795Y-82043067D01*
X169011214Y-81940840D01*
X168897421Y-81867709D01*
X168897420Y-81867708D01*
X168897419Y-81867708D01*
X168767634Y-81829600D01*
X168767633Y-81829600D01*
X168632367Y-81829600D01*
X168632366Y-81829600D01*
X168502580Y-81867708D01*
X168388788Y-81940838D01*
X168388783Y-81940842D01*
X168300209Y-82043061D01*
X168300201Y-82043073D01*
X168269130Y-82111111D01*
X168223376Y-82163915D01*
X168156336Y-82183600D01*
X165507304Y-82183600D01*
X165504059Y-82183515D01*
X165495593Y-82183071D01*
X165465394Y-82181488D01*
X165465393Y-82181488D01*
X165465392Y-82181488D01*
X165465389Y-82181488D01*
X165465389Y-82181489D01*
X165447451Y-82188374D01*
X165428810Y-82193896D01*
X165419535Y-82195868D01*
X165410015Y-82197892D01*
X165410011Y-82197894D01*
X165409050Y-82198593D01*
X165380618Y-82214030D01*
X165379510Y-82214455D01*
X165379503Y-82214459D01*
X165365924Y-82228038D01*
X165351137Y-82240668D01*
X165335589Y-82251964D01*
X165335588Y-82251965D01*
X165334994Y-82252996D01*
X165315292Y-82278670D01*
X159785155Y-87808808D01*
X159723832Y-87842293D01*
X159654140Y-87837309D01*
X159598207Y-87795437D01*
X159573790Y-87729973D01*
X159574737Y-87703476D01*
X159575237Y-87699999D01*
X159575237Y-87691131D01*
X159576782Y-87691131D01*
X159585313Y-87631778D01*
X159610425Y-87595609D01*
X166068476Y-81137558D01*
X194997500Y-81137558D01*
X195004898Y-81174749D01*
X195033077Y-81216922D01*
X195075250Y-81245101D01*
X195075252Y-81245102D01*
X195103205Y-81250662D01*
X195112441Y-81252500D01*
X195112442Y-81252500D01*
X196887559Y-81252500D01*
X196894957Y-81251028D01*
X196924748Y-81245102D01*
X196966922Y-81216922D01*
X196995102Y-81174748D01*
X197002500Y-81137558D01*
X197002500Y-79362442D01*
X196995102Y-79325252D01*
X196995101Y-79325250D01*
X196966922Y-79283077D01*
X196924749Y-79254898D01*
X196887559Y-79247500D01*
X196887558Y-79247500D01*
X195112442Y-79247500D01*
X195112441Y-79247500D01*
X195075250Y-79254898D01*
X195033077Y-79283077D01*
X195004898Y-79325250D01*
X194997500Y-79362441D01*
X194997500Y-81137558D01*
X166068476Y-81137558D01*
X166405569Y-80800465D01*
X166466890Y-80766982D01*
X166528188Y-80769172D01*
X166532367Y-80770400D01*
X166667633Y-80770400D01*
X166797421Y-80732291D01*
X166911214Y-80659160D01*
X166999795Y-80556933D01*
X167055987Y-80433890D01*
X167075237Y-80300000D01*
X167055987Y-80166110D01*
X167055986Y-80166109D01*
X167055986Y-80166106D01*
X167027890Y-80104588D01*
X166999795Y-80043067D01*
X166911214Y-79940840D01*
X166797421Y-79867709D01*
X166797420Y-79867708D01*
X166797419Y-79867708D01*
X166667634Y-79829600D01*
X166667633Y-79829600D01*
X166532367Y-79829600D01*
X166532366Y-79829600D01*
X166402580Y-79867708D01*
X166288788Y-79940838D01*
X166288783Y-79940842D01*
X166200209Y-80043061D01*
X166200203Y-80043071D01*
X166144013Y-80166106D01*
X166144012Y-80166111D01*
X166124763Y-80300000D01*
X166137198Y-80386495D01*
X166127254Y-80455654D01*
X166102141Y-80491822D01*
X159371733Y-87222230D01*
X159310410Y-87255715D01*
X159249118Y-87253526D01*
X159210737Y-87242256D01*
X159167634Y-87229600D01*
X159167633Y-87229600D01*
X159032367Y-87229600D01*
X159032366Y-87229600D01*
X158902580Y-87267708D01*
X158788788Y-87340838D01*
X158788783Y-87340842D01*
X158700209Y-87443061D01*
X158700203Y-87443071D01*
X158644013Y-87566106D01*
X158644012Y-87566111D01*
X158624763Y-87699999D01*
X158644012Y-87833888D01*
X158644013Y-87833893D01*
X158690571Y-87935838D01*
X158700205Y-87956933D01*
X158788786Y-88059160D01*
X158788788Y-88059161D01*
X158902580Y-88132292D01*
X158910649Y-88135977D01*
X158909586Y-88138302D01*
X158957037Y-88168797D01*
X158986062Y-88232353D01*
X158976118Y-88301511D01*
X158930363Y-88354315D01*
X158910382Y-88363440D01*
X158910649Y-88364023D01*
X158902580Y-88367707D01*
X158788788Y-88440838D01*
X158788783Y-88440842D01*
X158700209Y-88543061D01*
X158700203Y-88543071D01*
X158644013Y-88666106D01*
X158644012Y-88666111D01*
X158624763Y-88800000D01*
X158644012Y-88933888D01*
X158644013Y-88933893D01*
X158690571Y-89035838D01*
X158700205Y-89056933D01*
X158788786Y-89159160D01*
X158839309Y-89191629D01*
X158902580Y-89232292D01*
X158930953Y-89240623D01*
X158989732Y-89278397D01*
X159018757Y-89341953D01*
X159008814Y-89411111D01*
X158963059Y-89463915D01*
X158896019Y-89483600D01*
X153529691Y-89483600D01*
X153462652Y-89463915D01*
X153416897Y-89411112D01*
X153399797Y-89373669D01*
X153399796Y-89373668D01*
X153399795Y-89373665D01*
X153372316Y-89341953D01*
X153311216Y-89271440D01*
X153311211Y-89271436D01*
X153250302Y-89232292D01*
X153197421Y-89198307D01*
X153197420Y-89198306D01*
X153197419Y-89198306D01*
X153067634Y-89160198D01*
X153067633Y-89160198D01*
X152932367Y-89160198D01*
X152932366Y-89160198D01*
X152802580Y-89198306D01*
X152688788Y-89271436D01*
X152688783Y-89271440D01*
X152600209Y-89373659D01*
X152600203Y-89373669D01*
X152544013Y-89496704D01*
X152544012Y-89496709D01*
X152524763Y-89630597D01*
X142500500Y-89630597D01*
X142500500Y-79270000D01*
X180998913Y-79270000D01*
X181018162Y-79403888D01*
X181018163Y-79403893D01*
X181064721Y-79505838D01*
X181074355Y-79526933D01*
X181162936Y-79629160D01*
X181276729Y-79702291D01*
X181341623Y-79721345D01*
X181406516Y-79740400D01*
X181406517Y-79740400D01*
X181541783Y-79740400D01*
X181671571Y-79702291D01*
X181785364Y-79629160D01*
X181873945Y-79526933D01*
X181930137Y-79403890D01*
X181949387Y-79270000D01*
X181930137Y-79136110D01*
X181930136Y-79136109D01*
X181930136Y-79136106D01*
X181902040Y-79074588D01*
X181873945Y-79013067D01*
X181785364Y-78910840D01*
X181671571Y-78837709D01*
X181671570Y-78837708D01*
X181671569Y-78837708D01*
X181541784Y-78799600D01*
X181541783Y-78799600D01*
X181406517Y-78799600D01*
X181406516Y-78799600D01*
X181276730Y-78837708D01*
X181162938Y-78910838D01*
X181162933Y-78910842D01*
X181074359Y-79013061D01*
X181074353Y-79013071D01*
X181018163Y-79136106D01*
X181018162Y-79136111D01*
X180998913Y-79270000D01*
X142500500Y-79270000D01*
X142500500Y-78770000D01*
X185498913Y-78770000D01*
X185518162Y-78903888D01*
X185518163Y-78903893D01*
X185564721Y-79005838D01*
X185574355Y-79026933D01*
X185662936Y-79129160D01*
X185776729Y-79202291D01*
X185841623Y-79221345D01*
X185906516Y-79240400D01*
X185906517Y-79240400D01*
X186041783Y-79240400D01*
X186171571Y-79202291D01*
X186285364Y-79129160D01*
X186373945Y-79026933D01*
X186430137Y-78903890D01*
X186449387Y-78770000D01*
X186430137Y-78636110D01*
X186430136Y-78636109D01*
X186430136Y-78636106D01*
X186402041Y-78574588D01*
X186373945Y-78513067D01*
X186285364Y-78410840D01*
X186171571Y-78337709D01*
X186171570Y-78337708D01*
X186171569Y-78337708D01*
X186041784Y-78299600D01*
X186041783Y-78299600D01*
X185906517Y-78299600D01*
X185906516Y-78299600D01*
X185776730Y-78337708D01*
X185662938Y-78410838D01*
X185662933Y-78410842D01*
X185574359Y-78513061D01*
X185574353Y-78513071D01*
X185518163Y-78636106D01*
X185518162Y-78636111D01*
X185498913Y-78770000D01*
X142500500Y-78770000D01*
X142500500Y-77699999D01*
X159024763Y-77699999D01*
X159044012Y-77833888D01*
X159044013Y-77833893D01*
X159090571Y-77935838D01*
X159100205Y-77956933D01*
X159188786Y-78059160D01*
X159302579Y-78132291D01*
X159367473Y-78151345D01*
X159432366Y-78170400D01*
X159432367Y-78170400D01*
X159567633Y-78170400D01*
X159697421Y-78132291D01*
X159811214Y-78059160D01*
X159899795Y-77956933D01*
X159955987Y-77833890D01*
X159975237Y-77700000D01*
X159962800Y-77613503D01*
X159972745Y-77544345D01*
X159997855Y-77508179D01*
X161447889Y-76058145D01*
X161450192Y-76055961D01*
X161478983Y-76030039D01*
X161486795Y-76012490D01*
X161496082Y-75995386D01*
X161506540Y-75979284D01*
X161506725Y-75978113D01*
X161515920Y-75947073D01*
X161516400Y-75945997D01*
X161516400Y-75926790D01*
X161517927Y-75907392D01*
X161520932Y-75888421D01*
X161520626Y-75887279D01*
X161516400Y-75855183D01*
X161516400Y-75799999D01*
X174124763Y-75799999D01*
X174144012Y-75933888D01*
X174144013Y-75933893D01*
X174172097Y-75995386D01*
X174200205Y-76056933D01*
X174288786Y-76159160D01*
X174402579Y-76232291D01*
X174467473Y-76251345D01*
X174532366Y-76270400D01*
X174532367Y-76270400D01*
X174667633Y-76270400D01*
X174797421Y-76232291D01*
X174911214Y-76159160D01*
X174999795Y-76056933D01*
X175043410Y-75961428D01*
X175055986Y-75933893D01*
X175055987Y-75933888D01*
X175075237Y-75800000D01*
X175055987Y-75666110D01*
X175055986Y-75666109D01*
X175055986Y-75666106D01*
X175027890Y-75604588D01*
X174999795Y-75543067D01*
X174911214Y-75440840D01*
X174873358Y-75416511D01*
X174827604Y-75363708D01*
X174816399Y-75312201D01*
X174816399Y-73750000D01*
X194992649Y-73750000D01*
X195012004Y-73946522D01*
X195069330Y-74135501D01*
X195162414Y-74309648D01*
X195162419Y-74309655D01*
X195287694Y-74462305D01*
X195393921Y-74549482D01*
X195440346Y-74587582D01*
X195440349Y-74587583D01*
X195440351Y-74587585D01*
X195614498Y-74680669D01*
X195614500Y-74680669D01*
X195614503Y-74680671D01*
X195803476Y-74737995D01*
X195803475Y-74737995D01*
X195821095Y-74739730D01*
X196000000Y-74757351D01*
X196196524Y-74737995D01*
X196385497Y-74680671D01*
X196559654Y-74587582D01*
X196712305Y-74462305D01*
X196837582Y-74309654D01*
X196930671Y-74135497D01*
X196987995Y-73946524D01*
X197007351Y-73750000D01*
X196987995Y-73553476D01*
X196930671Y-73364503D01*
X196930669Y-73364500D01*
X196930669Y-73364498D01*
X196837585Y-73190351D01*
X196837583Y-73190349D01*
X196837582Y-73190346D01*
X196799482Y-73143921D01*
X196712305Y-73037694D01*
X196582866Y-72931467D01*
X196559654Y-72912418D01*
X196559652Y-72912417D01*
X196559648Y-72912414D01*
X196385501Y-72819330D01*
X196291010Y-72790666D01*
X196196524Y-72762005D01*
X196196522Y-72762004D01*
X196196524Y-72762004D01*
X196000000Y-72742649D01*
X195803477Y-72762004D01*
X195614498Y-72819330D01*
X195440351Y-72912414D01*
X195440344Y-72912419D01*
X195287694Y-73037694D01*
X195162419Y-73190344D01*
X195162414Y-73190351D01*
X195069330Y-73364498D01*
X195012004Y-73553477D01*
X194992649Y-73750000D01*
X174816399Y-73750000D01*
X174816399Y-73169999D01*
X181098913Y-73169999D01*
X181118162Y-73303888D01*
X181118163Y-73303893D01*
X181145844Y-73364503D01*
X181174355Y-73426933D01*
X181262936Y-73529160D01*
X181376729Y-73602291D01*
X181441623Y-73621345D01*
X181506516Y-73640400D01*
X181506517Y-73640400D01*
X181641783Y-73640400D01*
X181771571Y-73602291D01*
X181885364Y-73529160D01*
X181973945Y-73426933D01*
X182030137Y-73303890D01*
X182049387Y-73170000D01*
X182030137Y-73036110D01*
X182030136Y-73036109D01*
X182030136Y-73036106D01*
X181991858Y-72952291D01*
X181973945Y-72913067D01*
X181973940Y-72913061D01*
X181885366Y-72810842D01*
X181885361Y-72810838D01*
X181809374Y-72762004D01*
X181771571Y-72737709D01*
X181771570Y-72737708D01*
X181771569Y-72737708D01*
X181641784Y-72699600D01*
X181641783Y-72699600D01*
X181506517Y-72699600D01*
X181506516Y-72699600D01*
X181376730Y-72737708D01*
X181262938Y-72810838D01*
X181262933Y-72810842D01*
X181174359Y-72913061D01*
X181174353Y-72913071D01*
X181118163Y-73036106D01*
X181118162Y-73036111D01*
X181098913Y-73169999D01*
X174816399Y-73169999D01*
X174816399Y-72520000D01*
X185498913Y-72520000D01*
X185518162Y-72653888D01*
X185518163Y-72653893D01*
X185556441Y-72737708D01*
X185574355Y-72776933D01*
X185574358Y-72776936D01*
X185574359Y-72776938D01*
X185611092Y-72819330D01*
X185662936Y-72879160D01*
X185776729Y-72952291D01*
X185841623Y-72971345D01*
X185906516Y-72990400D01*
X185906517Y-72990400D01*
X186041783Y-72990400D01*
X186171571Y-72952291D01*
X186285364Y-72879160D01*
X186373945Y-72776933D01*
X186430137Y-72653890D01*
X186449387Y-72520000D01*
X186430137Y-72386110D01*
X186430136Y-72386109D01*
X186430136Y-72386106D01*
X186402041Y-72324588D01*
X186373945Y-72263067D01*
X186285364Y-72160840D01*
X186171571Y-72087709D01*
X186171570Y-72087708D01*
X186171569Y-72087708D01*
X186041784Y-72049600D01*
X186041783Y-72049600D01*
X185906517Y-72049600D01*
X185906516Y-72049600D01*
X185776730Y-72087708D01*
X185662938Y-72160838D01*
X185662933Y-72160842D01*
X185574359Y-72263061D01*
X185574353Y-72263071D01*
X185518163Y-72386106D01*
X185518162Y-72386111D01*
X185498913Y-72520000D01*
X174816399Y-72520000D01*
X174816399Y-70249999D01*
X194992649Y-70249999D01*
X195012004Y-70446522D01*
X195069330Y-70635501D01*
X195162414Y-70809648D01*
X195162419Y-70809655D01*
X195287694Y-70962305D01*
X195393921Y-71049482D01*
X195440346Y-71087582D01*
X195440349Y-71087583D01*
X195440351Y-71087585D01*
X195614498Y-71180669D01*
X195614500Y-71180669D01*
X195614503Y-71180671D01*
X195803476Y-71237995D01*
X195803475Y-71237995D01*
X195821095Y-71239730D01*
X196000000Y-71257351D01*
X196196524Y-71237995D01*
X196385497Y-71180671D01*
X196559654Y-71087582D01*
X196712305Y-70962305D01*
X196837582Y-70809654D01*
X196930671Y-70635497D01*
X196987995Y-70446524D01*
X197007351Y-70250000D01*
X196987995Y-70053476D01*
X196930671Y-69864503D01*
X196930669Y-69864500D01*
X196930669Y-69864498D01*
X196837585Y-69690351D01*
X196837583Y-69690349D01*
X196837582Y-69690346D01*
X196799482Y-69643921D01*
X196712305Y-69537694D01*
X196579240Y-69428492D01*
X196559654Y-69412418D01*
X196559652Y-69412417D01*
X196559648Y-69412414D01*
X196385501Y-69319330D01*
X196280610Y-69287512D01*
X196196524Y-69262005D01*
X196196522Y-69262004D01*
X196196524Y-69262004D01*
X196000000Y-69242649D01*
X195803477Y-69262004D01*
X195614498Y-69319330D01*
X195440351Y-69412414D01*
X195440344Y-69412419D01*
X195287694Y-69537694D01*
X195162419Y-69690344D01*
X195162414Y-69690351D01*
X195069330Y-69864498D01*
X195012004Y-70053477D01*
X194992649Y-70249999D01*
X174816399Y-70249999D01*
X174816399Y-69540996D01*
X174836084Y-69473958D01*
X174852713Y-69453321D01*
X176805569Y-67500465D01*
X176866890Y-67466982D01*
X176928188Y-67469172D01*
X176932367Y-67470400D01*
X177067633Y-67470400D01*
X177197421Y-67432291D01*
X177311214Y-67359160D01*
X177399795Y-67256933D01*
X177450952Y-67144915D01*
X177455986Y-67133893D01*
X177455987Y-67133888D01*
X177475237Y-67000000D01*
X177456546Y-66870000D01*
X181098913Y-66870000D01*
X181118162Y-67003888D01*
X181118163Y-67003893D01*
X181155887Y-67086494D01*
X181174355Y-67126933D01*
X181174358Y-67126936D01*
X181174359Y-67126938D01*
X181251590Y-67216067D01*
X181262936Y-67229160D01*
X181376729Y-67302291D01*
X181401809Y-67309655D01*
X181506516Y-67340400D01*
X181506517Y-67340400D01*
X181641783Y-67340400D01*
X181771571Y-67302291D01*
X181885364Y-67229160D01*
X181973945Y-67126933D01*
X182017560Y-67031428D01*
X182030136Y-67003893D01*
X182030137Y-67003888D01*
X182035178Y-66968825D01*
X182049387Y-66870000D01*
X182032134Y-66749999D01*
X194992649Y-66749999D01*
X195012004Y-66946522D01*
X195069330Y-67135501D01*
X195162414Y-67309648D01*
X195162419Y-67309655D01*
X195287694Y-67462305D01*
X195334707Y-67500887D01*
X195440346Y-67587582D01*
X195440349Y-67587583D01*
X195440351Y-67587585D01*
X195614498Y-67680669D01*
X195614500Y-67680669D01*
X195614503Y-67680671D01*
X195803476Y-67737995D01*
X195803475Y-67737995D01*
X195821095Y-67739730D01*
X196000000Y-67757351D01*
X196196524Y-67737995D01*
X196385497Y-67680671D01*
X196404167Y-67670692D01*
X196509176Y-67614563D01*
X196559654Y-67587582D01*
X196712305Y-67462305D01*
X196837582Y-67309654D01*
X196930671Y-67135497D01*
X196987995Y-66946524D01*
X197007351Y-66750000D01*
X196987995Y-66553476D01*
X196930671Y-66364503D01*
X196930669Y-66364500D01*
X196930669Y-66364498D01*
X196837585Y-66190351D01*
X196837583Y-66190349D01*
X196837582Y-66190346D01*
X196793069Y-66136106D01*
X196712305Y-66037694D01*
X196559655Y-65912419D01*
X196559648Y-65912414D01*
X196385501Y-65819330D01*
X196291010Y-65790666D01*
X196196524Y-65762005D01*
X196196522Y-65762004D01*
X196196524Y-65762004D01*
X196000000Y-65742649D01*
X195803477Y-65762004D01*
X195614498Y-65819330D01*
X195440351Y-65912414D01*
X195440344Y-65912419D01*
X195287694Y-66037694D01*
X195162419Y-66190344D01*
X195162414Y-66190351D01*
X195069330Y-66364498D01*
X195012004Y-66553477D01*
X194992649Y-66749999D01*
X182032134Y-66749999D01*
X182030137Y-66736110D01*
X182030136Y-66736109D01*
X182030136Y-66736106D01*
X181999683Y-66669425D01*
X181973945Y-66613067D01*
X181944687Y-66579302D01*
X181885366Y-66510842D01*
X181885361Y-66510838D01*
X181862433Y-66496103D01*
X181771571Y-66437709D01*
X181771570Y-66437708D01*
X181771569Y-66437708D01*
X181641784Y-66399600D01*
X181641783Y-66399600D01*
X181506517Y-66399600D01*
X181506516Y-66399600D01*
X181376730Y-66437708D01*
X181262938Y-66510838D01*
X181262933Y-66510842D01*
X181174359Y-66613061D01*
X181174353Y-66613071D01*
X181118163Y-66736106D01*
X181118162Y-66736111D01*
X181098913Y-66870000D01*
X177456546Y-66870000D01*
X177455987Y-66866110D01*
X177455986Y-66866109D01*
X177455986Y-66866106D01*
X177425090Y-66798455D01*
X177399795Y-66743067D01*
X177364462Y-66702291D01*
X177311216Y-66640842D01*
X177311211Y-66640838D01*
X177267989Y-66613061D01*
X177197421Y-66567709D01*
X177197420Y-66567708D01*
X177197419Y-66567708D01*
X177067634Y-66529600D01*
X177067633Y-66529600D01*
X176932367Y-66529600D01*
X176932366Y-66529600D01*
X176802580Y-66567708D01*
X176688788Y-66640838D01*
X176688783Y-66640842D01*
X176600209Y-66743061D01*
X176600203Y-66743071D01*
X176544013Y-66866106D01*
X176544012Y-66866111D01*
X176524763Y-67000000D01*
X176537198Y-67086494D01*
X176527254Y-67155653D01*
X176502141Y-67191821D01*
X174452154Y-69241810D01*
X174449800Y-69244044D01*
X174421016Y-69269961D01*
X174413202Y-69287512D01*
X174403922Y-69304604D01*
X174393459Y-69320715D01*
X174393273Y-69321895D01*
X174384085Y-69352913D01*
X174383600Y-69354001D01*
X174383600Y-69373208D01*
X174382073Y-69392606D01*
X174379068Y-69411579D01*
X174379374Y-69412723D01*
X174383600Y-69444816D01*
X174383600Y-75312197D01*
X174363915Y-75379236D01*
X174326641Y-75416512D01*
X174288784Y-75440841D01*
X174288783Y-75440842D01*
X174200209Y-75543061D01*
X174200203Y-75543071D01*
X174144013Y-75666106D01*
X174144012Y-75666111D01*
X174124763Y-75799999D01*
X161516400Y-75799999D01*
X161516400Y-68987802D01*
X161536085Y-68920763D01*
X161573359Y-68883487D01*
X161611214Y-68859160D01*
X161699795Y-68756933D01*
X161755987Y-68633890D01*
X161775237Y-68500000D01*
X161755987Y-68366110D01*
X161755986Y-68366109D01*
X161755986Y-68366106D01*
X161725156Y-68298600D01*
X161699795Y-68243067D01*
X161611214Y-68140840D01*
X161497421Y-68067709D01*
X161497420Y-68067708D01*
X161497419Y-68067708D01*
X161367634Y-68029600D01*
X161367633Y-68029600D01*
X161232367Y-68029600D01*
X161232366Y-68029600D01*
X161102580Y-68067708D01*
X160988788Y-68140838D01*
X160988783Y-68140842D01*
X160900209Y-68243061D01*
X160900203Y-68243071D01*
X160844013Y-68366106D01*
X160844012Y-68366111D01*
X160824763Y-68499999D01*
X160844012Y-68633888D01*
X160844013Y-68633893D01*
X160890571Y-68735838D01*
X160900205Y-68756933D01*
X160988786Y-68859160D01*
X161026640Y-68883487D01*
X161072394Y-68936290D01*
X161083600Y-68987802D01*
X161083600Y-75759002D01*
X161063915Y-75826041D01*
X161047281Y-75846683D01*
X159694432Y-77199531D01*
X159633109Y-77233016D01*
X159571822Y-77230829D01*
X159567636Y-77229600D01*
X159567633Y-77229600D01*
X159432367Y-77229600D01*
X159432366Y-77229600D01*
X159302580Y-77267708D01*
X159188788Y-77340838D01*
X159188783Y-77340842D01*
X159100209Y-77443061D01*
X159100203Y-77443071D01*
X159044013Y-77566106D01*
X159044012Y-77566111D01*
X159024763Y-77699999D01*
X142500500Y-77699999D01*
X142500500Y-67987558D01*
X143747500Y-67987558D01*
X143754898Y-68024749D01*
X143783077Y-68066922D01*
X143825250Y-68095101D01*
X143825252Y-68095102D01*
X143853205Y-68100662D01*
X143862441Y-68102500D01*
X143862442Y-68102500D01*
X144945102Y-68102500D01*
X145012141Y-68122185D01*
X145032783Y-68138819D01*
X151741817Y-74847853D01*
X151744052Y-74850208D01*
X151769959Y-74878981D01*
X151769961Y-74878983D01*
X151787502Y-74886792D01*
X151804607Y-74896079D01*
X151820712Y-74906538D01*
X151820716Y-74906540D01*
X151821884Y-74906725D01*
X151852918Y-74915917D01*
X151854003Y-74916400D01*
X151873208Y-74916400D01*
X151892606Y-74917926D01*
X151911579Y-74920932D01*
X151912721Y-74920626D01*
X151944817Y-74916400D01*
X153208454Y-74916400D01*
X153275493Y-74936085D01*
X153302166Y-74959197D01*
X153388783Y-75059157D01*
X153388786Y-75059160D01*
X153502579Y-75132291D01*
X153567473Y-75151345D01*
X153632366Y-75170400D01*
X153632367Y-75170400D01*
X153767633Y-75170400D01*
X153897421Y-75132291D01*
X154011214Y-75059160D01*
X154099795Y-74956933D01*
X154155987Y-74833890D01*
X154175237Y-74700000D01*
X154155987Y-74566110D01*
X154155986Y-74566109D01*
X154155986Y-74566106D01*
X154116012Y-74478577D01*
X154099795Y-74443067D01*
X154011214Y-74340840D01*
X153897421Y-74267709D01*
X153897420Y-74267708D01*
X153897419Y-74267708D01*
X153767634Y-74229600D01*
X153767633Y-74229600D01*
X153632367Y-74229600D01*
X153632366Y-74229600D01*
X153502580Y-74267708D01*
X153388788Y-74340838D01*
X153388783Y-74340842D01*
X153302166Y-74440803D01*
X153243388Y-74478577D01*
X153208454Y-74483600D01*
X152040997Y-74483600D01*
X151973958Y-74463915D01*
X151953316Y-74447281D01*
X148483762Y-70977727D01*
X148450277Y-70916404D01*
X148455261Y-70846712D01*
X148497133Y-70790779D01*
X148562597Y-70766362D01*
X148606378Y-70771069D01*
X148632366Y-70778700D01*
X148632367Y-70778700D01*
X148767633Y-70778700D01*
X148897421Y-70740591D01*
X149011214Y-70667460D01*
X149099795Y-70565233D01*
X149137206Y-70483311D01*
X149182959Y-70430511D01*
X149249998Y-70410826D01*
X149317038Y-70430510D01*
X149362793Y-70483314D01*
X149400202Y-70565228D01*
X149400209Y-70565238D01*
X149461089Y-70635497D01*
X149488786Y-70667460D01*
X149602579Y-70740591D01*
X149667472Y-70759645D01*
X149732366Y-70778700D01*
X149732367Y-70778700D01*
X149867633Y-70778700D01*
X149997421Y-70740591D01*
X150111214Y-70667460D01*
X150148726Y-70624168D01*
X150197834Y-70567497D01*
X150256612Y-70529723D01*
X150291546Y-70524700D01*
X151519397Y-70524700D01*
X151522642Y-70524785D01*
X151561309Y-70526812D01*
X151579238Y-70519928D01*
X151597900Y-70514400D01*
X151616684Y-70510408D01*
X151617633Y-70509718D01*
X151646100Y-70494262D01*
X151647193Y-70493843D01*
X151660773Y-70480262D01*
X151675562Y-70467630D01*
X151691110Y-70456335D01*
X151691701Y-70455310D01*
X151711406Y-70429628D01*
X154122109Y-68018925D01*
X154183430Y-67985442D01*
X154253122Y-67990426D01*
X154268223Y-67997241D01*
X154334117Y-68032462D01*
X154518376Y-68088357D01*
X154710000Y-68107230D01*
X154901624Y-68088357D01*
X155085883Y-68032462D01*
X155255698Y-67941694D01*
X155404541Y-67819541D01*
X155526694Y-67670698D01*
X155617462Y-67500883D01*
X155672012Y-67321056D01*
X155710308Y-67262621D01*
X155774120Y-67234165D01*
X155843187Y-67244725D01*
X155895581Y-67290949D01*
X155914199Y-67346242D01*
X155915431Y-67360318D01*
X155915432Y-67360326D01*
X155976566Y-67588483D01*
X155976570Y-67588492D01*
X156076399Y-67802578D01*
X156211894Y-67996082D01*
X156378917Y-68163105D01*
X156572421Y-68298600D01*
X156786507Y-68398429D01*
X156786516Y-68398433D01*
X157000000Y-68455634D01*
X157000000Y-67737301D01*
X157019685Y-67670262D01*
X157072489Y-67624507D01*
X157141647Y-67614563D01*
X157214237Y-67625000D01*
X157214238Y-67625000D01*
X157285762Y-67625000D01*
X157285763Y-67625000D01*
X157358353Y-67614563D01*
X157427512Y-67624507D01*
X157480315Y-67670262D01*
X157500000Y-67737301D01*
X157500000Y-68455633D01*
X157713483Y-68398433D01*
X157713492Y-68398429D01*
X157927578Y-68298600D01*
X158121082Y-68163105D01*
X158288105Y-67996082D01*
X158423600Y-67802578D01*
X158523429Y-67588492D01*
X158523432Y-67588486D01*
X158580636Y-67375000D01*
X157863347Y-67375000D01*
X157796308Y-67355315D01*
X157750553Y-67302511D01*
X157740609Y-67233353D01*
X157744369Y-67216067D01*
X157750000Y-67196888D01*
X157750000Y-67053111D01*
X157744369Y-67033933D01*
X157744370Y-66964064D01*
X157782145Y-66905286D01*
X157845701Y-66876262D01*
X157863347Y-66875000D01*
X158580636Y-66875000D01*
X158580635Y-66874999D01*
X158523432Y-66661513D01*
X158523429Y-66661507D01*
X158423600Y-66447422D01*
X158423599Y-66447420D01*
X158288113Y-66253926D01*
X158288108Y-66253920D01*
X158121082Y-66086894D01*
X157927578Y-65951399D01*
X157713492Y-65851570D01*
X157713486Y-65851567D01*
X157500000Y-65794364D01*
X157500000Y-66512698D01*
X157480315Y-66579737D01*
X157427511Y-66625492D01*
X157358355Y-66635436D01*
X157285766Y-66625000D01*
X157285763Y-66625000D01*
X157214237Y-66625000D01*
X157214233Y-66625000D01*
X157141645Y-66635436D01*
X157072487Y-66625492D01*
X157019684Y-66579736D01*
X157000000Y-66512698D01*
X157000000Y-65794364D01*
X156999999Y-65794364D01*
X156786513Y-65851567D01*
X156786507Y-65851570D01*
X156572422Y-65951399D01*
X156572420Y-65951400D01*
X156378926Y-66086886D01*
X156378920Y-66086891D01*
X156211891Y-66253920D01*
X156211886Y-66253926D01*
X156076400Y-66447420D01*
X156076399Y-66447422D01*
X155976570Y-66661507D01*
X155976566Y-66661516D01*
X155915432Y-66889673D01*
X155915431Y-66889681D01*
X155914199Y-66903757D01*
X155888743Y-66968825D01*
X155832150Y-67009801D01*
X155762388Y-67013675D01*
X155701605Y-66979219D01*
X155672012Y-66928942D01*
X155617462Y-66749117D01*
X155617460Y-66749114D01*
X155617460Y-66749112D01*
X155526697Y-66579307D01*
X155526693Y-66579300D01*
X155404541Y-66430458D01*
X155255699Y-66308306D01*
X155255692Y-66308302D01*
X155085884Y-66217538D01*
X154901626Y-66161643D01*
X154710000Y-66142770D01*
X154518373Y-66161643D01*
X154334115Y-66217538D01*
X154164307Y-66308302D01*
X154164300Y-66308306D01*
X154015458Y-66430458D01*
X153893306Y-66579300D01*
X153893302Y-66579307D01*
X153802538Y-66749115D01*
X153746643Y-66933373D01*
X153727770Y-67125000D01*
X153746643Y-67316626D01*
X153802538Y-67500884D01*
X153837748Y-67566757D01*
X153851990Y-67635159D01*
X153826990Y-67700403D01*
X153816071Y-67712891D01*
X153297139Y-68231824D01*
X153287222Y-68237238D01*
X153284291Y-68243974D01*
X153276824Y-68252139D01*
X151473384Y-70055581D01*
X151412061Y-70089066D01*
X151385703Y-70091900D01*
X150291546Y-70091900D01*
X150224507Y-70072215D01*
X150197834Y-70049103D01*
X150111216Y-69949142D01*
X150111211Y-69949138D01*
X149997419Y-69876007D01*
X149987380Y-69873060D01*
X149928601Y-69835286D01*
X149899576Y-69771730D01*
X149909519Y-69702572D01*
X149934630Y-69666404D01*
X151462216Y-68138818D01*
X151523539Y-68105334D01*
X151549897Y-68102500D01*
X153032559Y-68102500D01*
X153039957Y-68101028D01*
X153069748Y-68095102D01*
X153111922Y-68066922D01*
X153140102Y-68024748D01*
X153147500Y-67987558D01*
X153147500Y-66262442D01*
X153140102Y-66225252D01*
X153116782Y-66190351D01*
X153111922Y-66183077D01*
X153069749Y-66154898D01*
X153032559Y-66147500D01*
X153032558Y-66147500D01*
X151307442Y-66147500D01*
X151307441Y-66147500D01*
X151270250Y-66154898D01*
X151228077Y-66183077D01*
X151199898Y-66225250D01*
X151192500Y-66262441D01*
X151192500Y-67745102D01*
X151172815Y-67812141D01*
X151156181Y-67832783D01*
X149099289Y-69889674D01*
X149037966Y-69923159D01*
X148968274Y-69918175D01*
X148944569Y-69906309D01*
X148897419Y-69876008D01*
X148767634Y-69837900D01*
X148767633Y-69837900D01*
X148632367Y-69837900D01*
X148632366Y-69837900D01*
X148502580Y-69876008D01*
X148388788Y-69949138D01*
X148388783Y-69949142D01*
X148300209Y-70051361D01*
X148300203Y-70051371D01*
X148244013Y-70174406D01*
X148244012Y-70174411D01*
X148224763Y-70308300D01*
X148240661Y-70418880D01*
X148230717Y-70488038D01*
X148184962Y-70540842D01*
X148117922Y-70560526D01*
X148050883Y-70540841D01*
X148030242Y-70524207D01*
X145701243Y-68195208D01*
X145667758Y-68133885D01*
X145672742Y-68064193D01*
X145685821Y-68038637D01*
X145695102Y-68024748D01*
X145702500Y-67987558D01*
X145702500Y-67451544D01*
X145722185Y-67384505D01*
X145774989Y-67338750D01*
X145844147Y-67328806D01*
X145907703Y-67357831D01*
X145945477Y-67416609D01*
X145946275Y-67419451D01*
X145991566Y-67588483D01*
X145991570Y-67588492D01*
X146091399Y-67802578D01*
X146226894Y-67996082D01*
X146393917Y-68163105D01*
X146587421Y-68298600D01*
X146801507Y-68398429D01*
X146801516Y-68398433D01*
X147015000Y-68455634D01*
X147015000Y-67737301D01*
X147034685Y-67670262D01*
X147087489Y-67624507D01*
X147156647Y-67614563D01*
X147229237Y-67625000D01*
X147229238Y-67625000D01*
X147300762Y-67625000D01*
X147300763Y-67625000D01*
X147373353Y-67614563D01*
X147442512Y-67624507D01*
X147495315Y-67670262D01*
X147515000Y-67737301D01*
X147515000Y-68455633D01*
X147728483Y-68398433D01*
X147728492Y-68398429D01*
X147942578Y-68298600D01*
X148136082Y-68163105D01*
X148303105Y-67996082D01*
X148438600Y-67802578D01*
X148538429Y-67588492D01*
X148538432Y-67588486D01*
X148595636Y-67375000D01*
X147878347Y-67375000D01*
X147811308Y-67355315D01*
X147765553Y-67302511D01*
X147755609Y-67233353D01*
X147759369Y-67216067D01*
X147765000Y-67196888D01*
X147765000Y-67053111D01*
X147759369Y-67033933D01*
X147759370Y-66964064D01*
X147797145Y-66905286D01*
X147860701Y-66876262D01*
X147878347Y-66875000D01*
X148595636Y-66875000D01*
X148595635Y-66874999D01*
X148538432Y-66661513D01*
X148538429Y-66661507D01*
X148438600Y-66447422D01*
X148438599Y-66447420D01*
X148303113Y-66253926D01*
X148303108Y-66253920D01*
X148136082Y-66086894D01*
X147942578Y-65951399D01*
X147728492Y-65851570D01*
X147728486Y-65851567D01*
X147515000Y-65794364D01*
X147515000Y-66512698D01*
X147495315Y-66579737D01*
X147442511Y-66625492D01*
X147373355Y-66635436D01*
X147300766Y-66625000D01*
X147300763Y-66625000D01*
X147229237Y-66625000D01*
X147229233Y-66625000D01*
X147156645Y-66635436D01*
X147087487Y-66625492D01*
X147034684Y-66579736D01*
X147015000Y-66512698D01*
X147015000Y-65794364D01*
X147014999Y-65794364D01*
X146801513Y-65851567D01*
X146801507Y-65851570D01*
X146587422Y-65951399D01*
X146587420Y-65951400D01*
X146393926Y-66086886D01*
X146393920Y-66086891D01*
X146226891Y-66253920D01*
X146226886Y-66253926D01*
X146091400Y-66447420D01*
X146091399Y-66447422D01*
X145991570Y-66661507D01*
X145991566Y-66661516D01*
X145946275Y-66830548D01*
X145909910Y-66890209D01*
X145847063Y-66920738D01*
X145777688Y-66912443D01*
X145723810Y-66867958D01*
X145702535Y-66801406D01*
X145702500Y-66798455D01*
X145702500Y-66262441D01*
X145700662Y-66253205D01*
X145695102Y-66225252D01*
X145671782Y-66190351D01*
X145666922Y-66183077D01*
X145624749Y-66154898D01*
X145587559Y-66147500D01*
X145587558Y-66147500D01*
X143862442Y-66147500D01*
X143862441Y-66147500D01*
X143825250Y-66154898D01*
X143783077Y-66183077D01*
X143754898Y-66225250D01*
X143747500Y-66262441D01*
X143747500Y-67987558D01*
X142500500Y-67987558D01*
X142500500Y-64500003D01*
X168767454Y-64500003D01*
X168787621Y-64846252D01*
X168787622Y-64846263D01*
X168847845Y-65187804D01*
X168847848Y-65187818D01*
X168947323Y-65520090D01*
X169084696Y-65838555D01*
X169084702Y-65838568D01*
X169258120Y-66138938D01*
X169258124Y-66138944D01*
X169465227Y-66417132D01*
X169465238Y-66417146D01*
X169553633Y-66510838D01*
X169703253Y-66669425D01*
X169703259Y-66669430D01*
X169703261Y-66669432D01*
X169968944Y-66892367D01*
X169968952Y-66892373D01*
X170258723Y-67082959D01*
X170568666Y-67238618D01*
X170568667Y-67238619D01*
X170568670Y-67238620D01*
X170568674Y-67238622D01*
X170894596Y-67357248D01*
X171232086Y-67437234D01*
X171576580Y-67477500D01*
X171576587Y-67477500D01*
X171923413Y-67477500D01*
X171923420Y-67477500D01*
X172267914Y-67437234D01*
X172605404Y-67357248D01*
X172931326Y-67238622D01*
X173241273Y-67082961D01*
X173511414Y-66905286D01*
X173531047Y-66892373D01*
X173531047Y-66892372D01*
X173531053Y-66892369D01*
X173796747Y-66669425D01*
X174034763Y-66417144D01*
X174073957Y-66364498D01*
X174144309Y-66269999D01*
X185498913Y-66269999D01*
X185518162Y-66403888D01*
X185518163Y-66403893D01*
X185538043Y-66447422D01*
X185574355Y-66526933D01*
X185574358Y-66526936D01*
X185574359Y-66526938D01*
X185659757Y-66625492D01*
X185662936Y-66629160D01*
X185776729Y-66702291D01*
X185841623Y-66721345D01*
X185906516Y-66740400D01*
X185906517Y-66740400D01*
X186041783Y-66740400D01*
X186171571Y-66702291D01*
X186285364Y-66629160D01*
X186373945Y-66526933D01*
X186430137Y-66403890D01*
X186449387Y-66270000D01*
X186430137Y-66136110D01*
X186430136Y-66136109D01*
X186430136Y-66136106D01*
X186385192Y-66037695D01*
X186373945Y-66013067D01*
X186286732Y-65912419D01*
X186285366Y-65910842D01*
X186285361Y-65910838D01*
X186193134Y-65851567D01*
X186171571Y-65837709D01*
X186171570Y-65837708D01*
X186171569Y-65837708D01*
X186041784Y-65799600D01*
X186041783Y-65799600D01*
X185906517Y-65799600D01*
X185906516Y-65799600D01*
X185776730Y-65837708D01*
X185662938Y-65910838D01*
X185662933Y-65910842D01*
X185574359Y-66013061D01*
X185574353Y-66013071D01*
X185518163Y-66136106D01*
X185518162Y-66136111D01*
X185498913Y-66269999D01*
X174144309Y-66269999D01*
X174241875Y-66138944D01*
X174241874Y-66138944D01*
X174241881Y-66138936D01*
X174415300Y-65838564D01*
X174552676Y-65520091D01*
X174652151Y-65187822D01*
X174712379Y-64846252D01*
X174732546Y-64500000D01*
X174712379Y-64153748D01*
X174652151Y-63812178D01*
X174552676Y-63479909D01*
X174453503Y-63250000D01*
X194992649Y-63250000D01*
X195012004Y-63446522D01*
X195069330Y-63635501D01*
X195162414Y-63809648D01*
X195162417Y-63809652D01*
X195162418Y-63809654D01*
X195164492Y-63812181D01*
X195287694Y-63962305D01*
X195393921Y-64049482D01*
X195440346Y-64087582D01*
X195440349Y-64087583D01*
X195440351Y-64087585D01*
X195614498Y-64180669D01*
X195614500Y-64180669D01*
X195614503Y-64180671D01*
X195803476Y-64237995D01*
X195803475Y-64237995D01*
X195821095Y-64239730D01*
X196000000Y-64257351D01*
X196196524Y-64237995D01*
X196385497Y-64180671D01*
X196559654Y-64087582D01*
X196712305Y-63962305D01*
X196837582Y-63809654D01*
X196930671Y-63635497D01*
X196987995Y-63446524D01*
X197007351Y-63250000D01*
X196987995Y-63053476D01*
X196930671Y-62864503D01*
X196930669Y-62864500D01*
X196930669Y-62864498D01*
X196837585Y-62690351D01*
X196837583Y-62690349D01*
X196837582Y-62690346D01*
X196749368Y-62582856D01*
X196712305Y-62537694D01*
X196559655Y-62412419D01*
X196559648Y-62412414D01*
X196385501Y-62319330D01*
X196291010Y-62290666D01*
X196196524Y-62262005D01*
X196196522Y-62262004D01*
X196196524Y-62262004D01*
X196000000Y-62242649D01*
X195803477Y-62262004D01*
X195614498Y-62319330D01*
X195440351Y-62412414D01*
X195440344Y-62412419D01*
X195287694Y-62537694D01*
X195162419Y-62690344D01*
X195162414Y-62690351D01*
X195069330Y-62864498D01*
X195012004Y-63053477D01*
X194992649Y-63250000D01*
X174453503Y-63250000D01*
X174415300Y-63161436D01*
X174241881Y-62861064D01*
X174241879Y-62861061D01*
X174241875Y-62861055D01*
X174034772Y-62582867D01*
X174034761Y-62582853D01*
X173873958Y-62412414D01*
X173796747Y-62330575D01*
X173796740Y-62330569D01*
X173796738Y-62330567D01*
X173531055Y-62107632D01*
X173531047Y-62107626D01*
X173241276Y-61917040D01*
X172931333Y-61761381D01*
X172931332Y-61761380D01*
X172605401Y-61642751D01*
X172419978Y-61598805D01*
X172267914Y-61562766D01*
X171923420Y-61522500D01*
X171576580Y-61522500D01*
X171232086Y-61562765D01*
X171232086Y-61562766D01*
X170894598Y-61642751D01*
X170568667Y-61761380D01*
X170568666Y-61761381D01*
X170258723Y-61917040D01*
X169968952Y-62107626D01*
X169968944Y-62107632D01*
X169703261Y-62330567D01*
X169703251Y-62330577D01*
X169465238Y-62582853D01*
X169465227Y-62582867D01*
X169258124Y-62861055D01*
X169258120Y-62861061D01*
X169084702Y-63161431D01*
X169084696Y-63161444D01*
X168947323Y-63479909D01*
X168847848Y-63812181D01*
X168847845Y-63812195D01*
X168787622Y-64153736D01*
X168787621Y-64153747D01*
X168767454Y-64499996D01*
X168767454Y-64500003D01*
X142500500Y-64500003D01*
X142500500Y-60669999D01*
X181098913Y-60669999D01*
X181118162Y-60803888D01*
X181118163Y-60803893D01*
X181164721Y-60905838D01*
X181174355Y-60926933D01*
X181262936Y-61029160D01*
X181376729Y-61102291D01*
X181441622Y-61121345D01*
X181506516Y-61140400D01*
X181506517Y-61140400D01*
X181641783Y-61140400D01*
X181771571Y-61102291D01*
X181885364Y-61029160D01*
X181973945Y-60926933D01*
X182030137Y-60803890D01*
X182049387Y-60670000D01*
X182044723Y-60637558D01*
X194997500Y-60637558D01*
X195004898Y-60674749D01*
X195033077Y-60716922D01*
X195075250Y-60745101D01*
X195075252Y-60745102D01*
X195103205Y-60750662D01*
X195112441Y-60752500D01*
X195112442Y-60752500D01*
X196887559Y-60752500D01*
X196894957Y-60751028D01*
X196924748Y-60745102D01*
X196966922Y-60716922D01*
X196995102Y-60674748D01*
X197002500Y-60637558D01*
X197002500Y-58862442D01*
X196995102Y-58825252D01*
X196995101Y-58825250D01*
X196966922Y-58783077D01*
X196924749Y-58754898D01*
X196887559Y-58747500D01*
X196887558Y-58747500D01*
X195112442Y-58747500D01*
X195112441Y-58747500D01*
X195075250Y-58754898D01*
X195033077Y-58783077D01*
X195004898Y-58825250D01*
X194997500Y-58862441D01*
X194997500Y-60637558D01*
X182044723Y-60637558D01*
X182030137Y-60536110D01*
X182030136Y-60536109D01*
X182030136Y-60536106D01*
X181991858Y-60452291D01*
X181973945Y-60413067D01*
X181885364Y-60310840D01*
X181771571Y-60237709D01*
X181771570Y-60237708D01*
X181771569Y-60237708D01*
X181641784Y-60199600D01*
X181641783Y-60199600D01*
X181506517Y-60199600D01*
X181506516Y-60199600D01*
X181376730Y-60237708D01*
X181262938Y-60310838D01*
X181262933Y-60310842D01*
X181174359Y-60413061D01*
X181174353Y-60413071D01*
X181118163Y-60536106D01*
X181118162Y-60536111D01*
X181098913Y-60669999D01*
X142500500Y-60669999D01*
X142500500Y-60019999D01*
X185498913Y-60019999D01*
X185518162Y-60153888D01*
X185518163Y-60153893D01*
X185556441Y-60237708D01*
X185574355Y-60276933D01*
X185574358Y-60276936D01*
X185574359Y-60276938D01*
X185603737Y-60310842D01*
X185662936Y-60379160D01*
X185776729Y-60452291D01*
X185841622Y-60471345D01*
X185906516Y-60490400D01*
X185906517Y-60490400D01*
X186041783Y-60490400D01*
X186171571Y-60452291D01*
X186285364Y-60379160D01*
X186373945Y-60276933D01*
X186430137Y-60153890D01*
X186449387Y-60020000D01*
X186430137Y-59886110D01*
X186430136Y-59886109D01*
X186430136Y-59886106D01*
X186402041Y-59824588D01*
X186373945Y-59763067D01*
X186285364Y-59660840D01*
X186171571Y-59587709D01*
X186171570Y-59587708D01*
X186171569Y-59587708D01*
X186041784Y-59549600D01*
X186041783Y-59549600D01*
X185906517Y-59549600D01*
X185906516Y-59549600D01*
X185776730Y-59587708D01*
X185662938Y-59660838D01*
X185662933Y-59660842D01*
X185574359Y-59763061D01*
X185574353Y-59763071D01*
X185518163Y-59886106D01*
X185518162Y-59886111D01*
X185498913Y-60019999D01*
X142500500Y-60019999D01*
X142500500Y-56624500D01*
X142520185Y-56557461D01*
X142572989Y-56511706D01*
X142624500Y-56500500D01*
X199625500Y-56500500D01*
X199692539Y-56520185D01*
G37*
%TD.AperFunction*%
%TD*%
M02*
