M48
; DRILL file {KiCad 7.0.7} date Fri Feb  9 10:06:23 2024
; FORMAT={-:-/ absolute / metric / decimal}
; #@! TF.CreationDate,2024-02-09T10:06:23-05:00
; #@! TF.GenerationSoftware,Kicad,Pcbnew,7.0.7
; #@! TF.FileFunction,Plated,1,4,PTH
FMAT,2
METRIC
; #@! TA.AperFunction,Plated,PTH,ViaDrill
T1C0.330
; #@! TA.AperFunction,Plated,PTH,ViaDrill
T2C0.381
; #@! TA.AperFunction,Plated,PTH,ComponentDrill
T3C1.000
; #@! TA.AperFunction,Plated,PTH,ComponentDrill
T4C1.200
; #@! TA.AperFunction,Plated,PTH,ComponentDrill
T5C1.400
; #@! TA.AperFunction,Plated,PTH,ComponentDrill
T6C3.200
%
G90
G05
T1
X148.4Y-82.2
X148.4Y-83.6
X148.4Y-85.0
X148.7Y-70.308
X148.8Y-88.7
X149.5Y-81.1
X149.5Y-86.1
X149.75Y-106.055
X149.75Y-107.055
X149.8Y-70.308
X149.85Y-108.855
X149.85Y-109.955
X150.45Y-127.355
X150.45Y-129.855
X150.75Y-106.055
X150.75Y-108.855
X150.9Y-81.1
X150.9Y-86.1
X151.55Y-127.355
X151.55Y-128.655
X151.55Y-129.855
X151.65Y-108.855
X151.65Y-109.955
X151.75Y-106.055
X151.75Y-107.055
X152.3Y-81.1
X152.3Y-86.1
X152.75Y-127.355
X152.75Y-129.855
X152.95Y-109.955
X153.0Y-89.631
X153.3Y-71.1
X153.4Y-82.2
X153.4Y-83.6
X153.4Y-85.0
X153.55Y-107.555
X153.55Y-109.055
X153.7Y-74.7
X155.1Y-129.9
X156.35Y-128.555
X156.35Y-129.855
X156.45Y-127.355
X157.25Y-127.355
X157.35Y-100.955
X158.05Y-127.355
X158.05Y-128.555
X158.05Y-129.855
X159.1Y-87.7
X159.1Y-88.8
X159.5Y-77.7
X159.5Y-129.9
X159.6Y-113.4
X160.95Y-108.955
X161.05Y-107.455
X161.3Y-68.5
X161.3Y-97.9
X161.35Y-109.855
X161.75Y-127.355
X161.75Y-129.855
X162.85Y-105.955
X162.85Y-106.955
X162.85Y-108.855
X162.85Y-109.855
X162.95Y-127.355
X162.95Y-128.655
X162.95Y-129.855
X163.75Y-105.955
X163.75Y-108.855
X164.05Y-127.355
X164.05Y-129.855
X164.65Y-105.955
X164.65Y-106.955
X164.65Y-108.855
X164.65Y-109.855
X165.6Y-96.0
X166.6Y-80.3
X166.9Y-77.1
X167.3Y-105.1
X168.4Y-67.9
X168.7Y-80.3
X168.7Y-82.3
X174.6Y-75.8
X175.3Y-73.2
X175.6Y-85.4
X175.7Y-82.2
X176.6Y-100.1
X176.7Y-62.1
X176.8Y-68.5
X176.8Y-108.3
X176.8Y-116.6
X176.8Y-124.9
X176.9Y-77.2
X177.0Y-67.0
X178.0Y-93.7
X179.75Y-90.4
X179.75Y-98.5
X179.75Y-106.9
X179.75Y-115.1
X179.75Y-123.4
X181.474Y-79.27
X181.474Y-85.37
X181.574Y-60.67
X181.574Y-66.87
X181.574Y-73.17
X185.974Y-60.02
X185.974Y-66.27
X185.974Y-72.52
X185.974Y-78.77
X185.974Y-84.77
X189.9Y-89.7
X190.7Y-113.7
T2
X148.7Y-117.8
X179.7Y-109.2
X179.7Y-111.5
X179.7Y-117.405
X179.7Y-119.7
X179.7Y-125.7
X179.75Y-127.95
X179.755Y-100.9
X179.755Y-103.1
X179.809Y-92.64
X179.809Y-94.74
X182.975Y-94.0
X182.984Y-95.118
X183.09Y-102.5
X183.09Y-103.5
X183.2Y-110.7
X183.2Y-111.8
X183.275Y-119.0
X183.275Y-120.0
X183.3Y-127.3
X183.3Y-128.3
X188.1Y-93.5
X188.2Y-102.0
X188.4Y-110.2
X188.4Y-126.8
X188.5Y-118.5
T3
X144.725Y-67.125
X147.265Y-67.125
X149.0Y-98.225
X149.0Y-100.765
X149.0Y-103.305
X152.17Y-67.125
X154.71Y-67.125
X157.25Y-67.125
T4
X146.4Y-125.1
X146.4Y-128.6
T5
X196.0Y-59.75
X196.0Y-63.25
X196.0Y-66.75
X196.0Y-70.25
X196.0Y-73.75
X196.0Y-80.25
X196.0Y-83.75
X196.0Y-87.25
X196.0Y-90.75
X196.0Y-94.25
X196.0Y-97.75
X196.0Y-101.25
X196.0Y-104.75
X196.0Y-108.25
X196.0Y-111.75
X196.0Y-115.25
X196.0Y-118.75
T6
X171.5Y-122.5
X171.75Y-64.5
T0
M30
