%TF.GenerationSoftware,KiCad,Pcbnew,7.0.7*%
%TF.CreationDate,2024-02-09T10:04:47-05:00*%
%TF.ProjectId,control-module-pcb,636f6e74-726f-46c2-9d6d-6f64756c652d,rev?*%
%TF.SameCoordinates,Original*%
%TF.FileFunction,Legend,Bot*%
%TF.FilePolarity,Positive*%
%FSLAX46Y46*%
G04 Gerber Fmt 4.6, Leading zero omitted, Abs format (unit mm)*
G04 Created by KiCad (PCBNEW 7.0.7) date 2024-02-09 10:04:47*
%MOMM*%
%LPD*%
G01*
G04 APERTURE LIST*
G04 Aperture macros list*
%AMRoundRect*
0 Rectangle with rounded corners*
0 $1 Rounding radius*
0 $2 $3 $4 $5 $6 $7 $8 $9 X,Y pos of 4 corners*
0 Add a 4 corners polygon primitive as box body*
4,1,4,$2,$3,$4,$5,$6,$7,$8,$9,$2,$3,0*
0 Add four circle primitives for the rounded corners*
1,1,$1+$1,$2,$3*
1,1,$1+$1,$4,$5*
1,1,$1+$1,$6,$7*
1,1,$1+$1,$8,$9*
0 Add four rect primitives between the rounded corners*
20,1,$1+$1,$2,$3,$4,$5,0*
20,1,$1+$1,$4,$5,$6,$7,0*
20,1,$1+$1,$6,$7,$8,$9,0*
20,1,$1+$1,$8,$9,$2,$3,0*%
G04 Aperture macros list end*
%ADD10C,0.152400*%
%ADD11RoundRect,0.102000X-0.875000X0.875000X-0.875000X-0.875000X0.875000X-0.875000X0.875000X0.875000X0*%
%ADD12C,1.954000*%
%ADD13R,1.700000X1.700000*%
%ADD14O,1.700000X1.700000*%
%ADD15RoundRect,0.102000X0.900000X-0.900000X0.900000X0.900000X-0.900000X0.900000X-0.900000X-0.900000X0*%
%ADD16C,2.004000*%
%ADD17C,3.600000*%
%ADD18C,5.700000*%
G04 APERTURE END LIST*
D10*
X143671836Y-77314548D02*
X143731360Y-77493120D01*
X143731360Y-77493120D02*
X143790884Y-77552643D01*
X143790884Y-77552643D02*
X143909932Y-77612167D01*
X143909932Y-77612167D02*
X144088503Y-77612167D01*
X144088503Y-77612167D02*
X144207551Y-77552643D01*
X144207551Y-77552643D02*
X144267075Y-77493120D01*
X144267075Y-77493120D02*
X144326598Y-77374072D01*
X144326598Y-77374072D02*
X144326598Y-76897882D01*
X144326598Y-76897882D02*
X143076598Y-76897882D01*
X143076598Y-76897882D02*
X143076598Y-77314548D01*
X143076598Y-77314548D02*
X143136122Y-77433596D01*
X143136122Y-77433596D02*
X143195646Y-77493120D01*
X143195646Y-77493120D02*
X143314694Y-77552643D01*
X143314694Y-77552643D02*
X143433741Y-77552643D01*
X143433741Y-77552643D02*
X143552789Y-77493120D01*
X143552789Y-77493120D02*
X143612313Y-77433596D01*
X143612313Y-77433596D02*
X143671836Y-77314548D01*
X143671836Y-77314548D02*
X143671836Y-76897882D01*
X144267075Y-78624072D02*
X144326598Y-78505024D01*
X144326598Y-78505024D02*
X144326598Y-78266929D01*
X144326598Y-78266929D02*
X144267075Y-78147882D01*
X144267075Y-78147882D02*
X144148027Y-78088358D01*
X144148027Y-78088358D02*
X143671836Y-78088358D01*
X143671836Y-78088358D02*
X143552789Y-78147882D01*
X143552789Y-78147882D02*
X143493265Y-78266929D01*
X143493265Y-78266929D02*
X143493265Y-78505024D01*
X143493265Y-78505024D02*
X143552789Y-78624072D01*
X143552789Y-78624072D02*
X143671836Y-78683596D01*
X143671836Y-78683596D02*
X143790884Y-78683596D01*
X143790884Y-78683596D02*
X143909932Y-78088358D01*
X143493265Y-79219311D02*
X144326598Y-79219311D01*
X143612313Y-79219311D02*
X143552789Y-79278834D01*
X143552789Y-79278834D02*
X143493265Y-79397882D01*
X143493265Y-79397882D02*
X143493265Y-79576453D01*
X143493265Y-79576453D02*
X143552789Y-79695501D01*
X143552789Y-79695501D02*
X143671836Y-79755025D01*
X143671836Y-79755025D02*
X144326598Y-79755025D01*
X144326598Y-81302644D02*
X143076598Y-81302644D01*
X143076598Y-81302644D02*
X143969455Y-81719310D01*
X143969455Y-81719310D02*
X143076598Y-82135977D01*
X143076598Y-82135977D02*
X144326598Y-82135977D01*
X144326598Y-83266929D02*
X143671836Y-83266929D01*
X143671836Y-83266929D02*
X143552789Y-83207405D01*
X143552789Y-83207405D02*
X143493265Y-83088357D01*
X143493265Y-83088357D02*
X143493265Y-82850262D01*
X143493265Y-82850262D02*
X143552789Y-82731215D01*
X144267075Y-83266929D02*
X144326598Y-83147881D01*
X144326598Y-83147881D02*
X144326598Y-82850262D01*
X144326598Y-82850262D02*
X144267075Y-82731215D01*
X144267075Y-82731215D02*
X144148027Y-82671691D01*
X144148027Y-82671691D02*
X144028979Y-82671691D01*
X144028979Y-82671691D02*
X143909932Y-82731215D01*
X143909932Y-82731215D02*
X143850408Y-82850262D01*
X143850408Y-82850262D02*
X143850408Y-83147881D01*
X143850408Y-83147881D02*
X143790884Y-83266929D01*
X144326598Y-83862167D02*
X143493265Y-83862167D01*
X143731360Y-83862167D02*
X143612313Y-83921690D01*
X143612313Y-83921690D02*
X143552789Y-83981214D01*
X143552789Y-83981214D02*
X143493265Y-84100262D01*
X143493265Y-84100262D02*
X143493265Y-84219309D01*
X143493265Y-84457405D02*
X143493265Y-84933596D01*
X143076598Y-84635977D02*
X144148027Y-84635977D01*
X144148027Y-84635977D02*
X144267075Y-84695500D01*
X144267075Y-84695500D02*
X144326598Y-84814548D01*
X144326598Y-84814548D02*
X144326598Y-84933596D01*
X144267075Y-85826453D02*
X144326598Y-85707405D01*
X144326598Y-85707405D02*
X144326598Y-85469310D01*
X144326598Y-85469310D02*
X144267075Y-85350263D01*
X144267075Y-85350263D02*
X144148027Y-85290739D01*
X144148027Y-85290739D02*
X143671836Y-85290739D01*
X143671836Y-85290739D02*
X143552789Y-85350263D01*
X143552789Y-85350263D02*
X143493265Y-85469310D01*
X143493265Y-85469310D02*
X143493265Y-85707405D01*
X143493265Y-85707405D02*
X143552789Y-85826453D01*
X143552789Y-85826453D02*
X143671836Y-85885977D01*
X143671836Y-85885977D02*
X143790884Y-85885977D01*
X143790884Y-85885977D02*
X143909932Y-85290739D01*
X143493265Y-86421692D02*
X144326598Y-86421692D01*
X143612313Y-86421692D02*
X143552789Y-86481215D01*
X143552789Y-86481215D02*
X143493265Y-86600263D01*
X143493265Y-86600263D02*
X143493265Y-86778834D01*
X143493265Y-86778834D02*
X143552789Y-86897882D01*
X143552789Y-86897882D02*
X143671836Y-86957406D01*
X143671836Y-86957406D02*
X144326598Y-86957406D01*
X144267075Y-87493120D02*
X144326598Y-87612167D01*
X144326598Y-87612167D02*
X144326598Y-87850263D01*
X144326598Y-87850263D02*
X144267075Y-87969310D01*
X144267075Y-87969310D02*
X144148027Y-88028834D01*
X144148027Y-88028834D02*
X144088503Y-88028834D01*
X144088503Y-88028834D02*
X143969455Y-87969310D01*
X143969455Y-87969310D02*
X143909932Y-87850263D01*
X143909932Y-87850263D02*
X143909932Y-87671691D01*
X143909932Y-87671691D02*
X143850408Y-87552644D01*
X143850408Y-87552644D02*
X143731360Y-87493120D01*
X143731360Y-87493120D02*
X143671836Y-87493120D01*
X143671836Y-87493120D02*
X143552789Y-87552644D01*
X143552789Y-87552644D02*
X143493265Y-87671691D01*
X143493265Y-87671691D02*
X143493265Y-87850263D01*
X143493265Y-87850263D02*
X143552789Y-87969310D01*
X145208146Y-76838358D02*
X145148622Y-76897882D01*
X145148622Y-76897882D02*
X145089098Y-77016929D01*
X145089098Y-77016929D02*
X145089098Y-77314548D01*
X145089098Y-77314548D02*
X145148622Y-77433596D01*
X145148622Y-77433596D02*
X145208146Y-77493120D01*
X145208146Y-77493120D02*
X145327194Y-77552643D01*
X145327194Y-77552643D02*
X145446241Y-77552643D01*
X145446241Y-77552643D02*
X145624813Y-77493120D01*
X145624813Y-77493120D02*
X146339098Y-76778834D01*
X146339098Y-76778834D02*
X146339098Y-77552643D01*
X145089098Y-78326453D02*
X145089098Y-78445500D01*
X145089098Y-78445500D02*
X145148622Y-78564548D01*
X145148622Y-78564548D02*
X145208146Y-78624072D01*
X145208146Y-78624072D02*
X145327194Y-78683596D01*
X145327194Y-78683596D02*
X145565289Y-78743119D01*
X145565289Y-78743119D02*
X145862908Y-78743119D01*
X145862908Y-78743119D02*
X146101003Y-78683596D01*
X146101003Y-78683596D02*
X146220051Y-78624072D01*
X146220051Y-78624072D02*
X146279575Y-78564548D01*
X146279575Y-78564548D02*
X146339098Y-78445500D01*
X146339098Y-78445500D02*
X146339098Y-78326453D01*
X146339098Y-78326453D02*
X146279575Y-78207405D01*
X146279575Y-78207405D02*
X146220051Y-78147881D01*
X146220051Y-78147881D02*
X146101003Y-78088358D01*
X146101003Y-78088358D02*
X145862908Y-78028834D01*
X145862908Y-78028834D02*
X145565289Y-78028834D01*
X145565289Y-78028834D02*
X145327194Y-78088358D01*
X145327194Y-78088358D02*
X145208146Y-78147881D01*
X145208146Y-78147881D02*
X145148622Y-78207405D01*
X145148622Y-78207405D02*
X145089098Y-78326453D01*
X145208146Y-79219310D02*
X145148622Y-79278834D01*
X145148622Y-79278834D02*
X145089098Y-79397881D01*
X145089098Y-79397881D02*
X145089098Y-79695500D01*
X145089098Y-79695500D02*
X145148622Y-79814548D01*
X145148622Y-79814548D02*
X145208146Y-79874072D01*
X145208146Y-79874072D02*
X145327194Y-79933595D01*
X145327194Y-79933595D02*
X145446241Y-79933595D01*
X145446241Y-79933595D02*
X145624813Y-79874072D01*
X145624813Y-79874072D02*
X146339098Y-79159786D01*
X146339098Y-79159786D02*
X146339098Y-79933595D01*
X145505765Y-81005024D02*
X146339098Y-81005024D01*
X145029575Y-80707405D02*
X145922432Y-80409786D01*
X145922432Y-80409786D02*
X145922432Y-81183595D01*
X145862908Y-81659786D02*
X145862908Y-82612167D01*
X145089098Y-83445500D02*
X145089098Y-83564547D01*
X145089098Y-83564547D02*
X145148622Y-83683595D01*
X145148622Y-83683595D02*
X145208146Y-83743119D01*
X145208146Y-83743119D02*
X145327194Y-83802643D01*
X145327194Y-83802643D02*
X145565289Y-83862166D01*
X145565289Y-83862166D02*
X145862908Y-83862166D01*
X145862908Y-83862166D02*
X146101003Y-83802643D01*
X146101003Y-83802643D02*
X146220051Y-83743119D01*
X146220051Y-83743119D02*
X146279575Y-83683595D01*
X146279575Y-83683595D02*
X146339098Y-83564547D01*
X146339098Y-83564547D02*
X146339098Y-83445500D01*
X146339098Y-83445500D02*
X146279575Y-83326452D01*
X146279575Y-83326452D02*
X146220051Y-83266928D01*
X146220051Y-83266928D02*
X146101003Y-83207405D01*
X146101003Y-83207405D02*
X145862908Y-83147881D01*
X145862908Y-83147881D02*
X145565289Y-83147881D01*
X145565289Y-83147881D02*
X145327194Y-83207405D01*
X145327194Y-83207405D02*
X145208146Y-83266928D01*
X145208146Y-83266928D02*
X145148622Y-83326452D01*
X145148622Y-83326452D02*
X145089098Y-83445500D01*
X145208146Y-84338357D02*
X145148622Y-84397881D01*
X145148622Y-84397881D02*
X145089098Y-84516928D01*
X145089098Y-84516928D02*
X145089098Y-84814547D01*
X145089098Y-84814547D02*
X145148622Y-84933595D01*
X145148622Y-84933595D02*
X145208146Y-84993119D01*
X145208146Y-84993119D02*
X145327194Y-85052642D01*
X145327194Y-85052642D02*
X145446241Y-85052642D01*
X145446241Y-85052642D02*
X145624813Y-84993119D01*
X145624813Y-84993119D02*
X146339098Y-84278833D01*
X146339098Y-84278833D02*
X146339098Y-85052642D01*
%LPC*%
D11*
%TO.C,J4*%
X196000000Y-59750000D03*
D12*
X196000000Y-63250000D03*
X196000000Y-66750000D03*
X196000000Y-70250000D03*
X196000000Y-73750000D03*
%TD*%
D13*
%TO.C,J2*%
X144725000Y-67125000D03*
D14*
X147265000Y-67125000D03*
%TD*%
D15*
%TO.C,J5*%
X146400000Y-128600000D03*
D16*
X146400000Y-125100000D03*
%TD*%
D13*
%TO.C,J1*%
X152170000Y-67125000D03*
D14*
X154710000Y-67125000D03*
X157250000Y-67125000D03*
%TD*%
D11*
%TO.C,J3*%
X196000000Y-80250000D03*
D12*
X196000000Y-83750000D03*
X196000000Y-87250000D03*
X196000000Y-90750000D03*
X196000000Y-94250000D03*
X196000000Y-97750000D03*
X196000000Y-101250000D03*
X196000000Y-104750000D03*
X196000000Y-108250000D03*
X196000000Y-111750000D03*
X196000000Y-115250000D03*
X196000000Y-118750000D03*
%TD*%
D17*
%TO.C,REF\u002A\u002A*%
X171500000Y-122500000D03*
D18*
X171500000Y-122500000D03*
%TD*%
D17*
%TO.C,REF\u002A\u002A*%
X171750000Y-64500000D03*
D18*
X171750000Y-64500000D03*
%TD*%
D13*
%TO.C,JP1*%
X149000000Y-98225300D03*
D14*
X149000000Y-100765300D03*
X149000000Y-103305300D03*
%TD*%
%LPD*%
M02*
