%TF.GenerationSoftware,KiCad,Pcbnew,7.0.7*%
%TF.CreationDate,2024-02-14T18:39:21-05:00*%
%TF.ProjectId,control-module-pcb,636f6e74-726f-46c2-9d6d-6f64756c652d,rev?*%
%TF.SameCoordinates,Original*%
%TF.FileFunction,Copper,L3,Inr*%
%TF.FilePolarity,Positive*%
%FSLAX46Y46*%
G04 Gerber Fmt 4.6, Leading zero omitted, Abs format (unit mm)*
G04 Created by KiCad (PCBNEW 7.0.7) date 2024-02-14 18:39:21*
%MOMM*%
%LPD*%
G01*
G04 APERTURE LIST*
%TA.AperFunction,ComponentPad*%
%ADD10R,1.750000X1.750000*%
%TD*%
%TA.AperFunction,ComponentPad*%
%ADD11C,1.750000*%
%TD*%
%TA.AperFunction,ComponentPad*%
%ADD12R,1.700000X1.700000*%
%TD*%
%TA.AperFunction,ComponentPad*%
%ADD13O,1.700000X1.700000*%
%TD*%
%TA.AperFunction,ComponentPad*%
%ADD14R,1.800000X1.800000*%
%TD*%
%TA.AperFunction,ComponentPad*%
%ADD15C,1.800000*%
%TD*%
%TA.AperFunction,ComponentPad*%
%ADD16C,3.600000*%
%TD*%
%TA.AperFunction,ViaPad*%
%ADD17C,0.685800*%
%TD*%
%TA.AperFunction,ViaPad*%
%ADD18C,0.889000*%
%TD*%
%TA.AperFunction,Conductor*%
%ADD19C,0.177800*%
%TD*%
%TA.AperFunction,Conductor*%
%ADD20C,2.032000*%
%TD*%
%TA.AperFunction,Conductor*%
%ADD21C,0.762000*%
%TD*%
%TA.AperFunction,Conductor*%
%ADD22C,0.254000*%
%TD*%
%TA.AperFunction,Conductor*%
%ADD23C,0.508000*%
%TD*%
G04 APERTURE END LIST*
D10*
%TO.N,/IGNITION1*%
%TO.C,J4*%
X196000000Y-59750000D03*
D11*
%TO.N,/ACCESSORY1*%
X196000000Y-63250000D03*
%TO.N,/IGNITION2*%
X196000000Y-66750000D03*
%TO.N,/ACCESSORY2*%
X196000000Y-70250000D03*
%TO.N,/STARTER*%
X196000000Y-73750000D03*
%TD*%
D12*
%TO.N,/BOOT*%
%TO.C,J2*%
X144725000Y-67125000D03*
D13*
%TO.N,GND*%
X147265000Y-67125000D03*
%TD*%
D14*
%TO.N,GND*%
%TO.C,J5*%
X146400000Y-128600000D03*
D15*
%TO.N,+BATT*%
X146400000Y-125100000D03*
%TD*%
D12*
%TO.N,/TX*%
%TO.C,J1*%
X152170000Y-67125000D03*
D13*
%TO.N,/RX*%
X154710000Y-67125000D03*
%TO.N,GND*%
X157250000Y-67125000D03*
%TD*%
D10*
%TO.N,/HEAD_UNIT_PWR*%
%TO.C,J3*%
X196000000Y-80250000D03*
D11*
%TO.N,GND*%
X196000000Y-83750000D03*
%TO.N,/HEAD_UNIT_SHUTDOWN*%
X196000000Y-87250000D03*
%TO.N,/L_BLIND_SPOT_PWR*%
X196000000Y-90750000D03*
%TO.N,GND*%
X196000000Y-94250000D03*
%TO.N,/R_BLIND_SPOT_PWR*%
X196000000Y-97750000D03*
%TO.N,GND*%
X196000000Y-101250000D03*
%TO.N,/DASH_CAM_PWR*%
X196000000Y-104750000D03*
%TO.N,GND*%
X196000000Y-108250000D03*
%TO.N,/DASH_CAM_SHUTDOWN*%
X196000000Y-111750000D03*
%TO.N,/BACKUP_CAM_PWR*%
X196000000Y-115250000D03*
%TO.N,GND*%
X196000000Y-118750000D03*
%TD*%
D16*
%TO.N,N/C*%
%TO.C,REF\u002A\u002A*%
X171500000Y-122500000D03*
%TD*%
%TO.N,N/C*%
%TO.C,REF\u002A\u002A*%
X171750000Y-64500000D03*
%TD*%
D12*
%TO.N,/Power Supply/VCC*%
%TO.C,JP1*%
X149000000Y-98225300D03*
D13*
%TO.N,Net-(JP1-C)*%
X149000000Y-100765300D03*
%TO.N,GND*%
X149000000Y-103305300D03*
%TD*%
D17*
%TO.N,/5V*%
X179750000Y-98500000D03*
X158050000Y-129855300D03*
X179750000Y-123400000D03*
X156350000Y-129855300D03*
D18*
X179755000Y-100900000D03*
D17*
X158050000Y-127355300D03*
X156450000Y-127355300D03*
X179750000Y-106900000D03*
D18*
X179750000Y-127950000D03*
D17*
X156350000Y-128555300D03*
D18*
X179809149Y-94740000D03*
X179700000Y-111500000D03*
X179700000Y-109200000D03*
D17*
X157350000Y-100955300D03*
D18*
X179809149Y-92640000D03*
D17*
X179750000Y-115100000D03*
D18*
X179700000Y-119700000D03*
X179755000Y-103100000D03*
X179700000Y-117404901D03*
D17*
X157250000Y-127355300D03*
X158050000Y-128555300D03*
D18*
X179700000Y-125700000D03*
X148700000Y-117800000D03*
D17*
X155100000Y-129900000D03*
X159500000Y-129900000D03*
X179750000Y-90400000D03*
D18*
%TO.N,GND*%
X183274650Y-119000000D03*
D17*
X168400000Y-67900000D03*
X175700000Y-82200000D03*
X151550000Y-127355300D03*
D18*
X183200000Y-111800000D03*
D17*
X176800000Y-108300000D03*
X176800000Y-116600000D03*
X153550000Y-109055300D03*
X175600000Y-85400000D03*
X162850000Y-109855300D03*
D18*
X183089973Y-103500150D03*
D17*
X164050000Y-129855300D03*
D18*
X183200000Y-110700000D03*
D17*
X164650000Y-109855300D03*
D18*
X183300000Y-127300000D03*
D17*
X152950000Y-109955300D03*
X176800000Y-124900000D03*
X176900000Y-77200000D03*
X162950000Y-127355300D03*
X160950000Y-108955300D03*
X153400000Y-85000000D03*
X149850000Y-109955300D03*
X150900000Y-86100000D03*
X165600000Y-96000000D03*
D18*
X183089900Y-102500000D03*
D17*
X149850000Y-108855300D03*
X149500000Y-86100000D03*
X152300000Y-81100000D03*
X152300000Y-86100000D03*
X150450000Y-129855300D03*
X161350000Y-109855300D03*
X151650000Y-109955300D03*
X176700000Y-62100000D03*
X151650000Y-108855300D03*
X151550000Y-128655300D03*
X148800000Y-88700000D03*
X148400000Y-82200000D03*
X162950000Y-129855300D03*
X150750000Y-108855300D03*
X178000000Y-93700000D03*
X163750000Y-108855300D03*
X161750000Y-129855300D03*
X149500000Y-81100000D03*
X176600000Y-100100000D03*
D18*
X183300000Y-128300000D03*
D17*
X162950000Y-128655300D03*
X167800000Y-100700000D03*
X153300000Y-71100000D03*
X150450000Y-127355300D03*
X153400000Y-83600000D03*
X168700000Y-80300000D03*
X148400000Y-85000000D03*
X152750000Y-129855300D03*
X153400000Y-82200000D03*
X175300000Y-73200000D03*
X148400000Y-83600000D03*
X176800000Y-68500000D03*
X150900000Y-81100000D03*
X162850000Y-108855300D03*
X151550000Y-129855300D03*
X166900000Y-77100000D03*
X164050000Y-127355300D03*
X164650000Y-108855300D03*
X161750000Y-127355300D03*
X161300000Y-97900000D03*
D18*
X182975500Y-94000000D03*
D17*
X152750000Y-127355300D03*
D18*
X182983605Y-95118414D03*
X183274727Y-120000386D03*
D17*
%TO.N,+BATT*%
X149750000Y-107055300D03*
X159600000Y-113400000D03*
X185974150Y-78770000D03*
X164650000Y-106955300D03*
X153550000Y-107555300D03*
X185974150Y-84770000D03*
X164650000Y-105955300D03*
X151750000Y-106055300D03*
X162850000Y-105955300D03*
X149750000Y-106055300D03*
X162850000Y-106955300D03*
X163750000Y-105955300D03*
X151750000Y-107055300D03*
X185974150Y-60020000D03*
X150750000Y-106055300D03*
X185974150Y-66270000D03*
X185974150Y-72520000D03*
X161050000Y-107455300D03*
%TO.N,/Power Supply/VCC*%
X160250000Y-102855300D03*
D18*
%TO.N,/HEAD_UNIT_PWR*%
X188100000Y-93500000D03*
%TO.N,/L_BLIND_SPOT_PWR*%
X188200000Y-102000000D03*
%TO.N,/R_BLIND_SPOT_PWR*%
X188400000Y-110200000D03*
%TO.N,/DASH_CAM_PWR*%
X188500000Y-118500000D03*
%TO.N,/BACKUP_CAM_PWR*%
X188400000Y-126800000D03*
D17*
%TO.N,/IGNITION1*%
X181574150Y-60670000D03*
%TO.N,/ACCESSORY1*%
X177000000Y-67000000D03*
X181574150Y-66870000D03*
X174600000Y-75800000D03*
%TO.N,/IGNITION2*%
X181574150Y-73170000D03*
%TO.N,/ACCESSORY2*%
X181474150Y-79270000D03*
%TO.N,/STARTER*%
X181474150Y-85370000D03*
%TO.N,/TX*%
X148700000Y-70308300D03*
%TO.N,/RX*%
X149800000Y-70308300D03*
%TO.N,/BOOT*%
X153700000Y-74700000D03*
%TO.N,/HEAD_UNIT_SHUTDOWN*%
X189900000Y-89700000D03*
X153000000Y-89630598D03*
%TO.N,/DASH_CAM_SHUTDOWN*%
X167300000Y-105100000D03*
X190700000Y-113700000D03*
%TO.N,/EN*%
X161300000Y-68500000D03*
X159500000Y-77700000D03*
%TO.N,Net-(U1-GPIO6{slash}TOUCH6{slash}ADC1_CH5)*%
X166600000Y-80300000D03*
X159100000Y-87700000D03*
%TO.N,Net-(U1-GPIO7{slash}TOUCH7{slash}ADC1_CH6)*%
X159100000Y-88800000D03*
X168700000Y-82300000D03*
%TO.N,Net-(U1-GPIO5{slash}TOUCH5{slash}ADC1_CH4)*%
X159750000Y-92500000D03*
X153250000Y-92500000D03*
%TD*%
D19*
%TO.N,/5V*%
X157500000Y-125500000D02*
X157400000Y-125600000D01*
D20*
X157500000Y-125500000D02*
X164296080Y-125500000D01*
X168096080Y-129300000D02*
X178400000Y-129300000D01*
D19*
X161655300Y-100955300D02*
X165800000Y-105100000D01*
X157350000Y-100955300D02*
X161655300Y-100955300D01*
D20*
X178400000Y-129300000D02*
X179750000Y-127950000D01*
D19*
X165800000Y-105100000D02*
X165800000Y-117200000D01*
D21*
X148700000Y-117800000D02*
X149800000Y-117800000D01*
D20*
X179750000Y-127950000D02*
X179750000Y-90400000D01*
D19*
X165800000Y-117200000D02*
X157500000Y-125500000D01*
D21*
X149800000Y-117800000D02*
X157500000Y-125500000D01*
D20*
X164296080Y-125500000D02*
X168096080Y-129300000D01*
D19*
%TO.N,/Power Supply/VCC*%
X149000000Y-98225300D02*
X152125300Y-98225300D01*
X152125300Y-98225300D02*
X156755300Y-102855300D01*
X156755300Y-102855300D02*
X160250000Y-102855300D01*
X160250000Y-102550000D02*
X160250000Y-102855300D01*
X160250000Y-102855300D02*
X160250000Y-103055300D01*
D21*
%TO.N,/HEAD_UNIT_PWR*%
X189250000Y-93500000D02*
X188100000Y-93500000D01*
X191500000Y-91250000D02*
X191500000Y-84750000D01*
X189250000Y-93500000D02*
X191500000Y-91250000D01*
X191500000Y-84750000D02*
X196000000Y-80250000D01*
D22*
%TO.N,/L_BLIND_SPOT_PWR*%
X188200000Y-102000000D02*
X189200000Y-102000000D01*
X189200000Y-102000000D02*
X191800000Y-99400000D01*
X191800000Y-94950000D02*
X196000000Y-90750000D01*
X191800000Y-99400000D02*
X191800000Y-94950000D01*
%TO.N,/R_BLIND_SPOT_PWR*%
X188400000Y-110200000D02*
X189300000Y-110200000D01*
X191800000Y-101950000D02*
X196000000Y-97750000D01*
X189300000Y-110200000D02*
X191800000Y-107700000D01*
X191800000Y-107700000D02*
X191800000Y-101950000D01*
%TO.N,/DASH_CAM_PWR*%
X188500000Y-118500000D02*
X189200000Y-118500000D01*
X191800000Y-108950000D02*
X196000000Y-104750000D01*
X189200000Y-118500000D02*
X191800000Y-115900000D01*
X191800000Y-115900000D02*
X191800000Y-108950000D01*
%TO.N,/BACKUP_CAM_PWR*%
X191700000Y-119550000D02*
X196000000Y-115250000D01*
X188400000Y-126800000D02*
X189200000Y-126800000D01*
X189200000Y-126800000D02*
X191700000Y-124300000D01*
X191700000Y-124300000D02*
X191700000Y-119550000D01*
D23*
%TO.N,/IGNITION1*%
X181648050Y-60743900D02*
X195006100Y-60743900D01*
X195006100Y-60743900D02*
X196000000Y-59750000D01*
X181574150Y-60670000D02*
X181648050Y-60743900D01*
%TO.N,/ACCESSORY1*%
X195750000Y-63000000D02*
X196000000Y-63250000D01*
X185444150Y-63000000D02*
X195750000Y-63000000D01*
X181574150Y-66870000D02*
X185444150Y-63000000D01*
%TO.N,/IGNITION2*%
X181574150Y-73170000D02*
X185494150Y-69250000D01*
X193500000Y-69250000D02*
X196000000Y-66750000D01*
X185494150Y-69250000D02*
X193500000Y-69250000D01*
%TO.N,/ACCESSORY2*%
X185750000Y-75500000D02*
X190750000Y-75500000D01*
X181980000Y-79270000D02*
X185750000Y-75500000D01*
X181474150Y-79270000D02*
X181980000Y-79270000D01*
X190750000Y-75500000D02*
X196000000Y-70250000D01*
%TO.N,/STARTER*%
X181474150Y-85370000D02*
X181630000Y-85370000D01*
X188250000Y-81500000D02*
X196000000Y-73750000D01*
X181630000Y-85370000D02*
X185500000Y-81500000D01*
X185500000Y-81500000D02*
X188250000Y-81500000D01*
%TD*%
%TA.AperFunction,Conductor*%
%TO.N,/5V*%
G36*
X160093039Y-123274985D02*
G01*
X160138794Y-123327789D01*
X160150000Y-123379300D01*
X160150000Y-130431300D01*
X160130315Y-130498339D01*
X160077511Y-130544094D01*
X160026000Y-130555300D01*
X154574000Y-130555300D01*
X154506961Y-130535615D01*
X154461206Y-130482811D01*
X154450000Y-130431300D01*
X154450000Y-123379300D01*
X154469685Y-123312261D01*
X154522489Y-123266506D01*
X154574000Y-123255300D01*
X160026000Y-123255300D01*
X160093039Y-123274985D01*
G37*
%TD.AperFunction*%
%TD*%
%TA.AperFunction,Conductor*%
%TO.N,+BATT*%
G36*
X199692539Y-56520185D02*
G01*
X199738294Y-56572989D01*
X199749500Y-56624500D01*
X199749500Y-131275500D01*
X199729815Y-131342539D01*
X199677011Y-131388294D01*
X199625500Y-131399500D01*
X142624500Y-131399500D01*
X142557461Y-131379815D01*
X142511706Y-131327011D01*
X142500500Y-131275500D01*
X142500500Y-129855300D01*
X149974763Y-129855300D01*
X149994012Y-129989188D01*
X149994013Y-129989193D01*
X150039535Y-130088869D01*
X150050205Y-130112233D01*
X150050208Y-130112236D01*
X150050209Y-130112238D01*
X150124117Y-130197532D01*
X150138786Y-130214460D01*
X150252579Y-130287591D01*
X150317473Y-130306645D01*
X150382366Y-130325700D01*
X150382367Y-130325700D01*
X150517633Y-130325700D01*
X150647421Y-130287591D01*
X150761214Y-130214460D01*
X150849795Y-130112233D01*
X150879727Y-130046690D01*
X150887206Y-130030315D01*
X150932961Y-129977511D01*
X151000000Y-129957827D01*
X151067040Y-129977512D01*
X151112794Y-130030315D01*
X151140481Y-130090941D01*
X151150205Y-130112233D01*
X151150207Y-130112236D01*
X151150209Y-130112238D01*
X151224117Y-130197532D01*
X151238786Y-130214460D01*
X151352579Y-130287591D01*
X151417473Y-130306645D01*
X151482366Y-130325700D01*
X151482367Y-130325700D01*
X151617633Y-130325700D01*
X151747421Y-130287591D01*
X151861214Y-130214460D01*
X151949795Y-130112233D01*
X152005987Y-129989190D01*
X152025237Y-129855300D01*
X152274763Y-129855300D01*
X152294012Y-129989188D01*
X152294013Y-129989193D01*
X152339535Y-130088869D01*
X152350205Y-130112233D01*
X152350208Y-130112236D01*
X152350209Y-130112238D01*
X152424117Y-130197532D01*
X152438786Y-130214460D01*
X152552579Y-130287591D01*
X152617473Y-130306645D01*
X152682366Y-130325700D01*
X152682367Y-130325700D01*
X152817633Y-130325700D01*
X152947421Y-130287591D01*
X153061214Y-130214460D01*
X153149795Y-130112233D01*
X153205987Y-129989190D01*
X153225237Y-129855300D01*
X153205987Y-129721410D01*
X153205986Y-129721409D01*
X153205986Y-129721406D01*
X153177891Y-129659888D01*
X153149795Y-129598367D01*
X153149790Y-129598361D01*
X153061216Y-129496142D01*
X153061211Y-129496138D01*
X152947419Y-129423008D01*
X152817634Y-129384900D01*
X152817633Y-129384900D01*
X152682367Y-129384900D01*
X152682366Y-129384900D01*
X152552580Y-129423008D01*
X152438788Y-129496138D01*
X152438783Y-129496142D01*
X152350209Y-129598361D01*
X152350203Y-129598371D01*
X152294013Y-129721406D01*
X152294012Y-129721411D01*
X152274763Y-129855300D01*
X152025237Y-129855300D01*
X152005987Y-129721410D01*
X152005986Y-129721409D01*
X152005986Y-129721406D01*
X151977891Y-129659888D01*
X151949795Y-129598367D01*
X151949790Y-129598361D01*
X151861216Y-129496142D01*
X151861211Y-129496138D01*
X151747419Y-129423008D01*
X151617634Y-129384900D01*
X151617633Y-129384900D01*
X151482367Y-129384900D01*
X151482366Y-129384900D01*
X151352580Y-129423008D01*
X151238788Y-129496138D01*
X151238783Y-129496142D01*
X151150209Y-129598361D01*
X151150202Y-129598371D01*
X151112794Y-129680284D01*
X151067039Y-129733088D01*
X150999999Y-129752772D01*
X150932960Y-129733087D01*
X150887206Y-129680284D01*
X150849797Y-129598371D01*
X150849796Y-129598370D01*
X150849795Y-129598367D01*
X150849790Y-129598361D01*
X150761216Y-129496142D01*
X150761211Y-129496138D01*
X150647419Y-129423008D01*
X150517634Y-129384900D01*
X150517633Y-129384900D01*
X150382367Y-129384900D01*
X150382366Y-129384900D01*
X150252580Y-129423008D01*
X150138788Y-129496138D01*
X150138783Y-129496142D01*
X150050209Y-129598361D01*
X150050203Y-129598371D01*
X149994013Y-129721406D01*
X149994012Y-129721411D01*
X149974763Y-129855300D01*
X142500500Y-129855300D01*
X142500500Y-129512558D01*
X145372500Y-129512558D01*
X145379898Y-129549749D01*
X145408077Y-129591922D01*
X145450250Y-129620101D01*
X145450252Y-129620102D01*
X145478205Y-129625662D01*
X145487441Y-129627500D01*
X145487442Y-129627500D01*
X147312559Y-129627500D01*
X147319957Y-129626028D01*
X147349748Y-129620102D01*
X147391922Y-129591922D01*
X147420102Y-129549748D01*
X147427500Y-129512558D01*
X147427500Y-128655300D01*
X151074763Y-128655300D01*
X151094012Y-128789188D01*
X151094013Y-128789193D01*
X151125107Y-128857277D01*
X151150205Y-128912233D01*
X151238786Y-129014460D01*
X151352579Y-129087591D01*
X151417473Y-129106645D01*
X151482366Y-129125700D01*
X151482367Y-129125700D01*
X151617633Y-129125700D01*
X151747421Y-129087591D01*
X151861214Y-129014460D01*
X151949795Y-128912233D01*
X152005987Y-128789190D01*
X152025237Y-128655300D01*
X152005987Y-128521410D01*
X152005986Y-128521409D01*
X152005986Y-128521406D01*
X151956871Y-128413862D01*
X151949795Y-128398367D01*
X151920752Y-128364850D01*
X151861216Y-128296142D01*
X151861211Y-128296138D01*
X151747419Y-128223008D01*
X151617634Y-128184900D01*
X151617633Y-128184900D01*
X151482367Y-128184900D01*
X151482366Y-128184900D01*
X151352580Y-128223008D01*
X151238788Y-128296138D01*
X151238783Y-128296142D01*
X151150209Y-128398361D01*
X151150203Y-128398371D01*
X151094013Y-128521406D01*
X151094012Y-128521411D01*
X151074763Y-128655300D01*
X147427500Y-128655300D01*
X147427500Y-127687442D01*
X147420102Y-127650252D01*
X147394702Y-127612238D01*
X147391922Y-127608077D01*
X147349749Y-127579898D01*
X147312559Y-127572500D01*
X147312558Y-127572500D01*
X145487442Y-127572500D01*
X145487441Y-127572500D01*
X145450250Y-127579898D01*
X145408077Y-127608077D01*
X145379898Y-127650250D01*
X145372500Y-127687441D01*
X145372500Y-129512558D01*
X142500500Y-129512558D01*
X142500500Y-127355299D01*
X149974763Y-127355299D01*
X149994012Y-127489188D01*
X149994013Y-127489193D01*
X150035438Y-127579898D01*
X150050205Y-127612233D01*
X150050208Y-127612236D01*
X150050209Y-127612238D01*
X150136930Y-127712319D01*
X150138786Y-127714460D01*
X150252579Y-127787591D01*
X150296063Y-127800359D01*
X150382366Y-127825700D01*
X150382367Y-127825700D01*
X150517633Y-127825700D01*
X150647421Y-127787591D01*
X150761214Y-127714460D01*
X150849795Y-127612233D01*
X150887205Y-127530315D01*
X150932961Y-127477511D01*
X151000000Y-127457827D01*
X151067040Y-127477512D01*
X151112794Y-127530315D01*
X151135438Y-127579898D01*
X151150205Y-127612233D01*
X151150207Y-127612236D01*
X151150209Y-127612238D01*
X151236930Y-127712319D01*
X151238786Y-127714460D01*
X151352579Y-127787591D01*
X151396063Y-127800359D01*
X151482366Y-127825700D01*
X151482367Y-127825700D01*
X151617633Y-127825700D01*
X151747421Y-127787591D01*
X151861214Y-127714460D01*
X151949795Y-127612233D01*
X151999144Y-127504174D01*
X152005986Y-127489193D01*
X152005987Y-127489188D01*
X152007666Y-127477511D01*
X152025237Y-127355300D01*
X152025237Y-127355299D01*
X152274763Y-127355299D01*
X152294012Y-127489188D01*
X152294013Y-127489193D01*
X152335438Y-127579898D01*
X152350205Y-127612233D01*
X152350208Y-127612236D01*
X152350209Y-127612238D01*
X152436930Y-127712319D01*
X152438786Y-127714460D01*
X152552579Y-127787591D01*
X152596063Y-127800359D01*
X152682366Y-127825700D01*
X152682367Y-127825700D01*
X152817633Y-127825700D01*
X152947421Y-127787591D01*
X153061214Y-127714460D01*
X153149795Y-127612233D01*
X153199144Y-127504174D01*
X153205986Y-127489193D01*
X153205987Y-127489188D01*
X153207666Y-127477511D01*
X153225237Y-127355300D01*
X153205987Y-127221410D01*
X153205986Y-127221409D01*
X153205986Y-127221406D01*
X153173683Y-127150674D01*
X153149795Y-127098367D01*
X153149790Y-127098361D01*
X153061216Y-126996142D01*
X153061211Y-126996138D01*
X153008460Y-126962237D01*
X152947421Y-126923009D01*
X152947420Y-126923008D01*
X152947419Y-126923008D01*
X152817634Y-126884900D01*
X152817633Y-126884900D01*
X152682367Y-126884900D01*
X152682366Y-126884900D01*
X152552580Y-126923008D01*
X152438788Y-126996138D01*
X152438783Y-126996142D01*
X152350209Y-127098361D01*
X152350203Y-127098371D01*
X152294013Y-127221406D01*
X152294012Y-127221411D01*
X152274763Y-127355299D01*
X152025237Y-127355299D01*
X152005987Y-127221410D01*
X152005986Y-127221409D01*
X152005986Y-127221406D01*
X151973683Y-127150674D01*
X151949795Y-127098367D01*
X151949790Y-127098361D01*
X151861216Y-126996142D01*
X151861211Y-126996138D01*
X151808460Y-126962237D01*
X151747421Y-126923009D01*
X151747420Y-126923008D01*
X151747419Y-126923008D01*
X151617634Y-126884900D01*
X151617633Y-126884900D01*
X151482367Y-126884900D01*
X151482366Y-126884900D01*
X151352580Y-126923008D01*
X151238788Y-126996138D01*
X151238783Y-126996142D01*
X151150209Y-127098361D01*
X151150202Y-127098371D01*
X151112794Y-127180284D01*
X151067039Y-127233088D01*
X150999999Y-127252772D01*
X150932960Y-127233087D01*
X150887206Y-127180284D01*
X150849797Y-127098371D01*
X150849796Y-127098370D01*
X150849795Y-127098367D01*
X150849790Y-127098361D01*
X150761216Y-126996142D01*
X150761211Y-126996138D01*
X150708460Y-126962237D01*
X150647421Y-126923009D01*
X150647420Y-126923008D01*
X150647419Y-126923008D01*
X150517634Y-126884900D01*
X150517633Y-126884900D01*
X150382367Y-126884900D01*
X150382366Y-126884900D01*
X150252580Y-126923008D01*
X150138788Y-126996138D01*
X150138783Y-126996142D01*
X150050209Y-127098361D01*
X150050203Y-127098371D01*
X149994013Y-127221406D01*
X149994012Y-127221411D01*
X149974763Y-127355299D01*
X142500500Y-127355299D01*
X142500500Y-117800000D01*
X148123064Y-117800000D01*
X148137864Y-117912418D01*
X148142723Y-117949321D01*
X148142724Y-117949325D01*
X148179327Y-118037694D01*
X148200359Y-118088468D01*
X148292045Y-118207955D01*
X148411532Y-118299641D01*
X148550678Y-118357277D01*
X148682627Y-118374648D01*
X148699999Y-118376936D01*
X148700000Y-118376936D01*
X148700001Y-118376936D01*
X148715562Y-118374887D01*
X148849322Y-118357277D01*
X148944292Y-118317938D01*
X148991745Y-118308500D01*
X149538010Y-118308500D01*
X149605049Y-118328185D01*
X149625691Y-118344819D01*
X154355324Y-123074452D01*
X154388809Y-123135775D01*
X154383825Y-123205467D01*
X154371958Y-123229173D01*
X154342553Y-123274926D01*
X154342553Y-123274927D01*
X154322866Y-123341971D01*
X154317500Y-123379296D01*
X154317500Y-130431302D01*
X154320527Y-130459465D01*
X154331734Y-130510978D01*
X154361069Y-130569581D01*
X154383946Y-130595981D01*
X154406824Y-130622384D01*
X154406826Y-130622385D01*
X154406827Y-130622386D01*
X154440817Y-130644231D01*
X154469630Y-130662748D01*
X154536669Y-130682433D01*
X154574000Y-130687800D01*
X154574002Y-130687800D01*
X160026000Y-130687800D01*
X160054166Y-130684772D01*
X160105677Y-130673566D01*
X160164280Y-130644231D01*
X160217084Y-130598476D01*
X160257448Y-130535670D01*
X160277133Y-130468631D01*
X160282500Y-130431300D01*
X160282500Y-129855300D01*
X161274763Y-129855300D01*
X161294012Y-129989188D01*
X161294013Y-129989193D01*
X161339535Y-130088869D01*
X161350205Y-130112233D01*
X161350208Y-130112236D01*
X161350209Y-130112238D01*
X161424117Y-130197532D01*
X161438786Y-130214460D01*
X161552579Y-130287591D01*
X161617473Y-130306645D01*
X161682366Y-130325700D01*
X161682367Y-130325700D01*
X161817633Y-130325700D01*
X161947421Y-130287591D01*
X162061214Y-130214460D01*
X162149795Y-130112233D01*
X162205987Y-129989190D01*
X162225237Y-129855300D01*
X162474763Y-129855300D01*
X162494012Y-129989188D01*
X162494013Y-129989193D01*
X162539535Y-130088869D01*
X162550205Y-130112233D01*
X162550208Y-130112236D01*
X162550209Y-130112238D01*
X162624117Y-130197532D01*
X162638786Y-130214460D01*
X162752579Y-130287591D01*
X162817473Y-130306645D01*
X162882366Y-130325700D01*
X162882367Y-130325700D01*
X163017633Y-130325700D01*
X163147421Y-130287591D01*
X163261214Y-130214460D01*
X163349795Y-130112233D01*
X163387206Y-130030312D01*
X163432959Y-129977512D01*
X163499998Y-129957827D01*
X163567038Y-129977511D01*
X163612793Y-130030314D01*
X163650204Y-130112231D01*
X163650209Y-130112238D01*
X163724117Y-130197532D01*
X163738786Y-130214460D01*
X163852579Y-130287591D01*
X163917473Y-130306645D01*
X163982366Y-130325700D01*
X163982367Y-130325700D01*
X164117633Y-130325700D01*
X164247421Y-130287591D01*
X164361214Y-130214460D01*
X164449795Y-130112233D01*
X164505987Y-129989190D01*
X164525237Y-129855300D01*
X164505987Y-129721410D01*
X164505986Y-129721409D01*
X164505986Y-129721406D01*
X164477890Y-129659888D01*
X164449795Y-129598367D01*
X164449790Y-129598361D01*
X164361216Y-129496142D01*
X164361211Y-129496138D01*
X164247419Y-129423008D01*
X164117634Y-129384900D01*
X164117633Y-129384900D01*
X163982367Y-129384900D01*
X163982366Y-129384900D01*
X163852580Y-129423008D01*
X163738788Y-129496138D01*
X163738783Y-129496142D01*
X163650209Y-129598361D01*
X163650202Y-129598371D01*
X163612794Y-129680284D01*
X163567039Y-129733088D01*
X163499999Y-129752772D01*
X163432960Y-129733087D01*
X163387206Y-129680284D01*
X163349797Y-129598371D01*
X163349796Y-129598370D01*
X163349795Y-129598367D01*
X163349790Y-129598361D01*
X163261216Y-129496142D01*
X163261211Y-129496138D01*
X163147419Y-129423008D01*
X163017634Y-129384900D01*
X163017633Y-129384900D01*
X162882367Y-129384900D01*
X162882366Y-129384900D01*
X162752580Y-129423008D01*
X162638788Y-129496138D01*
X162638783Y-129496142D01*
X162550209Y-129598361D01*
X162550203Y-129598371D01*
X162494013Y-129721406D01*
X162494012Y-129721411D01*
X162474763Y-129855300D01*
X162225237Y-129855300D01*
X162205987Y-129721410D01*
X162205986Y-129721409D01*
X162205986Y-129721406D01*
X162177891Y-129659888D01*
X162149795Y-129598367D01*
X162149790Y-129598361D01*
X162061216Y-129496142D01*
X162061211Y-129496138D01*
X161947419Y-129423008D01*
X161817634Y-129384900D01*
X161817633Y-129384900D01*
X161682367Y-129384900D01*
X161682366Y-129384900D01*
X161552580Y-129423008D01*
X161438788Y-129496138D01*
X161438783Y-129496142D01*
X161350209Y-129598361D01*
X161350203Y-129598371D01*
X161294013Y-129721406D01*
X161294012Y-129721411D01*
X161274763Y-129855300D01*
X160282500Y-129855300D01*
X160282500Y-128655299D01*
X162474763Y-128655299D01*
X162494012Y-128789188D01*
X162494013Y-128789193D01*
X162525107Y-128857277D01*
X162550205Y-128912233D01*
X162638786Y-129014460D01*
X162752579Y-129087591D01*
X162817473Y-129106645D01*
X162882366Y-129125700D01*
X162882367Y-129125700D01*
X163017633Y-129125700D01*
X163147421Y-129087591D01*
X163261214Y-129014460D01*
X163349795Y-128912233D01*
X163405987Y-128789190D01*
X163425237Y-128655300D01*
X163405987Y-128521410D01*
X163405986Y-128521409D01*
X163405986Y-128521406D01*
X163356871Y-128413862D01*
X163349795Y-128398367D01*
X163320752Y-128364850D01*
X163261216Y-128296142D01*
X163261211Y-128296138D01*
X163147419Y-128223008D01*
X163017634Y-128184900D01*
X163017633Y-128184900D01*
X162882367Y-128184900D01*
X162882366Y-128184900D01*
X162752580Y-128223008D01*
X162638788Y-128296138D01*
X162638783Y-128296142D01*
X162550209Y-128398361D01*
X162550203Y-128398371D01*
X162494013Y-128521406D01*
X162494012Y-128521411D01*
X162474763Y-128655299D01*
X160282500Y-128655299D01*
X160282500Y-127355299D01*
X161274763Y-127355299D01*
X161294012Y-127489188D01*
X161294013Y-127489193D01*
X161335438Y-127579898D01*
X161350205Y-127612233D01*
X161350208Y-127612236D01*
X161350209Y-127612238D01*
X161436930Y-127712319D01*
X161438786Y-127714460D01*
X161552579Y-127787591D01*
X161596063Y-127800359D01*
X161682366Y-127825700D01*
X161682367Y-127825700D01*
X161817633Y-127825700D01*
X161947421Y-127787591D01*
X162061214Y-127714460D01*
X162149795Y-127612233D01*
X162199144Y-127504174D01*
X162205986Y-127489193D01*
X162205987Y-127489188D01*
X162207666Y-127477511D01*
X162225237Y-127355300D01*
X162205987Y-127221410D01*
X162205986Y-127221409D01*
X162205986Y-127221406D01*
X162173683Y-127150674D01*
X162149795Y-127098367D01*
X162149790Y-127098361D01*
X162061216Y-126996142D01*
X162061211Y-126996138D01*
X162008460Y-126962237D01*
X161947421Y-126923009D01*
X161947420Y-126923008D01*
X161947419Y-126923008D01*
X161823005Y-126886477D01*
X161764227Y-126848703D01*
X161750000Y-126817550D01*
X161735773Y-126848703D01*
X161676995Y-126886477D01*
X161552580Y-126923008D01*
X161438788Y-126996138D01*
X161438783Y-126996142D01*
X161350209Y-127098361D01*
X161350203Y-127098371D01*
X161294013Y-127221406D01*
X161294012Y-127221411D01*
X161274763Y-127355299D01*
X160282500Y-127355299D01*
X160282500Y-126767500D01*
X160302185Y-126700461D01*
X160354989Y-126654706D01*
X160406500Y-126643500D01*
X161642060Y-126643500D01*
X161709099Y-126663185D01*
X161749999Y-126710387D01*
X161790900Y-126663185D01*
X161857940Y-126643500D01*
X162842060Y-126643500D01*
X162909099Y-126663185D01*
X162949999Y-126710387D01*
X162990900Y-126663185D01*
X163057940Y-126643500D01*
X163771065Y-126643500D01*
X163838104Y-126663185D01*
X163858746Y-126679819D01*
X163897558Y-126718631D01*
X163931043Y-126779954D01*
X163926059Y-126849646D01*
X163884187Y-126905579D01*
X163859920Y-126917728D01*
X163860649Y-126919323D01*
X163852580Y-126923007D01*
X163738788Y-126996138D01*
X163738783Y-126996142D01*
X163650209Y-127098361D01*
X163650202Y-127098371D01*
X163612794Y-127180284D01*
X163567039Y-127233088D01*
X163499999Y-127252772D01*
X163432960Y-127233087D01*
X163387206Y-127180284D01*
X163349797Y-127098371D01*
X163349796Y-127098370D01*
X163349795Y-127098367D01*
X163349790Y-127098361D01*
X163261216Y-126996142D01*
X163261211Y-126996138D01*
X163208460Y-126962237D01*
X163147421Y-126923009D01*
X163147420Y-126923008D01*
X163147419Y-126923008D01*
X163023005Y-126886477D01*
X162964227Y-126848703D01*
X162950000Y-126817550D01*
X162935773Y-126848703D01*
X162876995Y-126886477D01*
X162752580Y-126923008D01*
X162638788Y-126996138D01*
X162638783Y-126996142D01*
X162550209Y-127098361D01*
X162550203Y-127098371D01*
X162494013Y-127221406D01*
X162494012Y-127221411D01*
X162474763Y-127355299D01*
X162494012Y-127489188D01*
X162494013Y-127489193D01*
X162535438Y-127579898D01*
X162550205Y-127612233D01*
X162550208Y-127612236D01*
X162550209Y-127612238D01*
X162636930Y-127712319D01*
X162638786Y-127714460D01*
X162752579Y-127787591D01*
X162796063Y-127800359D01*
X162882366Y-127825700D01*
X162882367Y-127825700D01*
X163017633Y-127825700D01*
X163147421Y-127787591D01*
X163261214Y-127714460D01*
X163349795Y-127612233D01*
X163387205Y-127530315D01*
X163432961Y-127477511D01*
X163500000Y-127457827D01*
X163567040Y-127477512D01*
X163612794Y-127530315D01*
X163635438Y-127579898D01*
X163650205Y-127612233D01*
X163650207Y-127612236D01*
X163650209Y-127612238D01*
X163736930Y-127712319D01*
X163738786Y-127714460D01*
X163852579Y-127787591D01*
X163896063Y-127800359D01*
X163982366Y-127825700D01*
X163982367Y-127825700D01*
X164117633Y-127825700D01*
X164247421Y-127787591D01*
X164361214Y-127714460D01*
X164449795Y-127612233D01*
X164464562Y-127579898D01*
X164482626Y-127540344D01*
X164528380Y-127487540D01*
X164595420Y-127467855D01*
X164662459Y-127487539D01*
X164683101Y-127504174D01*
X167267807Y-130088880D01*
X167269777Y-130090943D01*
X167322409Y-130148677D01*
X167384748Y-130195753D01*
X167386991Y-130197530D01*
X167447079Y-130247427D01*
X167466547Y-130258270D01*
X167473735Y-130262953D01*
X167491526Y-130276389D01*
X167561447Y-130311205D01*
X167563957Y-130312527D01*
X167632218Y-130350549D01*
X167632222Y-130350550D01*
X167632223Y-130350551D01*
X167639596Y-130353021D01*
X167653355Y-130357633D01*
X167661281Y-130360916D01*
X167681230Y-130370850D01*
X167681232Y-130370850D01*
X167681233Y-130370851D01*
X167756337Y-130392219D01*
X167759075Y-130393067D01*
X167833153Y-130417896D01*
X167855241Y-130420976D01*
X167863630Y-130422747D01*
X167885062Y-130428845D01*
X167962853Y-130436052D01*
X167965619Y-130436373D01*
X168043043Y-130447174D01*
X168115331Y-130443832D01*
X168121089Y-130443566D01*
X168123952Y-130443500D01*
X178372150Y-130443500D01*
X178375013Y-130443566D01*
X178385323Y-130444042D01*
X178453037Y-130447173D01*
X178530427Y-130436377D01*
X178533220Y-130436053D01*
X178611018Y-130428845D01*
X178632455Y-130422745D01*
X178640836Y-130420977D01*
X178662927Y-130417896D01*
X178737023Y-130393060D01*
X178739685Y-130392235D01*
X178814850Y-130370850D01*
X178834810Y-130360910D01*
X178842716Y-130357635D01*
X178863862Y-130350549D01*
X178932106Y-130312536D01*
X178934631Y-130311205D01*
X178982056Y-130287591D01*
X179004554Y-130276389D01*
X179022346Y-130262951D01*
X179029532Y-130258269D01*
X179049002Y-130247426D01*
X179109111Y-130197510D01*
X179111309Y-130195769D01*
X179173671Y-130148677D01*
X179206894Y-130112233D01*
X179226304Y-130090941D01*
X179228260Y-130088891D01*
X180538902Y-128778250D01*
X180540941Y-128776303D01*
X180598677Y-128723671D01*
X180645766Y-128661313D01*
X180647523Y-128659097D01*
X180650677Y-128655299D01*
X180697426Y-128599002D01*
X180708272Y-128579526D01*
X180712958Y-128572337D01*
X180726389Y-128554554D01*
X180761244Y-128484553D01*
X180762515Y-128482143D01*
X180800548Y-128413862D01*
X180807629Y-128392731D01*
X180810914Y-128384801D01*
X180820850Y-128364850D01*
X180839300Y-128300000D01*
X182723064Y-128300000D01*
X182734227Y-128384793D01*
X182742723Y-128449321D01*
X182742724Y-128449325D01*
X182795101Y-128575776D01*
X182800359Y-128588468D01*
X182892045Y-128707955D01*
X183011532Y-128799641D01*
X183150678Y-128857277D01*
X183282627Y-128874648D01*
X183299999Y-128876936D01*
X183300000Y-128876936D01*
X183300001Y-128876936D01*
X183315562Y-128874887D01*
X183449322Y-128857277D01*
X183588468Y-128799641D01*
X183707955Y-128707955D01*
X183799641Y-128588468D01*
X183857277Y-128449322D01*
X183876936Y-128300000D01*
X183857277Y-128150678D01*
X183799641Y-128011532D01*
X183707955Y-127892045D01*
X183707952Y-127892042D01*
X183707950Y-127892040D01*
X183703591Y-127887681D01*
X183670106Y-127826358D01*
X183675090Y-127756666D01*
X183703591Y-127712319D01*
X183707950Y-127707959D01*
X183707950Y-127707958D01*
X183707955Y-127707955D01*
X183799641Y-127588468D01*
X183857277Y-127449322D01*
X183876936Y-127300000D01*
X183857277Y-127150678D01*
X183799641Y-127011532D01*
X183707955Y-126892045D01*
X183588468Y-126800359D01*
X183588464Y-126800357D01*
X183587602Y-126800000D01*
X187823064Y-126800000D01*
X187839258Y-126923007D01*
X187842723Y-126949321D01*
X187842724Y-126949325D01*
X187887275Y-127056882D01*
X187900359Y-127088468D01*
X187992045Y-127207955D01*
X188111532Y-127299641D01*
X188250678Y-127357277D01*
X188382627Y-127374648D01*
X188399999Y-127376936D01*
X188400000Y-127376936D01*
X188400001Y-127376936D01*
X188415562Y-127374887D01*
X188549322Y-127357277D01*
X188688468Y-127299641D01*
X188807955Y-127207955D01*
X188888481Y-127103011D01*
X188944907Y-127061811D01*
X188986855Y-127054500D01*
X189162718Y-127054500D01*
X189186907Y-127056882D01*
X189200000Y-127059486D01*
X189200002Y-127059486D01*
X189266200Y-127046317D01*
X189299301Y-127039734D01*
X189362234Y-126997684D01*
X189362235Y-126997682D01*
X189370967Y-126991848D01*
X189370977Y-126991839D01*
X189383484Y-126983484D01*
X189390901Y-126972382D01*
X189406312Y-126953604D01*
X191853604Y-124506312D01*
X191872382Y-124490901D01*
X191883484Y-124483484D01*
X191891839Y-124470977D01*
X191891848Y-124470967D01*
X191897682Y-124462235D01*
X191897684Y-124462234D01*
X191939734Y-124399301D01*
X191949441Y-124350500D01*
X191954500Y-124325067D01*
X191954500Y-124325066D01*
X191959486Y-124300000D01*
X191956882Y-124286906D01*
X191954500Y-124262718D01*
X191954500Y-119706779D01*
X191974185Y-119639740D01*
X191990819Y-119619098D01*
X192859918Y-118749999D01*
X194992649Y-118749999D01*
X195012004Y-118946522D01*
X195069330Y-119135501D01*
X195162414Y-119309648D01*
X195162419Y-119309655D01*
X195287694Y-119462305D01*
X195386711Y-119543565D01*
X195440346Y-119587582D01*
X195440349Y-119587583D01*
X195440351Y-119587585D01*
X195614498Y-119680669D01*
X195614500Y-119680669D01*
X195614503Y-119680671D01*
X195803476Y-119737995D01*
X195803475Y-119737995D01*
X195821095Y-119739730D01*
X196000000Y-119757351D01*
X196196524Y-119737995D01*
X196385497Y-119680671D01*
X196559654Y-119587582D01*
X196712305Y-119462305D01*
X196837582Y-119309654D01*
X196930671Y-119135497D01*
X196987995Y-118946524D01*
X197007351Y-118750000D01*
X196987995Y-118553476D01*
X196930671Y-118364503D01*
X196930669Y-118364500D01*
X196930669Y-118364498D01*
X196837585Y-118190351D01*
X196837583Y-118190349D01*
X196837582Y-118190346D01*
X196756909Y-118092045D01*
X196712305Y-118037694D01*
X196559655Y-117912419D01*
X196559648Y-117912414D01*
X196385501Y-117819330D01*
X196291010Y-117790667D01*
X196196524Y-117762005D01*
X196196522Y-117762004D01*
X196196524Y-117762004D01*
X196017619Y-117744384D01*
X196000000Y-117742649D01*
X195999999Y-117742649D01*
X195803477Y-117762004D01*
X195614498Y-117819330D01*
X195440351Y-117912414D01*
X195440344Y-117912419D01*
X195287694Y-118037694D01*
X195162419Y-118190344D01*
X195162414Y-118190351D01*
X195069330Y-118364498D01*
X195012004Y-118553477D01*
X194992649Y-118749999D01*
X192859918Y-118749999D01*
X193697503Y-117912414D01*
X195428749Y-116181167D01*
X195490070Y-116147684D01*
X195559762Y-116152668D01*
X195574875Y-116159489D01*
X195614503Y-116180671D01*
X195803476Y-116237995D01*
X195803475Y-116237995D01*
X195822831Y-116239901D01*
X196000000Y-116257351D01*
X196196524Y-116237995D01*
X196385497Y-116180671D01*
X196559654Y-116087582D01*
X196712305Y-115962305D01*
X196837582Y-115809654D01*
X196930671Y-115635497D01*
X196987995Y-115446524D01*
X197007351Y-115250000D01*
X196987995Y-115053476D01*
X196930671Y-114864503D01*
X196930669Y-114864500D01*
X196930669Y-114864498D01*
X196837585Y-114690351D01*
X196837583Y-114690349D01*
X196837582Y-114690346D01*
X196799482Y-114643921D01*
X196712305Y-114537694D01*
X196559655Y-114412419D01*
X196559648Y-114412414D01*
X196385501Y-114319330D01*
X196291010Y-114290666D01*
X196196524Y-114262005D01*
X196196522Y-114262004D01*
X196196524Y-114262004D01*
X196000000Y-114242649D01*
X195803477Y-114262004D01*
X195614498Y-114319330D01*
X195440351Y-114412414D01*
X195440344Y-114412419D01*
X195287694Y-114537694D01*
X195162419Y-114690344D01*
X195162414Y-114690351D01*
X195069330Y-114864498D01*
X195012004Y-115053477D01*
X194992649Y-115249999D01*
X195012004Y-115446522D01*
X195069330Y-115635499D01*
X195090506Y-115675116D01*
X195104748Y-115743519D01*
X195079748Y-115808763D01*
X195068829Y-115821251D01*
X191546398Y-119343682D01*
X191527613Y-119359100D01*
X191516516Y-119366515D01*
X191503302Y-119386290D01*
X191503289Y-119386309D01*
X191460266Y-119450696D01*
X191460265Y-119450699D01*
X191440514Y-119549997D01*
X191440514Y-119549999D01*
X191443117Y-119563084D01*
X191445500Y-119587277D01*
X191445500Y-124143220D01*
X191425815Y-124210259D01*
X191409181Y-124230901D01*
X189130901Y-126509181D01*
X189069578Y-126542666D01*
X189043220Y-126545500D01*
X188986855Y-126545500D01*
X188919816Y-126525815D01*
X188888483Y-126496990D01*
X188807955Y-126392045D01*
X188688468Y-126300359D01*
X188688464Y-126300357D01*
X188549325Y-126242724D01*
X188549323Y-126242723D01*
X188549322Y-126242723D01*
X188474661Y-126232893D01*
X188400001Y-126223064D01*
X188399999Y-126223064D01*
X188250678Y-126242723D01*
X188250674Y-126242724D01*
X188111535Y-126300357D01*
X187992045Y-126392045D01*
X187900357Y-126511535D01*
X187842724Y-126650674D01*
X187842723Y-126650678D01*
X187823064Y-126800000D01*
X183587602Y-126800000D01*
X183449325Y-126742724D01*
X183449323Y-126742723D01*
X183449322Y-126742723D01*
X183374660Y-126732893D01*
X183300001Y-126723064D01*
X183299999Y-126723064D01*
X183150678Y-126742723D01*
X183150674Y-126742724D01*
X183011535Y-126800357D01*
X183011532Y-126800358D01*
X183011532Y-126800359D01*
X182892045Y-126892045D01*
X182812172Y-126996138D01*
X182800357Y-127011535D01*
X182742724Y-127150674D01*
X182742723Y-127150678D01*
X182723064Y-127299999D01*
X182723064Y-127300000D01*
X182742723Y-127449321D01*
X182742724Y-127449325D01*
X182754399Y-127477512D01*
X182800359Y-127588468D01*
X182892045Y-127707955D01*
X182892047Y-127707956D01*
X182892049Y-127707959D01*
X182896409Y-127712319D01*
X182929894Y-127773642D01*
X182924910Y-127843334D01*
X182896409Y-127887681D01*
X182892049Y-127892040D01*
X182892045Y-127892044D01*
X182892045Y-127892045D01*
X182806878Y-128003037D01*
X182800357Y-128011535D01*
X182742724Y-128150674D01*
X182742723Y-128150678D01*
X182741957Y-128156500D01*
X182723064Y-128300000D01*
X180839300Y-128300000D01*
X180842237Y-128289678D01*
X180843057Y-128287028D01*
X180867895Y-128212927D01*
X180870974Y-128190850D01*
X180872747Y-128182449D01*
X180878844Y-128161020D01*
X180878845Y-128161018D01*
X180886053Y-128083214D01*
X180886376Y-128080428D01*
X180897173Y-128003037D01*
X180893566Y-127925012D01*
X180893500Y-127922149D01*
X180893500Y-119000000D01*
X182697714Y-119000000D01*
X182717373Y-119149322D01*
X182775009Y-119288468D01*
X182866695Y-119407955D01*
X182866697Y-119407956D01*
X182866699Y-119407959D01*
X182871290Y-119412550D01*
X182904775Y-119473873D01*
X182899791Y-119543565D01*
X182871295Y-119587908D01*
X182866774Y-119592428D01*
X182830470Y-119639740D01*
X182779030Y-119706779D01*
X182775084Y-119711921D01*
X182717451Y-119851060D01*
X182717450Y-119851064D01*
X182697791Y-120000386D01*
X182717450Y-120149708D01*
X182775086Y-120288854D01*
X182866772Y-120408341D01*
X182986259Y-120500027D01*
X183125405Y-120557663D01*
X183257354Y-120575034D01*
X183274726Y-120577322D01*
X183274727Y-120577322D01*
X183274728Y-120577322D01*
X183290289Y-120575273D01*
X183424049Y-120557663D01*
X183563195Y-120500027D01*
X183682682Y-120408341D01*
X183774368Y-120288854D01*
X183832004Y-120149708D01*
X183851663Y-120000386D01*
X183832004Y-119851064D01*
X183774368Y-119711918D01*
X183682682Y-119592431D01*
X183682679Y-119592428D01*
X183682677Y-119592426D01*
X183678086Y-119587835D01*
X183644601Y-119526512D01*
X183649585Y-119456820D01*
X183678090Y-119412468D01*
X183682592Y-119407964D01*
X183682605Y-119407955D01*
X183774291Y-119288468D01*
X183831927Y-119149322D01*
X183851586Y-119000000D01*
X183831927Y-118850678D01*
X183774291Y-118711532D01*
X183682605Y-118592045D01*
X183563118Y-118500359D01*
X183563114Y-118500357D01*
X183562252Y-118500000D01*
X187923064Y-118500000D01*
X187942723Y-118649321D01*
X187942724Y-118649325D01*
X187987275Y-118756882D01*
X188000359Y-118788468D01*
X188092045Y-118907955D01*
X188211532Y-118999641D01*
X188350678Y-119057277D01*
X188482627Y-119074648D01*
X188499999Y-119076936D01*
X188500000Y-119076936D01*
X188500001Y-119076936D01*
X188515562Y-119074887D01*
X188649322Y-119057277D01*
X188788468Y-118999641D01*
X188907955Y-118907955D01*
X188988481Y-118803011D01*
X189044907Y-118761811D01*
X189086855Y-118754500D01*
X189162718Y-118754500D01*
X189186907Y-118756882D01*
X189200000Y-118759486D01*
X189200002Y-118759486D01*
X189266200Y-118746317D01*
X189299301Y-118739734D01*
X189362234Y-118697684D01*
X189362235Y-118697682D01*
X189370967Y-118691848D01*
X189370977Y-118691839D01*
X189383484Y-118683484D01*
X189390901Y-118672382D01*
X189406312Y-118653604D01*
X191953604Y-116106312D01*
X191972382Y-116090901D01*
X191983484Y-116083484D01*
X191991839Y-116070977D01*
X191991848Y-116070967D01*
X191997682Y-116062235D01*
X191997684Y-116062234D01*
X192039734Y-115999301D01*
X192047093Y-115962305D01*
X192054500Y-115925067D01*
X192054500Y-115925064D01*
X192055687Y-115919097D01*
X192055689Y-115919084D01*
X192059485Y-115900000D01*
X192059485Y-115899999D01*
X192056882Y-115886911D01*
X192054500Y-115862723D01*
X192054500Y-111750000D01*
X194992649Y-111750000D01*
X195012004Y-111946522D01*
X195069330Y-112135501D01*
X195162414Y-112309648D01*
X195162419Y-112309655D01*
X195287694Y-112462305D01*
X195393921Y-112549482D01*
X195440346Y-112587582D01*
X195440349Y-112587583D01*
X195440351Y-112587585D01*
X195614498Y-112680669D01*
X195614500Y-112680669D01*
X195614503Y-112680671D01*
X195803476Y-112737995D01*
X195803475Y-112737995D01*
X195821095Y-112739730D01*
X196000000Y-112757351D01*
X196196524Y-112737995D01*
X196385497Y-112680671D01*
X196559654Y-112587582D01*
X196712305Y-112462305D01*
X196837582Y-112309654D01*
X196930671Y-112135497D01*
X196987995Y-111946524D01*
X197007351Y-111750000D01*
X196987995Y-111553476D01*
X196930671Y-111364503D01*
X196930669Y-111364500D01*
X196930669Y-111364498D01*
X196837585Y-111190351D01*
X196837583Y-111190349D01*
X196837582Y-111190346D01*
X196769966Y-111107955D01*
X196712305Y-111037694D01*
X196559655Y-110912419D01*
X196559648Y-110912414D01*
X196385501Y-110819330D01*
X196245745Y-110776936D01*
X196196524Y-110762005D01*
X196196522Y-110762004D01*
X196196524Y-110762004D01*
X196017619Y-110744384D01*
X196000000Y-110742649D01*
X195999999Y-110742649D01*
X195803477Y-110762004D01*
X195614498Y-110819330D01*
X195440351Y-110912414D01*
X195440344Y-110912419D01*
X195287694Y-111037694D01*
X195162419Y-111190344D01*
X195162414Y-111190351D01*
X195069330Y-111364498D01*
X195012004Y-111553477D01*
X194992649Y-111750000D01*
X192054500Y-111750000D01*
X192054500Y-109106778D01*
X192074185Y-109039739D01*
X192090814Y-109019102D01*
X192859916Y-108250000D01*
X194992649Y-108250000D01*
X195012004Y-108446522D01*
X195069330Y-108635501D01*
X195162414Y-108809648D01*
X195162419Y-108809655D01*
X195287694Y-108962305D01*
X195356896Y-109019097D01*
X195440346Y-109087582D01*
X195440349Y-109087583D01*
X195440351Y-109087585D01*
X195614498Y-109180669D01*
X195614500Y-109180669D01*
X195614503Y-109180671D01*
X195803476Y-109237995D01*
X195803475Y-109237995D01*
X195822831Y-109239901D01*
X196000000Y-109257351D01*
X196196524Y-109237995D01*
X196385497Y-109180671D01*
X196559654Y-109087582D01*
X196712305Y-108962305D01*
X196837582Y-108809654D01*
X196918023Y-108659160D01*
X196930669Y-108635501D01*
X196930669Y-108635500D01*
X196930671Y-108635497D01*
X196987995Y-108446524D01*
X197007351Y-108250000D01*
X196987995Y-108053476D01*
X196930671Y-107864503D01*
X196930669Y-107864500D01*
X196930669Y-107864498D01*
X196837585Y-107690351D01*
X196837583Y-107690349D01*
X196837582Y-107690346D01*
X196758991Y-107594582D01*
X196712305Y-107537694D01*
X196559655Y-107412419D01*
X196559648Y-107412414D01*
X196385501Y-107319330D01*
X196291010Y-107290666D01*
X196196524Y-107262005D01*
X196196522Y-107262004D01*
X196196524Y-107262004D01*
X196000000Y-107242649D01*
X195803477Y-107262004D01*
X195614498Y-107319330D01*
X195440351Y-107412414D01*
X195440344Y-107412419D01*
X195287694Y-107537694D01*
X195162419Y-107690344D01*
X195162414Y-107690351D01*
X195069330Y-107864498D01*
X195012004Y-108053477D01*
X194992649Y-108250000D01*
X192859916Y-108250000D01*
X195428749Y-105681167D01*
X195490070Y-105647684D01*
X195559762Y-105652668D01*
X195574875Y-105659489D01*
X195614503Y-105680671D01*
X195803476Y-105737995D01*
X195803475Y-105737995D01*
X195821095Y-105739730D01*
X196000000Y-105757351D01*
X196196524Y-105737995D01*
X196385497Y-105680671D01*
X196559654Y-105587582D01*
X196712305Y-105462305D01*
X196837582Y-105309654D01*
X196930671Y-105135497D01*
X196987995Y-104946524D01*
X197007351Y-104750000D01*
X196987995Y-104553476D01*
X196930671Y-104364503D01*
X196930669Y-104364500D01*
X196930669Y-104364498D01*
X196837585Y-104190351D01*
X196837583Y-104190349D01*
X196837582Y-104190346D01*
X196781487Y-104121994D01*
X196712305Y-104037694D01*
X196559655Y-103912419D01*
X196559648Y-103912414D01*
X196385501Y-103819330D01*
X196284243Y-103788614D01*
X196196524Y-103762005D01*
X196196522Y-103762004D01*
X196196524Y-103762004D01*
X196017619Y-103744384D01*
X196000000Y-103742649D01*
X195999999Y-103742649D01*
X195803477Y-103762004D01*
X195614498Y-103819330D01*
X195440351Y-103912414D01*
X195440344Y-103912419D01*
X195287694Y-104037694D01*
X195162419Y-104190344D01*
X195162414Y-104190351D01*
X195069330Y-104364498D01*
X195012004Y-104553477D01*
X194992649Y-104749999D01*
X195012004Y-104946522D01*
X195022010Y-104979506D01*
X195069329Y-105135497D01*
X195078853Y-105153316D01*
X195090506Y-105175116D01*
X195104748Y-105243519D01*
X195079748Y-105308763D01*
X195068829Y-105321251D01*
X191646398Y-108743682D01*
X191627613Y-108759100D01*
X191616516Y-108766515D01*
X191603302Y-108786290D01*
X191603289Y-108786309D01*
X191560266Y-108850696D01*
X191560265Y-108850699D01*
X191540514Y-108949997D01*
X191540514Y-108949999D01*
X191540514Y-108950000D01*
X191541568Y-108955300D01*
X191543117Y-108963084D01*
X191545500Y-108987277D01*
X191545499Y-115743220D01*
X191525814Y-115810259D01*
X191509180Y-115830901D01*
X189155590Y-118184491D01*
X189094267Y-118217976D01*
X189024575Y-118212992D01*
X188969535Y-118172297D01*
X188907955Y-118092045D01*
X188788468Y-118000359D01*
X188788464Y-118000357D01*
X188649325Y-117942724D01*
X188649323Y-117942723D01*
X188649322Y-117942723D01*
X188574660Y-117932893D01*
X188500001Y-117923064D01*
X188499999Y-117923064D01*
X188350678Y-117942723D01*
X188350674Y-117942724D01*
X188211535Y-118000357D01*
X188211532Y-118000358D01*
X188211532Y-118000359D01*
X188092045Y-118092045D01*
X188021109Y-118184491D01*
X188000357Y-118211535D01*
X187942724Y-118350674D01*
X187942723Y-118350678D01*
X187923064Y-118499999D01*
X187923064Y-118500000D01*
X183562252Y-118500000D01*
X183423975Y-118442724D01*
X183423973Y-118442723D01*
X183423972Y-118442723D01*
X183349311Y-118432893D01*
X183274651Y-118423064D01*
X183274649Y-118423064D01*
X183125328Y-118442723D01*
X183125324Y-118442724D01*
X182986185Y-118500357D01*
X182986182Y-118500358D01*
X182986182Y-118500359D01*
X182866695Y-118592045D01*
X182790123Y-118691836D01*
X182775007Y-118711535D01*
X182717374Y-118850674D01*
X182717373Y-118850678D01*
X182697714Y-119000000D01*
X180893500Y-119000000D01*
X180893500Y-113700000D01*
X190224763Y-113700000D01*
X190244012Y-113833888D01*
X190244013Y-113833893D01*
X190290571Y-113935838D01*
X190300205Y-113956933D01*
X190388786Y-114059160D01*
X190502579Y-114132291D01*
X190567472Y-114151345D01*
X190632366Y-114170400D01*
X190632367Y-114170400D01*
X190767633Y-114170400D01*
X190897421Y-114132291D01*
X191011214Y-114059160D01*
X191099795Y-113956933D01*
X191155987Y-113833890D01*
X191175237Y-113700000D01*
X191155987Y-113566110D01*
X191155986Y-113566109D01*
X191155986Y-113566106D01*
X191127891Y-113504588D01*
X191099795Y-113443067D01*
X191011214Y-113340840D01*
X190897421Y-113267709D01*
X190897420Y-113267708D01*
X190897419Y-113267708D01*
X190767634Y-113229600D01*
X190767633Y-113229600D01*
X190632367Y-113229600D01*
X190632366Y-113229600D01*
X190502580Y-113267708D01*
X190388788Y-113340838D01*
X190388783Y-113340842D01*
X190300209Y-113443061D01*
X190300203Y-113443071D01*
X190244013Y-113566106D01*
X190244012Y-113566111D01*
X190224763Y-113700000D01*
X180893500Y-113700000D01*
X180893500Y-111800000D01*
X182623064Y-111800000D01*
X182642723Y-111949322D01*
X182700359Y-112088468D01*
X182792045Y-112207955D01*
X182911532Y-112299641D01*
X183050678Y-112357277D01*
X183182627Y-112374648D01*
X183199999Y-112376936D01*
X183200000Y-112376936D01*
X183200001Y-112376936D01*
X183215562Y-112374887D01*
X183349322Y-112357277D01*
X183488468Y-112299641D01*
X183607955Y-112207955D01*
X183699641Y-112088468D01*
X183757277Y-111949322D01*
X183776936Y-111800000D01*
X183757277Y-111650678D01*
X183699641Y-111511532D01*
X183607955Y-111392045D01*
X183607953Y-111392044D01*
X183607953Y-111392043D01*
X183572055Y-111364498D01*
X183551043Y-111348374D01*
X183509841Y-111291948D01*
X183505686Y-111222202D01*
X183539898Y-111161282D01*
X183551043Y-111151625D01*
X183607955Y-111107955D01*
X183699641Y-110988468D01*
X183757277Y-110849322D01*
X183776936Y-110700000D01*
X183757277Y-110550678D01*
X183699641Y-110411532D01*
X183607955Y-110292045D01*
X183488468Y-110200359D01*
X183488464Y-110200357D01*
X183487602Y-110200000D01*
X187823064Y-110200000D01*
X187842723Y-110349321D01*
X187842724Y-110349325D01*
X187887275Y-110456882D01*
X187900359Y-110488468D01*
X187992045Y-110607955D01*
X188111532Y-110699641D01*
X188250678Y-110757277D01*
X188382627Y-110774648D01*
X188399999Y-110776936D01*
X188400000Y-110776936D01*
X188400001Y-110776936D01*
X188415562Y-110774887D01*
X188549322Y-110757277D01*
X188688468Y-110699641D01*
X188807955Y-110607955D01*
X188888481Y-110503011D01*
X188944907Y-110461811D01*
X188986855Y-110454500D01*
X189262718Y-110454500D01*
X189286907Y-110456882D01*
X189300000Y-110459486D01*
X189300002Y-110459486D01*
X189366200Y-110446317D01*
X189399301Y-110439734D01*
X189462234Y-110397684D01*
X189462235Y-110397682D01*
X189470967Y-110391848D01*
X189470977Y-110391839D01*
X189483484Y-110383484D01*
X189490901Y-110372382D01*
X189506312Y-110353604D01*
X191953604Y-107906312D01*
X191972382Y-107890901D01*
X191983484Y-107883484D01*
X191991839Y-107870977D01*
X191991848Y-107870967D01*
X191997682Y-107862235D01*
X191997684Y-107862234D01*
X192039734Y-107799301D01*
X192059486Y-107700000D01*
X192057566Y-107690346D01*
X192056882Y-107686907D01*
X192054500Y-107662718D01*
X192054500Y-102106779D01*
X192074185Y-102039740D01*
X192090814Y-102019103D01*
X192859917Y-101250000D01*
X194992649Y-101250000D01*
X195012004Y-101446522D01*
X195069330Y-101635501D01*
X195162414Y-101809648D01*
X195162419Y-101809655D01*
X195287694Y-101962305D01*
X195382050Y-102039740D01*
X195440346Y-102087582D01*
X195440349Y-102087583D01*
X195440351Y-102087585D01*
X195614498Y-102180669D01*
X195614500Y-102180669D01*
X195614503Y-102180671D01*
X195803476Y-102237995D01*
X195803475Y-102237995D01*
X195821132Y-102239734D01*
X196000000Y-102257351D01*
X196196524Y-102237995D01*
X196385497Y-102180671D01*
X196559654Y-102087582D01*
X196712305Y-101962305D01*
X196837582Y-101809654D01*
X196930671Y-101635497D01*
X196987995Y-101446524D01*
X197007351Y-101250000D01*
X196987995Y-101053476D01*
X196930671Y-100864503D01*
X196930669Y-100864500D01*
X196930669Y-100864498D01*
X196837585Y-100690351D01*
X196837583Y-100690349D01*
X196837582Y-100690346D01*
X196760271Y-100596142D01*
X196712305Y-100537694D01*
X196559655Y-100412419D01*
X196559648Y-100412414D01*
X196385501Y-100319330D01*
X196291010Y-100290666D01*
X196196524Y-100262005D01*
X196196522Y-100262004D01*
X196196524Y-100262004D01*
X196000000Y-100242649D01*
X195803477Y-100262004D01*
X195614498Y-100319330D01*
X195440351Y-100412414D01*
X195440344Y-100412419D01*
X195287694Y-100537694D01*
X195162419Y-100690344D01*
X195162414Y-100690351D01*
X195069330Y-100864498D01*
X195012004Y-101053477D01*
X194992649Y-101250000D01*
X192859917Y-101250000D01*
X195428749Y-98681167D01*
X195490070Y-98647684D01*
X195559762Y-98652668D01*
X195574875Y-98659489D01*
X195614503Y-98680671D01*
X195803476Y-98737995D01*
X195803475Y-98737995D01*
X195821095Y-98739730D01*
X196000000Y-98757351D01*
X196196524Y-98737995D01*
X196385497Y-98680671D01*
X196559654Y-98587582D01*
X196712305Y-98462305D01*
X196837582Y-98309654D01*
X196930671Y-98135497D01*
X196987995Y-97946524D01*
X197007351Y-97750000D01*
X196987995Y-97553476D01*
X196930671Y-97364503D01*
X196930669Y-97364500D01*
X196930669Y-97364498D01*
X196837585Y-97190351D01*
X196837583Y-97190349D01*
X196837582Y-97190346D01*
X196799482Y-97143921D01*
X196712305Y-97037694D01*
X196559655Y-96912419D01*
X196559648Y-96912414D01*
X196385501Y-96819330D01*
X196291010Y-96790666D01*
X196196524Y-96762005D01*
X196196522Y-96762004D01*
X196196524Y-96762004D01*
X196000000Y-96742649D01*
X195803477Y-96762004D01*
X195614498Y-96819330D01*
X195440351Y-96912414D01*
X195440344Y-96912419D01*
X195287694Y-97037694D01*
X195162419Y-97190344D01*
X195162414Y-97190351D01*
X195069330Y-97364498D01*
X195012004Y-97553477D01*
X194992649Y-97750000D01*
X195012004Y-97946522D01*
X195012005Y-97946524D01*
X195069329Y-98135497D01*
X195080789Y-98156938D01*
X195090506Y-98175116D01*
X195104748Y-98243519D01*
X195079748Y-98308763D01*
X195068829Y-98321251D01*
X191646398Y-101743682D01*
X191627613Y-101759100D01*
X191616516Y-101766515D01*
X191603302Y-101786290D01*
X191603289Y-101786309D01*
X191560266Y-101850696D01*
X191560265Y-101850699D01*
X191540514Y-101949997D01*
X191540514Y-101949999D01*
X191543117Y-101963084D01*
X191545500Y-101987277D01*
X191545500Y-107543219D01*
X191525815Y-107610258D01*
X191509181Y-107630900D01*
X189230901Y-109909181D01*
X189169578Y-109942666D01*
X189143220Y-109945500D01*
X188986855Y-109945500D01*
X188919816Y-109925815D01*
X188888483Y-109896990D01*
X188807955Y-109792045D01*
X188688468Y-109700359D01*
X188688464Y-109700357D01*
X188549325Y-109642724D01*
X188549323Y-109642723D01*
X188549322Y-109642723D01*
X188457043Y-109630574D01*
X188400001Y-109623064D01*
X188399999Y-109623064D01*
X188250678Y-109642723D01*
X188250674Y-109642724D01*
X188111535Y-109700357D01*
X187992045Y-109792045D01*
X187900357Y-109911535D01*
X187842724Y-110050674D01*
X187842723Y-110050678D01*
X187823064Y-110199999D01*
X187823064Y-110200000D01*
X183487602Y-110200000D01*
X183349325Y-110142724D01*
X183349323Y-110142723D01*
X183349322Y-110142723D01*
X183274661Y-110132893D01*
X183200001Y-110123064D01*
X183199999Y-110123064D01*
X183050678Y-110142723D01*
X183050674Y-110142724D01*
X182911535Y-110200357D01*
X182911532Y-110200358D01*
X182911532Y-110200359D01*
X182792045Y-110292045D01*
X182715473Y-110391836D01*
X182700357Y-110411535D01*
X182642724Y-110550674D01*
X182642723Y-110550678D01*
X182623064Y-110700000D01*
X182638774Y-110819330D01*
X182642723Y-110849321D01*
X182642724Y-110849325D01*
X182668858Y-110912419D01*
X182700359Y-110988468D01*
X182792045Y-111107955D01*
X182822539Y-111131354D01*
X182848956Y-111151625D01*
X182890158Y-111208053D01*
X182894313Y-111277799D01*
X182860100Y-111338719D01*
X182848956Y-111348375D01*
X182792047Y-111392043D01*
X182700357Y-111511535D01*
X182642724Y-111650674D01*
X182642723Y-111650678D01*
X182623064Y-111800000D01*
X180893500Y-111800000D01*
X180893500Y-102500000D01*
X182512964Y-102500000D01*
X182525616Y-102596103D01*
X182532623Y-102649321D01*
X182532624Y-102649325D01*
X182578301Y-102759600D01*
X182590259Y-102788468D01*
X182681945Y-102907955D01*
X182681947Y-102907956D01*
X182681949Y-102907959D01*
X182686420Y-102912430D01*
X182719905Y-102973753D01*
X182714921Y-103043445D01*
X182686425Y-103087788D01*
X182682020Y-103092192D01*
X182590330Y-103211685D01*
X182532697Y-103350824D01*
X182532696Y-103350828D01*
X182513037Y-103500149D01*
X182513037Y-103500150D01*
X182532696Y-103649471D01*
X182532697Y-103649475D01*
X182579308Y-103762005D01*
X182590332Y-103788618D01*
X182682018Y-103908105D01*
X182801505Y-103999791D01*
X182940651Y-104057427D01*
X183072600Y-104074798D01*
X183089972Y-104077086D01*
X183089973Y-104077086D01*
X183089974Y-104077086D01*
X183105535Y-104075037D01*
X183239295Y-104057427D01*
X183378441Y-103999791D01*
X183497928Y-103908105D01*
X183589614Y-103788618D01*
X183647250Y-103649472D01*
X183666909Y-103500150D01*
X183647250Y-103350828D01*
X183589614Y-103211682D01*
X183497928Y-103092195D01*
X183497925Y-103092192D01*
X183497923Y-103092190D01*
X183493452Y-103087719D01*
X183459967Y-103026396D01*
X183464951Y-102956704D01*
X183493456Y-102912352D01*
X183497842Y-102907964D01*
X183497855Y-102907955D01*
X183589541Y-102788468D01*
X183647177Y-102649322D01*
X183666836Y-102500000D01*
X183647177Y-102350678D01*
X183589541Y-102211532D01*
X183497855Y-102092045D01*
X183378368Y-102000359D01*
X183378364Y-102000357D01*
X183377502Y-102000000D01*
X187623064Y-102000000D01*
X187642723Y-102149321D01*
X187642724Y-102149325D01*
X187687469Y-102257350D01*
X187700359Y-102288468D01*
X187792045Y-102407955D01*
X187911532Y-102499641D01*
X188050678Y-102557277D01*
X188182627Y-102574648D01*
X188199999Y-102576936D01*
X188200000Y-102576936D01*
X188200001Y-102576936D01*
X188215562Y-102574887D01*
X188349322Y-102557277D01*
X188488468Y-102499641D01*
X188607955Y-102407955D01*
X188688481Y-102303011D01*
X188744907Y-102261811D01*
X188786855Y-102254500D01*
X189162718Y-102254500D01*
X189186907Y-102256882D01*
X189200000Y-102259486D01*
X189200002Y-102259486D01*
X189266200Y-102246318D01*
X189299301Y-102239734D01*
X189362234Y-102197684D01*
X189362235Y-102197682D01*
X189370967Y-102191848D01*
X189370977Y-102191839D01*
X189383484Y-102183484D01*
X189390901Y-102172382D01*
X189406312Y-102153604D01*
X191953604Y-99606312D01*
X191972382Y-99590901D01*
X191983484Y-99583484D01*
X191997680Y-99562237D01*
X191997684Y-99562234D01*
X192039734Y-99499301D01*
X192039733Y-99499301D01*
X192049468Y-99484731D01*
X192046407Y-99470025D01*
X192048390Y-99455781D01*
X192055687Y-99419100D01*
X192055688Y-99419088D01*
X192059485Y-99400000D01*
X192056882Y-99386911D01*
X192054500Y-99362723D01*
X192054500Y-95106779D01*
X192074185Y-95039740D01*
X192090814Y-95019103D01*
X192859918Y-94249999D01*
X194992649Y-94249999D01*
X195012004Y-94446522D01*
X195069330Y-94635501D01*
X195162414Y-94809648D01*
X195162419Y-94809655D01*
X195287694Y-94962305D01*
X195382050Y-95039740D01*
X195440346Y-95087582D01*
X195440349Y-95087583D01*
X195440351Y-95087585D01*
X195614498Y-95180669D01*
X195614500Y-95180669D01*
X195614503Y-95180671D01*
X195803476Y-95237995D01*
X195803475Y-95237995D01*
X195822831Y-95239901D01*
X196000000Y-95257351D01*
X196196524Y-95237995D01*
X196385497Y-95180671D01*
X196559654Y-95087582D01*
X196712305Y-94962305D01*
X196837582Y-94809654D01*
X196930671Y-94635497D01*
X196987995Y-94446524D01*
X197007351Y-94250000D01*
X196987995Y-94053476D01*
X196930671Y-93864503D01*
X196930669Y-93864500D01*
X196930669Y-93864498D01*
X196837585Y-93690351D01*
X196837583Y-93690349D01*
X196837582Y-93690346D01*
X196756909Y-93592045D01*
X196712305Y-93537694D01*
X196559655Y-93412419D01*
X196559648Y-93412414D01*
X196385501Y-93319330D01*
X196291010Y-93290666D01*
X196196524Y-93262005D01*
X196196522Y-93262004D01*
X196196524Y-93262004D01*
X196000000Y-93242649D01*
X195803477Y-93262004D01*
X195614498Y-93319330D01*
X195440351Y-93412414D01*
X195440344Y-93412419D01*
X195287694Y-93537694D01*
X195162419Y-93690344D01*
X195162414Y-93690351D01*
X195069330Y-93864498D01*
X195012004Y-94053477D01*
X194992649Y-94249999D01*
X192859918Y-94249999D01*
X195428749Y-91681167D01*
X195490070Y-91647684D01*
X195559762Y-91652668D01*
X195574875Y-91659489D01*
X195614503Y-91680671D01*
X195803476Y-91737995D01*
X195803475Y-91737995D01*
X195821095Y-91739730D01*
X196000000Y-91757351D01*
X196196524Y-91737995D01*
X196385497Y-91680671D01*
X196559654Y-91587582D01*
X196712305Y-91462305D01*
X196837582Y-91309654D01*
X196930671Y-91135497D01*
X196987995Y-90946524D01*
X197007351Y-90750000D01*
X196987995Y-90553476D01*
X196930671Y-90364503D01*
X196930669Y-90364500D01*
X196930669Y-90364498D01*
X196837585Y-90190351D01*
X196837583Y-90190349D01*
X196837582Y-90190346D01*
X196789938Y-90132291D01*
X196712305Y-90037694D01*
X196559655Y-89912419D01*
X196559648Y-89912414D01*
X196385501Y-89819330D01*
X196204709Y-89764488D01*
X196196524Y-89762005D01*
X196196522Y-89762004D01*
X196196524Y-89762004D01*
X196000000Y-89742649D01*
X195803477Y-89762004D01*
X195614498Y-89819330D01*
X195440351Y-89912414D01*
X195440344Y-89912419D01*
X195287694Y-90037694D01*
X195162419Y-90190344D01*
X195162414Y-90190351D01*
X195069330Y-90364498D01*
X195012004Y-90553477D01*
X194992649Y-90749999D01*
X195012004Y-90946522D01*
X195069330Y-91135499D01*
X195090506Y-91175116D01*
X195104748Y-91243519D01*
X195079748Y-91308763D01*
X195068829Y-91321251D01*
X191646398Y-94743682D01*
X191627613Y-94759100D01*
X191616516Y-94766515D01*
X191603302Y-94786290D01*
X191603289Y-94786309D01*
X191560266Y-94850696D01*
X191560265Y-94850699D01*
X191540514Y-94949997D01*
X191540514Y-94949999D01*
X191543117Y-94963084D01*
X191545500Y-94987277D01*
X191545500Y-99243219D01*
X191525815Y-99310258D01*
X191509181Y-99330900D01*
X189130901Y-101709181D01*
X189069578Y-101742666D01*
X189043220Y-101745500D01*
X188786855Y-101745500D01*
X188719816Y-101725815D01*
X188688483Y-101696990D01*
X188607955Y-101592045D01*
X188488468Y-101500359D01*
X188488464Y-101500357D01*
X188349325Y-101442724D01*
X188349323Y-101442723D01*
X188349322Y-101442723D01*
X188274661Y-101432893D01*
X188200001Y-101423064D01*
X188199999Y-101423064D01*
X188050678Y-101442723D01*
X188050674Y-101442724D01*
X187911535Y-101500357D01*
X187911532Y-101500358D01*
X187911532Y-101500359D01*
X187792045Y-101592045D01*
X187730109Y-101672762D01*
X187700357Y-101711535D01*
X187642724Y-101850674D01*
X187642723Y-101850678D01*
X187623064Y-101999999D01*
X187623064Y-102000000D01*
X183377502Y-102000000D01*
X183239225Y-101942724D01*
X183239223Y-101942723D01*
X183239222Y-101942723D01*
X183164561Y-101932893D01*
X183089901Y-101923064D01*
X183089899Y-101923064D01*
X182940578Y-101942723D01*
X182940574Y-101942724D01*
X182801435Y-102000357D01*
X182801432Y-102000358D01*
X182801432Y-102000359D01*
X182681945Y-102092045D01*
X182605373Y-102191836D01*
X182590257Y-102211535D01*
X182532624Y-102350674D01*
X182532623Y-102350678D01*
X182514465Y-102488602D01*
X182512964Y-102500000D01*
X180893500Y-102500000D01*
X180893500Y-94000000D01*
X182398564Y-94000000D01*
X182418223Y-94149321D01*
X182418224Y-94149325D01*
X182459924Y-94249999D01*
X182475859Y-94288468D01*
X182567545Y-94407955D01*
X182640508Y-94463942D01*
X182681709Y-94520368D01*
X182685864Y-94590114D01*
X182651651Y-94651035D01*
X182640508Y-94660691D01*
X182575651Y-94710458D01*
X182575650Y-94710459D01*
X182499540Y-94809648D01*
X182483962Y-94829949D01*
X182426329Y-94969088D01*
X182426328Y-94969092D01*
X182406669Y-95118414D01*
X182426328Y-95267736D01*
X182483964Y-95406882D01*
X182575650Y-95526369D01*
X182695137Y-95618055D01*
X182834283Y-95675691D01*
X182966232Y-95693062D01*
X182983604Y-95695350D01*
X182983605Y-95695350D01*
X182983606Y-95695350D01*
X182999167Y-95693301D01*
X183132927Y-95675691D01*
X183272073Y-95618055D01*
X183391560Y-95526369D01*
X183483246Y-95406882D01*
X183540882Y-95267736D01*
X183560541Y-95118414D01*
X183540882Y-94969092D01*
X183483246Y-94829946D01*
X183391560Y-94710459D01*
X183353476Y-94681236D01*
X183318597Y-94654472D01*
X183277395Y-94598044D01*
X183273240Y-94528298D01*
X183307453Y-94467378D01*
X183318590Y-94457727D01*
X183383455Y-94407955D01*
X183475141Y-94288468D01*
X183532777Y-94149322D01*
X183552436Y-94000000D01*
X183532777Y-93850678D01*
X183475141Y-93711532D01*
X183383455Y-93592045D01*
X183263968Y-93500359D01*
X183263964Y-93500357D01*
X183263102Y-93500000D01*
X187523064Y-93500000D01*
X187542723Y-93649321D01*
X187542724Y-93649325D01*
X187559717Y-93690351D01*
X187600359Y-93788468D01*
X187692045Y-93907955D01*
X187811532Y-93999641D01*
X187950678Y-94057277D01*
X188082627Y-94074648D01*
X188099999Y-94076936D01*
X188100000Y-94076936D01*
X188100001Y-94076936D01*
X188115562Y-94074887D01*
X188249322Y-94057277D01*
X188344292Y-94017938D01*
X188391745Y-94008500D01*
X189182001Y-94008500D01*
X189208358Y-94011334D01*
X189211093Y-94011928D01*
X189213351Y-94012420D01*
X189265953Y-94008657D01*
X189270376Y-94008500D01*
X189286367Y-94008500D01*
X189286368Y-94008500D01*
X189302195Y-94006223D01*
X189306585Y-94005751D01*
X189359201Y-94001989D01*
X189363995Y-94000200D01*
X189389679Y-93993645D01*
X189394734Y-93992919D01*
X189442718Y-93971004D01*
X189446776Y-93969324D01*
X189496204Y-93950889D01*
X189500292Y-93947827D01*
X189523098Y-93934297D01*
X189527743Y-93932176D01*
X189567602Y-93897636D01*
X189571038Y-93894867D01*
X189583848Y-93885280D01*
X189595173Y-93873953D01*
X189598377Y-93870969D01*
X189638250Y-93836421D01*
X189641011Y-93832123D01*
X189657643Y-93811483D01*
X191811481Y-91657644D01*
X191832127Y-91641009D01*
X191836421Y-91638250D01*
X191870963Y-91598385D01*
X191873959Y-91595166D01*
X191885280Y-91583847D01*
X191894873Y-91571031D01*
X191897618Y-91567623D01*
X191932176Y-91527743D01*
X191934297Y-91523097D01*
X191947826Y-91500294D01*
X191950889Y-91496204D01*
X191969328Y-91446763D01*
X191971008Y-91442711D01*
X191992919Y-91394734D01*
X191993645Y-91389679D01*
X192000200Y-91363994D01*
X192001989Y-91359200D01*
X192005751Y-91306588D01*
X192006221Y-91302215D01*
X192008500Y-91286368D01*
X192008500Y-91270374D01*
X192008658Y-91265949D01*
X192012420Y-91213349D01*
X192011333Y-91208351D01*
X192008500Y-91181996D01*
X192008500Y-87250000D01*
X194992649Y-87250000D01*
X195012004Y-87446522D01*
X195069330Y-87635501D01*
X195162414Y-87809648D01*
X195162419Y-87809655D01*
X195287694Y-87962305D01*
X195393921Y-88049482D01*
X195440346Y-88087582D01*
X195440349Y-88087583D01*
X195440351Y-88087585D01*
X195614498Y-88180669D01*
X195614500Y-88180669D01*
X195614503Y-88180671D01*
X195803476Y-88237995D01*
X195803475Y-88237995D01*
X195821095Y-88239730D01*
X196000000Y-88257351D01*
X196196524Y-88237995D01*
X196385497Y-88180671D01*
X196559654Y-88087582D01*
X196712305Y-87962305D01*
X196837582Y-87809654D01*
X196930671Y-87635497D01*
X196987995Y-87446524D01*
X197007351Y-87250000D01*
X196987995Y-87053476D01*
X196930671Y-86864503D01*
X196930669Y-86864500D01*
X196930669Y-86864498D01*
X196837585Y-86690351D01*
X196837583Y-86690349D01*
X196837582Y-86690346D01*
X196799482Y-86643921D01*
X196712305Y-86537694D01*
X196559655Y-86412419D01*
X196559648Y-86412414D01*
X196385501Y-86319330D01*
X196291010Y-86290666D01*
X196196524Y-86262005D01*
X196196522Y-86262004D01*
X196196524Y-86262004D01*
X196000000Y-86242649D01*
X195803477Y-86262004D01*
X195614498Y-86319330D01*
X195440351Y-86412414D01*
X195440344Y-86412419D01*
X195287694Y-86537694D01*
X195162419Y-86690344D01*
X195162414Y-86690351D01*
X195069330Y-86864498D01*
X195012004Y-87053477D01*
X194992649Y-87250000D01*
X192008500Y-87250000D01*
X192008500Y-85011989D01*
X192028185Y-84944950D01*
X192044819Y-84924308D01*
X193219128Y-83749999D01*
X194992649Y-83749999D01*
X195012004Y-83946522D01*
X195069330Y-84135501D01*
X195162414Y-84309648D01*
X195162419Y-84309655D01*
X195287694Y-84462305D01*
X195338252Y-84503796D01*
X195440346Y-84587582D01*
X195440349Y-84587583D01*
X195440351Y-84587585D01*
X195614498Y-84680669D01*
X195614500Y-84680669D01*
X195614503Y-84680671D01*
X195803476Y-84737995D01*
X195803475Y-84737995D01*
X195821095Y-84739730D01*
X196000000Y-84757351D01*
X196196524Y-84737995D01*
X196385497Y-84680671D01*
X196559654Y-84587582D01*
X196712305Y-84462305D01*
X196837582Y-84309654D01*
X196930671Y-84135497D01*
X196987995Y-83946524D01*
X197007351Y-83750000D01*
X196987995Y-83553476D01*
X196930671Y-83364503D01*
X196930669Y-83364500D01*
X196930669Y-83364498D01*
X196837585Y-83190351D01*
X196837583Y-83190349D01*
X196837582Y-83190346D01*
X196787729Y-83129600D01*
X196712305Y-83037694D01*
X196559655Y-82912419D01*
X196559648Y-82912414D01*
X196385501Y-82819330D01*
X196291010Y-82790667D01*
X196196524Y-82762005D01*
X196196522Y-82762004D01*
X196196524Y-82762004D01*
X196000000Y-82742649D01*
X195803477Y-82762004D01*
X195614498Y-82819330D01*
X195440351Y-82912414D01*
X195440344Y-82912419D01*
X195287694Y-83037694D01*
X195162419Y-83190344D01*
X195162414Y-83190351D01*
X195069330Y-83364498D01*
X195012004Y-83553477D01*
X194992649Y-83749999D01*
X193219128Y-83749999D01*
X195680309Y-81288819D01*
X195741632Y-81255334D01*
X195767990Y-81252500D01*
X196887559Y-81252500D01*
X196894957Y-81251028D01*
X196924748Y-81245102D01*
X196966922Y-81216922D01*
X196995102Y-81174748D01*
X197002500Y-81137558D01*
X197002500Y-79362442D01*
X196995102Y-79325252D01*
X196995101Y-79325250D01*
X196966922Y-79283077D01*
X196924749Y-79254898D01*
X196887559Y-79247500D01*
X196887558Y-79247500D01*
X195112442Y-79247500D01*
X195112441Y-79247500D01*
X195075250Y-79254898D01*
X195033077Y-79283077D01*
X195004898Y-79325250D01*
X194997500Y-79362441D01*
X194997500Y-80482009D01*
X194977815Y-80549048D01*
X194961181Y-80569690D01*
X191188515Y-84342355D01*
X191167881Y-84358984D01*
X191163584Y-84361745D01*
X191163577Y-84361752D01*
X191129050Y-84401596D01*
X191126038Y-84404831D01*
X191114724Y-84416146D01*
X191105134Y-84428956D01*
X191102359Y-84432399D01*
X191067823Y-84472258D01*
X191065696Y-84476915D01*
X191052177Y-84499699D01*
X191049112Y-84503792D01*
X191049111Y-84503794D01*
X191030676Y-84553219D01*
X191028982Y-84557307D01*
X191007080Y-84605269D01*
X191006353Y-84610326D01*
X190999801Y-84635996D01*
X190998011Y-84640794D01*
X190998011Y-84640795D01*
X190994248Y-84693400D01*
X190993776Y-84697795D01*
X190991501Y-84713624D01*
X190991500Y-84713638D01*
X190991500Y-84729624D01*
X190991342Y-84734048D01*
X190987580Y-84786645D01*
X190987580Y-84786649D01*
X190988666Y-84791640D01*
X190991500Y-84817999D01*
X190991500Y-90988009D01*
X190971815Y-91055048D01*
X190955181Y-91075690D01*
X189075691Y-92955181D01*
X189014368Y-92988666D01*
X188988010Y-92991500D01*
X188391745Y-92991500D01*
X188344292Y-92982061D01*
X188316140Y-92970400D01*
X188249322Y-92942723D01*
X188170085Y-92932291D01*
X188100001Y-92923064D01*
X188099999Y-92923064D01*
X187950678Y-92942723D01*
X187950674Y-92942724D01*
X187811535Y-93000357D01*
X187692045Y-93092045D01*
X187600357Y-93211535D01*
X187542724Y-93350674D01*
X187542723Y-93350678D01*
X187523064Y-93499999D01*
X187523064Y-93500000D01*
X183263102Y-93500000D01*
X183124825Y-93442724D01*
X183124823Y-93442723D01*
X183124822Y-93442723D01*
X183030948Y-93430364D01*
X182975501Y-93423064D01*
X182975499Y-93423064D01*
X182826178Y-93442723D01*
X182826174Y-93442724D01*
X182687035Y-93500357D01*
X182687032Y-93500358D01*
X182687032Y-93500359D01*
X182567545Y-93592045D01*
X182523596Y-93649321D01*
X182475857Y-93711535D01*
X182418224Y-93850674D01*
X182418223Y-93850678D01*
X182398564Y-93999999D01*
X182398564Y-94000000D01*
X180893500Y-94000000D01*
X180893500Y-90347134D01*
X180893500Y-90347132D01*
X180878845Y-90188982D01*
X180820850Y-89985150D01*
X180726389Y-89795446D01*
X180654310Y-89699999D01*
X189424763Y-89699999D01*
X189444012Y-89833888D01*
X189444013Y-89833893D01*
X189479876Y-89912419D01*
X189500205Y-89956933D01*
X189500208Y-89956936D01*
X189500209Y-89956938D01*
X189528645Y-89989755D01*
X189588786Y-90059160D01*
X189702579Y-90132291D01*
X189767472Y-90151345D01*
X189832366Y-90170400D01*
X189832367Y-90170400D01*
X189967633Y-90170400D01*
X190097421Y-90132291D01*
X190211214Y-90059160D01*
X190299795Y-89956933D01*
X190355987Y-89833890D01*
X190375237Y-89700000D01*
X190355987Y-89566110D01*
X190355986Y-89566109D01*
X190355986Y-89566106D01*
X190327891Y-89504588D01*
X190299795Y-89443067D01*
X190239661Y-89373669D01*
X190211216Y-89340842D01*
X190211211Y-89340838D01*
X190097419Y-89267708D01*
X189967634Y-89229600D01*
X189967633Y-89229600D01*
X189832367Y-89229600D01*
X189832366Y-89229600D01*
X189702580Y-89267708D01*
X189588788Y-89340838D01*
X189588783Y-89340842D01*
X189500209Y-89443061D01*
X189500203Y-89443071D01*
X189444013Y-89566106D01*
X189444012Y-89566111D01*
X189424763Y-89699999D01*
X180654310Y-89699999D01*
X180598677Y-89626329D01*
X180598675Y-89626326D01*
X180442066Y-89483559D01*
X180442065Y-89483558D01*
X180373449Y-89441072D01*
X180261886Y-89371995D01*
X180261884Y-89371994D01*
X180117392Y-89316018D01*
X180064274Y-89295440D01*
X179855961Y-89256500D01*
X179644039Y-89256500D01*
X179435726Y-89295440D01*
X179435723Y-89295440D01*
X179435723Y-89295441D01*
X179238115Y-89371994D01*
X179238113Y-89371995D01*
X179057933Y-89483559D01*
X178901324Y-89626326D01*
X178773611Y-89795445D01*
X178679151Y-89985146D01*
X178621154Y-90188986D01*
X178606500Y-90347134D01*
X178606500Y-93349160D01*
X178586815Y-93416199D01*
X178534011Y-93461954D01*
X178464853Y-93471898D01*
X178401297Y-93442873D01*
X178388788Y-93430364D01*
X178372060Y-93411059D01*
X178311214Y-93340840D01*
X178197421Y-93267709D01*
X178197420Y-93267708D01*
X178197419Y-93267708D01*
X178067634Y-93229600D01*
X178067633Y-93229600D01*
X177932367Y-93229600D01*
X177932366Y-93229600D01*
X177802580Y-93267708D01*
X177688788Y-93340838D01*
X177688783Y-93340842D01*
X177600209Y-93443061D01*
X177600203Y-93443071D01*
X177544013Y-93566106D01*
X177544012Y-93566111D01*
X177524763Y-93700000D01*
X177544012Y-93833888D01*
X177544013Y-93833893D01*
X177577837Y-93907954D01*
X177600205Y-93956933D01*
X177600208Y-93956936D01*
X177600209Y-93956938D01*
X177687152Y-94057275D01*
X177688786Y-94059160D01*
X177802579Y-94132291D01*
X177860578Y-94149321D01*
X177932366Y-94170400D01*
X177932367Y-94170400D01*
X178067633Y-94170400D01*
X178197421Y-94132291D01*
X178311214Y-94059160D01*
X178388788Y-93969635D01*
X178447566Y-93931862D01*
X178517435Y-93931862D01*
X178576213Y-93969637D01*
X178605238Y-94033192D01*
X178606500Y-94050839D01*
X178606500Y-127424984D01*
X178586815Y-127492023D01*
X178570181Y-127512665D01*
X177962666Y-128120181D01*
X177901343Y-128153666D01*
X177874985Y-128156500D01*
X168621095Y-128156500D01*
X168554056Y-128136815D01*
X168533414Y-128120181D01*
X165313232Y-124899999D01*
X176324763Y-124899999D01*
X176344012Y-125033888D01*
X176344013Y-125033893D01*
X176390571Y-125135838D01*
X176400205Y-125156933D01*
X176488786Y-125259160D01*
X176602579Y-125332291D01*
X176667473Y-125351345D01*
X176732366Y-125370400D01*
X176732367Y-125370400D01*
X176867633Y-125370400D01*
X176997421Y-125332291D01*
X177111214Y-125259160D01*
X177199795Y-125156933D01*
X177255987Y-125033890D01*
X177275237Y-124900000D01*
X177255987Y-124766110D01*
X177255986Y-124766109D01*
X177255986Y-124766106D01*
X177227890Y-124704588D01*
X177199795Y-124643067D01*
X177111214Y-124540840D01*
X176997421Y-124467709D01*
X176997420Y-124467708D01*
X176997419Y-124467708D01*
X176867634Y-124429600D01*
X176867633Y-124429600D01*
X176732367Y-124429600D01*
X176732366Y-124429600D01*
X176602580Y-124467708D01*
X176488788Y-124540838D01*
X176488783Y-124540842D01*
X176400209Y-124643061D01*
X176400203Y-124643071D01*
X176344013Y-124766106D01*
X176344012Y-124766111D01*
X176324763Y-124899999D01*
X165313232Y-124899999D01*
X165124351Y-124711118D01*
X165122373Y-124709046D01*
X165069752Y-124651324D01*
X165069751Y-124651323D01*
X165007413Y-124604247D01*
X165005177Y-124602475D01*
X164945081Y-124552573D01*
X164925620Y-124541733D01*
X164918419Y-124537041D01*
X164900635Y-124523611D01*
X164871073Y-124508892D01*
X164830702Y-124488789D01*
X164828191Y-124487466D01*
X164759941Y-124449450D01*
X164759938Y-124449449D01*
X164738809Y-124442367D01*
X164730870Y-124439078D01*
X164710933Y-124429151D01*
X164710930Y-124429150D01*
X164635813Y-124407777D01*
X164633091Y-124406934D01*
X164559009Y-124382104D01*
X164559006Y-124382103D01*
X164536924Y-124379022D01*
X164528520Y-124377249D01*
X164507099Y-124371155D01*
X164429314Y-124363946D01*
X164426471Y-124363616D01*
X164349121Y-124352827D01*
X164349117Y-124352827D01*
X164308043Y-124354725D01*
X164271093Y-124356434D01*
X164268230Y-124356500D01*
X160406500Y-124356500D01*
X160339461Y-124336815D01*
X160293706Y-124284011D01*
X160282500Y-124232500D01*
X160282500Y-123379300D01*
X160279472Y-123351134D01*
X160268266Y-123299623D01*
X160238931Y-123241020D01*
X160238930Y-123241018D01*
X160233798Y-123235096D01*
X160204770Y-123171541D01*
X160214710Y-123102382D01*
X160239823Y-123066211D01*
X160806033Y-122500001D01*
X169567576Y-122500001D01*
X169587245Y-122775018D01*
X169645851Y-123044420D01*
X169645853Y-123044427D01*
X169679924Y-123135775D01*
X169742205Y-123302759D01*
X169742207Y-123302763D01*
X169874337Y-123544741D01*
X169874342Y-123544749D01*
X170039564Y-123765461D01*
X170039580Y-123765479D01*
X170234520Y-123960419D01*
X170234538Y-123960435D01*
X170455250Y-124125657D01*
X170455258Y-124125662D01*
X170697236Y-124257792D01*
X170697240Y-124257794D01*
X170697242Y-124257795D01*
X170955573Y-124354147D01*
X171084083Y-124382103D01*
X171224981Y-124412754D01*
X171224983Y-124412754D01*
X171224987Y-124412755D01*
X171454223Y-124429150D01*
X171499999Y-124432424D01*
X171500000Y-124432424D01*
X171500001Y-124432424D01*
X171545777Y-124429150D01*
X171775013Y-124412755D01*
X171801772Y-124406934D01*
X171836859Y-124399301D01*
X172044427Y-124354147D01*
X172302758Y-124257795D01*
X172544747Y-124125659D01*
X172765469Y-123960429D01*
X172960429Y-123765469D01*
X173125659Y-123544747D01*
X173257795Y-123302758D01*
X173354147Y-123044427D01*
X173412755Y-122775013D01*
X173432424Y-122500000D01*
X173412755Y-122224987D01*
X173354147Y-121955573D01*
X173257795Y-121697242D01*
X173125659Y-121455253D01*
X173125657Y-121455250D01*
X172960435Y-121234538D01*
X172960419Y-121234520D01*
X172765479Y-121039580D01*
X172765461Y-121039564D01*
X172544749Y-120874342D01*
X172544741Y-120874337D01*
X172302763Y-120742207D01*
X172302759Y-120742205D01*
X172204820Y-120705676D01*
X172044427Y-120645853D01*
X172044423Y-120645852D01*
X172044420Y-120645851D01*
X171775018Y-120587245D01*
X171500001Y-120567576D01*
X171499999Y-120567576D01*
X171224981Y-120587245D01*
X170955579Y-120645851D01*
X170955574Y-120645852D01*
X170955573Y-120645853D01*
X170893117Y-120669147D01*
X170697240Y-120742205D01*
X170697236Y-120742207D01*
X170455258Y-120874337D01*
X170455250Y-120874342D01*
X170234538Y-121039564D01*
X170234520Y-121039580D01*
X170039580Y-121234520D01*
X170039564Y-121234538D01*
X169874342Y-121455250D01*
X169874337Y-121455258D01*
X169742207Y-121697236D01*
X169742205Y-121697240D01*
X169645851Y-121955579D01*
X169587245Y-122224981D01*
X169567576Y-122499998D01*
X169567576Y-122500001D01*
X160806033Y-122500001D01*
X165947889Y-117358145D01*
X165950192Y-117355961D01*
X165978983Y-117330039D01*
X165986797Y-117312487D01*
X165996075Y-117295397D01*
X166006541Y-117279283D01*
X166006726Y-117278110D01*
X166015922Y-117247070D01*
X166016400Y-117245996D01*
X166016400Y-117226792D01*
X166017927Y-117207393D01*
X166020932Y-117188421D01*
X166020931Y-117188418D01*
X166020625Y-117187273D01*
X166016400Y-117155182D01*
X166016400Y-116599999D01*
X176324763Y-116599999D01*
X176344012Y-116733888D01*
X176344013Y-116733893D01*
X176390571Y-116835838D01*
X176400205Y-116856933D01*
X176488786Y-116959160D01*
X176602579Y-117032291D01*
X176667472Y-117051345D01*
X176732366Y-117070400D01*
X176732367Y-117070400D01*
X176867633Y-117070400D01*
X176997421Y-117032291D01*
X177111214Y-116959160D01*
X177199795Y-116856933D01*
X177255987Y-116733890D01*
X177275237Y-116600000D01*
X177255987Y-116466110D01*
X177255986Y-116466109D01*
X177255986Y-116466106D01*
X177227890Y-116404588D01*
X177199795Y-116343067D01*
X177111214Y-116240840D01*
X176997421Y-116167709D01*
X176997420Y-116167708D01*
X176997419Y-116167708D01*
X176867634Y-116129600D01*
X176867633Y-116129600D01*
X176732367Y-116129600D01*
X176732366Y-116129600D01*
X176602580Y-116167708D01*
X176488788Y-116240838D01*
X176488783Y-116240842D01*
X176400209Y-116343061D01*
X176400203Y-116343071D01*
X176344013Y-116466106D01*
X176344012Y-116466111D01*
X176324763Y-116599999D01*
X166016400Y-116599999D01*
X166016400Y-108300000D01*
X176324763Y-108300000D01*
X176344012Y-108433888D01*
X176344013Y-108433893D01*
X176384712Y-108523008D01*
X176400205Y-108556933D01*
X176400208Y-108556936D01*
X176400209Y-108556938D01*
X176468281Y-108635497D01*
X176488786Y-108659160D01*
X176602579Y-108732291D01*
X176667472Y-108751345D01*
X176732366Y-108770400D01*
X176732367Y-108770400D01*
X176867633Y-108770400D01*
X176997421Y-108732291D01*
X177111214Y-108659160D01*
X177199795Y-108556933D01*
X177255987Y-108433890D01*
X177275237Y-108300000D01*
X177255987Y-108166110D01*
X177255986Y-108166109D01*
X177255986Y-108166106D01*
X177227890Y-108104588D01*
X177199795Y-108043067D01*
X177111214Y-107940840D01*
X176997421Y-107867709D01*
X176997420Y-107867708D01*
X176997419Y-107867708D01*
X176867634Y-107829600D01*
X176867633Y-107829600D01*
X176732367Y-107829600D01*
X176732366Y-107829600D01*
X176602580Y-107867708D01*
X176488788Y-107940838D01*
X176488783Y-107940842D01*
X176400209Y-108043061D01*
X176400203Y-108043071D01*
X176344013Y-108166106D01*
X176344012Y-108166111D01*
X176324763Y-108300000D01*
X166016400Y-108300000D01*
X166016400Y-105107302D01*
X166016485Y-105104057D01*
X166016698Y-105100000D01*
X166824763Y-105100000D01*
X166825813Y-105107302D01*
X166844012Y-105233888D01*
X166844013Y-105233893D01*
X166890571Y-105335838D01*
X166900205Y-105356933D01*
X166988786Y-105459160D01*
X167102579Y-105532291D01*
X167167472Y-105551345D01*
X167232366Y-105570400D01*
X167232367Y-105570400D01*
X167367633Y-105570400D01*
X167497421Y-105532291D01*
X167611214Y-105459160D01*
X167699795Y-105356933D01*
X167751590Y-105243519D01*
X167755986Y-105233893D01*
X167755987Y-105233888D01*
X167775237Y-105100000D01*
X167755987Y-104966110D01*
X167755986Y-104966109D01*
X167755986Y-104966106D01*
X167727891Y-104904588D01*
X167699795Y-104843067D01*
X167699790Y-104843061D01*
X167611216Y-104740842D01*
X167611211Y-104740838D01*
X167497419Y-104667708D01*
X167367634Y-104629600D01*
X167367633Y-104629600D01*
X167232367Y-104629600D01*
X167232366Y-104629600D01*
X167102580Y-104667708D01*
X166988788Y-104740838D01*
X166988783Y-104740842D01*
X166900209Y-104843061D01*
X166900203Y-104843071D01*
X166844013Y-104966106D01*
X166844012Y-104966111D01*
X166837837Y-105009063D01*
X166824763Y-105100000D01*
X166016698Y-105100000D01*
X166016698Y-105099999D01*
X166018512Y-105065391D01*
X166011626Y-105047455D01*
X166006099Y-105028795D01*
X166002108Y-105010016D01*
X166001413Y-105009059D01*
X165985967Y-104980611D01*
X165985543Y-104979507D01*
X165971966Y-104965930D01*
X165959329Y-104951134D01*
X165948037Y-104935592D01*
X165948033Y-104935588D01*
X165947005Y-104934995D01*
X165921327Y-104915291D01*
X161813490Y-100807455D01*
X161811270Y-100805117D01*
X161785339Y-100776317D01*
X161785338Y-100776316D01*
X161785337Y-100776315D01*
X161767784Y-100768500D01*
X161750689Y-100759218D01*
X161734582Y-100748759D01*
X161734584Y-100748759D01*
X161733405Y-100748573D01*
X161702385Y-100739384D01*
X161701298Y-100738900D01*
X161701297Y-100738900D01*
X161682092Y-100738900D01*
X161662693Y-100737373D01*
X161643721Y-100734368D01*
X161642574Y-100734675D01*
X161610483Y-100738900D01*
X157841546Y-100738900D01*
X157774507Y-100719215D01*
X157752331Y-100700000D01*
X167324763Y-100700000D01*
X167344012Y-100833888D01*
X167344013Y-100833893D01*
X167390571Y-100935838D01*
X167400205Y-100956933D01*
X167400208Y-100956936D01*
X167400209Y-100956938D01*
X167483861Y-101053477D01*
X167488786Y-101059160D01*
X167602579Y-101132291D01*
X167632863Y-101141183D01*
X167732366Y-101170400D01*
X167732367Y-101170400D01*
X167867633Y-101170400D01*
X167997421Y-101132291D01*
X168111214Y-101059160D01*
X168199795Y-100956933D01*
X168255987Y-100833890D01*
X168275237Y-100700000D01*
X168255987Y-100566110D01*
X168255986Y-100566109D01*
X168255986Y-100566106D01*
X168227890Y-100504588D01*
X168199795Y-100443067D01*
X168125159Y-100356933D01*
X168111216Y-100340842D01*
X168111211Y-100340838D01*
X168077744Y-100319330D01*
X167997421Y-100267709D01*
X167997420Y-100267708D01*
X167997419Y-100267708D01*
X167867634Y-100229600D01*
X167867633Y-100229600D01*
X167732367Y-100229600D01*
X167732366Y-100229600D01*
X167602580Y-100267708D01*
X167488788Y-100340838D01*
X167488783Y-100340842D01*
X167400209Y-100443061D01*
X167400203Y-100443071D01*
X167344013Y-100566106D01*
X167344012Y-100566111D01*
X167324763Y-100700000D01*
X157752331Y-100700000D01*
X157747834Y-100696103D01*
X157661216Y-100596142D01*
X157661211Y-100596138D01*
X157614481Y-100566106D01*
X157547421Y-100523009D01*
X157547420Y-100523008D01*
X157547419Y-100523008D01*
X157417634Y-100484900D01*
X157417633Y-100484900D01*
X157282367Y-100484900D01*
X157282366Y-100484900D01*
X157152580Y-100523008D01*
X157038788Y-100596138D01*
X157038783Y-100596142D01*
X156950209Y-100698361D01*
X156950203Y-100698371D01*
X156894013Y-100821406D01*
X156894012Y-100821411D01*
X156874763Y-100955300D01*
X156894012Y-101089188D01*
X156894013Y-101089193D01*
X156931100Y-101170400D01*
X156950205Y-101212233D01*
X156950208Y-101212236D01*
X156950209Y-101212238D01*
X156982930Y-101250000D01*
X157038786Y-101314460D01*
X157152579Y-101387591D01*
X157217472Y-101406645D01*
X157282366Y-101425700D01*
X157282367Y-101425700D01*
X157417633Y-101425700D01*
X157547421Y-101387591D01*
X157661214Y-101314460D01*
X157698726Y-101271168D01*
X157747834Y-101214497D01*
X157806612Y-101176723D01*
X157841546Y-101171700D01*
X161514302Y-101171700D01*
X161581341Y-101191385D01*
X161601983Y-101208019D01*
X165547281Y-105153316D01*
X165580766Y-105214639D01*
X165583600Y-105240997D01*
X165583600Y-117059002D01*
X165563915Y-117126041D01*
X165547281Y-117146683D01*
X159607484Y-123086481D01*
X159546161Y-123119966D01*
X159519803Y-123122800D01*
X155893290Y-123122800D01*
X155826251Y-123103115D01*
X155805609Y-123086481D01*
X150207646Y-117488518D01*
X150191012Y-117467877D01*
X150188250Y-117463579D01*
X150188249Y-117463578D01*
X150188247Y-117463575D01*
X150148396Y-117429045D01*
X150145167Y-117426039D01*
X150133848Y-117414720D01*
X150133845Y-117414718D01*
X150133843Y-117414715D01*
X150121037Y-117405129D01*
X150117590Y-117402352D01*
X150077747Y-117367827D01*
X150077740Y-117367822D01*
X150074398Y-117366296D01*
X150073094Y-117365700D01*
X150050297Y-117352175D01*
X150046204Y-117349111D01*
X149996787Y-117330678D01*
X149992701Y-117328986D01*
X149984267Y-117325134D01*
X149944734Y-117307081D01*
X149944731Y-117307080D01*
X149944730Y-117307080D01*
X149939674Y-117306353D01*
X149913998Y-117299799D01*
X149909210Y-117298013D01*
X149909202Y-117298011D01*
X149909201Y-117298011D01*
X149902754Y-117297549D01*
X149856588Y-117294247D01*
X149852191Y-117293774D01*
X149836369Y-117291500D01*
X149836368Y-117291500D01*
X149820376Y-117291500D01*
X149815953Y-117291342D01*
X149807358Y-117290727D01*
X149763355Y-117287580D01*
X149763347Y-117287580D01*
X149758358Y-117288666D01*
X149732001Y-117291500D01*
X148991745Y-117291500D01*
X148944292Y-117282061D01*
X148849322Y-117242723D01*
X148774660Y-117232893D01*
X148700001Y-117223064D01*
X148699999Y-117223064D01*
X148550678Y-117242723D01*
X148550674Y-117242724D01*
X148411535Y-117300357D01*
X148411532Y-117300358D01*
X148411532Y-117300359D01*
X148292045Y-117392045D01*
X148218019Y-117488518D01*
X148200357Y-117511535D01*
X148142724Y-117650674D01*
X148142723Y-117650678D01*
X148130615Y-117742649D01*
X148123064Y-117800000D01*
X142500500Y-117800000D01*
X142500500Y-109955299D01*
X149374763Y-109955299D01*
X149394012Y-110089188D01*
X149394013Y-110089193D01*
X149418461Y-110142724D01*
X149450205Y-110212233D01*
X149450208Y-110212236D01*
X149450209Y-110212238D01*
X149515503Y-110287591D01*
X149538786Y-110314460D01*
X149652579Y-110387591D01*
X149686953Y-110397684D01*
X149782366Y-110425700D01*
X149782367Y-110425700D01*
X149917633Y-110425700D01*
X150047421Y-110387591D01*
X150161214Y-110314460D01*
X150249795Y-110212233D01*
X150305987Y-110089190D01*
X150325237Y-109955300D01*
X150305987Y-109821410D01*
X150305986Y-109821409D01*
X150305986Y-109821406D01*
X150277890Y-109759888D01*
X150249795Y-109698367D01*
X150161214Y-109596140D01*
X150157652Y-109593851D01*
X150047419Y-109523007D01*
X150039351Y-109519323D01*
X150040413Y-109516996D01*
X149992967Y-109486509D01*
X149963938Y-109422955D01*
X149973877Y-109353796D01*
X150019629Y-109300989D01*
X150039617Y-109291860D01*
X150039351Y-109291277D01*
X150047419Y-109287592D01*
X150047421Y-109287591D01*
X150161214Y-109214460D01*
X150206289Y-109162440D01*
X150265065Y-109124668D01*
X150334935Y-109124668D01*
X150393710Y-109162440D01*
X150438786Y-109214460D01*
X150552579Y-109287591D01*
X150573051Y-109293602D01*
X150682366Y-109325700D01*
X150682367Y-109325700D01*
X150817633Y-109325700D01*
X150947421Y-109287591D01*
X151061214Y-109214460D01*
X151106289Y-109162440D01*
X151165065Y-109124668D01*
X151234935Y-109124668D01*
X151293710Y-109162440D01*
X151338786Y-109214460D01*
X151338788Y-109214461D01*
X151452580Y-109287592D01*
X151460649Y-109291277D01*
X151459586Y-109293602D01*
X151507037Y-109324097D01*
X151536062Y-109387653D01*
X151526118Y-109456811D01*
X151480363Y-109509615D01*
X151460382Y-109518740D01*
X151460649Y-109519323D01*
X151452580Y-109523007D01*
X151338788Y-109596138D01*
X151338783Y-109596142D01*
X151250209Y-109698361D01*
X151250203Y-109698371D01*
X151194013Y-109821406D01*
X151194012Y-109821411D01*
X151174763Y-109955300D01*
X151194012Y-110089188D01*
X151194013Y-110089193D01*
X151218461Y-110142724D01*
X151250205Y-110212233D01*
X151250208Y-110212236D01*
X151250209Y-110212238D01*
X151315503Y-110287591D01*
X151338786Y-110314460D01*
X151452579Y-110387591D01*
X151486953Y-110397684D01*
X151582366Y-110425700D01*
X151582367Y-110425700D01*
X151717633Y-110425700D01*
X151847421Y-110387591D01*
X151961214Y-110314460D01*
X152049795Y-110212233D01*
X152105987Y-110089190D01*
X152125237Y-109955300D01*
X152474763Y-109955300D01*
X152494012Y-110089188D01*
X152494013Y-110089193D01*
X152518461Y-110142724D01*
X152550205Y-110212233D01*
X152550208Y-110212236D01*
X152550209Y-110212238D01*
X152615503Y-110287591D01*
X152638786Y-110314460D01*
X152752579Y-110387591D01*
X152786953Y-110397684D01*
X152882366Y-110425700D01*
X152882367Y-110425700D01*
X153017633Y-110425700D01*
X153147421Y-110387591D01*
X153261214Y-110314460D01*
X153349795Y-110212233D01*
X153405987Y-110089190D01*
X153425237Y-109955300D01*
X153405987Y-109821410D01*
X153405986Y-109821409D01*
X153405986Y-109821406D01*
X153350419Y-109699733D01*
X153340475Y-109630574D01*
X153369500Y-109567019D01*
X153428278Y-109529244D01*
X153473498Y-109526010D01*
X153473498Y-109525700D01*
X153477842Y-109525700D01*
X153480863Y-109525484D01*
X153482365Y-109525700D01*
X153482367Y-109525700D01*
X153617633Y-109525700D01*
X153747421Y-109487591D01*
X153861214Y-109414460D01*
X153949795Y-109312233D01*
X153995466Y-109212228D01*
X154005986Y-109189193D01*
X154005987Y-109189188D01*
X154025237Y-109055300D01*
X154010859Y-108955299D01*
X160474763Y-108955299D01*
X160494012Y-109089188D01*
X160494013Y-109089193D01*
X160527466Y-109162442D01*
X160550205Y-109212233D01*
X160550208Y-109212236D01*
X160550209Y-109212238D01*
X160636860Y-109312238D01*
X160638786Y-109314460D01*
X160752579Y-109387591D01*
X160817792Y-109406739D01*
X160874407Y-109423363D01*
X160933185Y-109461137D01*
X160962210Y-109524693D01*
X160952267Y-109593851D01*
X160952266Y-109593851D01*
X160894014Y-109721403D01*
X160894012Y-109721411D01*
X160874763Y-109855300D01*
X160894012Y-109989188D01*
X160894013Y-109989193D01*
X160939681Y-110089188D01*
X160950205Y-110112233D01*
X160950208Y-110112236D01*
X160950209Y-110112238D01*
X161036860Y-110212238D01*
X161038786Y-110214460D01*
X161152579Y-110287591D01*
X161217472Y-110306645D01*
X161282366Y-110325700D01*
X161282367Y-110325700D01*
X161417633Y-110325700D01*
X161547421Y-110287591D01*
X161661214Y-110214460D01*
X161749795Y-110112233D01*
X161805987Y-109989190D01*
X161825237Y-109855300D01*
X161825237Y-109855299D01*
X162374763Y-109855299D01*
X162394012Y-109989188D01*
X162394013Y-109989193D01*
X162439681Y-110089188D01*
X162450205Y-110112233D01*
X162450208Y-110112236D01*
X162450209Y-110112238D01*
X162536860Y-110212238D01*
X162538786Y-110214460D01*
X162652579Y-110287591D01*
X162717473Y-110306645D01*
X162782366Y-110325700D01*
X162782367Y-110325700D01*
X162917633Y-110325700D01*
X163047421Y-110287591D01*
X163161214Y-110214460D01*
X163249795Y-110112233D01*
X163305987Y-109989190D01*
X163325237Y-109855300D01*
X163305987Y-109721410D01*
X163305986Y-109721409D01*
X163305986Y-109721406D01*
X163264503Y-109630574D01*
X163249795Y-109598367D01*
X163185956Y-109524693D01*
X163161216Y-109496142D01*
X163161215Y-109496141D01*
X163161214Y-109496140D01*
X163104379Y-109459614D01*
X163058626Y-109406812D01*
X163048682Y-109337653D01*
X163077707Y-109274098D01*
X163104377Y-109250986D01*
X163161214Y-109214460D01*
X163206289Y-109162440D01*
X163265065Y-109124668D01*
X163334935Y-109124668D01*
X163393710Y-109162440D01*
X163438786Y-109214460D01*
X163552579Y-109287591D01*
X163573051Y-109293602D01*
X163682366Y-109325700D01*
X163682367Y-109325700D01*
X163817633Y-109325700D01*
X163947421Y-109287591D01*
X164061214Y-109214460D01*
X164106289Y-109162440D01*
X164165065Y-109124668D01*
X164234935Y-109124668D01*
X164293710Y-109162440D01*
X164338786Y-109214460D01*
X164338788Y-109214461D01*
X164395619Y-109250985D01*
X164441374Y-109303789D01*
X164451317Y-109372948D01*
X164422292Y-109436503D01*
X164395619Y-109459615D01*
X164338788Y-109496138D01*
X164338783Y-109496142D01*
X164250209Y-109598361D01*
X164250203Y-109598371D01*
X164194013Y-109721406D01*
X164194012Y-109721411D01*
X164174763Y-109855299D01*
X164194012Y-109989188D01*
X164194013Y-109989193D01*
X164239681Y-110089188D01*
X164250205Y-110112233D01*
X164250208Y-110112236D01*
X164250209Y-110112238D01*
X164336860Y-110212238D01*
X164338786Y-110214460D01*
X164452579Y-110287591D01*
X164517473Y-110306645D01*
X164582366Y-110325700D01*
X164582367Y-110325700D01*
X164717633Y-110325700D01*
X164847421Y-110287591D01*
X164961214Y-110214460D01*
X165049795Y-110112233D01*
X165105987Y-109989190D01*
X165125237Y-109855300D01*
X165105987Y-109721410D01*
X165105986Y-109721409D01*
X165105986Y-109721406D01*
X165064503Y-109630574D01*
X165049795Y-109598367D01*
X164985956Y-109524693D01*
X164961216Y-109496142D01*
X164961215Y-109496141D01*
X164961214Y-109496140D01*
X164904379Y-109459614D01*
X164858626Y-109406812D01*
X164848682Y-109337653D01*
X164877707Y-109274098D01*
X164904377Y-109250986D01*
X164961214Y-109214460D01*
X165049795Y-109112233D01*
X165105987Y-108989190D01*
X165125237Y-108855300D01*
X165105987Y-108721410D01*
X165105986Y-108721409D01*
X165105986Y-108721406D01*
X165077557Y-108659157D01*
X165049795Y-108598367D01*
X165013888Y-108556928D01*
X164961216Y-108496142D01*
X164961211Y-108496138D01*
X164938283Y-108481403D01*
X164847421Y-108423009D01*
X164847420Y-108423008D01*
X164847419Y-108423008D01*
X164717634Y-108384900D01*
X164717633Y-108384900D01*
X164582367Y-108384900D01*
X164582366Y-108384900D01*
X164452580Y-108423008D01*
X164338788Y-108496138D01*
X164338783Y-108496142D01*
X164293712Y-108548157D01*
X164234934Y-108585931D01*
X164165064Y-108585931D01*
X164106288Y-108548157D01*
X164061216Y-108496142D01*
X164061211Y-108496138D01*
X164038283Y-108481403D01*
X163947421Y-108423009D01*
X163947420Y-108423008D01*
X163947419Y-108423008D01*
X163817634Y-108384900D01*
X163817633Y-108384900D01*
X163682367Y-108384900D01*
X163682366Y-108384900D01*
X163552580Y-108423008D01*
X163438788Y-108496138D01*
X163438783Y-108496142D01*
X163393712Y-108548157D01*
X163334934Y-108585931D01*
X163265064Y-108585931D01*
X163206288Y-108548157D01*
X163161216Y-108496142D01*
X163161211Y-108496138D01*
X163138283Y-108481403D01*
X163047421Y-108423009D01*
X163047420Y-108423008D01*
X163047419Y-108423008D01*
X162917634Y-108384900D01*
X162917633Y-108384900D01*
X162782367Y-108384900D01*
X162782366Y-108384900D01*
X162652580Y-108423008D01*
X162538788Y-108496138D01*
X162538783Y-108496142D01*
X162450209Y-108598361D01*
X162450203Y-108598371D01*
X162394013Y-108721406D01*
X162394012Y-108721411D01*
X162374763Y-108855300D01*
X162394012Y-108989188D01*
X162394013Y-108989193D01*
X162439683Y-109089193D01*
X162450205Y-109112233D01*
X162450208Y-109112236D01*
X162450209Y-109112238D01*
X162536860Y-109212238D01*
X162538786Y-109214460D01*
X162538788Y-109214461D01*
X162595619Y-109250985D01*
X162641374Y-109303789D01*
X162651317Y-109372948D01*
X162622292Y-109436503D01*
X162595619Y-109459615D01*
X162538788Y-109496138D01*
X162538783Y-109496142D01*
X162450209Y-109598361D01*
X162450203Y-109598371D01*
X162394013Y-109721406D01*
X162394012Y-109721411D01*
X162374763Y-109855299D01*
X161825237Y-109855299D01*
X161805987Y-109721410D01*
X161805986Y-109721409D01*
X161805986Y-109721406D01*
X161764503Y-109630574D01*
X161749795Y-109598367D01*
X161685956Y-109524693D01*
X161661216Y-109496142D01*
X161661211Y-109496138D01*
X161604382Y-109459616D01*
X161547421Y-109423009D01*
X161547420Y-109423008D01*
X161547419Y-109423008D01*
X161425592Y-109387236D01*
X161366814Y-109349462D01*
X161337789Y-109285906D01*
X161347733Y-109216747D01*
X161349793Y-109212234D01*
X161349795Y-109212233D01*
X161405987Y-109089190D01*
X161425237Y-108955300D01*
X161405987Y-108821410D01*
X161405986Y-108821409D01*
X161405986Y-108821406D01*
X161370490Y-108743682D01*
X161349795Y-108698367D01*
X161295321Y-108635501D01*
X161261216Y-108596142D01*
X161261211Y-108596138D01*
X161200207Y-108556933D01*
X161147421Y-108523009D01*
X161147420Y-108523008D01*
X161147419Y-108523008D01*
X161017634Y-108484900D01*
X161017633Y-108484900D01*
X160882367Y-108484900D01*
X160882366Y-108484900D01*
X160752580Y-108523008D01*
X160638788Y-108596138D01*
X160638783Y-108596142D01*
X160550209Y-108698361D01*
X160550203Y-108698371D01*
X160494013Y-108821406D01*
X160494012Y-108821411D01*
X160474763Y-108955299D01*
X154010859Y-108955299D01*
X154005987Y-108921410D01*
X154005986Y-108921409D01*
X154005986Y-108921406D01*
X153973693Y-108850696D01*
X153949795Y-108798367D01*
X153902410Y-108743682D01*
X153861216Y-108696142D01*
X153861211Y-108696138D01*
X153803674Y-108659161D01*
X153747421Y-108623009D01*
X153747420Y-108623008D01*
X153747419Y-108623008D01*
X153617634Y-108584900D01*
X153617633Y-108584900D01*
X153482367Y-108584900D01*
X153482366Y-108584900D01*
X153352580Y-108623008D01*
X153238788Y-108696138D01*
X153238783Y-108696142D01*
X153150209Y-108798361D01*
X153150203Y-108798371D01*
X153094013Y-108921406D01*
X153094012Y-108921411D01*
X153074763Y-109055299D01*
X153094012Y-109189188D01*
X153094014Y-109189196D01*
X153149580Y-109310867D01*
X153159524Y-109380025D01*
X153130499Y-109443581D01*
X153071721Y-109481355D01*
X153026502Y-109484590D01*
X153026502Y-109484900D01*
X153022179Y-109484900D01*
X153019146Y-109485117D01*
X153017636Y-109484900D01*
X153017633Y-109484900D01*
X152882367Y-109484900D01*
X152882366Y-109484900D01*
X152752580Y-109523008D01*
X152638788Y-109596138D01*
X152638783Y-109596142D01*
X152550209Y-109698361D01*
X152550203Y-109698371D01*
X152494013Y-109821406D01*
X152494012Y-109821411D01*
X152474763Y-109955300D01*
X152125237Y-109955300D01*
X152105987Y-109821410D01*
X152105986Y-109821409D01*
X152105986Y-109821406D01*
X152077890Y-109759888D01*
X152049795Y-109698367D01*
X151961214Y-109596140D01*
X151957652Y-109593851D01*
X151847419Y-109523007D01*
X151839351Y-109519323D01*
X151840413Y-109516996D01*
X151792967Y-109486509D01*
X151763938Y-109422955D01*
X151773877Y-109353796D01*
X151819629Y-109300989D01*
X151839617Y-109291860D01*
X151839351Y-109291277D01*
X151847419Y-109287592D01*
X151847421Y-109287591D01*
X151961214Y-109214460D01*
X152049795Y-109112233D01*
X152105987Y-108989190D01*
X152125237Y-108855300D01*
X152105987Y-108721410D01*
X152105986Y-108721409D01*
X152105986Y-108721406D01*
X152077557Y-108659157D01*
X152049795Y-108598367D01*
X152013888Y-108556928D01*
X151961216Y-108496142D01*
X151961211Y-108496138D01*
X151938283Y-108481403D01*
X151847421Y-108423009D01*
X151847420Y-108423008D01*
X151847419Y-108423008D01*
X151717634Y-108384900D01*
X151717633Y-108384900D01*
X151582367Y-108384900D01*
X151582366Y-108384900D01*
X151452580Y-108423008D01*
X151338788Y-108496138D01*
X151338783Y-108496142D01*
X151293712Y-108548157D01*
X151234934Y-108585931D01*
X151165064Y-108585931D01*
X151106288Y-108548157D01*
X151061216Y-108496142D01*
X151061211Y-108496138D01*
X151038283Y-108481403D01*
X150947421Y-108423009D01*
X150947420Y-108423008D01*
X150947419Y-108423008D01*
X150817634Y-108384900D01*
X150817633Y-108384900D01*
X150682367Y-108384900D01*
X150682366Y-108384900D01*
X150552580Y-108423008D01*
X150438788Y-108496138D01*
X150438783Y-108496142D01*
X150393712Y-108548157D01*
X150334934Y-108585931D01*
X150265064Y-108585931D01*
X150206288Y-108548157D01*
X150161216Y-108496142D01*
X150161211Y-108496138D01*
X150138283Y-108481403D01*
X150047421Y-108423009D01*
X150047420Y-108423008D01*
X150047419Y-108423008D01*
X149917634Y-108384900D01*
X149917633Y-108384900D01*
X149782367Y-108384900D01*
X149782366Y-108384900D01*
X149652580Y-108423008D01*
X149538788Y-108496138D01*
X149538783Y-108496142D01*
X149450209Y-108598361D01*
X149450203Y-108598371D01*
X149394013Y-108721406D01*
X149394012Y-108721411D01*
X149374763Y-108855300D01*
X149394012Y-108989188D01*
X149394013Y-108989193D01*
X149439683Y-109089193D01*
X149450205Y-109112233D01*
X149450208Y-109112236D01*
X149450209Y-109112238D01*
X149536860Y-109212238D01*
X149538786Y-109214460D01*
X149538788Y-109214461D01*
X149652580Y-109287592D01*
X149660649Y-109291277D01*
X149659586Y-109293602D01*
X149707037Y-109324097D01*
X149736062Y-109387653D01*
X149726118Y-109456811D01*
X149680363Y-109509615D01*
X149660382Y-109518740D01*
X149660649Y-109519323D01*
X149652580Y-109523007D01*
X149538788Y-109596138D01*
X149538783Y-109596142D01*
X149450209Y-109698361D01*
X149450203Y-109698371D01*
X149394013Y-109821406D01*
X149394012Y-109821411D01*
X149374763Y-109955299D01*
X142500500Y-109955299D01*
X142500500Y-103305300D01*
X148017770Y-103305300D01*
X148036643Y-103496926D01*
X148092538Y-103681184D01*
X148183302Y-103850992D01*
X148183306Y-103850999D01*
X148305458Y-103999841D01*
X148454300Y-104121993D01*
X148454307Y-104121997D01*
X148582189Y-104190351D01*
X148624117Y-104212762D01*
X148808376Y-104268657D01*
X149000000Y-104287530D01*
X149191624Y-104268657D01*
X149375883Y-104212762D01*
X149545698Y-104121994D01*
X149694541Y-103999841D01*
X149816694Y-103850998D01*
X149907462Y-103681183D01*
X149963357Y-103496924D01*
X149982230Y-103305300D01*
X149963357Y-103113676D01*
X149907462Y-102929417D01*
X149898341Y-102912352D01*
X149816697Y-102759607D01*
X149816693Y-102759600D01*
X149694541Y-102610758D01*
X149545699Y-102488606D01*
X149545692Y-102488602D01*
X149375884Y-102397838D01*
X149191626Y-102341943D01*
X149000000Y-102323070D01*
X148808373Y-102341943D01*
X148624115Y-102397838D01*
X148454307Y-102488602D01*
X148454300Y-102488606D01*
X148305458Y-102610758D01*
X148183306Y-102759600D01*
X148183302Y-102759607D01*
X148092538Y-102929415D01*
X148036643Y-103113673D01*
X148017770Y-103305300D01*
X142500500Y-103305300D01*
X142500500Y-100765300D01*
X148017770Y-100765300D01*
X148036643Y-100956926D01*
X148092538Y-101141184D01*
X148183302Y-101310992D01*
X148183306Y-101310999D01*
X148305458Y-101459841D01*
X148454300Y-101581993D01*
X148454307Y-101581997D01*
X148624115Y-101672761D01*
X148624117Y-101672762D01*
X148808376Y-101728657D01*
X149000000Y-101747530D01*
X149191624Y-101728657D01*
X149375883Y-101672762D01*
X149545698Y-101581994D01*
X149694541Y-101459841D01*
X149816694Y-101310998D01*
X149907462Y-101141183D01*
X149963357Y-100956924D01*
X149982230Y-100765300D01*
X149963357Y-100573676D01*
X149907462Y-100389417D01*
X149839359Y-100262005D01*
X149816697Y-100219607D01*
X149816693Y-100219600D01*
X149694541Y-100070758D01*
X149545699Y-99948606D01*
X149545692Y-99948602D01*
X149375884Y-99857838D01*
X149191626Y-99801943D01*
X149000000Y-99783070D01*
X148808373Y-99801943D01*
X148624115Y-99857838D01*
X148454307Y-99948602D01*
X148454300Y-99948606D01*
X148305458Y-100070758D01*
X148183306Y-100219600D01*
X148183302Y-100219607D01*
X148092538Y-100389415D01*
X148036643Y-100573673D01*
X148017770Y-100765300D01*
X142500500Y-100765300D01*
X142500500Y-99087858D01*
X148022500Y-99087858D01*
X148029898Y-99125049D01*
X148058077Y-99167222D01*
X148100250Y-99195401D01*
X148100252Y-99195402D01*
X148128205Y-99200962D01*
X148137441Y-99202800D01*
X148137442Y-99202800D01*
X149862559Y-99202800D01*
X149869957Y-99201328D01*
X149899748Y-99195402D01*
X149941922Y-99167222D01*
X149970102Y-99125048D01*
X149977500Y-99087858D01*
X149977500Y-98565700D01*
X149997185Y-98498661D01*
X150049989Y-98452906D01*
X150101500Y-98441700D01*
X151984302Y-98441700D01*
X152051341Y-98461385D01*
X152071983Y-98478019D01*
X156597135Y-103003171D01*
X156599351Y-103005507D01*
X156625261Y-103034283D01*
X156642818Y-103042099D01*
X156659904Y-103051376D01*
X156676017Y-103061840D01*
X156677177Y-103062023D01*
X156708226Y-103071221D01*
X156709301Y-103071699D01*
X156709302Y-103071700D01*
X156709303Y-103071700D01*
X156728508Y-103071700D01*
X156747907Y-103073227D01*
X156766879Y-103076232D01*
X156768025Y-103075924D01*
X156800117Y-103071700D01*
X159758454Y-103071700D01*
X159825493Y-103091385D01*
X159852166Y-103114497D01*
X159936381Y-103211685D01*
X159938786Y-103214460D01*
X160052579Y-103287591D01*
X160112891Y-103305300D01*
X160182366Y-103325700D01*
X160182367Y-103325700D01*
X160317633Y-103325700D01*
X160447421Y-103287591D01*
X160561214Y-103214460D01*
X160649795Y-103112233D01*
X160701009Y-103000090D01*
X160705986Y-102989193D01*
X160705987Y-102989188D01*
X160708206Y-102973753D01*
X160725237Y-102855300D01*
X160705987Y-102721410D01*
X160705986Y-102721409D01*
X160705986Y-102721406D01*
X160666012Y-102633877D01*
X160649795Y-102598367D01*
X160561214Y-102496140D01*
X160549485Y-102488602D01*
X160447419Y-102423007D01*
X160443843Y-102421374D01*
X160440043Y-102418266D01*
X160439961Y-102418214D01*
X160439967Y-102418204D01*
X160409005Y-102392886D01*
X160407722Y-102394312D01*
X160398034Y-102385589D01*
X160318367Y-102339593D01*
X160226876Y-102329977D01*
X160226873Y-102329977D01*
X160139384Y-102358404D01*
X160139383Y-102358404D01*
X160095880Y-102397573D01*
X160059892Y-102417677D01*
X160060645Y-102419326D01*
X160052575Y-102423011D01*
X159938788Y-102496138D01*
X159938783Y-102496142D01*
X159852166Y-102596103D01*
X159793388Y-102633877D01*
X159758454Y-102638900D01*
X156896298Y-102638900D01*
X156829259Y-102619215D01*
X156808617Y-102602581D01*
X154306034Y-100099999D01*
X176124763Y-100099999D01*
X176144012Y-100233888D01*
X176144013Y-100233893D01*
X176183032Y-100319329D01*
X176200205Y-100356933D01*
X176200208Y-100356936D01*
X176200209Y-100356938D01*
X176274844Y-100443071D01*
X176288786Y-100459160D01*
X176402579Y-100532291D01*
X176467472Y-100551345D01*
X176532366Y-100570400D01*
X176532367Y-100570400D01*
X176667633Y-100570400D01*
X176797421Y-100532291D01*
X176911214Y-100459160D01*
X176999795Y-100356933D01*
X177055987Y-100233890D01*
X177075237Y-100100000D01*
X177055987Y-99966110D01*
X177055986Y-99966109D01*
X177055986Y-99966106D01*
X177027890Y-99904588D01*
X176999795Y-99843067D01*
X176911214Y-99740840D01*
X176797421Y-99667709D01*
X176797420Y-99667708D01*
X176797419Y-99667708D01*
X176667634Y-99629600D01*
X176667633Y-99629600D01*
X176532367Y-99629600D01*
X176532366Y-99629600D01*
X176402580Y-99667708D01*
X176288788Y-99740838D01*
X176288783Y-99740842D01*
X176200209Y-99843061D01*
X176200203Y-99843071D01*
X176144013Y-99966106D01*
X176144012Y-99966111D01*
X176124763Y-100099999D01*
X154306034Y-100099999D01*
X152283490Y-98077455D01*
X152281270Y-98075117D01*
X152255339Y-98046317D01*
X152255338Y-98046316D01*
X152255337Y-98046315D01*
X152237784Y-98038500D01*
X152220689Y-98029218D01*
X152204582Y-98018759D01*
X152204584Y-98018759D01*
X152203405Y-98018573D01*
X152172385Y-98009384D01*
X152171298Y-98008900D01*
X152171297Y-98008900D01*
X152152092Y-98008900D01*
X152132693Y-98007373D01*
X152113721Y-98004368D01*
X152112574Y-98004675D01*
X152080483Y-98008900D01*
X150101500Y-98008900D01*
X150034461Y-97989215D01*
X149988706Y-97936411D01*
X149980785Y-97900000D01*
X160824763Y-97900000D01*
X160844012Y-98033888D01*
X160844013Y-98033893D01*
X160890415Y-98135497D01*
X160900205Y-98156933D01*
X160900208Y-98156936D01*
X160900209Y-98156938D01*
X160975232Y-98243519D01*
X160988786Y-98259160D01*
X161102579Y-98332291D01*
X161167472Y-98351345D01*
X161232366Y-98370400D01*
X161232367Y-98370400D01*
X161367633Y-98370400D01*
X161497421Y-98332291D01*
X161611214Y-98259160D01*
X161699795Y-98156933D01*
X161755987Y-98033890D01*
X161775237Y-97900000D01*
X161755987Y-97766110D01*
X161755986Y-97766109D01*
X161755986Y-97766106D01*
X161727891Y-97704588D01*
X161699795Y-97643067D01*
X161622164Y-97553477D01*
X161611216Y-97540842D01*
X161611211Y-97540838D01*
X161497419Y-97467708D01*
X161367634Y-97429600D01*
X161367633Y-97429600D01*
X161232367Y-97429600D01*
X161232366Y-97429600D01*
X161102580Y-97467708D01*
X160988788Y-97540838D01*
X160988783Y-97540842D01*
X160900209Y-97643061D01*
X160900203Y-97643071D01*
X160844013Y-97766106D01*
X160844012Y-97766111D01*
X160824763Y-97900000D01*
X149980785Y-97900000D01*
X149977500Y-97884900D01*
X149977500Y-97362741D01*
X149975662Y-97353505D01*
X149970102Y-97325552D01*
X149970101Y-97325550D01*
X149941922Y-97283377D01*
X149899749Y-97255198D01*
X149862559Y-97247800D01*
X149862558Y-97247800D01*
X148137442Y-97247800D01*
X148137441Y-97247800D01*
X148100250Y-97255198D01*
X148058077Y-97283377D01*
X148029898Y-97325550D01*
X148022500Y-97362741D01*
X148022500Y-99087858D01*
X142500500Y-99087858D01*
X142500500Y-96000000D01*
X165124763Y-96000000D01*
X165144012Y-96133888D01*
X165144013Y-96133893D01*
X165190571Y-96235838D01*
X165200205Y-96256933D01*
X165288786Y-96359160D01*
X165402579Y-96432291D01*
X165467472Y-96451345D01*
X165532366Y-96470400D01*
X165532367Y-96470400D01*
X165667633Y-96470400D01*
X165797421Y-96432291D01*
X165911214Y-96359160D01*
X165999795Y-96256933D01*
X166055987Y-96133890D01*
X166075237Y-96000000D01*
X166055987Y-95866110D01*
X166055986Y-95866109D01*
X166055986Y-95866106D01*
X166027890Y-95804588D01*
X165999795Y-95743067D01*
X165911214Y-95640840D01*
X165797421Y-95567709D01*
X165797420Y-95567708D01*
X165797419Y-95567708D01*
X165667634Y-95529600D01*
X165667633Y-95529600D01*
X165532367Y-95529600D01*
X165532366Y-95529600D01*
X165402580Y-95567708D01*
X165288788Y-95640838D01*
X165288783Y-95640842D01*
X165200209Y-95743061D01*
X165200203Y-95743071D01*
X165144013Y-95866106D01*
X165144012Y-95866111D01*
X165124763Y-96000000D01*
X142500500Y-96000000D01*
X142500500Y-92499999D01*
X152774763Y-92499999D01*
X152794012Y-92633888D01*
X152794013Y-92633893D01*
X152840571Y-92735838D01*
X152850205Y-92756933D01*
X152938786Y-92859160D01*
X153052579Y-92932291D01*
X153088111Y-92942724D01*
X153182366Y-92970400D01*
X153182367Y-92970400D01*
X153317633Y-92970400D01*
X153447421Y-92932291D01*
X153561214Y-92859160D01*
X153649795Y-92756933D01*
X153705987Y-92633890D01*
X153725237Y-92500000D01*
X153725237Y-92499999D01*
X159274763Y-92499999D01*
X159294012Y-92633888D01*
X159294013Y-92633893D01*
X159340571Y-92735838D01*
X159350205Y-92756933D01*
X159438786Y-92859160D01*
X159552579Y-92932291D01*
X159588111Y-92942724D01*
X159682366Y-92970400D01*
X159682367Y-92970400D01*
X159817633Y-92970400D01*
X159947421Y-92932291D01*
X160061214Y-92859160D01*
X160149795Y-92756933D01*
X160205987Y-92633890D01*
X160225237Y-92500000D01*
X160205987Y-92366110D01*
X160205986Y-92366109D01*
X160205986Y-92366106D01*
X160177891Y-92304588D01*
X160149795Y-92243067D01*
X160061214Y-92140840D01*
X159947421Y-92067709D01*
X159947420Y-92067708D01*
X159947419Y-92067708D01*
X159817634Y-92029600D01*
X159817633Y-92029600D01*
X159682367Y-92029600D01*
X159682366Y-92029600D01*
X159552580Y-92067708D01*
X159438788Y-92140838D01*
X159438783Y-92140842D01*
X159350209Y-92243061D01*
X159350203Y-92243071D01*
X159294013Y-92366106D01*
X159294012Y-92366111D01*
X159274763Y-92499999D01*
X153725237Y-92499999D01*
X153705987Y-92366110D01*
X153705986Y-92366109D01*
X153705986Y-92366106D01*
X153677890Y-92304588D01*
X153649795Y-92243067D01*
X153561214Y-92140840D01*
X153447421Y-92067709D01*
X153447420Y-92067708D01*
X153447419Y-92067708D01*
X153317634Y-92029600D01*
X153317633Y-92029600D01*
X153182367Y-92029600D01*
X153182366Y-92029600D01*
X153052580Y-92067708D01*
X152938788Y-92140838D01*
X152938783Y-92140842D01*
X152850209Y-92243061D01*
X152850203Y-92243071D01*
X152794013Y-92366106D01*
X152794012Y-92366111D01*
X152774763Y-92499999D01*
X142500500Y-92499999D01*
X142500500Y-89630597D01*
X152524763Y-89630597D01*
X152544012Y-89764486D01*
X152544013Y-89764491D01*
X152575709Y-89833893D01*
X152600205Y-89887531D01*
X152600208Y-89887534D01*
X152600209Y-89887536D01*
X152684789Y-89985146D01*
X152688786Y-89989758D01*
X152802579Y-90062889D01*
X152867473Y-90081943D01*
X152932366Y-90100998D01*
X152932367Y-90100998D01*
X153067633Y-90100998D01*
X153197421Y-90062889D01*
X153311214Y-89989758D01*
X153399795Y-89887531D01*
X153455987Y-89764488D01*
X153475237Y-89630598D01*
X153455987Y-89496708D01*
X153455986Y-89496707D01*
X153455986Y-89496704D01*
X153427890Y-89435186D01*
X153399795Y-89373665D01*
X153398347Y-89371994D01*
X153311216Y-89271440D01*
X153311211Y-89271436D01*
X153287970Y-89256500D01*
X153197421Y-89198307D01*
X153197420Y-89198306D01*
X153197419Y-89198306D01*
X153067634Y-89160198D01*
X153067633Y-89160198D01*
X152932367Y-89160198D01*
X152932366Y-89160198D01*
X152802580Y-89198306D01*
X152688788Y-89271436D01*
X152688783Y-89271440D01*
X152600209Y-89373659D01*
X152600203Y-89373669D01*
X152544013Y-89496704D01*
X152544012Y-89496709D01*
X152524763Y-89630597D01*
X142500500Y-89630597D01*
X142500500Y-88700000D01*
X148324763Y-88700000D01*
X148344012Y-88833888D01*
X148344013Y-88833893D01*
X148389681Y-88933888D01*
X148400205Y-88956933D01*
X148400208Y-88956936D01*
X148400209Y-88956938D01*
X148486860Y-89056938D01*
X148488786Y-89059160D01*
X148602579Y-89132291D01*
X148667472Y-89151345D01*
X148732366Y-89170400D01*
X148732367Y-89170400D01*
X148867633Y-89170400D01*
X148997421Y-89132291D01*
X149111214Y-89059160D01*
X149199795Y-88956933D01*
X149255987Y-88833890D01*
X149260860Y-88800000D01*
X158624763Y-88800000D01*
X158644012Y-88933888D01*
X158644013Y-88933893D01*
X158690571Y-89035838D01*
X158700205Y-89056933D01*
X158700208Y-89056936D01*
X158700209Y-89056938D01*
X158765503Y-89132291D01*
X158788786Y-89159160D01*
X158902579Y-89232291D01*
X158967472Y-89251345D01*
X159032366Y-89270400D01*
X159032367Y-89270400D01*
X159167633Y-89270400D01*
X159297421Y-89232291D01*
X159411214Y-89159160D01*
X159499795Y-89056933D01*
X159555987Y-88933890D01*
X159575237Y-88800000D01*
X159555987Y-88666110D01*
X159555986Y-88666109D01*
X159555986Y-88666106D01*
X159527891Y-88604588D01*
X159499795Y-88543067D01*
X159411214Y-88440840D01*
X159411211Y-88440838D01*
X159297419Y-88367707D01*
X159289351Y-88364023D01*
X159290413Y-88361696D01*
X159242967Y-88331209D01*
X159213938Y-88267655D01*
X159223877Y-88198496D01*
X159269629Y-88145689D01*
X159289617Y-88136560D01*
X159289351Y-88135977D01*
X159297419Y-88132292D01*
X159297421Y-88132291D01*
X159411214Y-88059160D01*
X159499795Y-87956933D01*
X159555987Y-87833890D01*
X159575237Y-87700000D01*
X159555987Y-87566110D01*
X159555986Y-87566109D01*
X159555986Y-87566106D01*
X159527891Y-87504588D01*
X159499795Y-87443067D01*
X159411214Y-87340840D01*
X159297421Y-87267709D01*
X159297420Y-87267708D01*
X159297419Y-87267708D01*
X159167634Y-87229600D01*
X159167633Y-87229600D01*
X159032367Y-87229600D01*
X159032366Y-87229600D01*
X158902580Y-87267708D01*
X158788788Y-87340838D01*
X158788783Y-87340842D01*
X158700209Y-87443061D01*
X158700203Y-87443071D01*
X158644013Y-87566106D01*
X158644012Y-87566111D01*
X158624763Y-87699999D01*
X158644012Y-87833888D01*
X158644013Y-87833893D01*
X158690571Y-87935838D01*
X158700205Y-87956933D01*
X158788786Y-88059160D01*
X158788788Y-88059161D01*
X158902580Y-88132292D01*
X158910649Y-88135977D01*
X158909586Y-88138302D01*
X158957037Y-88168797D01*
X158986062Y-88232353D01*
X158976118Y-88301511D01*
X158930363Y-88354315D01*
X158910382Y-88363440D01*
X158910649Y-88364023D01*
X158902580Y-88367707D01*
X158788788Y-88440838D01*
X158788783Y-88440842D01*
X158700209Y-88543061D01*
X158700203Y-88543071D01*
X158644013Y-88666106D01*
X158644012Y-88666111D01*
X158624763Y-88800000D01*
X149260860Y-88800000D01*
X149275237Y-88700000D01*
X149255987Y-88566110D01*
X149255986Y-88566109D01*
X149255986Y-88566106D01*
X149227890Y-88504588D01*
X149199795Y-88443067D01*
X149197864Y-88440838D01*
X149111216Y-88340842D01*
X149111211Y-88340838D01*
X148997419Y-88267708D01*
X148867634Y-88229600D01*
X148867633Y-88229600D01*
X148732367Y-88229600D01*
X148732366Y-88229600D01*
X148602580Y-88267708D01*
X148488788Y-88340838D01*
X148488783Y-88340842D01*
X148400209Y-88443061D01*
X148400203Y-88443071D01*
X148344013Y-88566106D01*
X148344012Y-88566111D01*
X148324763Y-88700000D01*
X142500500Y-88700000D01*
X142500500Y-86099999D01*
X149024763Y-86099999D01*
X149044012Y-86233888D01*
X149044013Y-86233893D01*
X149083032Y-86319329D01*
X149100205Y-86356933D01*
X149188786Y-86459160D01*
X149302579Y-86532291D01*
X149367472Y-86551345D01*
X149432366Y-86570400D01*
X149432367Y-86570400D01*
X149567633Y-86570400D01*
X149697421Y-86532291D01*
X149811214Y-86459160D01*
X149899795Y-86356933D01*
X149955987Y-86233890D01*
X149975237Y-86100000D01*
X149975237Y-86099999D01*
X150424763Y-86099999D01*
X150444012Y-86233888D01*
X150444013Y-86233893D01*
X150483032Y-86319329D01*
X150500205Y-86356933D01*
X150588786Y-86459160D01*
X150702579Y-86532291D01*
X150767472Y-86551345D01*
X150832366Y-86570400D01*
X150832367Y-86570400D01*
X150967633Y-86570400D01*
X151097421Y-86532291D01*
X151211214Y-86459160D01*
X151299795Y-86356933D01*
X151355987Y-86233890D01*
X151375237Y-86100000D01*
X151375237Y-86099999D01*
X151824763Y-86099999D01*
X151844012Y-86233888D01*
X151844013Y-86233893D01*
X151883032Y-86319329D01*
X151900205Y-86356933D01*
X151988786Y-86459160D01*
X152102579Y-86532291D01*
X152167472Y-86551345D01*
X152232366Y-86570400D01*
X152232367Y-86570400D01*
X152367633Y-86570400D01*
X152497421Y-86532291D01*
X152611214Y-86459160D01*
X152699795Y-86356933D01*
X152755987Y-86233890D01*
X152775237Y-86100000D01*
X152755987Y-85966110D01*
X152755986Y-85966109D01*
X152755986Y-85966106D01*
X152727891Y-85904588D01*
X152699795Y-85843067D01*
X152697484Y-85840400D01*
X152611216Y-85740842D01*
X152611211Y-85740838D01*
X152565330Y-85711352D01*
X152497421Y-85667709D01*
X152497420Y-85667708D01*
X152497419Y-85667708D01*
X152367634Y-85629600D01*
X152367633Y-85629600D01*
X152232367Y-85629600D01*
X152232366Y-85629600D01*
X152102580Y-85667708D01*
X151988788Y-85740838D01*
X151988783Y-85740842D01*
X151900209Y-85843061D01*
X151900203Y-85843071D01*
X151844013Y-85966106D01*
X151844012Y-85966111D01*
X151824763Y-86099999D01*
X151375237Y-86099999D01*
X151355987Y-85966110D01*
X151355986Y-85966109D01*
X151355986Y-85966106D01*
X151327891Y-85904588D01*
X151299795Y-85843067D01*
X151297484Y-85840400D01*
X151211216Y-85740842D01*
X151211211Y-85740838D01*
X151165330Y-85711352D01*
X151097421Y-85667709D01*
X151097420Y-85667708D01*
X151097419Y-85667708D01*
X150967634Y-85629600D01*
X150967633Y-85629600D01*
X150832367Y-85629600D01*
X150832366Y-85629600D01*
X150702580Y-85667708D01*
X150588788Y-85740838D01*
X150588783Y-85740842D01*
X150500209Y-85843061D01*
X150500203Y-85843071D01*
X150444013Y-85966106D01*
X150444012Y-85966111D01*
X150424763Y-86099999D01*
X149975237Y-86099999D01*
X149955987Y-85966110D01*
X149955986Y-85966109D01*
X149955986Y-85966106D01*
X149927891Y-85904588D01*
X149899795Y-85843067D01*
X149897484Y-85840400D01*
X149811216Y-85740842D01*
X149811211Y-85740838D01*
X149765330Y-85711352D01*
X149697421Y-85667709D01*
X149697420Y-85667708D01*
X149697419Y-85667708D01*
X149567634Y-85629600D01*
X149567633Y-85629600D01*
X149432367Y-85629600D01*
X149432366Y-85629600D01*
X149302580Y-85667708D01*
X149188788Y-85740838D01*
X149188783Y-85740842D01*
X149100209Y-85843061D01*
X149100203Y-85843071D01*
X149044013Y-85966106D01*
X149044012Y-85966111D01*
X149024763Y-86099999D01*
X142500500Y-86099999D01*
X142500500Y-85000000D01*
X147924763Y-85000000D01*
X147944012Y-85133888D01*
X147944013Y-85133893D01*
X147990571Y-85235838D01*
X148000205Y-85256933D01*
X148000208Y-85256936D01*
X148000209Y-85256938D01*
X148008153Y-85266106D01*
X148088786Y-85359160D01*
X148202579Y-85432291D01*
X148267472Y-85451345D01*
X148332366Y-85470400D01*
X148332367Y-85470400D01*
X148467633Y-85470400D01*
X148597421Y-85432291D01*
X148711214Y-85359160D01*
X148799795Y-85256933D01*
X148855987Y-85133890D01*
X148875237Y-85000000D01*
X148875237Y-84999999D01*
X152924763Y-84999999D01*
X152944012Y-85133888D01*
X152944013Y-85133893D01*
X152990571Y-85235838D01*
X153000205Y-85256933D01*
X153000208Y-85256936D01*
X153000209Y-85256938D01*
X153008153Y-85266106D01*
X153088786Y-85359160D01*
X153202579Y-85432291D01*
X153267472Y-85451345D01*
X153332366Y-85470400D01*
X153332367Y-85470400D01*
X153467633Y-85470400D01*
X153597421Y-85432291D01*
X153647668Y-85399999D01*
X175124763Y-85399999D01*
X175144012Y-85533888D01*
X175144013Y-85533893D01*
X175186502Y-85626928D01*
X175200205Y-85656933D01*
X175200208Y-85656936D01*
X175200209Y-85656938D01*
X175272909Y-85740838D01*
X175288786Y-85759160D01*
X175402579Y-85832291D01*
X175467472Y-85851345D01*
X175532366Y-85870400D01*
X175532367Y-85870400D01*
X175667633Y-85870400D01*
X175797421Y-85832291D01*
X175911214Y-85759160D01*
X175999795Y-85656933D01*
X176055987Y-85533890D01*
X176075237Y-85400000D01*
X176070924Y-85369999D01*
X180998913Y-85369999D01*
X181018162Y-85503888D01*
X181018163Y-85503893D01*
X181064721Y-85605838D01*
X181074355Y-85626933D01*
X181074358Y-85626936D01*
X181074359Y-85626938D01*
X181157901Y-85723350D01*
X181162936Y-85729160D01*
X181276729Y-85802291D01*
X181341623Y-85821345D01*
X181406516Y-85840400D01*
X181406517Y-85840400D01*
X181541783Y-85840400D01*
X181671571Y-85802291D01*
X181785364Y-85729160D01*
X181785367Y-85729157D01*
X181792070Y-85723350D01*
X181792572Y-85723930D01*
X181823802Y-85699903D01*
X181854746Y-85684776D01*
X181854747Y-85684774D01*
X181861263Y-85680122D01*
X181867558Y-85675223D01*
X181867559Y-85675221D01*
X181867562Y-85675220D01*
X181905341Y-85634180D01*
X185621702Y-81917819D01*
X185683026Y-81884334D01*
X185709384Y-81881500D01*
X188197573Y-81881500D01*
X188223018Y-81884139D01*
X188226961Y-81884965D01*
X188234017Y-81886445D01*
X188252576Y-81884131D01*
X188269866Y-81881977D01*
X188277542Y-81881500D01*
X188281608Y-81881500D01*
X188281611Y-81881500D01*
X188305004Y-81877596D01*
X188360360Y-81870696D01*
X188368013Y-81868416D01*
X188375582Y-81865818D01*
X188375586Y-81865818D01*
X188424641Y-81839270D01*
X188474746Y-81814776D01*
X188474747Y-81814774D01*
X188481263Y-81810122D01*
X188487558Y-81805223D01*
X188487559Y-81805221D01*
X188487562Y-81805220D01*
X188525341Y-81764180D01*
X195557614Y-74731907D01*
X195618935Y-74698424D01*
X195681288Y-74700929D01*
X195783413Y-74731909D01*
X195803473Y-74737994D01*
X195803475Y-74737995D01*
X195821095Y-74739730D01*
X196000000Y-74757351D01*
X196196524Y-74737995D01*
X196385497Y-74680671D01*
X196559654Y-74587582D01*
X196712305Y-74462305D01*
X196837582Y-74309654D01*
X196900263Y-74192386D01*
X196930669Y-74135501D01*
X196930669Y-74135500D01*
X196930671Y-74135497D01*
X196987995Y-73946524D01*
X197007351Y-73750000D01*
X196987995Y-73553476D01*
X196930671Y-73364503D01*
X196930669Y-73364500D01*
X196930669Y-73364498D01*
X196837585Y-73190351D01*
X196837583Y-73190349D01*
X196837582Y-73190346D01*
X196799482Y-73143921D01*
X196712305Y-73037694D01*
X196582866Y-72931467D01*
X196559654Y-72912418D01*
X196559652Y-72912417D01*
X196559648Y-72912414D01*
X196385501Y-72819330D01*
X196291010Y-72790666D01*
X196196524Y-72762005D01*
X196196522Y-72762004D01*
X196196524Y-72762004D01*
X196000000Y-72742649D01*
X195803477Y-72762004D01*
X195614498Y-72819330D01*
X195440351Y-72912414D01*
X195440344Y-72912419D01*
X195287694Y-73037694D01*
X195162419Y-73190344D01*
X195162414Y-73190351D01*
X195069330Y-73364498D01*
X195012004Y-73553477D01*
X194992649Y-73750000D01*
X195012004Y-73946522D01*
X195049070Y-74068710D01*
X195049693Y-74138577D01*
X195018090Y-74192386D01*
X188128296Y-81082181D01*
X188066973Y-81115666D01*
X188040615Y-81118500D01*
X185552427Y-81118500D01*
X185526982Y-81115861D01*
X185515984Y-81113555D01*
X185515980Y-81113555D01*
X185480136Y-81118023D01*
X185472459Y-81118500D01*
X185468389Y-81118500D01*
X185452785Y-81121103D01*
X185444982Y-81122405D01*
X185389636Y-81129305D01*
X185381990Y-81131581D01*
X185374411Y-81134182D01*
X185325354Y-81160730D01*
X185275256Y-81185222D01*
X185268730Y-81189881D01*
X185262435Y-81194781D01*
X185224658Y-81235819D01*
X181597195Y-84863281D01*
X181535872Y-84896766D01*
X181509514Y-84899600D01*
X181406516Y-84899600D01*
X181276730Y-84937708D01*
X181162938Y-85010838D01*
X181162933Y-85010842D01*
X181074359Y-85113061D01*
X181074353Y-85113071D01*
X181018163Y-85236106D01*
X181018162Y-85236111D01*
X180998913Y-85369999D01*
X176070924Y-85369999D01*
X176055987Y-85266110D01*
X176055986Y-85266109D01*
X176055986Y-85266106D01*
X176027890Y-85204588D01*
X175999795Y-85143067D01*
X175973800Y-85113067D01*
X175911216Y-85040842D01*
X175911211Y-85040838D01*
X175864537Y-85010842D01*
X175797421Y-84967709D01*
X175797420Y-84967708D01*
X175797419Y-84967708D01*
X175667634Y-84929600D01*
X175667633Y-84929600D01*
X175532367Y-84929600D01*
X175532366Y-84929600D01*
X175402580Y-84967708D01*
X175288788Y-85040838D01*
X175288783Y-85040842D01*
X175200209Y-85143061D01*
X175200203Y-85143071D01*
X175144013Y-85266106D01*
X175144012Y-85266111D01*
X175124763Y-85399999D01*
X153647668Y-85399999D01*
X153711214Y-85359160D01*
X153799795Y-85256933D01*
X153855987Y-85133890D01*
X153875237Y-85000000D01*
X153855987Y-84866110D01*
X153855986Y-84866109D01*
X153855986Y-84866106D01*
X153827890Y-84804588D01*
X153799795Y-84743067D01*
X153790065Y-84731838D01*
X153711216Y-84640842D01*
X153711211Y-84640838D01*
X153628348Y-84587585D01*
X153597421Y-84567709D01*
X153597420Y-84567708D01*
X153597419Y-84567708D01*
X153467634Y-84529600D01*
X153467633Y-84529600D01*
X153332367Y-84529600D01*
X153332366Y-84529600D01*
X153202580Y-84567708D01*
X153088788Y-84640838D01*
X153088783Y-84640842D01*
X153000209Y-84743061D01*
X153000203Y-84743071D01*
X152944013Y-84866106D01*
X152944012Y-84866111D01*
X152924763Y-84999999D01*
X148875237Y-84999999D01*
X148855987Y-84866110D01*
X148855986Y-84866109D01*
X148855986Y-84866106D01*
X148827890Y-84804588D01*
X148799795Y-84743067D01*
X148790065Y-84731838D01*
X148711216Y-84640842D01*
X148711211Y-84640838D01*
X148628348Y-84587585D01*
X148597421Y-84567709D01*
X148597420Y-84567708D01*
X148597419Y-84567708D01*
X148467634Y-84529600D01*
X148467633Y-84529600D01*
X148332367Y-84529600D01*
X148332366Y-84529600D01*
X148202580Y-84567708D01*
X148088788Y-84640838D01*
X148088783Y-84640842D01*
X148000209Y-84743061D01*
X148000203Y-84743071D01*
X147944013Y-84866106D01*
X147944012Y-84866111D01*
X147924763Y-85000000D01*
X142500500Y-85000000D01*
X142500500Y-83600000D01*
X147924763Y-83600000D01*
X147944012Y-83733888D01*
X147944013Y-83733893D01*
X147990571Y-83835838D01*
X148000205Y-83856933D01*
X148000208Y-83856936D01*
X148000209Y-83856938D01*
X148077836Y-83946524D01*
X148088786Y-83959160D01*
X148202579Y-84032291D01*
X148267472Y-84051345D01*
X148332366Y-84070400D01*
X148332367Y-84070400D01*
X148467633Y-84070400D01*
X148597421Y-84032291D01*
X148711214Y-83959160D01*
X148799795Y-83856933D01*
X148855987Y-83733890D01*
X148875237Y-83600000D01*
X152924763Y-83600000D01*
X152944012Y-83733888D01*
X152944013Y-83733893D01*
X152990571Y-83835838D01*
X153000205Y-83856933D01*
X153000208Y-83856936D01*
X153000209Y-83856938D01*
X153077836Y-83946524D01*
X153088786Y-83959160D01*
X153202579Y-84032291D01*
X153267472Y-84051345D01*
X153332366Y-84070400D01*
X153332367Y-84070400D01*
X153467633Y-84070400D01*
X153597421Y-84032291D01*
X153711214Y-83959160D01*
X153799795Y-83856933D01*
X153855987Y-83733890D01*
X153875237Y-83600000D01*
X153855987Y-83466110D01*
X153855986Y-83466109D01*
X153855986Y-83466106D01*
X153827890Y-83404588D01*
X153799795Y-83343067D01*
X153711214Y-83240840D01*
X153597421Y-83167709D01*
X153597420Y-83167708D01*
X153597419Y-83167708D01*
X153467634Y-83129600D01*
X153467633Y-83129600D01*
X153332367Y-83129600D01*
X153332366Y-83129600D01*
X153202580Y-83167708D01*
X153088788Y-83240838D01*
X153088783Y-83240842D01*
X153000209Y-83343061D01*
X153000203Y-83343071D01*
X152944013Y-83466106D01*
X152944012Y-83466111D01*
X152924763Y-83600000D01*
X148875237Y-83600000D01*
X148855987Y-83466110D01*
X148855986Y-83466109D01*
X148855986Y-83466106D01*
X148827890Y-83404588D01*
X148799795Y-83343067D01*
X148711214Y-83240840D01*
X148597421Y-83167709D01*
X148597420Y-83167708D01*
X148597419Y-83167708D01*
X148467634Y-83129600D01*
X148467633Y-83129600D01*
X148332367Y-83129600D01*
X148332366Y-83129600D01*
X148202580Y-83167708D01*
X148088788Y-83240838D01*
X148088783Y-83240842D01*
X148000209Y-83343061D01*
X148000203Y-83343071D01*
X147944013Y-83466106D01*
X147944012Y-83466111D01*
X147924763Y-83600000D01*
X142500500Y-83600000D01*
X142500500Y-82199999D01*
X147924763Y-82199999D01*
X147944012Y-82333888D01*
X147944013Y-82333893D01*
X147989681Y-82433888D01*
X148000205Y-82456933D01*
X148000208Y-82456936D01*
X148000209Y-82456938D01*
X148086860Y-82556938D01*
X148088786Y-82559160D01*
X148202579Y-82632291D01*
X148267472Y-82651345D01*
X148332366Y-82670400D01*
X148332367Y-82670400D01*
X148467633Y-82670400D01*
X148597421Y-82632291D01*
X148711214Y-82559160D01*
X148799795Y-82456933D01*
X148855987Y-82333890D01*
X148875237Y-82200000D01*
X152924763Y-82200000D01*
X152944012Y-82333888D01*
X152944013Y-82333893D01*
X152989681Y-82433888D01*
X153000205Y-82456933D01*
X153000208Y-82456936D01*
X153000209Y-82456938D01*
X153086860Y-82556938D01*
X153088786Y-82559160D01*
X153202579Y-82632291D01*
X153267472Y-82651345D01*
X153332366Y-82670400D01*
X153332367Y-82670400D01*
X153467633Y-82670400D01*
X153597421Y-82632291D01*
X153711214Y-82559160D01*
X153799795Y-82456933D01*
X153855987Y-82333890D01*
X153860860Y-82299999D01*
X168224763Y-82299999D01*
X168244012Y-82433888D01*
X168244013Y-82433893D01*
X168290571Y-82535838D01*
X168300205Y-82556933D01*
X168300208Y-82556936D01*
X168300209Y-82556938D01*
X168365503Y-82632291D01*
X168388786Y-82659160D01*
X168502579Y-82732291D01*
X168567473Y-82751345D01*
X168632366Y-82770400D01*
X168632367Y-82770400D01*
X168767633Y-82770400D01*
X168897421Y-82732291D01*
X169011214Y-82659160D01*
X169099795Y-82556933D01*
X169155987Y-82433890D01*
X169175237Y-82300000D01*
X169160860Y-82200000D01*
X175224763Y-82200000D01*
X175244012Y-82333888D01*
X175244013Y-82333893D01*
X175289681Y-82433888D01*
X175300205Y-82456933D01*
X175300208Y-82456936D01*
X175300209Y-82456938D01*
X175386860Y-82556938D01*
X175388786Y-82559160D01*
X175502579Y-82632291D01*
X175567473Y-82651345D01*
X175632366Y-82670400D01*
X175632367Y-82670400D01*
X175767633Y-82670400D01*
X175897421Y-82632291D01*
X176011214Y-82559160D01*
X176099795Y-82456933D01*
X176155987Y-82333890D01*
X176175237Y-82200000D01*
X176155987Y-82066110D01*
X176155986Y-82066109D01*
X176155986Y-82066106D01*
X176127891Y-82004588D01*
X176099795Y-81943067D01*
X176097864Y-81940838D01*
X176011216Y-81840842D01*
X176011211Y-81840838D01*
X175963416Y-81810122D01*
X175897421Y-81767709D01*
X175897420Y-81767708D01*
X175897419Y-81767708D01*
X175767634Y-81729600D01*
X175767633Y-81729600D01*
X175632367Y-81729600D01*
X175632366Y-81729600D01*
X175502580Y-81767708D01*
X175388788Y-81840838D01*
X175388783Y-81840842D01*
X175300209Y-81943061D01*
X175300203Y-81943071D01*
X175244013Y-82066106D01*
X175244012Y-82066111D01*
X175224763Y-82200000D01*
X169160860Y-82200000D01*
X169155987Y-82166110D01*
X169155986Y-82166109D01*
X169155986Y-82166106D01*
X169127891Y-82104588D01*
X169099795Y-82043067D01*
X169011214Y-81940840D01*
X168897421Y-81867709D01*
X168897420Y-81867708D01*
X168897419Y-81867708D01*
X168767634Y-81829600D01*
X168767633Y-81829600D01*
X168632367Y-81829600D01*
X168632366Y-81829600D01*
X168502580Y-81867708D01*
X168388788Y-81940838D01*
X168388783Y-81940842D01*
X168300209Y-82043061D01*
X168300203Y-82043071D01*
X168244013Y-82166106D01*
X168244012Y-82166111D01*
X168224763Y-82299999D01*
X153860860Y-82299999D01*
X153875237Y-82200000D01*
X153855987Y-82066110D01*
X153855986Y-82066109D01*
X153855986Y-82066106D01*
X153827890Y-82004588D01*
X153799795Y-81943067D01*
X153797864Y-81940838D01*
X153711216Y-81840842D01*
X153711211Y-81840838D01*
X153663416Y-81810122D01*
X153597421Y-81767709D01*
X153597420Y-81767708D01*
X153597419Y-81767708D01*
X153467634Y-81729600D01*
X153467633Y-81729600D01*
X153332367Y-81729600D01*
X153332366Y-81729600D01*
X153202580Y-81767708D01*
X153088788Y-81840838D01*
X153088783Y-81840842D01*
X153000209Y-81943061D01*
X153000203Y-81943071D01*
X152944013Y-82066106D01*
X152944012Y-82066111D01*
X152924763Y-82200000D01*
X148875237Y-82200000D01*
X148855987Y-82066110D01*
X148855986Y-82066109D01*
X148855986Y-82066106D01*
X148827890Y-82004588D01*
X148799795Y-81943067D01*
X148797864Y-81940838D01*
X148711216Y-81840842D01*
X148711211Y-81840838D01*
X148663416Y-81810122D01*
X148597421Y-81767709D01*
X148597420Y-81767708D01*
X148597419Y-81767708D01*
X148467634Y-81729600D01*
X148467633Y-81729600D01*
X148332367Y-81729600D01*
X148332366Y-81729600D01*
X148202580Y-81767708D01*
X148088788Y-81840838D01*
X148088783Y-81840842D01*
X148000209Y-81943061D01*
X148000203Y-81943071D01*
X147944013Y-82066106D01*
X147944012Y-82066111D01*
X147924763Y-82199999D01*
X142500500Y-82199999D01*
X142500500Y-81100000D01*
X149024763Y-81100000D01*
X149044012Y-81233888D01*
X149044013Y-81233893D01*
X149069098Y-81288819D01*
X149100205Y-81356933D01*
X149188786Y-81459160D01*
X149302579Y-81532291D01*
X149367472Y-81551345D01*
X149432366Y-81570400D01*
X149432367Y-81570400D01*
X149567633Y-81570400D01*
X149697421Y-81532291D01*
X149811214Y-81459160D01*
X149899795Y-81356933D01*
X149955987Y-81233890D01*
X149975237Y-81100000D01*
X150424763Y-81100000D01*
X150444012Y-81233888D01*
X150444013Y-81233893D01*
X150469098Y-81288819D01*
X150500205Y-81356933D01*
X150588786Y-81459160D01*
X150702579Y-81532291D01*
X150767472Y-81551345D01*
X150832366Y-81570400D01*
X150832367Y-81570400D01*
X150967633Y-81570400D01*
X151097421Y-81532291D01*
X151211214Y-81459160D01*
X151299795Y-81356933D01*
X151355987Y-81233890D01*
X151375237Y-81100000D01*
X151824763Y-81100000D01*
X151844012Y-81233888D01*
X151844013Y-81233893D01*
X151869098Y-81288819D01*
X151900205Y-81356933D01*
X151988786Y-81459160D01*
X152102579Y-81532291D01*
X152167472Y-81551345D01*
X152232366Y-81570400D01*
X152232367Y-81570400D01*
X152367633Y-81570400D01*
X152497421Y-81532291D01*
X152611214Y-81459160D01*
X152699795Y-81356933D01*
X152755987Y-81233890D01*
X152775237Y-81100000D01*
X152755987Y-80966110D01*
X152755986Y-80966109D01*
X152755986Y-80966106D01*
X152727891Y-80904588D01*
X152699795Y-80843067D01*
X152611214Y-80740840D01*
X152497421Y-80667709D01*
X152497420Y-80667708D01*
X152497419Y-80667708D01*
X152367634Y-80629600D01*
X152367633Y-80629600D01*
X152232367Y-80629600D01*
X152232366Y-80629600D01*
X152102580Y-80667708D01*
X151988788Y-80740838D01*
X151988783Y-80740842D01*
X151900209Y-80843061D01*
X151900203Y-80843071D01*
X151844013Y-80966106D01*
X151844012Y-80966111D01*
X151824763Y-81100000D01*
X151375237Y-81100000D01*
X151355987Y-80966110D01*
X151355986Y-80966109D01*
X151355986Y-80966106D01*
X151327891Y-80904588D01*
X151299795Y-80843067D01*
X151211214Y-80740840D01*
X151097421Y-80667709D01*
X151097420Y-80667708D01*
X151097419Y-80667708D01*
X150967634Y-80629600D01*
X150967633Y-80629600D01*
X150832367Y-80629600D01*
X150832366Y-80629600D01*
X150702580Y-80667708D01*
X150588788Y-80740838D01*
X150588783Y-80740842D01*
X150500209Y-80843061D01*
X150500203Y-80843071D01*
X150444013Y-80966106D01*
X150444012Y-80966111D01*
X150424763Y-81100000D01*
X149975237Y-81100000D01*
X149955987Y-80966110D01*
X149955986Y-80966109D01*
X149955986Y-80966106D01*
X149927891Y-80904588D01*
X149899795Y-80843067D01*
X149811214Y-80740840D01*
X149697421Y-80667709D01*
X149697420Y-80667708D01*
X149697419Y-80667708D01*
X149567634Y-80629600D01*
X149567633Y-80629600D01*
X149432367Y-80629600D01*
X149432366Y-80629600D01*
X149302580Y-80667708D01*
X149188788Y-80740838D01*
X149188783Y-80740842D01*
X149100209Y-80843061D01*
X149100203Y-80843071D01*
X149044013Y-80966106D01*
X149044012Y-80966111D01*
X149024763Y-81100000D01*
X142500500Y-81100000D01*
X142500500Y-80299999D01*
X166124763Y-80299999D01*
X166144012Y-80433888D01*
X166144013Y-80433893D01*
X166165988Y-80482009D01*
X166200205Y-80556933D01*
X166288786Y-80659160D01*
X166402579Y-80732291D01*
X166467473Y-80751345D01*
X166532366Y-80770400D01*
X166532367Y-80770400D01*
X166667633Y-80770400D01*
X166797421Y-80732291D01*
X166911214Y-80659160D01*
X166999795Y-80556933D01*
X167055987Y-80433890D01*
X167075237Y-80300000D01*
X168224763Y-80300000D01*
X168244012Y-80433888D01*
X168244013Y-80433893D01*
X168265988Y-80482009D01*
X168300205Y-80556933D01*
X168388786Y-80659160D01*
X168502579Y-80732291D01*
X168567473Y-80751345D01*
X168632366Y-80770400D01*
X168632367Y-80770400D01*
X168767633Y-80770400D01*
X168897421Y-80732291D01*
X169011214Y-80659160D01*
X169099795Y-80556933D01*
X169155987Y-80433890D01*
X169175237Y-80300000D01*
X169155987Y-80166110D01*
X169155986Y-80166109D01*
X169155986Y-80166106D01*
X169127891Y-80104588D01*
X169099795Y-80043067D01*
X169011214Y-79940840D01*
X168897421Y-79867709D01*
X168897420Y-79867708D01*
X168897419Y-79867708D01*
X168767634Y-79829600D01*
X168767633Y-79829600D01*
X168632367Y-79829600D01*
X168632366Y-79829600D01*
X168502580Y-79867708D01*
X168388788Y-79940838D01*
X168388783Y-79940842D01*
X168300209Y-80043061D01*
X168300203Y-80043071D01*
X168244013Y-80166106D01*
X168244012Y-80166111D01*
X168224763Y-80300000D01*
X167075237Y-80300000D01*
X167055987Y-80166110D01*
X167055986Y-80166109D01*
X167055986Y-80166106D01*
X167027890Y-80104588D01*
X166999795Y-80043067D01*
X166911214Y-79940840D01*
X166797421Y-79867709D01*
X166797420Y-79867708D01*
X166797419Y-79867708D01*
X166667634Y-79829600D01*
X166667633Y-79829600D01*
X166532367Y-79829600D01*
X166532366Y-79829600D01*
X166402580Y-79867708D01*
X166288788Y-79940838D01*
X166288783Y-79940842D01*
X166200209Y-80043061D01*
X166200203Y-80043071D01*
X166144013Y-80166106D01*
X166144012Y-80166111D01*
X166124763Y-80299999D01*
X142500500Y-80299999D01*
X142500500Y-79270000D01*
X180998913Y-79270000D01*
X181018162Y-79403888D01*
X181018163Y-79403893D01*
X181064721Y-79505838D01*
X181074355Y-79526933D01*
X181074358Y-79526936D01*
X181074359Y-79526938D01*
X181124476Y-79584776D01*
X181162936Y-79629160D01*
X181276729Y-79702291D01*
X181341623Y-79721345D01*
X181406516Y-79740400D01*
X181406517Y-79740400D01*
X181541783Y-79740400D01*
X181671571Y-79702291D01*
X181719972Y-79671185D01*
X181787013Y-79651500D01*
X181927573Y-79651500D01*
X181953018Y-79654139D01*
X181956961Y-79654965D01*
X181964017Y-79656445D01*
X181982576Y-79654131D01*
X181999866Y-79651977D01*
X182007542Y-79651500D01*
X182011608Y-79651500D01*
X182011611Y-79651500D01*
X182035004Y-79647596D01*
X182090360Y-79640696D01*
X182098013Y-79638416D01*
X182105582Y-79635818D01*
X182105586Y-79635818D01*
X182154641Y-79609270D01*
X182204746Y-79584776D01*
X182204747Y-79584774D01*
X182211263Y-79580122D01*
X182217558Y-79575223D01*
X182217559Y-79575221D01*
X182217562Y-79575220D01*
X182255341Y-79534180D01*
X185871702Y-75917819D01*
X185933026Y-75884334D01*
X185959384Y-75881500D01*
X190697573Y-75881500D01*
X190723018Y-75884139D01*
X190726961Y-75884965D01*
X190734017Y-75886445D01*
X190752576Y-75884131D01*
X190769866Y-75881977D01*
X190777542Y-75881500D01*
X190781608Y-75881500D01*
X190781611Y-75881500D01*
X190805004Y-75877596D01*
X190860360Y-75870696D01*
X190868013Y-75868416D01*
X190875582Y-75865818D01*
X190875586Y-75865818D01*
X190924641Y-75839270D01*
X190974746Y-75814776D01*
X190974747Y-75814774D01*
X190981263Y-75810122D01*
X190987558Y-75805223D01*
X190987559Y-75805221D01*
X190987562Y-75805220D01*
X191025341Y-75764180D01*
X195557613Y-71231907D01*
X195618934Y-71198424D01*
X195681284Y-71200928D01*
X195803476Y-71237995D01*
X195803475Y-71237995D01*
X195821095Y-71239730D01*
X196000000Y-71257351D01*
X196196524Y-71237995D01*
X196385497Y-71180671D01*
X196559654Y-71087582D01*
X196712305Y-70962305D01*
X196837582Y-70809654D01*
X196913588Y-70667457D01*
X196930669Y-70635501D01*
X196930669Y-70635500D01*
X196930671Y-70635497D01*
X196987995Y-70446524D01*
X197007351Y-70250000D01*
X196987995Y-70053476D01*
X196930671Y-69864503D01*
X196930669Y-69864500D01*
X196930669Y-69864498D01*
X196837585Y-69690351D01*
X196837583Y-69690349D01*
X196837582Y-69690346D01*
X196778551Y-69618416D01*
X196712305Y-69537694D01*
X196559655Y-69412419D01*
X196559648Y-69412414D01*
X196385501Y-69319330D01*
X196291010Y-69290666D01*
X196196524Y-69262005D01*
X196196522Y-69262004D01*
X196196524Y-69262004D01*
X196000000Y-69242649D01*
X195803477Y-69262004D01*
X195614498Y-69319330D01*
X195440351Y-69412414D01*
X195440344Y-69412419D01*
X195287694Y-69537694D01*
X195162419Y-69690344D01*
X195162414Y-69690351D01*
X195069330Y-69864498D01*
X195012004Y-70053477D01*
X194992649Y-70249999D01*
X195012004Y-70446522D01*
X195012005Y-70446524D01*
X195048016Y-70565238D01*
X195049070Y-70568710D01*
X195049693Y-70638577D01*
X195018090Y-70692386D01*
X190628296Y-75082181D01*
X190566973Y-75115666D01*
X190540615Y-75118500D01*
X185802427Y-75118500D01*
X185776982Y-75115861D01*
X185765984Y-75113555D01*
X185765980Y-75113555D01*
X185730134Y-75118023D01*
X185722458Y-75118500D01*
X185718389Y-75118500D01*
X185710590Y-75119801D01*
X185694993Y-75122403D01*
X185639644Y-75129302D01*
X185631966Y-75131588D01*
X185624413Y-75134181D01*
X185575359Y-75160728D01*
X185525252Y-75185225D01*
X185518742Y-75189872D01*
X185512435Y-75194781D01*
X185474658Y-75235819D01*
X181864711Y-78845765D01*
X181803388Y-78879250D01*
X181733696Y-78874266D01*
X181709991Y-78862400D01*
X181671569Y-78837708D01*
X181541784Y-78799600D01*
X181541783Y-78799600D01*
X181406517Y-78799600D01*
X181406516Y-78799600D01*
X181276730Y-78837708D01*
X181162938Y-78910838D01*
X181162933Y-78910842D01*
X181074359Y-79013061D01*
X181074353Y-79013071D01*
X181018163Y-79136106D01*
X181018162Y-79136111D01*
X180998913Y-79270000D01*
X142500500Y-79270000D01*
X142500500Y-77699999D01*
X159024763Y-77699999D01*
X159044012Y-77833888D01*
X159044013Y-77833893D01*
X159090571Y-77935838D01*
X159100205Y-77956933D01*
X159188786Y-78059160D01*
X159302579Y-78132291D01*
X159367473Y-78151345D01*
X159432366Y-78170400D01*
X159432367Y-78170400D01*
X159567633Y-78170400D01*
X159697421Y-78132291D01*
X159811214Y-78059160D01*
X159899795Y-77956933D01*
X159955987Y-77833890D01*
X159975237Y-77700000D01*
X159955987Y-77566110D01*
X159955986Y-77566109D01*
X159955986Y-77566106D01*
X159927891Y-77504588D01*
X159899795Y-77443067D01*
X159825159Y-77356933D01*
X159811216Y-77340842D01*
X159811211Y-77340838D01*
X159697419Y-77267708D01*
X159567634Y-77229600D01*
X159567633Y-77229600D01*
X159432367Y-77229600D01*
X159432366Y-77229600D01*
X159302580Y-77267708D01*
X159188788Y-77340838D01*
X159188783Y-77340842D01*
X159100209Y-77443061D01*
X159100203Y-77443071D01*
X159044013Y-77566106D01*
X159044012Y-77566111D01*
X159024763Y-77699999D01*
X142500500Y-77699999D01*
X142500500Y-77100000D01*
X166424763Y-77100000D01*
X166444012Y-77233888D01*
X166444013Y-77233893D01*
X166489681Y-77333888D01*
X166500205Y-77356933D01*
X166500208Y-77356936D01*
X166500209Y-77356938D01*
X166586860Y-77456938D01*
X166588786Y-77459160D01*
X166702579Y-77532291D01*
X166767473Y-77551345D01*
X166832366Y-77570400D01*
X166832367Y-77570400D01*
X166967633Y-77570400D01*
X167097421Y-77532291D01*
X167211214Y-77459160D01*
X167299795Y-77356933D01*
X167355987Y-77233890D01*
X167360860Y-77200000D01*
X176424763Y-77200000D01*
X176444012Y-77333888D01*
X176444013Y-77333893D01*
X176490571Y-77435838D01*
X176500205Y-77456933D01*
X176500208Y-77456936D01*
X176500209Y-77456938D01*
X176565503Y-77532291D01*
X176588786Y-77559160D01*
X176702579Y-77632291D01*
X176767473Y-77651345D01*
X176832366Y-77670400D01*
X176832367Y-77670400D01*
X176967633Y-77670400D01*
X177097421Y-77632291D01*
X177211214Y-77559160D01*
X177299795Y-77456933D01*
X177355987Y-77333890D01*
X177375237Y-77200000D01*
X177355987Y-77066110D01*
X177355986Y-77066109D01*
X177355986Y-77066106D01*
X177327891Y-77004588D01*
X177299795Y-76943067D01*
X177211214Y-76840840D01*
X177097421Y-76767709D01*
X177097420Y-76767708D01*
X177097419Y-76767708D01*
X176967634Y-76729600D01*
X176967633Y-76729600D01*
X176832367Y-76729600D01*
X176832366Y-76729600D01*
X176702580Y-76767708D01*
X176588788Y-76840838D01*
X176588783Y-76840842D01*
X176500209Y-76943061D01*
X176500203Y-76943071D01*
X176444013Y-77066106D01*
X176444012Y-77066111D01*
X176424763Y-77200000D01*
X167360860Y-77200000D01*
X167375237Y-77100000D01*
X167355987Y-76966110D01*
X167355986Y-76966109D01*
X167355986Y-76966106D01*
X167327891Y-76904588D01*
X167299795Y-76843067D01*
X167297864Y-76840838D01*
X167211216Y-76740842D01*
X167211211Y-76740838D01*
X167097419Y-76667708D01*
X166967634Y-76629600D01*
X166967633Y-76629600D01*
X166832367Y-76629600D01*
X166832366Y-76629600D01*
X166702580Y-76667708D01*
X166588788Y-76740838D01*
X166588783Y-76740842D01*
X166500209Y-76843061D01*
X166500203Y-76843071D01*
X166444013Y-76966106D01*
X166444012Y-76966111D01*
X166424763Y-77100000D01*
X142500500Y-77100000D01*
X142500500Y-75799999D01*
X174124763Y-75799999D01*
X174144012Y-75933888D01*
X174144013Y-75933893D01*
X174190571Y-76035838D01*
X174200205Y-76056933D01*
X174288786Y-76159160D01*
X174402579Y-76232291D01*
X174467473Y-76251345D01*
X174532366Y-76270400D01*
X174532367Y-76270400D01*
X174667633Y-76270400D01*
X174797421Y-76232291D01*
X174911214Y-76159160D01*
X174999795Y-76056933D01*
X175055987Y-75933890D01*
X175075237Y-75800000D01*
X175055987Y-75666110D01*
X175055986Y-75666109D01*
X175055986Y-75666106D01*
X175027890Y-75604588D01*
X174999795Y-75543067D01*
X174911214Y-75440840D01*
X174797421Y-75367709D01*
X174797420Y-75367708D01*
X174797419Y-75367708D01*
X174667634Y-75329600D01*
X174667633Y-75329600D01*
X174532367Y-75329600D01*
X174532366Y-75329600D01*
X174402580Y-75367708D01*
X174288788Y-75440838D01*
X174288783Y-75440842D01*
X174200209Y-75543061D01*
X174200203Y-75543071D01*
X174144013Y-75666106D01*
X174144012Y-75666111D01*
X174124763Y-75799999D01*
X142500500Y-75799999D01*
X142500500Y-74700000D01*
X153224763Y-74700000D01*
X153244012Y-74833888D01*
X153244013Y-74833893D01*
X153290571Y-74935838D01*
X153300205Y-74956933D01*
X153388786Y-75059160D01*
X153502579Y-75132291D01*
X153567473Y-75151345D01*
X153632366Y-75170400D01*
X153632367Y-75170400D01*
X153767633Y-75170400D01*
X153897421Y-75132291D01*
X154011214Y-75059160D01*
X154099795Y-74956933D01*
X154155987Y-74833890D01*
X154175237Y-74700000D01*
X154155987Y-74566110D01*
X154155986Y-74566109D01*
X154155986Y-74566106D01*
X154127891Y-74504588D01*
X154099795Y-74443067D01*
X154011214Y-74340840D01*
X153897421Y-74267709D01*
X153897420Y-74267708D01*
X153897419Y-74267708D01*
X153767634Y-74229600D01*
X153767633Y-74229600D01*
X153632367Y-74229600D01*
X153632366Y-74229600D01*
X153502580Y-74267708D01*
X153388788Y-74340838D01*
X153388783Y-74340842D01*
X153300209Y-74443061D01*
X153300203Y-74443071D01*
X153244013Y-74566106D01*
X153244012Y-74566111D01*
X153224763Y-74700000D01*
X142500500Y-74700000D01*
X142500500Y-73200000D01*
X174824763Y-73200000D01*
X174844012Y-73333888D01*
X174844013Y-73333893D01*
X174886502Y-73426928D01*
X174900205Y-73456933D01*
X174900208Y-73456936D01*
X174900209Y-73456938D01*
X174983861Y-73553477D01*
X174988786Y-73559160D01*
X175102579Y-73632291D01*
X175130196Y-73640400D01*
X175232366Y-73670400D01*
X175232367Y-73670400D01*
X175367633Y-73670400D01*
X175497421Y-73632291D01*
X175611214Y-73559160D01*
X175699795Y-73456933D01*
X175755987Y-73333890D01*
X175775237Y-73200000D01*
X175770924Y-73169999D01*
X181098913Y-73169999D01*
X181118162Y-73303888D01*
X181118163Y-73303893D01*
X181145844Y-73364503D01*
X181174355Y-73426933D01*
X181174358Y-73426936D01*
X181174359Y-73426938D01*
X181200354Y-73456938D01*
X181262936Y-73529160D01*
X181376729Y-73602291D01*
X181441623Y-73621345D01*
X181506516Y-73640400D01*
X181506517Y-73640400D01*
X181641783Y-73640400D01*
X181771571Y-73602291D01*
X181885364Y-73529160D01*
X181973945Y-73426933D01*
X182030137Y-73303890D01*
X182032719Y-73285929D01*
X182061743Y-73222374D01*
X182067762Y-73215908D01*
X185615852Y-69667819D01*
X185677176Y-69634334D01*
X185703534Y-69631500D01*
X193447573Y-69631500D01*
X193473018Y-69634139D01*
X193476961Y-69634965D01*
X193484017Y-69636445D01*
X193502576Y-69634131D01*
X193519866Y-69631977D01*
X193527542Y-69631500D01*
X193531608Y-69631500D01*
X193531611Y-69631500D01*
X193555004Y-69627596D01*
X193610360Y-69620696D01*
X193618013Y-69618416D01*
X193625582Y-69615818D01*
X193625586Y-69615818D01*
X193674641Y-69589270D01*
X193724746Y-69564776D01*
X193724747Y-69564774D01*
X193731263Y-69560122D01*
X193737558Y-69555223D01*
X193737559Y-69555221D01*
X193737562Y-69555220D01*
X193775341Y-69514180D01*
X195557614Y-67731907D01*
X195618935Y-67698424D01*
X195681288Y-67700929D01*
X195783413Y-67731909D01*
X195803473Y-67737994D01*
X195803475Y-67737995D01*
X195821095Y-67739730D01*
X196000000Y-67757351D01*
X196196524Y-67737995D01*
X196385497Y-67680671D01*
X196404167Y-67670692D01*
X196559648Y-67587585D01*
X196559646Y-67587585D01*
X196559654Y-67587582D01*
X196712305Y-67462305D01*
X196837582Y-67309654D01*
X196900263Y-67192386D01*
X196930669Y-67135501D01*
X196930669Y-67135500D01*
X196930671Y-67135497D01*
X196987995Y-66946524D01*
X197007351Y-66750000D01*
X196987995Y-66553476D01*
X196930671Y-66364503D01*
X196930669Y-66364500D01*
X196930669Y-66364498D01*
X196837585Y-66190351D01*
X196837583Y-66190349D01*
X196837582Y-66190346D01*
X196798538Y-66142770D01*
X196712305Y-66037694D01*
X196559655Y-65912419D01*
X196559648Y-65912414D01*
X196385501Y-65819330D01*
X196207943Y-65765469D01*
X196196524Y-65762005D01*
X196196522Y-65762004D01*
X196196524Y-65762004D01*
X196000000Y-65742649D01*
X195803477Y-65762004D01*
X195614498Y-65819330D01*
X195440351Y-65912414D01*
X195440344Y-65912419D01*
X195287694Y-66037694D01*
X195162419Y-66190344D01*
X195162414Y-66190351D01*
X195069330Y-66364498D01*
X195012004Y-66553477D01*
X194992649Y-66749999D01*
X195012004Y-66946522D01*
X195049070Y-67068710D01*
X195049693Y-67138577D01*
X195018090Y-67192386D01*
X193378296Y-68832181D01*
X193316973Y-68865666D01*
X193290615Y-68868500D01*
X185546577Y-68868500D01*
X185521132Y-68865861D01*
X185510134Y-68863555D01*
X185510130Y-68863555D01*
X185474284Y-68868023D01*
X185466608Y-68868500D01*
X185462539Y-68868500D01*
X185454740Y-68869800D01*
X185439143Y-68872403D01*
X185383794Y-68879302D01*
X185376116Y-68881588D01*
X185368563Y-68884181D01*
X185319509Y-68910728D01*
X185269402Y-68935225D01*
X185262892Y-68939872D01*
X185256585Y-68944781D01*
X185218808Y-68985819D01*
X181526786Y-72677839D01*
X181474041Y-72709135D01*
X181376729Y-72737709D01*
X181376725Y-72737711D01*
X181262938Y-72810838D01*
X181262933Y-72810842D01*
X181174359Y-72913061D01*
X181174353Y-72913071D01*
X181118163Y-73036106D01*
X181118162Y-73036111D01*
X181098913Y-73169999D01*
X175770924Y-73169999D01*
X175755987Y-73066110D01*
X175755986Y-73066109D01*
X175755986Y-73066106D01*
X175727891Y-73004588D01*
X175699795Y-72943067D01*
X175673800Y-72913067D01*
X175611216Y-72840842D01*
X175611211Y-72840838D01*
X175577744Y-72819330D01*
X175497421Y-72767709D01*
X175497420Y-72767708D01*
X175497419Y-72767708D01*
X175367634Y-72729600D01*
X175367633Y-72729600D01*
X175232367Y-72729600D01*
X175232366Y-72729600D01*
X175102580Y-72767708D01*
X174988788Y-72840838D01*
X174988783Y-72840842D01*
X174900209Y-72943061D01*
X174900203Y-72943071D01*
X174844013Y-73066106D01*
X174844012Y-73066111D01*
X174824763Y-73200000D01*
X142500500Y-73200000D01*
X142500500Y-71100000D01*
X152824763Y-71100000D01*
X152844012Y-71233888D01*
X152844013Y-71233893D01*
X152890571Y-71335838D01*
X152900205Y-71356933D01*
X152988786Y-71459160D01*
X153102579Y-71532291D01*
X153167473Y-71551345D01*
X153232366Y-71570400D01*
X153232367Y-71570400D01*
X153367633Y-71570400D01*
X153497421Y-71532291D01*
X153611214Y-71459160D01*
X153699795Y-71356933D01*
X153745273Y-71257350D01*
X153755986Y-71233893D01*
X153755987Y-71233888D01*
X153756272Y-71231909D01*
X153775237Y-71100000D01*
X153755987Y-70966110D01*
X153755986Y-70966109D01*
X153755986Y-70966106D01*
X153727891Y-70904588D01*
X153699795Y-70843067D01*
X153611214Y-70740840D01*
X153497421Y-70667709D01*
X153497420Y-70667708D01*
X153497419Y-70667708D01*
X153367634Y-70629600D01*
X153367633Y-70629600D01*
X153232367Y-70629600D01*
X153232366Y-70629600D01*
X153102580Y-70667708D01*
X152988788Y-70740838D01*
X152988783Y-70740842D01*
X152900209Y-70843061D01*
X152900203Y-70843071D01*
X152844013Y-70966106D01*
X152844012Y-70966111D01*
X152824763Y-71100000D01*
X142500500Y-71100000D01*
X142500500Y-70308300D01*
X148224763Y-70308300D01*
X148244012Y-70442188D01*
X148244013Y-70442193D01*
X148290571Y-70544138D01*
X148300205Y-70565233D01*
X148300208Y-70565236D01*
X148300209Y-70565238D01*
X148363758Y-70638577D01*
X148388786Y-70667460D01*
X148502579Y-70740591D01*
X148567472Y-70759645D01*
X148632366Y-70778700D01*
X148632367Y-70778700D01*
X148767633Y-70778700D01*
X148897421Y-70740591D01*
X149011214Y-70667460D01*
X149099795Y-70565233D01*
X149137205Y-70483315D01*
X149182961Y-70430511D01*
X149250000Y-70410827D01*
X149317040Y-70430512D01*
X149362794Y-70483315D01*
X149400205Y-70565233D01*
X149400207Y-70565236D01*
X149400209Y-70565238D01*
X149463758Y-70638577D01*
X149488786Y-70667460D01*
X149602579Y-70740591D01*
X149667472Y-70759645D01*
X149732366Y-70778700D01*
X149732367Y-70778700D01*
X149867633Y-70778700D01*
X149997421Y-70740591D01*
X150111214Y-70667460D01*
X150199795Y-70565233D01*
X150255987Y-70442190D01*
X150275237Y-70308300D01*
X150255987Y-70174410D01*
X150255986Y-70174409D01*
X150255986Y-70174406D01*
X150227890Y-70112888D01*
X150199795Y-70051367D01*
X150111214Y-69949140D01*
X149997421Y-69876009D01*
X149997420Y-69876008D01*
X149997419Y-69876008D01*
X149867634Y-69837900D01*
X149867633Y-69837900D01*
X149732367Y-69837900D01*
X149732366Y-69837900D01*
X149602580Y-69876008D01*
X149488788Y-69949138D01*
X149488783Y-69949142D01*
X149400209Y-70051361D01*
X149400202Y-70051371D01*
X149362794Y-70133284D01*
X149317039Y-70186088D01*
X149249999Y-70205772D01*
X149182960Y-70186087D01*
X149137206Y-70133284D01*
X149099797Y-70051371D01*
X149099796Y-70051370D01*
X149099795Y-70051367D01*
X149011214Y-69949140D01*
X148897421Y-69876009D01*
X148897420Y-69876008D01*
X148897419Y-69876008D01*
X148767634Y-69837900D01*
X148767633Y-69837900D01*
X148632367Y-69837900D01*
X148632366Y-69837900D01*
X148502580Y-69876008D01*
X148388788Y-69949138D01*
X148388783Y-69949142D01*
X148300209Y-70051361D01*
X148300203Y-70051371D01*
X148244013Y-70174406D01*
X148244012Y-70174411D01*
X148224763Y-70308300D01*
X142500500Y-70308300D01*
X142500500Y-68499999D01*
X160824763Y-68499999D01*
X160844012Y-68633888D01*
X160844013Y-68633893D01*
X160890571Y-68735838D01*
X160900205Y-68756933D01*
X160988786Y-68859160D01*
X161102579Y-68932291D01*
X161167473Y-68951345D01*
X161232366Y-68970400D01*
X161232367Y-68970400D01*
X161367633Y-68970400D01*
X161497421Y-68932291D01*
X161611214Y-68859160D01*
X161699795Y-68756933D01*
X161755987Y-68633890D01*
X161775237Y-68500000D01*
X161775237Y-68499999D01*
X176324763Y-68499999D01*
X176344012Y-68633888D01*
X176344013Y-68633893D01*
X176390571Y-68735838D01*
X176400205Y-68756933D01*
X176488786Y-68859160D01*
X176602579Y-68932291D01*
X176667473Y-68951345D01*
X176732366Y-68970400D01*
X176732367Y-68970400D01*
X176867633Y-68970400D01*
X176997421Y-68932291D01*
X177111214Y-68859160D01*
X177199795Y-68756933D01*
X177255987Y-68633890D01*
X177275237Y-68500000D01*
X177255987Y-68366110D01*
X177255986Y-68366109D01*
X177255986Y-68366106D01*
X177227890Y-68304588D01*
X177199795Y-68243067D01*
X177125159Y-68156933D01*
X177111216Y-68140842D01*
X177111211Y-68140838D01*
X177040043Y-68095101D01*
X176997421Y-68067709D01*
X176997420Y-68067708D01*
X176997419Y-68067708D01*
X176867634Y-68029600D01*
X176867633Y-68029600D01*
X176732367Y-68029600D01*
X176732366Y-68029600D01*
X176602580Y-68067708D01*
X176488788Y-68140838D01*
X176488783Y-68140842D01*
X176400209Y-68243061D01*
X176400203Y-68243071D01*
X176344013Y-68366106D01*
X176344012Y-68366111D01*
X176324763Y-68499999D01*
X161775237Y-68499999D01*
X161755987Y-68366110D01*
X161755986Y-68366109D01*
X161755986Y-68366106D01*
X161727891Y-68304588D01*
X161699795Y-68243067D01*
X161625159Y-68156933D01*
X161611216Y-68140842D01*
X161611211Y-68140838D01*
X161540043Y-68095101D01*
X161497421Y-68067709D01*
X161497420Y-68067708D01*
X161497419Y-68067708D01*
X161367634Y-68029600D01*
X161367633Y-68029600D01*
X161232367Y-68029600D01*
X161232366Y-68029600D01*
X161102580Y-68067708D01*
X160988788Y-68140838D01*
X160988783Y-68140842D01*
X160900209Y-68243061D01*
X160900203Y-68243071D01*
X160844013Y-68366106D01*
X160844012Y-68366111D01*
X160824763Y-68499999D01*
X142500500Y-68499999D01*
X142500500Y-67987558D01*
X143747500Y-67987558D01*
X143754898Y-68024749D01*
X143783077Y-68066922D01*
X143825250Y-68095101D01*
X143825252Y-68095102D01*
X143853205Y-68100662D01*
X143862441Y-68102500D01*
X143862442Y-68102500D01*
X145587559Y-68102500D01*
X145594957Y-68101028D01*
X145624748Y-68095102D01*
X145666922Y-68066922D01*
X145695102Y-68024748D01*
X145702500Y-67987558D01*
X145702500Y-67125000D01*
X146282770Y-67125000D01*
X146301643Y-67316626D01*
X146357538Y-67500884D01*
X146448302Y-67670692D01*
X146448306Y-67670699D01*
X146570458Y-67819541D01*
X146719300Y-67941693D01*
X146719307Y-67941697D01*
X146889115Y-68032461D01*
X146889117Y-68032462D01*
X147073376Y-68088357D01*
X147265000Y-68107230D01*
X147456624Y-68088357D01*
X147640883Y-68032462D01*
X147724892Y-67987558D01*
X151192500Y-67987558D01*
X151199898Y-68024749D01*
X151228077Y-68066922D01*
X151270250Y-68095101D01*
X151270252Y-68095102D01*
X151298205Y-68100662D01*
X151307441Y-68102500D01*
X151307442Y-68102500D01*
X153032559Y-68102500D01*
X153039957Y-68101028D01*
X153069748Y-68095102D01*
X153111922Y-68066922D01*
X153140102Y-68024748D01*
X153147500Y-67987558D01*
X153147500Y-67125000D01*
X153727770Y-67125000D01*
X153746643Y-67316626D01*
X153802538Y-67500884D01*
X153893302Y-67670692D01*
X153893306Y-67670699D01*
X154015458Y-67819541D01*
X154164300Y-67941693D01*
X154164307Y-67941697D01*
X154334115Y-68032461D01*
X154334117Y-68032462D01*
X154518376Y-68088357D01*
X154710000Y-68107230D01*
X154901624Y-68088357D01*
X155085883Y-68032462D01*
X155255698Y-67941694D01*
X155404541Y-67819541D01*
X155526694Y-67670698D01*
X155617462Y-67500883D01*
X155673357Y-67316624D01*
X155692230Y-67125000D01*
X156267770Y-67125000D01*
X156286643Y-67316626D01*
X156342538Y-67500884D01*
X156433302Y-67670692D01*
X156433306Y-67670699D01*
X156555458Y-67819541D01*
X156704300Y-67941693D01*
X156704307Y-67941697D01*
X156874115Y-68032461D01*
X156874117Y-68032462D01*
X157058376Y-68088357D01*
X157250000Y-68107230D01*
X157441624Y-68088357D01*
X157625883Y-68032462D01*
X157795698Y-67941694D01*
X157846503Y-67899999D01*
X167924763Y-67899999D01*
X167944012Y-68033888D01*
X167944013Y-68033893D01*
X167975346Y-68102500D01*
X168000205Y-68156933D01*
X168000208Y-68156936D01*
X168000209Y-68156938D01*
X168074844Y-68243071D01*
X168088786Y-68259160D01*
X168202579Y-68332291D01*
X168267473Y-68351345D01*
X168332366Y-68370400D01*
X168332367Y-68370400D01*
X168467633Y-68370400D01*
X168597421Y-68332291D01*
X168711214Y-68259160D01*
X168799795Y-68156933D01*
X168855987Y-68033890D01*
X168875237Y-67900000D01*
X168855987Y-67766110D01*
X168855986Y-67766109D01*
X168855986Y-67766106D01*
X168812414Y-67670699D01*
X168799795Y-67643067D01*
X168711214Y-67540840D01*
X168597421Y-67467709D01*
X168597420Y-67467708D01*
X168597419Y-67467708D01*
X168467634Y-67429600D01*
X168467633Y-67429600D01*
X168332367Y-67429600D01*
X168332366Y-67429600D01*
X168202580Y-67467708D01*
X168088788Y-67540838D01*
X168088783Y-67540842D01*
X168000209Y-67643061D01*
X168000203Y-67643071D01*
X167944013Y-67766106D01*
X167944012Y-67766111D01*
X167924763Y-67899999D01*
X157846503Y-67899999D01*
X157944541Y-67819541D01*
X158066694Y-67670698D01*
X158157462Y-67500883D01*
X158213357Y-67316624D01*
X158232230Y-67125000D01*
X158219919Y-67000000D01*
X176524763Y-67000000D01*
X176544012Y-67133888D01*
X176544013Y-67133893D01*
X176570727Y-67192386D01*
X176600205Y-67256933D01*
X176600208Y-67256936D01*
X176600209Y-67256938D01*
X176651929Y-67316626D01*
X176688786Y-67359160D01*
X176802579Y-67432291D01*
X176867473Y-67451345D01*
X176932366Y-67470400D01*
X176932367Y-67470400D01*
X177067633Y-67470400D01*
X177197421Y-67432291D01*
X177311214Y-67359160D01*
X177399795Y-67256933D01*
X177453847Y-67138577D01*
X177455986Y-67133893D01*
X177455987Y-67133888D01*
X177475237Y-67000000D01*
X177456546Y-66870000D01*
X181098913Y-66870000D01*
X181118162Y-67003888D01*
X181118163Y-67003893D01*
X181147765Y-67068710D01*
X181174355Y-67126933D01*
X181174358Y-67126936D01*
X181174359Y-67126938D01*
X181231070Y-67192386D01*
X181262936Y-67229160D01*
X181376729Y-67302291D01*
X181401809Y-67309655D01*
X181506516Y-67340400D01*
X181506517Y-67340400D01*
X181641783Y-67340400D01*
X181771571Y-67302291D01*
X181885364Y-67229160D01*
X181973945Y-67126933D01*
X182030137Y-67003890D01*
X182032719Y-66985929D01*
X182061743Y-66922374D01*
X182067762Y-66915908D01*
X185565852Y-63417819D01*
X185627176Y-63384334D01*
X185653534Y-63381500D01*
X194900315Y-63381500D01*
X194967354Y-63401185D01*
X195013109Y-63453989D01*
X195018976Y-63469504D01*
X195069331Y-63635503D01*
X195162414Y-63809648D01*
X195162419Y-63809655D01*
X195287694Y-63962305D01*
X195393921Y-64049482D01*
X195440346Y-64087582D01*
X195440349Y-64087583D01*
X195440351Y-64087585D01*
X195614498Y-64180669D01*
X195614500Y-64180669D01*
X195614503Y-64180671D01*
X195803476Y-64237995D01*
X195803475Y-64237995D01*
X195821095Y-64239730D01*
X196000000Y-64257351D01*
X196196524Y-64237995D01*
X196385497Y-64180671D01*
X196559654Y-64087582D01*
X196712305Y-63962305D01*
X196837582Y-63809654D01*
X196930671Y-63635497D01*
X196987995Y-63446524D01*
X197007351Y-63250000D01*
X196987995Y-63053476D01*
X196930671Y-62864503D01*
X196930669Y-62864500D01*
X196930669Y-62864498D01*
X196837585Y-62690351D01*
X196837583Y-62690349D01*
X196837582Y-62690346D01*
X196787487Y-62629305D01*
X196712305Y-62537694D01*
X196559655Y-62412419D01*
X196559648Y-62412414D01*
X196385501Y-62319330D01*
X196291010Y-62290666D01*
X196196524Y-62262005D01*
X196196522Y-62262004D01*
X196196524Y-62262004D01*
X196000000Y-62242649D01*
X195803477Y-62262004D01*
X195614498Y-62319330D01*
X195440351Y-62412414D01*
X195440344Y-62412419D01*
X195287694Y-62537694D01*
X195258585Y-62573165D01*
X195200840Y-62612499D01*
X195162732Y-62618500D01*
X185496577Y-62618500D01*
X185471132Y-62615861D01*
X185460134Y-62613555D01*
X185460130Y-62613555D01*
X185424286Y-62618023D01*
X185416609Y-62618500D01*
X185412539Y-62618500D01*
X185396934Y-62621103D01*
X185389132Y-62622405D01*
X185333786Y-62629305D01*
X185326140Y-62631581D01*
X185318561Y-62634182D01*
X185269504Y-62660730D01*
X185219406Y-62685222D01*
X185212880Y-62689881D01*
X185206585Y-62694781D01*
X185168808Y-62735819D01*
X181526786Y-66377839D01*
X181474041Y-66409135D01*
X181376729Y-66437709D01*
X181376725Y-66437711D01*
X181262938Y-66510838D01*
X181262933Y-66510842D01*
X181174359Y-66613061D01*
X181174353Y-66613071D01*
X181118163Y-66736106D01*
X181118162Y-66736111D01*
X181098913Y-66870000D01*
X177456546Y-66870000D01*
X177455987Y-66866110D01*
X177455986Y-66866109D01*
X177455986Y-66866106D01*
X177427890Y-66804588D01*
X177399795Y-66743067D01*
X177311214Y-66640840D01*
X177197421Y-66567709D01*
X177197420Y-66567708D01*
X177197419Y-66567708D01*
X177067634Y-66529600D01*
X177067633Y-66529600D01*
X176932367Y-66529600D01*
X176932366Y-66529600D01*
X176802580Y-66567708D01*
X176688788Y-66640838D01*
X176688783Y-66640842D01*
X176600209Y-66743061D01*
X176600203Y-66743071D01*
X176544013Y-66866106D01*
X176544012Y-66866111D01*
X176524763Y-67000000D01*
X158219919Y-67000000D01*
X158213357Y-66933376D01*
X158157462Y-66749117D01*
X158150510Y-66736110D01*
X158066697Y-66579307D01*
X158066693Y-66579300D01*
X157944541Y-66430458D01*
X157795699Y-66308306D01*
X157795692Y-66308302D01*
X157625884Y-66217538D01*
X157441626Y-66161643D01*
X157250000Y-66142770D01*
X157058373Y-66161643D01*
X156874115Y-66217538D01*
X156704307Y-66308302D01*
X156704300Y-66308306D01*
X156555458Y-66430458D01*
X156433306Y-66579300D01*
X156433302Y-66579307D01*
X156342538Y-66749115D01*
X156286643Y-66933373D01*
X156267770Y-67125000D01*
X155692230Y-67125000D01*
X155673357Y-66933376D01*
X155617462Y-66749117D01*
X155610510Y-66736110D01*
X155526697Y-66579307D01*
X155526693Y-66579300D01*
X155404541Y-66430458D01*
X155255699Y-66308306D01*
X155255692Y-66308302D01*
X155085884Y-66217538D01*
X154901626Y-66161643D01*
X154710000Y-66142770D01*
X154518373Y-66161643D01*
X154334115Y-66217538D01*
X154164307Y-66308302D01*
X154164300Y-66308306D01*
X154015458Y-66430458D01*
X153893306Y-66579300D01*
X153893302Y-66579307D01*
X153802538Y-66749115D01*
X153746643Y-66933373D01*
X153727770Y-67125000D01*
X153147500Y-67125000D01*
X153147500Y-66262442D01*
X153140102Y-66225252D01*
X153116782Y-66190351D01*
X153111922Y-66183077D01*
X153069749Y-66154898D01*
X153032559Y-66147500D01*
X153032558Y-66147500D01*
X151307442Y-66147500D01*
X151307441Y-66147500D01*
X151270250Y-66154898D01*
X151228077Y-66183077D01*
X151199898Y-66225250D01*
X151192500Y-66262441D01*
X151192500Y-67987558D01*
X147724892Y-67987558D01*
X147810698Y-67941694D01*
X147959541Y-67819541D01*
X148081694Y-67670698D01*
X148172462Y-67500883D01*
X148228357Y-67316624D01*
X148247230Y-67125000D01*
X148228357Y-66933376D01*
X148172462Y-66749117D01*
X148165510Y-66736110D01*
X148081697Y-66579307D01*
X148081693Y-66579300D01*
X147959541Y-66430458D01*
X147810699Y-66308306D01*
X147810692Y-66308302D01*
X147640884Y-66217538D01*
X147456626Y-66161643D01*
X147265000Y-66142770D01*
X147073373Y-66161643D01*
X146889115Y-66217538D01*
X146719307Y-66308302D01*
X146719300Y-66308306D01*
X146570458Y-66430458D01*
X146448306Y-66579300D01*
X146448302Y-66579307D01*
X146357538Y-66749115D01*
X146301643Y-66933373D01*
X146282770Y-67125000D01*
X145702500Y-67125000D01*
X145702500Y-66262442D01*
X145695102Y-66225252D01*
X145671782Y-66190351D01*
X145666922Y-66183077D01*
X145624749Y-66154898D01*
X145587559Y-66147500D01*
X145587558Y-66147500D01*
X143862442Y-66147500D01*
X143862441Y-66147500D01*
X143825250Y-66154898D01*
X143783077Y-66183077D01*
X143754898Y-66225250D01*
X143747500Y-66262441D01*
X143747500Y-67987558D01*
X142500500Y-67987558D01*
X142500500Y-64500001D01*
X169817576Y-64500001D01*
X169837245Y-64775018D01*
X169895851Y-65044420D01*
X169895853Y-65044427D01*
X169955676Y-65204820D01*
X169992205Y-65302759D01*
X169992207Y-65302763D01*
X170124337Y-65544741D01*
X170124342Y-65544749D01*
X170289564Y-65765461D01*
X170289580Y-65765479D01*
X170484520Y-65960419D01*
X170484538Y-65960435D01*
X170705250Y-66125657D01*
X170705258Y-66125662D01*
X170947236Y-66257792D01*
X170947240Y-66257794D01*
X170947242Y-66257795D01*
X171205573Y-66354147D01*
X171340279Y-66383451D01*
X171474981Y-66412754D01*
X171474983Y-66412754D01*
X171474987Y-66412755D01*
X171719380Y-66430234D01*
X171749999Y-66432424D01*
X171750000Y-66432424D01*
X171750001Y-66432424D01*
X171777552Y-66430453D01*
X172025013Y-66412755D01*
X172294427Y-66354147D01*
X172552758Y-66257795D01*
X172794747Y-66125659D01*
X173015469Y-65960429D01*
X173210429Y-65765469D01*
X173375659Y-65544747D01*
X173507795Y-65302758D01*
X173604147Y-65044427D01*
X173662755Y-64775013D01*
X173682424Y-64500000D01*
X173662755Y-64224987D01*
X173604147Y-63955573D01*
X173507795Y-63697242D01*
X173375659Y-63455253D01*
X173369123Y-63446522D01*
X173210435Y-63234538D01*
X173210419Y-63234520D01*
X173015479Y-63039580D01*
X173015461Y-63039564D01*
X172794749Y-62874342D01*
X172794741Y-62874337D01*
X172552763Y-62742207D01*
X172552759Y-62742205D01*
X172454820Y-62705676D01*
X172294427Y-62645853D01*
X172294423Y-62645852D01*
X172294420Y-62645851D01*
X172025018Y-62587245D01*
X171750001Y-62567576D01*
X171749999Y-62567576D01*
X171474981Y-62587245D01*
X171205579Y-62645851D01*
X171205574Y-62645852D01*
X171205573Y-62645853D01*
X171143117Y-62669147D01*
X170947240Y-62742205D01*
X170947236Y-62742207D01*
X170705258Y-62874337D01*
X170705250Y-62874342D01*
X170484538Y-63039564D01*
X170484520Y-63039580D01*
X170289580Y-63234520D01*
X170289564Y-63234538D01*
X170124342Y-63455250D01*
X170124337Y-63455258D01*
X169992207Y-63697236D01*
X169992205Y-63697240D01*
X169895851Y-63955579D01*
X169837245Y-64224981D01*
X169817576Y-64499998D01*
X169817576Y-64500001D01*
X142500500Y-64500001D01*
X142500500Y-62099999D01*
X176224763Y-62099999D01*
X176244012Y-62233888D01*
X176244013Y-62233893D01*
X176283032Y-62319329D01*
X176300205Y-62356933D01*
X176388786Y-62459160D01*
X176502579Y-62532291D01*
X176567473Y-62551345D01*
X176632366Y-62570400D01*
X176632367Y-62570400D01*
X176767633Y-62570400D01*
X176897421Y-62532291D01*
X177011214Y-62459160D01*
X177099795Y-62356933D01*
X177155987Y-62233890D01*
X177175237Y-62100000D01*
X177155987Y-61966110D01*
X177155986Y-61966109D01*
X177155986Y-61966106D01*
X177127891Y-61904588D01*
X177099795Y-61843067D01*
X177011214Y-61740840D01*
X176897421Y-61667709D01*
X176897420Y-61667708D01*
X176897419Y-61667708D01*
X176767634Y-61629600D01*
X176767633Y-61629600D01*
X176632367Y-61629600D01*
X176632366Y-61629600D01*
X176502580Y-61667708D01*
X176388788Y-61740838D01*
X176388783Y-61740842D01*
X176300209Y-61843061D01*
X176300203Y-61843071D01*
X176244013Y-61966106D01*
X176244012Y-61966111D01*
X176224763Y-62099999D01*
X142500500Y-62099999D01*
X142500500Y-60669999D01*
X181098913Y-60669999D01*
X181118162Y-60803888D01*
X181118163Y-60803893D01*
X181164721Y-60905838D01*
X181174355Y-60926933D01*
X181262936Y-61029160D01*
X181376729Y-61102291D01*
X181441622Y-61121345D01*
X181506516Y-61140400D01*
X181506517Y-61140400D01*
X181641783Y-61140400D01*
X181675762Y-61130423D01*
X181710697Y-61125400D01*
X194953673Y-61125400D01*
X194979118Y-61128039D01*
X194983061Y-61128865D01*
X194990117Y-61130345D01*
X195008676Y-61128031D01*
X195025966Y-61125877D01*
X195033642Y-61125400D01*
X195037708Y-61125400D01*
X195037711Y-61125400D01*
X195061104Y-61121496D01*
X195116460Y-61114596D01*
X195124113Y-61112316D01*
X195131682Y-61109718D01*
X195131686Y-61109718D01*
X195180741Y-61083170D01*
X195230846Y-61058676D01*
X195230847Y-61058674D01*
X195237363Y-61054022D01*
X195243658Y-61049123D01*
X195243659Y-61049121D01*
X195243662Y-61049120D01*
X195281441Y-61008080D01*
X195500702Y-60788819D01*
X195562026Y-60755334D01*
X195588384Y-60752500D01*
X196887559Y-60752500D01*
X196894957Y-60751028D01*
X196924748Y-60745102D01*
X196966922Y-60716922D01*
X196995102Y-60674748D01*
X197002500Y-60637558D01*
X197002500Y-58862442D01*
X196995102Y-58825252D01*
X196995101Y-58825250D01*
X196966922Y-58783077D01*
X196924749Y-58754898D01*
X196887559Y-58747500D01*
X196887558Y-58747500D01*
X195112442Y-58747500D01*
X195112441Y-58747500D01*
X195075250Y-58754898D01*
X195033077Y-58783077D01*
X195004898Y-58825250D01*
X194997500Y-58862441D01*
X194997500Y-60161614D01*
X194977815Y-60228653D01*
X194961181Y-60249295D01*
X194884394Y-60326082D01*
X194823074Y-60359566D01*
X194796715Y-60362400D01*
X181986670Y-60362400D01*
X181919631Y-60342715D01*
X181892959Y-60319604D01*
X181885367Y-60310843D01*
X181885365Y-60310841D01*
X181885364Y-60310840D01*
X181771571Y-60237709D01*
X181771570Y-60237708D01*
X181771569Y-60237708D01*
X181641784Y-60199600D01*
X181641783Y-60199600D01*
X181506517Y-60199600D01*
X181506516Y-60199600D01*
X181376730Y-60237708D01*
X181262938Y-60310838D01*
X181262933Y-60310842D01*
X181174359Y-60413061D01*
X181174353Y-60413071D01*
X181118163Y-60536106D01*
X181118162Y-60536111D01*
X181098913Y-60669999D01*
X142500500Y-60669999D01*
X142500500Y-56624500D01*
X142520185Y-56557461D01*
X142572989Y-56511706D01*
X142624500Y-56500500D01*
X199625500Y-56500500D01*
X199692539Y-56520185D01*
G37*
%TD.AperFunction*%
%TD*%
M02*
