M48
; DRILL file {KiCad 7.0.7} date Fri Feb  9 14:24:36 2024
; FORMAT={-:-/ absolute / inch / decimal}
; #@! TF.CreationDate,2024-02-09T14:24:36-05:00
; #@! TF.GenerationSoftware,Kicad,Pcbnew,7.0.7
; #@! TF.FileFunction,Plated,1,4,PTH
FMAT,2
INCH
; #@! TA.AperFunction,Plated,PTH,ViaDrill
T1C0.0130
; #@! TA.AperFunction,Plated,PTH,ViaDrill
T2C0.0150
; #@! TA.AperFunction,Plated,PTH,ComponentDrill
T3C0.0394
; #@! TA.AperFunction,Plated,PTH,ComponentDrill
T4C0.0472
; #@! TA.AperFunction,Plated,PTH,ComponentDrill
T5C0.0551
; #@! TA.AperFunction,Plated,PTH,ComponentDrill
T6C0.1260
%
G90
G05
T1
X5.8425Y-3.2362
X5.8425Y-3.2913
X5.8425Y-3.3465
X5.8543Y-2.768
X5.8583Y-3.4921
X5.8858Y-3.1929
X5.8858Y-3.3898
X5.8957Y-4.1754
X5.8957Y-4.2148
X5.8976Y-2.768
X5.8996Y-4.2856
X5.8996Y-4.3289
X5.9232Y-5.014
X5.9232Y-5.1124
X5.935Y-4.1754
X5.935Y-4.2856
X5.9409Y-3.1929
X5.9409Y-3.3898
X5.9665Y-5.014
X5.9665Y-5.0652
X5.9665Y-5.1124
X5.9705Y-4.2856
X5.9705Y-4.3289
X5.9744Y-4.1754
X5.9744Y-4.2148
X5.9961Y-3.1929
X5.9961Y-3.3898
X6.0138Y-5.014
X6.0138Y-5.1124
X6.0217Y-4.3289
X6.0236Y-3.5288
X6.0335Y-3.6417
X6.0354Y-2.7992
X6.0394Y-3.2362
X6.0394Y-3.2913
X6.0394Y-3.3465
X6.0453Y-4.2345
X6.0453Y-4.2935
X6.0512Y-2.9409
X6.1063Y-5.1142
X6.1555Y-5.0612
X6.1555Y-5.1124
X6.1594Y-5.014
X6.1909Y-5.014
X6.1949Y-3.9746
X6.2224Y-5.014
X6.2224Y-5.0612
X6.2224Y-5.1124
X6.2638Y-3.4528
X6.2638Y-3.4961
X6.2795Y-3.0591
X6.2795Y-5.1142
X6.2835Y-4.4646
X6.2894Y-3.6417
X6.3366Y-4.2896
X6.3406Y-4.2305
X6.3504Y-2.6969
X6.3504Y-3.8543
X6.3524Y-4.325
X6.3681Y-5.014
X6.3681Y-5.1124
X6.4114Y-4.1715
X6.4114Y-4.2108
X6.4114Y-4.2856
X6.4114Y-4.325
X6.4154Y-5.014
X6.4154Y-5.0652
X6.4154Y-5.1124
X6.4469Y-4.1715
X6.4469Y-4.2856
X6.4587Y-5.014
X6.4587Y-5.1124
X6.4823Y-4.1715
X6.4823Y-4.2108
X6.4823Y-4.2856
X6.4823Y-4.325
X6.5197Y-3.7795
X6.5591Y-3.1614
X6.5709Y-3.0354
X6.5866Y-4.1378
X6.6063Y-3.9646
X6.6299Y-2.6732
X6.6417Y-3.1614
X6.6417Y-3.2402
X6.874Y-2.9843
X6.9016Y-2.8819
X6.9134Y-3.3622
X6.9173Y-3.2362
X6.9528Y-3.9409
X6.9567Y-2.4449
X6.9606Y-2.6969
X6.9606Y-4.2638
X6.9606Y-4.5906
X6.9606Y-4.9173
X6.9646Y-3.0394
X6.9685Y-2.6378
X7.0079Y-3.689
X7.0768Y-3.5591
X7.0768Y-3.878
X7.0768Y-4.2087
X7.0768Y-4.5315
X7.0768Y-4.8583
X7.1447Y-3.1209
X7.1447Y-3.361
X7.1486Y-2.3886
X7.1486Y-2.6327
X7.1486Y-2.8807
X7.3218Y-2.363
X7.3218Y-2.6091
X7.3218Y-2.8551
X7.3218Y-3.1012
X7.3218Y-3.3374
X7.4764Y-3.5315
X7.5079Y-4.4764
T2
X5.8543Y-4.6378
X7.0748Y-4.2992
X7.0748Y-4.3898
X7.0748Y-4.6222
X7.0748Y-4.7126
X7.0748Y-4.9488
X7.0768Y-5.0374
X7.077Y-3.9724
X7.077Y-4.0591
X7.0791Y-3.6472
X7.0791Y-3.7299
X7.2038Y-3.7008
X7.2041Y-3.7448
X7.2083Y-4.0354
X7.2083Y-4.0748
X7.2126Y-4.3583
X7.2126Y-4.4016
X7.2155Y-4.685
X7.2155Y-4.7244
X7.2165Y-5.0118
X7.2165Y-5.0512
X7.4055Y-3.6811
X7.4094Y-4.0157
X7.4173Y-4.3386
X7.4173Y-4.9921
X7.4213Y-4.6654
T3
X5.6978Y-2.6427
X5.7978Y-2.6427
X5.8661Y-3.8671
X5.8661Y-3.9671
X5.8661Y-4.0671
X5.9909Y-2.6427
X6.0909Y-2.6427
X6.1909Y-2.6427
T4
X5.7638Y-4.9252
X5.7638Y-5.063
T5
X7.7165Y-2.3524
X7.7165Y-2.4902
X7.7165Y-2.628
X7.7165Y-2.7657
X7.7165Y-2.9035
X7.7165Y-3.1594
X7.7165Y-3.2972
X7.7165Y-3.435
X7.7165Y-3.5728
X7.7165Y-3.7106
X7.7165Y-3.8484
X7.7165Y-3.9862
X7.7165Y-4.124
X7.7165Y-4.2618
X7.7165Y-4.3996
X7.7165Y-4.5374
X7.7165Y-4.6752
T6
X6.752Y-4.8228
X6.7618Y-2.5394
T0
M30
