%TF.GenerationSoftware,KiCad,Pcbnew,7.0.7*%
%TF.CreationDate,2024-02-09T11:11:51-05:00*%
%TF.ProjectId,control-module-pcb,636f6e74-726f-46c2-9d6d-6f64756c652d,rev?*%
%TF.SameCoordinates,Original*%
%TF.FileFunction,Drillmap*%
%TF.FilePolarity,Positive*%
%FSLAX45Y45*%
G04 Gerber Fmt 4.5, Leading zero omitted, Abs format (unit mm)*
G04 Created by KiCad (PCBNEW 7.0.7) date 2024-02-09 11:11:51*
%MOMM*%
%LPD*%
G01*
G04 APERTURE LIST*
%ADD10C,0.038100*%
%ADD11C,0.200000*%
%ADD12C,0.033020*%
%ADD13C,0.100000*%
%ADD14C,0.120000*%
%ADD15C,0.140000*%
%ADD16C,0.320000*%
G04 APERTURE END LIST*
D10*
X14200000Y-5600000D02*
X20025000Y-5600000D01*
X20025000Y-13190000D01*
X14200000Y-13190000D01*
X14200000Y-5600000D01*
D11*
D12*
X14823490Y-8203490D02*
X14856510Y-8236510D01*
X14856510Y-8203490D02*
X14823490Y-8236510D01*
X14823490Y-8343490D02*
X14856510Y-8376510D01*
X14856510Y-8343490D02*
X14823490Y-8376510D01*
X14823490Y-8483490D02*
X14856510Y-8516510D01*
X14856510Y-8483490D02*
X14823490Y-8516510D01*
X14853490Y-7014320D02*
X14886510Y-7047340D01*
X14886510Y-7014320D02*
X14853490Y-7047340D01*
X14863490Y-8853490D02*
X14896510Y-8886510D01*
X14896510Y-8853490D02*
X14863490Y-8886510D01*
X14933490Y-8093490D02*
X14966510Y-8126510D01*
X14966510Y-8093490D02*
X14933490Y-8126510D01*
X14933490Y-8593490D02*
X14966510Y-8626510D01*
X14966510Y-8593490D02*
X14933490Y-8626510D01*
X14958490Y-10589020D02*
X14991510Y-10622040D01*
X14991510Y-10589020D02*
X14958490Y-10622040D01*
X14958490Y-10689020D02*
X14991510Y-10722040D01*
X14991510Y-10689020D02*
X14958490Y-10722040D01*
X14963490Y-7014320D02*
X14996510Y-7047340D01*
X14996510Y-7014320D02*
X14963490Y-7047340D01*
X14968490Y-10869020D02*
X15001510Y-10902040D01*
X15001510Y-10869020D02*
X14968490Y-10902040D01*
X14968490Y-10979020D02*
X15001510Y-11012040D01*
X15001510Y-10979020D02*
X14968490Y-11012040D01*
X15028490Y-12719020D02*
X15061510Y-12752040D01*
X15061510Y-12719020D02*
X15028490Y-12752040D01*
X15028490Y-12969020D02*
X15061510Y-13002040D01*
X15061510Y-12969020D02*
X15028490Y-13002040D01*
X15058490Y-10589020D02*
X15091510Y-10622040D01*
X15091510Y-10589020D02*
X15058490Y-10622040D01*
X15058490Y-10869020D02*
X15091510Y-10902040D01*
X15091510Y-10869020D02*
X15058490Y-10902040D01*
X15073490Y-8093490D02*
X15106510Y-8126510D01*
X15106510Y-8093490D02*
X15073490Y-8126510D01*
X15073490Y-8593490D02*
X15106510Y-8626510D01*
X15106510Y-8593490D02*
X15073490Y-8626510D01*
X15138490Y-12719020D02*
X15171510Y-12752040D01*
X15171510Y-12719020D02*
X15138490Y-12752040D01*
X15138490Y-12849020D02*
X15171510Y-12882040D01*
X15171510Y-12849020D02*
X15138490Y-12882040D01*
X15138490Y-12969020D02*
X15171510Y-13002040D01*
X15171510Y-12969020D02*
X15138490Y-13002040D01*
X15148490Y-10869020D02*
X15181510Y-10902040D01*
X15181510Y-10869020D02*
X15148490Y-10902040D01*
X15148490Y-10979020D02*
X15181510Y-11012040D01*
X15181510Y-10979020D02*
X15148490Y-11012040D01*
X15158490Y-10589020D02*
X15191510Y-10622040D01*
X15191510Y-10589020D02*
X15158490Y-10622040D01*
X15158490Y-10689020D02*
X15191510Y-10722040D01*
X15191510Y-10689020D02*
X15158490Y-10722040D01*
X15213490Y-8093490D02*
X15246510Y-8126510D01*
X15246510Y-8093490D02*
X15213490Y-8126510D01*
X15213490Y-8593490D02*
X15246510Y-8626510D01*
X15246510Y-8593490D02*
X15213490Y-8626510D01*
X15258490Y-12719020D02*
X15291510Y-12752040D01*
X15291510Y-12719020D02*
X15258490Y-12752040D01*
X15258490Y-12969020D02*
X15291510Y-13002040D01*
X15291510Y-12969020D02*
X15258490Y-13002040D01*
X15278490Y-10979020D02*
X15311510Y-11012040D01*
X15311510Y-10979020D02*
X15278490Y-11012040D01*
X15283490Y-8946550D02*
X15316510Y-8979570D01*
X15316510Y-8946550D02*
X15283490Y-8979570D01*
X15308490Y-9233490D02*
X15341510Y-9266510D01*
X15341510Y-9233490D02*
X15308490Y-9266510D01*
X15313490Y-7093490D02*
X15346510Y-7126510D01*
X15346510Y-7093490D02*
X15313490Y-7126510D01*
X15323490Y-8203490D02*
X15356510Y-8236510D01*
X15356510Y-8203490D02*
X15323490Y-8236510D01*
X15323490Y-8343490D02*
X15356510Y-8376510D01*
X15356510Y-8343490D02*
X15323490Y-8376510D01*
X15323490Y-8483490D02*
X15356510Y-8516510D01*
X15356510Y-8483490D02*
X15323490Y-8516510D01*
X15338490Y-10739020D02*
X15371510Y-10772040D01*
X15371510Y-10739020D02*
X15338490Y-10772040D01*
X15338490Y-10889020D02*
X15371510Y-10922040D01*
X15371510Y-10889020D02*
X15338490Y-10922040D01*
X15353490Y-7453490D02*
X15386510Y-7486510D01*
X15386510Y-7453490D02*
X15353490Y-7486510D01*
X15493490Y-12973490D02*
X15526510Y-13006510D01*
X15526510Y-12973490D02*
X15493490Y-13006510D01*
X15618490Y-12839020D02*
X15651510Y-12872040D01*
X15651510Y-12839020D02*
X15618490Y-12872040D01*
X15618490Y-12969020D02*
X15651510Y-13002040D01*
X15651510Y-12969020D02*
X15618490Y-13002040D01*
X15628490Y-12719020D02*
X15661510Y-12752040D01*
X15661510Y-12719020D02*
X15628490Y-12752040D01*
X15708490Y-12719020D02*
X15741510Y-12752040D01*
X15741510Y-12719020D02*
X15708490Y-12752040D01*
X15718490Y-10079020D02*
X15751510Y-10112040D01*
X15751510Y-10079020D02*
X15718490Y-10112040D01*
X15788490Y-12719020D02*
X15821510Y-12752040D01*
X15821510Y-12719020D02*
X15788490Y-12752040D01*
X15788490Y-12839020D02*
X15821510Y-12872040D01*
X15821510Y-12839020D02*
X15788490Y-12872040D01*
X15788490Y-12969020D02*
X15821510Y-13002040D01*
X15821510Y-12969020D02*
X15788490Y-13002040D01*
X15893490Y-8753490D02*
X15926510Y-8786510D01*
X15926510Y-8753490D02*
X15893490Y-8786510D01*
X15893490Y-8863490D02*
X15926510Y-8896510D01*
X15926510Y-8863490D02*
X15893490Y-8896510D01*
X15933490Y-7753490D02*
X15966510Y-7786510D01*
X15966510Y-7753490D02*
X15933490Y-7786510D01*
X15933490Y-12973490D02*
X15966510Y-13006510D01*
X15966510Y-12973490D02*
X15933490Y-13006510D01*
X15943490Y-11323490D02*
X15976510Y-11356510D01*
X15976510Y-11323490D02*
X15943490Y-11356510D01*
X15958490Y-9233490D02*
X15991510Y-9266510D01*
X15991510Y-9233490D02*
X15958490Y-9266510D01*
X16078490Y-10879020D02*
X16111510Y-10912040D01*
X16111510Y-10879020D02*
X16078490Y-10912040D01*
X16088490Y-10729020D02*
X16121510Y-10762040D01*
X16121510Y-10729020D02*
X16088490Y-10762040D01*
X16113490Y-6833490D02*
X16146510Y-6866510D01*
X16146510Y-6833490D02*
X16113490Y-6866510D01*
X16113490Y-9773490D02*
X16146510Y-9806510D01*
X16146510Y-9773490D02*
X16113490Y-9806510D01*
X16118490Y-10969020D02*
X16151510Y-11002040D01*
X16151510Y-10969020D02*
X16118490Y-11002040D01*
X16158490Y-12719020D02*
X16191510Y-12752040D01*
X16191510Y-12719020D02*
X16158490Y-12752040D01*
X16158490Y-12969020D02*
X16191510Y-13002040D01*
X16191510Y-12969020D02*
X16158490Y-13002040D01*
X16268490Y-10579020D02*
X16301510Y-10612040D01*
X16301510Y-10579020D02*
X16268490Y-10612040D01*
X16268490Y-10679020D02*
X16301510Y-10712040D01*
X16301510Y-10679020D02*
X16268490Y-10712040D01*
X16268490Y-10869020D02*
X16301510Y-10902040D01*
X16301510Y-10869020D02*
X16268490Y-10902040D01*
X16268490Y-10969020D02*
X16301510Y-11002040D01*
X16301510Y-10969020D02*
X16268490Y-11002040D01*
X16278490Y-12719020D02*
X16311510Y-12752040D01*
X16311510Y-12719020D02*
X16278490Y-12752040D01*
X16278490Y-12849020D02*
X16311510Y-12882040D01*
X16311510Y-12849020D02*
X16278490Y-12882040D01*
X16278490Y-12969020D02*
X16311510Y-13002040D01*
X16311510Y-12969020D02*
X16278490Y-13002040D01*
X16358490Y-10579020D02*
X16391510Y-10612040D01*
X16391510Y-10579020D02*
X16358490Y-10612040D01*
X16358490Y-10869020D02*
X16391510Y-10902040D01*
X16391510Y-10869020D02*
X16358490Y-10902040D01*
X16388490Y-12719020D02*
X16421510Y-12752040D01*
X16421510Y-12719020D02*
X16388490Y-12752040D01*
X16388490Y-12969020D02*
X16421510Y-13002040D01*
X16421510Y-12969020D02*
X16388490Y-13002040D01*
X16448490Y-10579020D02*
X16481510Y-10612040D01*
X16481510Y-10579020D02*
X16448490Y-10612040D01*
X16448490Y-10679020D02*
X16481510Y-10712040D01*
X16481510Y-10679020D02*
X16448490Y-10712040D01*
X16448490Y-10869020D02*
X16481510Y-10902040D01*
X16481510Y-10869020D02*
X16448490Y-10902040D01*
X16448490Y-10969020D02*
X16481510Y-11002040D01*
X16481510Y-10969020D02*
X16448490Y-11002040D01*
X16543490Y-9583490D02*
X16576510Y-9616510D01*
X16576510Y-9583490D02*
X16543490Y-9616510D01*
X16643490Y-8013490D02*
X16676510Y-8046510D01*
X16676510Y-8013490D02*
X16643490Y-8046510D01*
X16673490Y-7693490D02*
X16706510Y-7726510D01*
X16706510Y-7693490D02*
X16673490Y-7726510D01*
X16713490Y-10493490D02*
X16746510Y-10526510D01*
X16746510Y-10493490D02*
X16713490Y-10526510D01*
X16763490Y-10053490D02*
X16796510Y-10086510D01*
X16796510Y-10053490D02*
X16763490Y-10086510D01*
X16823490Y-6773490D02*
X16856510Y-6806510D01*
X16856510Y-6773490D02*
X16823490Y-6806510D01*
X16853490Y-8013490D02*
X16886510Y-8046510D01*
X16886510Y-8013490D02*
X16853490Y-8046510D01*
X16853490Y-8213490D02*
X16886510Y-8246510D01*
X16886510Y-8213490D02*
X16853490Y-8246510D01*
X17443490Y-7563490D02*
X17476510Y-7596510D01*
X17476510Y-7563490D02*
X17443490Y-7596510D01*
X17513490Y-7303490D02*
X17546510Y-7336510D01*
X17546510Y-7303490D02*
X17513490Y-7336510D01*
X17543490Y-8523490D02*
X17576510Y-8556510D01*
X17576510Y-8523490D02*
X17543490Y-8556510D01*
X17553490Y-8203490D02*
X17586510Y-8236510D01*
X17586510Y-8203490D02*
X17553490Y-8236510D01*
X17643490Y-9993490D02*
X17676510Y-10026510D01*
X17676510Y-9993490D02*
X17643490Y-10026510D01*
X17653490Y-6193490D02*
X17686510Y-6226510D01*
X17686510Y-6193490D02*
X17653490Y-6226510D01*
X17663490Y-6833490D02*
X17696510Y-6866510D01*
X17696510Y-6833490D02*
X17663490Y-6866510D01*
X17663490Y-10813490D02*
X17696510Y-10846510D01*
X17696510Y-10813490D02*
X17663490Y-10846510D01*
X17663490Y-11643490D02*
X17696510Y-11676510D01*
X17696510Y-11643490D02*
X17663490Y-11676510D01*
X17663490Y-12473490D02*
X17696510Y-12506510D01*
X17696510Y-12473490D02*
X17663490Y-12506510D01*
X17673490Y-7703490D02*
X17706510Y-7736510D01*
X17706510Y-7703490D02*
X17673490Y-7736510D01*
X17683490Y-6683490D02*
X17716510Y-6716510D01*
X17716510Y-6683490D02*
X17683490Y-6716510D01*
X17783490Y-9353490D02*
X17816510Y-9386510D01*
X17816510Y-9353490D02*
X17783490Y-9386510D01*
X17958490Y-9023490D02*
X17991510Y-9056510D01*
X17991510Y-9023490D02*
X17958490Y-9056510D01*
X17958490Y-9833490D02*
X17991510Y-9866510D01*
X17991510Y-9833490D02*
X17958490Y-9866510D01*
X17958490Y-10673490D02*
X17991510Y-10706510D01*
X17991510Y-10673490D02*
X17958490Y-10706510D01*
X17958490Y-11493490D02*
X17991510Y-11526510D01*
X17991510Y-11493490D02*
X17958490Y-11526510D01*
X17958490Y-12323490D02*
X17991510Y-12356510D01*
X17991510Y-12323490D02*
X17958490Y-12356510D01*
X18130905Y-7910490D02*
X18163925Y-7943510D01*
X18163925Y-7910490D02*
X18130905Y-7943510D01*
X18130905Y-8520490D02*
X18163925Y-8553510D01*
X18163925Y-8520490D02*
X18130905Y-8553510D01*
X18140905Y-6050490D02*
X18173925Y-6083510D01*
X18173925Y-6050490D02*
X18140905Y-6083510D01*
X18140905Y-6670490D02*
X18173925Y-6703510D01*
X18173925Y-6670490D02*
X18140905Y-6703510D01*
X18140905Y-7300490D02*
X18173925Y-7333510D01*
X18173925Y-7300490D02*
X18140905Y-7333510D01*
X18580905Y-5985490D02*
X18613925Y-6018510D01*
X18613925Y-5985490D02*
X18580905Y-6018510D01*
X18580905Y-6610490D02*
X18613925Y-6643510D01*
X18613925Y-6610490D02*
X18580905Y-6643510D01*
X18580905Y-7235490D02*
X18613925Y-7268510D01*
X18613925Y-7235490D02*
X18580905Y-7268510D01*
X18580905Y-7860490D02*
X18613925Y-7893510D01*
X18613925Y-7860490D02*
X18580905Y-7893510D01*
X18580905Y-8460490D02*
X18613925Y-8493510D01*
X18613925Y-8460490D02*
X18580905Y-8493510D01*
X18973490Y-8953490D02*
X19006510Y-8986510D01*
X19006510Y-8953490D02*
X18973490Y-8986510D01*
X19053490Y-11353490D02*
X19086510Y-11386510D01*
X19086510Y-11353490D02*
X19053490Y-11386510D01*
D10*
X14889050Y-11780000D02*
G75*
G03*
X14889050Y-11780000I-19050J0D01*
G01*
X17989050Y-10920000D02*
G75*
G03*
X17989050Y-10920000I-19050J0D01*
G01*
X17989050Y-11150000D02*
G75*
G03*
X17989050Y-11150000I-19050J0D01*
G01*
X17989050Y-11740490D02*
G75*
G03*
X17989050Y-11740490I-19050J0D01*
G01*
X17989050Y-11970000D02*
G75*
G03*
X17989050Y-11970000I-19050J0D01*
G01*
X17989050Y-12570000D02*
G75*
G03*
X17989050Y-12570000I-19050J0D01*
G01*
X17994050Y-12795000D02*
G75*
G03*
X17994050Y-12795000I-19050J0D01*
G01*
X17994550Y-10090000D02*
G75*
G03*
X17994550Y-10090000I-19050J0D01*
G01*
X17994550Y-10310000D02*
G75*
G03*
X17994550Y-10310000I-19050J0D01*
G01*
X17999965Y-9264000D02*
G75*
G03*
X17999965Y-9264000I-19050J0D01*
G01*
X17999965Y-9474000D02*
G75*
G03*
X17999965Y-9474000I-19050J0D01*
G01*
X18316600Y-9400000D02*
G75*
G03*
X18316600Y-9400000I-19050J0D01*
G01*
X18317411Y-9511841D02*
G75*
G03*
X18317411Y-9511841I-19050J0D01*
G01*
X18328040Y-10250000D02*
G75*
G03*
X18328040Y-10250000I-19050J0D01*
G01*
X18328047Y-10350015D02*
G75*
G03*
X18328047Y-10350015I-19050J0D01*
G01*
X18339050Y-11070000D02*
G75*
G03*
X18339050Y-11070000I-19050J0D01*
G01*
X18339050Y-11180000D02*
G75*
G03*
X18339050Y-11180000I-19050J0D01*
G01*
X18346515Y-11900000D02*
G75*
G03*
X18346515Y-11900000I-19050J0D01*
G01*
X18346523Y-12000039D02*
G75*
G03*
X18346523Y-12000039I-19050J0D01*
G01*
X18349050Y-12730000D02*
G75*
G03*
X18349050Y-12730000I-19050J0D01*
G01*
X18349050Y-12830000D02*
G75*
G03*
X18349050Y-12830000I-19050J0D01*
G01*
X18829050Y-9350000D02*
G75*
G03*
X18829050Y-9350000I-19050J0D01*
G01*
X18839050Y-10200000D02*
G75*
G03*
X18839050Y-10200000I-19050J0D01*
G01*
X18859050Y-11020000D02*
G75*
G03*
X18859050Y-11020000I-19050J0D01*
G01*
X18859050Y-12680000D02*
G75*
G03*
X18859050Y-12680000I-19050J0D01*
G01*
X18869050Y-11850000D02*
G75*
G03*
X18869050Y-11850000I-19050J0D01*
G01*
D13*
X14472500Y-6662500D02*
X14472500Y-6762500D01*
X14422500Y-6712500D02*
X14522500Y-6712500D01*
X14726500Y-6662500D02*
X14726500Y-6762500D01*
X14676500Y-6712500D02*
X14776500Y-6712500D01*
X14900000Y-9772530D02*
X14900000Y-9872530D01*
X14850000Y-9822530D02*
X14950000Y-9822530D01*
X14900000Y-10026530D02*
X14900000Y-10126530D01*
X14850000Y-10076530D02*
X14950000Y-10076530D01*
X14900000Y-10280530D02*
X14900000Y-10380530D01*
X14850000Y-10330530D02*
X14950000Y-10330530D01*
X15217000Y-6662500D02*
X15217000Y-6762500D01*
X15167000Y-6712500D02*
X15267000Y-6712500D01*
X15471000Y-6662500D02*
X15471000Y-6762500D01*
X15421000Y-6712500D02*
X15521000Y-6712500D01*
X15725000Y-6662500D02*
X15725000Y-6762500D01*
X15675000Y-6712500D02*
X15775000Y-6712500D01*
D14*
X14682427Y-12552427D02*
X14682427Y-12467573D01*
X14597573Y-12467573D01*
X14597573Y-12552427D01*
X14682427Y-12552427D01*
X14682427Y-12902427D02*
X14682427Y-12817573D01*
X14597573Y-12817573D01*
X14597573Y-12902427D01*
X14682427Y-12902427D01*
D15*
X19600000Y-6045000D02*
X19670000Y-5975000D01*
X19600000Y-5905000D01*
X19530000Y-5975000D01*
X19600000Y-6045000D01*
X19600000Y-6395000D02*
X19670000Y-6325000D01*
X19600000Y-6255000D01*
X19530000Y-6325000D01*
X19600000Y-6395000D01*
X19600000Y-6745000D02*
X19670000Y-6675000D01*
X19600000Y-6605000D01*
X19530000Y-6675000D01*
X19600000Y-6745000D01*
X19600000Y-7095000D02*
X19670000Y-7025000D01*
X19600000Y-6955000D01*
X19530000Y-7025000D01*
X19600000Y-7095000D01*
X19600000Y-7445000D02*
X19670000Y-7375000D01*
X19600000Y-7305000D01*
X19530000Y-7375000D01*
X19600000Y-7445000D01*
X19600000Y-8095000D02*
X19670000Y-8025000D01*
X19600000Y-7955000D01*
X19530000Y-8025000D01*
X19600000Y-8095000D01*
X19600000Y-8445000D02*
X19670000Y-8375000D01*
X19600000Y-8305000D01*
X19530000Y-8375000D01*
X19600000Y-8445000D01*
X19600000Y-8795000D02*
X19670000Y-8725000D01*
X19600000Y-8655000D01*
X19530000Y-8725000D01*
X19600000Y-8795000D01*
X19600000Y-9145000D02*
X19670000Y-9075000D01*
X19600000Y-9005000D01*
X19530000Y-9075000D01*
X19600000Y-9145000D01*
X19600000Y-9495000D02*
X19670000Y-9425000D01*
X19600000Y-9355000D01*
X19530000Y-9425000D01*
X19600000Y-9495000D01*
X19600000Y-9845000D02*
X19670000Y-9775000D01*
X19600000Y-9705000D01*
X19530000Y-9775000D01*
X19600000Y-9845000D01*
X19600000Y-10195000D02*
X19670000Y-10125000D01*
X19600000Y-10055000D01*
X19530000Y-10125000D01*
X19600000Y-10195000D01*
X19600000Y-10545000D02*
X19670000Y-10475000D01*
X19600000Y-10405000D01*
X19530000Y-10475000D01*
X19600000Y-10545000D01*
X19600000Y-10895000D02*
X19670000Y-10825000D01*
X19600000Y-10755000D01*
X19530000Y-10825000D01*
X19600000Y-10895000D01*
X19600000Y-11245000D02*
X19670000Y-11175000D01*
X19600000Y-11105000D01*
X19530000Y-11175000D01*
X19600000Y-11245000D01*
X19600000Y-11595000D02*
X19670000Y-11525000D01*
X19600000Y-11455000D01*
X19530000Y-11525000D01*
X19600000Y-11595000D01*
X19600000Y-11945000D02*
X19670000Y-11875000D01*
X19600000Y-11805000D01*
X19530000Y-11875000D01*
X19600000Y-11945000D01*
D16*
X16990000Y-12090000D02*
X17310000Y-12410000D01*
X17310000Y-12090000D02*
X16990000Y-12410000D01*
X17310000Y-12250000D02*
G75*
G03*
X17310000Y-12250000I-160000J0D01*
G01*
X17015000Y-6290000D02*
X17335000Y-6610000D01*
X17335000Y-6290000D02*
X17015000Y-6610000D01*
X17335000Y-6450000D02*
G75*
G03*
X17335000Y-6450000I-160000J0D01*
G01*
D11*
X14458872Y-13503389D02*
X14458872Y-13303389D01*
X14458872Y-13303389D02*
X14506491Y-13303389D01*
X14506491Y-13303389D02*
X14535062Y-13312913D01*
X14535062Y-13312913D02*
X14554110Y-13331960D01*
X14554110Y-13331960D02*
X14563634Y-13351008D01*
X14563634Y-13351008D02*
X14573157Y-13389103D01*
X14573157Y-13389103D02*
X14573157Y-13417674D01*
X14573157Y-13417674D02*
X14563634Y-13455770D01*
X14563634Y-13455770D02*
X14554110Y-13474817D01*
X14554110Y-13474817D02*
X14535062Y-13493865D01*
X14535062Y-13493865D02*
X14506491Y-13503389D01*
X14506491Y-13503389D02*
X14458872Y-13503389D01*
X14658872Y-13503389D02*
X14658872Y-13370055D01*
X14658872Y-13408151D02*
X14668396Y-13389103D01*
X14668396Y-13389103D02*
X14677919Y-13379579D01*
X14677919Y-13379579D02*
X14696967Y-13370055D01*
X14696967Y-13370055D02*
X14716015Y-13370055D01*
X14782681Y-13503389D02*
X14782681Y-13370055D01*
X14782681Y-13303389D02*
X14773157Y-13312913D01*
X14773157Y-13312913D02*
X14782681Y-13322436D01*
X14782681Y-13322436D02*
X14792205Y-13312913D01*
X14792205Y-13312913D02*
X14782681Y-13303389D01*
X14782681Y-13303389D02*
X14782681Y-13322436D01*
X14906491Y-13503389D02*
X14887443Y-13493865D01*
X14887443Y-13493865D02*
X14877919Y-13474817D01*
X14877919Y-13474817D02*
X14877919Y-13303389D01*
X15011253Y-13503389D02*
X14992205Y-13493865D01*
X14992205Y-13493865D02*
X14982681Y-13474817D01*
X14982681Y-13474817D02*
X14982681Y-13303389D01*
X15239824Y-13503389D02*
X15239824Y-13303389D01*
X15239824Y-13303389D02*
X15306491Y-13446246D01*
X15306491Y-13446246D02*
X15373157Y-13303389D01*
X15373157Y-13303389D02*
X15373157Y-13503389D01*
X15554110Y-13503389D02*
X15554110Y-13398627D01*
X15554110Y-13398627D02*
X15544586Y-13379579D01*
X15544586Y-13379579D02*
X15525538Y-13370055D01*
X15525538Y-13370055D02*
X15487443Y-13370055D01*
X15487443Y-13370055D02*
X15468396Y-13379579D01*
X15554110Y-13493865D02*
X15535062Y-13503389D01*
X15535062Y-13503389D02*
X15487443Y-13503389D01*
X15487443Y-13503389D02*
X15468396Y-13493865D01*
X15468396Y-13493865D02*
X15458872Y-13474817D01*
X15458872Y-13474817D02*
X15458872Y-13455770D01*
X15458872Y-13455770D02*
X15468396Y-13436722D01*
X15468396Y-13436722D02*
X15487443Y-13427198D01*
X15487443Y-13427198D02*
X15535062Y-13427198D01*
X15535062Y-13427198D02*
X15554110Y-13417674D01*
X15649348Y-13370055D02*
X15649348Y-13570055D01*
X15649348Y-13379579D02*
X15668396Y-13370055D01*
X15668396Y-13370055D02*
X15706491Y-13370055D01*
X15706491Y-13370055D02*
X15725538Y-13379579D01*
X15725538Y-13379579D02*
X15735062Y-13389103D01*
X15735062Y-13389103D02*
X15744586Y-13408151D01*
X15744586Y-13408151D02*
X15744586Y-13465293D01*
X15744586Y-13465293D02*
X15735062Y-13484341D01*
X15735062Y-13484341D02*
X15725538Y-13493865D01*
X15725538Y-13493865D02*
X15706491Y-13503389D01*
X15706491Y-13503389D02*
X15668396Y-13503389D01*
X15668396Y-13503389D02*
X15649348Y-13493865D01*
X15830300Y-13484341D02*
X15839824Y-13493865D01*
X15839824Y-13493865D02*
X15830300Y-13503389D01*
X15830300Y-13503389D02*
X15820777Y-13493865D01*
X15820777Y-13493865D02*
X15830300Y-13484341D01*
X15830300Y-13484341D02*
X15830300Y-13503389D01*
X15830300Y-13379579D02*
X15839824Y-13389103D01*
X15839824Y-13389103D02*
X15830300Y-13398627D01*
X15830300Y-13398627D02*
X15820777Y-13389103D01*
X15820777Y-13389103D02*
X15830300Y-13379579D01*
X15830300Y-13379579D02*
X15830300Y-13398627D01*
D12*
X14165075Y-13815395D02*
X14198095Y-13848415D01*
X14198095Y-13815395D02*
X14165075Y-13848415D01*
D11*
X14496967Y-13723389D02*
X14516015Y-13723389D01*
X14516015Y-13723389D02*
X14535062Y-13732913D01*
X14535062Y-13732913D02*
X14544586Y-13742436D01*
X14544586Y-13742436D02*
X14554110Y-13761484D01*
X14554110Y-13761484D02*
X14563634Y-13799579D01*
X14563634Y-13799579D02*
X14563634Y-13847198D01*
X14563634Y-13847198D02*
X14554110Y-13885293D01*
X14554110Y-13885293D02*
X14544586Y-13904341D01*
X14544586Y-13904341D02*
X14535062Y-13913865D01*
X14535062Y-13913865D02*
X14516015Y-13923389D01*
X14516015Y-13923389D02*
X14496967Y-13923389D01*
X14496967Y-13923389D02*
X14477919Y-13913865D01*
X14477919Y-13913865D02*
X14468396Y-13904341D01*
X14468396Y-13904341D02*
X14458872Y-13885293D01*
X14458872Y-13885293D02*
X14449348Y-13847198D01*
X14449348Y-13847198D02*
X14449348Y-13799579D01*
X14449348Y-13799579D02*
X14458872Y-13761484D01*
X14458872Y-13761484D02*
X14468396Y-13742436D01*
X14468396Y-13742436D02*
X14477919Y-13732913D01*
X14477919Y-13732913D02*
X14496967Y-13723389D01*
X14649348Y-13904341D02*
X14658872Y-13913865D01*
X14658872Y-13913865D02*
X14649348Y-13923389D01*
X14649348Y-13923389D02*
X14639824Y-13913865D01*
X14639824Y-13913865D02*
X14649348Y-13904341D01*
X14649348Y-13904341D02*
X14649348Y-13923389D01*
X14725538Y-13723389D02*
X14849348Y-13723389D01*
X14849348Y-13723389D02*
X14782681Y-13799579D01*
X14782681Y-13799579D02*
X14811253Y-13799579D01*
X14811253Y-13799579D02*
X14830300Y-13809103D01*
X14830300Y-13809103D02*
X14839824Y-13818627D01*
X14839824Y-13818627D02*
X14849348Y-13837674D01*
X14849348Y-13837674D02*
X14849348Y-13885293D01*
X14849348Y-13885293D02*
X14839824Y-13904341D01*
X14839824Y-13904341D02*
X14830300Y-13913865D01*
X14830300Y-13913865D02*
X14811253Y-13923389D01*
X14811253Y-13923389D02*
X14754110Y-13923389D01*
X14754110Y-13923389D02*
X14735062Y-13913865D01*
X14735062Y-13913865D02*
X14725538Y-13904341D01*
X14916015Y-13723389D02*
X15039824Y-13723389D01*
X15039824Y-13723389D02*
X14973157Y-13799579D01*
X14973157Y-13799579D02*
X15001729Y-13799579D01*
X15001729Y-13799579D02*
X15020777Y-13809103D01*
X15020777Y-13809103D02*
X15030300Y-13818627D01*
X15030300Y-13818627D02*
X15039824Y-13837674D01*
X15039824Y-13837674D02*
X15039824Y-13885293D01*
X15039824Y-13885293D02*
X15030300Y-13904341D01*
X15030300Y-13904341D02*
X15020777Y-13913865D01*
X15020777Y-13913865D02*
X15001729Y-13923389D01*
X15001729Y-13923389D02*
X14944586Y-13923389D01*
X14944586Y-13923389D02*
X14925538Y-13913865D01*
X14925538Y-13913865D02*
X14916015Y-13904341D01*
X15163634Y-13723389D02*
X15182681Y-13723389D01*
X15182681Y-13723389D02*
X15201729Y-13732913D01*
X15201729Y-13732913D02*
X15211253Y-13742436D01*
X15211253Y-13742436D02*
X15220777Y-13761484D01*
X15220777Y-13761484D02*
X15230300Y-13799579D01*
X15230300Y-13799579D02*
X15230300Y-13847198D01*
X15230300Y-13847198D02*
X15220777Y-13885293D01*
X15220777Y-13885293D02*
X15211253Y-13904341D01*
X15211253Y-13904341D02*
X15201729Y-13913865D01*
X15201729Y-13913865D02*
X15182681Y-13923389D01*
X15182681Y-13923389D02*
X15163634Y-13923389D01*
X15163634Y-13923389D02*
X15144586Y-13913865D01*
X15144586Y-13913865D02*
X15135062Y-13904341D01*
X15135062Y-13904341D02*
X15125538Y-13885293D01*
X15125538Y-13885293D02*
X15116015Y-13847198D01*
X15116015Y-13847198D02*
X15116015Y-13799579D01*
X15116015Y-13799579D02*
X15125538Y-13761484D01*
X15125538Y-13761484D02*
X15135062Y-13742436D01*
X15135062Y-13742436D02*
X15144586Y-13732913D01*
X15144586Y-13732913D02*
X15163634Y-13723389D01*
X15316015Y-13923389D02*
X15316015Y-13790055D01*
X15316015Y-13809103D02*
X15325538Y-13799579D01*
X15325538Y-13799579D02*
X15344586Y-13790055D01*
X15344586Y-13790055D02*
X15373158Y-13790055D01*
X15373158Y-13790055D02*
X15392205Y-13799579D01*
X15392205Y-13799579D02*
X15401729Y-13818627D01*
X15401729Y-13818627D02*
X15401729Y-13923389D01*
X15401729Y-13818627D02*
X15411253Y-13799579D01*
X15411253Y-13799579D02*
X15430300Y-13790055D01*
X15430300Y-13790055D02*
X15458872Y-13790055D01*
X15458872Y-13790055D02*
X15477919Y-13799579D01*
X15477919Y-13799579D02*
X15487443Y-13818627D01*
X15487443Y-13818627D02*
X15487443Y-13923389D01*
X15582681Y-13923389D02*
X15582681Y-13790055D01*
X15582681Y-13809103D02*
X15592205Y-13799579D01*
X15592205Y-13799579D02*
X15611253Y-13790055D01*
X15611253Y-13790055D02*
X15639824Y-13790055D01*
X15639824Y-13790055D02*
X15658872Y-13799579D01*
X15658872Y-13799579D02*
X15668396Y-13818627D01*
X15668396Y-13818627D02*
X15668396Y-13923389D01*
X15668396Y-13818627D02*
X15677919Y-13799579D01*
X15677919Y-13799579D02*
X15696967Y-13790055D01*
X15696967Y-13790055D02*
X15725538Y-13790055D01*
X15725538Y-13790055D02*
X15744586Y-13799579D01*
X15744586Y-13799579D02*
X15754110Y-13818627D01*
X15754110Y-13818627D02*
X15754110Y-13923389D01*
X16144586Y-13713865D02*
X15973158Y-13971008D01*
X16401729Y-13723389D02*
X16420777Y-13723389D01*
X16420777Y-13723389D02*
X16439824Y-13732913D01*
X16439824Y-13732913D02*
X16449348Y-13742436D01*
X16449348Y-13742436D02*
X16458872Y-13761484D01*
X16458872Y-13761484D02*
X16468396Y-13799579D01*
X16468396Y-13799579D02*
X16468396Y-13847198D01*
X16468396Y-13847198D02*
X16458872Y-13885293D01*
X16458872Y-13885293D02*
X16449348Y-13904341D01*
X16449348Y-13904341D02*
X16439824Y-13913865D01*
X16439824Y-13913865D02*
X16420777Y-13923389D01*
X16420777Y-13923389D02*
X16401729Y-13923389D01*
X16401729Y-13923389D02*
X16382681Y-13913865D01*
X16382681Y-13913865D02*
X16373158Y-13904341D01*
X16373158Y-13904341D02*
X16363634Y-13885293D01*
X16363634Y-13885293D02*
X16354110Y-13847198D01*
X16354110Y-13847198D02*
X16354110Y-13799579D01*
X16354110Y-13799579D02*
X16363634Y-13761484D01*
X16363634Y-13761484D02*
X16373158Y-13742436D01*
X16373158Y-13742436D02*
X16382681Y-13732913D01*
X16382681Y-13732913D02*
X16401729Y-13723389D01*
X16554110Y-13904341D02*
X16563634Y-13913865D01*
X16563634Y-13913865D02*
X16554110Y-13923389D01*
X16554110Y-13923389D02*
X16544586Y-13913865D01*
X16544586Y-13913865D02*
X16554110Y-13904341D01*
X16554110Y-13904341D02*
X16554110Y-13923389D01*
X16687443Y-13723389D02*
X16706491Y-13723389D01*
X16706491Y-13723389D02*
X16725539Y-13732913D01*
X16725539Y-13732913D02*
X16735062Y-13742436D01*
X16735062Y-13742436D02*
X16744586Y-13761484D01*
X16744586Y-13761484D02*
X16754110Y-13799579D01*
X16754110Y-13799579D02*
X16754110Y-13847198D01*
X16754110Y-13847198D02*
X16744586Y-13885293D01*
X16744586Y-13885293D02*
X16735062Y-13904341D01*
X16735062Y-13904341D02*
X16725539Y-13913865D01*
X16725539Y-13913865D02*
X16706491Y-13923389D01*
X16706491Y-13923389D02*
X16687443Y-13923389D01*
X16687443Y-13923389D02*
X16668396Y-13913865D01*
X16668396Y-13913865D02*
X16658872Y-13904341D01*
X16658872Y-13904341D02*
X16649348Y-13885293D01*
X16649348Y-13885293D02*
X16639824Y-13847198D01*
X16639824Y-13847198D02*
X16639824Y-13799579D01*
X16639824Y-13799579D02*
X16649348Y-13761484D01*
X16649348Y-13761484D02*
X16658872Y-13742436D01*
X16658872Y-13742436D02*
X16668396Y-13732913D01*
X16668396Y-13732913D02*
X16687443Y-13723389D01*
X16944586Y-13923389D02*
X16830301Y-13923389D01*
X16887443Y-13923389D02*
X16887443Y-13723389D01*
X16887443Y-13723389D02*
X16868396Y-13751960D01*
X16868396Y-13751960D02*
X16849348Y-13771008D01*
X16849348Y-13771008D02*
X16830301Y-13780532D01*
X17011253Y-13723389D02*
X17135063Y-13723389D01*
X17135063Y-13723389D02*
X17068396Y-13799579D01*
X17068396Y-13799579D02*
X17096967Y-13799579D01*
X17096967Y-13799579D02*
X17116015Y-13809103D01*
X17116015Y-13809103D02*
X17125539Y-13818627D01*
X17125539Y-13818627D02*
X17135063Y-13837674D01*
X17135063Y-13837674D02*
X17135063Y-13885293D01*
X17135063Y-13885293D02*
X17125539Y-13904341D01*
X17125539Y-13904341D02*
X17116015Y-13913865D01*
X17116015Y-13913865D02*
X17096967Y-13923389D01*
X17096967Y-13923389D02*
X17039824Y-13923389D01*
X17039824Y-13923389D02*
X17020777Y-13913865D01*
X17020777Y-13913865D02*
X17011253Y-13904341D01*
X17258872Y-13723389D02*
X17277920Y-13723389D01*
X17277920Y-13723389D02*
X17296967Y-13732913D01*
X17296967Y-13732913D02*
X17306491Y-13742436D01*
X17306491Y-13742436D02*
X17316015Y-13761484D01*
X17316015Y-13761484D02*
X17325539Y-13799579D01*
X17325539Y-13799579D02*
X17325539Y-13847198D01*
X17325539Y-13847198D02*
X17316015Y-13885293D01*
X17316015Y-13885293D02*
X17306491Y-13904341D01*
X17306491Y-13904341D02*
X17296967Y-13913865D01*
X17296967Y-13913865D02*
X17277920Y-13923389D01*
X17277920Y-13923389D02*
X17258872Y-13923389D01*
X17258872Y-13923389D02*
X17239824Y-13913865D01*
X17239824Y-13913865D02*
X17230301Y-13904341D01*
X17230301Y-13904341D02*
X17220777Y-13885293D01*
X17220777Y-13885293D02*
X17211253Y-13847198D01*
X17211253Y-13847198D02*
X17211253Y-13799579D01*
X17211253Y-13799579D02*
X17220777Y-13761484D01*
X17220777Y-13761484D02*
X17230301Y-13742436D01*
X17230301Y-13742436D02*
X17239824Y-13732913D01*
X17239824Y-13732913D02*
X17258872Y-13723389D01*
X17401729Y-13723389D02*
X17401729Y-13761484D01*
X17477920Y-13723389D02*
X17477920Y-13761484D01*
X17773158Y-13999579D02*
X17763634Y-13990055D01*
X17763634Y-13990055D02*
X17744586Y-13961484D01*
X17744586Y-13961484D02*
X17735063Y-13942436D01*
X17735063Y-13942436D02*
X17725539Y-13913865D01*
X17725539Y-13913865D02*
X17716015Y-13866246D01*
X17716015Y-13866246D02*
X17716015Y-13828151D01*
X17716015Y-13828151D02*
X17725539Y-13780532D01*
X17725539Y-13780532D02*
X17735063Y-13751960D01*
X17735063Y-13751960D02*
X17744586Y-13732913D01*
X17744586Y-13732913D02*
X17763634Y-13704341D01*
X17763634Y-13704341D02*
X17773158Y-13694817D01*
X17954110Y-13923389D02*
X17839825Y-13923389D01*
X17896967Y-13923389D02*
X17896967Y-13723389D01*
X17896967Y-13723389D02*
X17877920Y-13751960D01*
X17877920Y-13751960D02*
X17858872Y-13771008D01*
X17858872Y-13771008D02*
X17839825Y-13780532D01*
X18144586Y-13923389D02*
X18030301Y-13923389D01*
X18087444Y-13923389D02*
X18087444Y-13723389D01*
X18087444Y-13723389D02*
X18068396Y-13751960D01*
X18068396Y-13751960D02*
X18049348Y-13771008D01*
X18049348Y-13771008D02*
X18030301Y-13780532D01*
X18316015Y-13790055D02*
X18316015Y-13923389D01*
X18268396Y-13713865D02*
X18220777Y-13856722D01*
X18220777Y-13856722D02*
X18344586Y-13856722D01*
X18573158Y-13923389D02*
X18573158Y-13723389D01*
X18658872Y-13923389D02*
X18658872Y-13818627D01*
X18658872Y-13818627D02*
X18649348Y-13799579D01*
X18649348Y-13799579D02*
X18630301Y-13790055D01*
X18630301Y-13790055D02*
X18601729Y-13790055D01*
X18601729Y-13790055D02*
X18582682Y-13799579D01*
X18582682Y-13799579D02*
X18573158Y-13809103D01*
X18782682Y-13923389D02*
X18763634Y-13913865D01*
X18763634Y-13913865D02*
X18754110Y-13904341D01*
X18754110Y-13904341D02*
X18744587Y-13885293D01*
X18744587Y-13885293D02*
X18744587Y-13828151D01*
X18744587Y-13828151D02*
X18754110Y-13809103D01*
X18754110Y-13809103D02*
X18763634Y-13799579D01*
X18763634Y-13799579D02*
X18782682Y-13790055D01*
X18782682Y-13790055D02*
X18811253Y-13790055D01*
X18811253Y-13790055D02*
X18830301Y-13799579D01*
X18830301Y-13799579D02*
X18839825Y-13809103D01*
X18839825Y-13809103D02*
X18849348Y-13828151D01*
X18849348Y-13828151D02*
X18849348Y-13885293D01*
X18849348Y-13885293D02*
X18839825Y-13904341D01*
X18839825Y-13904341D02*
X18830301Y-13913865D01*
X18830301Y-13913865D02*
X18811253Y-13923389D01*
X18811253Y-13923389D02*
X18782682Y-13923389D01*
X18963634Y-13923389D02*
X18944587Y-13913865D01*
X18944587Y-13913865D02*
X18935063Y-13894817D01*
X18935063Y-13894817D02*
X18935063Y-13723389D01*
X19116015Y-13913865D02*
X19096968Y-13923389D01*
X19096968Y-13923389D02*
X19058872Y-13923389D01*
X19058872Y-13923389D02*
X19039825Y-13913865D01*
X19039825Y-13913865D02*
X19030301Y-13894817D01*
X19030301Y-13894817D02*
X19030301Y-13818627D01*
X19030301Y-13818627D02*
X19039825Y-13799579D01*
X19039825Y-13799579D02*
X19058872Y-13790055D01*
X19058872Y-13790055D02*
X19096968Y-13790055D01*
X19096968Y-13790055D02*
X19116015Y-13799579D01*
X19116015Y-13799579D02*
X19125539Y-13818627D01*
X19125539Y-13818627D02*
X19125539Y-13837674D01*
X19125539Y-13837674D02*
X19030301Y-13856722D01*
X19201729Y-13913865D02*
X19220777Y-13923389D01*
X19220777Y-13923389D02*
X19258872Y-13923389D01*
X19258872Y-13923389D02*
X19277920Y-13913865D01*
X19277920Y-13913865D02*
X19287444Y-13894817D01*
X19287444Y-13894817D02*
X19287444Y-13885293D01*
X19287444Y-13885293D02*
X19277920Y-13866246D01*
X19277920Y-13866246D02*
X19258872Y-13856722D01*
X19258872Y-13856722D02*
X19230301Y-13856722D01*
X19230301Y-13856722D02*
X19211253Y-13847198D01*
X19211253Y-13847198D02*
X19201729Y-13828151D01*
X19201729Y-13828151D02*
X19201729Y-13818627D01*
X19201729Y-13818627D02*
X19211253Y-13799579D01*
X19211253Y-13799579D02*
X19230301Y-13790055D01*
X19230301Y-13790055D02*
X19258872Y-13790055D01*
X19258872Y-13790055D02*
X19277920Y-13799579D01*
X19354110Y-13999579D02*
X19363634Y-13990055D01*
X19363634Y-13990055D02*
X19382682Y-13961484D01*
X19382682Y-13961484D02*
X19392206Y-13942436D01*
X19392206Y-13942436D02*
X19401729Y-13913865D01*
X19401729Y-13913865D02*
X19411253Y-13866246D01*
X19411253Y-13866246D02*
X19411253Y-13828151D01*
X19411253Y-13828151D02*
X19401729Y-13780532D01*
X19401729Y-13780532D02*
X19392206Y-13751960D01*
X19392206Y-13751960D02*
X19382682Y-13732913D01*
X19382682Y-13732913D02*
X19363634Y-13704341D01*
X19363634Y-13704341D02*
X19354110Y-13694817D01*
D10*
X14198095Y-14095905D02*
G75*
G03*
X14198095Y-14095905I-19050J0D01*
G01*
D11*
X14496967Y-13987389D02*
X14516015Y-13987389D01*
X14516015Y-13987389D02*
X14535062Y-13996913D01*
X14535062Y-13996913D02*
X14544586Y-14006436D01*
X14544586Y-14006436D02*
X14554110Y-14025484D01*
X14554110Y-14025484D02*
X14563634Y-14063579D01*
X14563634Y-14063579D02*
X14563634Y-14111198D01*
X14563634Y-14111198D02*
X14554110Y-14149293D01*
X14554110Y-14149293D02*
X14544586Y-14168341D01*
X14544586Y-14168341D02*
X14535062Y-14177865D01*
X14535062Y-14177865D02*
X14516015Y-14187389D01*
X14516015Y-14187389D02*
X14496967Y-14187389D01*
X14496967Y-14187389D02*
X14477919Y-14177865D01*
X14477919Y-14177865D02*
X14468396Y-14168341D01*
X14468396Y-14168341D02*
X14458872Y-14149293D01*
X14458872Y-14149293D02*
X14449348Y-14111198D01*
X14449348Y-14111198D02*
X14449348Y-14063579D01*
X14449348Y-14063579D02*
X14458872Y-14025484D01*
X14458872Y-14025484D02*
X14468396Y-14006436D01*
X14468396Y-14006436D02*
X14477919Y-13996913D01*
X14477919Y-13996913D02*
X14496967Y-13987389D01*
X14649348Y-14168341D02*
X14658872Y-14177865D01*
X14658872Y-14177865D02*
X14649348Y-14187389D01*
X14649348Y-14187389D02*
X14639824Y-14177865D01*
X14639824Y-14177865D02*
X14649348Y-14168341D01*
X14649348Y-14168341D02*
X14649348Y-14187389D01*
X14725538Y-13987389D02*
X14849348Y-13987389D01*
X14849348Y-13987389D02*
X14782681Y-14063579D01*
X14782681Y-14063579D02*
X14811253Y-14063579D01*
X14811253Y-14063579D02*
X14830300Y-14073103D01*
X14830300Y-14073103D02*
X14839824Y-14082627D01*
X14839824Y-14082627D02*
X14849348Y-14101674D01*
X14849348Y-14101674D02*
X14849348Y-14149293D01*
X14849348Y-14149293D02*
X14839824Y-14168341D01*
X14839824Y-14168341D02*
X14830300Y-14177865D01*
X14830300Y-14177865D02*
X14811253Y-14187389D01*
X14811253Y-14187389D02*
X14754110Y-14187389D01*
X14754110Y-14187389D02*
X14735062Y-14177865D01*
X14735062Y-14177865D02*
X14725538Y-14168341D01*
X14963634Y-14073103D02*
X14944586Y-14063579D01*
X14944586Y-14063579D02*
X14935062Y-14054055D01*
X14935062Y-14054055D02*
X14925538Y-14035008D01*
X14925538Y-14035008D02*
X14925538Y-14025484D01*
X14925538Y-14025484D02*
X14935062Y-14006436D01*
X14935062Y-14006436D02*
X14944586Y-13996913D01*
X14944586Y-13996913D02*
X14963634Y-13987389D01*
X14963634Y-13987389D02*
X15001729Y-13987389D01*
X15001729Y-13987389D02*
X15020777Y-13996913D01*
X15020777Y-13996913D02*
X15030300Y-14006436D01*
X15030300Y-14006436D02*
X15039824Y-14025484D01*
X15039824Y-14025484D02*
X15039824Y-14035008D01*
X15039824Y-14035008D02*
X15030300Y-14054055D01*
X15030300Y-14054055D02*
X15020777Y-14063579D01*
X15020777Y-14063579D02*
X15001729Y-14073103D01*
X15001729Y-14073103D02*
X14963634Y-14073103D01*
X14963634Y-14073103D02*
X14944586Y-14082627D01*
X14944586Y-14082627D02*
X14935062Y-14092151D01*
X14935062Y-14092151D02*
X14925538Y-14111198D01*
X14925538Y-14111198D02*
X14925538Y-14149293D01*
X14925538Y-14149293D02*
X14935062Y-14168341D01*
X14935062Y-14168341D02*
X14944586Y-14177865D01*
X14944586Y-14177865D02*
X14963634Y-14187389D01*
X14963634Y-14187389D02*
X15001729Y-14187389D01*
X15001729Y-14187389D02*
X15020777Y-14177865D01*
X15020777Y-14177865D02*
X15030300Y-14168341D01*
X15030300Y-14168341D02*
X15039824Y-14149293D01*
X15039824Y-14149293D02*
X15039824Y-14111198D01*
X15039824Y-14111198D02*
X15030300Y-14092151D01*
X15030300Y-14092151D02*
X15020777Y-14082627D01*
X15020777Y-14082627D02*
X15001729Y-14073103D01*
X15230300Y-14187389D02*
X15116015Y-14187389D01*
X15173157Y-14187389D02*
X15173157Y-13987389D01*
X15173157Y-13987389D02*
X15154110Y-14015960D01*
X15154110Y-14015960D02*
X15135062Y-14035008D01*
X15135062Y-14035008D02*
X15116015Y-14044532D01*
X15316015Y-14187389D02*
X15316015Y-14054055D01*
X15316015Y-14073103D02*
X15325538Y-14063579D01*
X15325538Y-14063579D02*
X15344586Y-14054055D01*
X15344586Y-14054055D02*
X15373158Y-14054055D01*
X15373158Y-14054055D02*
X15392205Y-14063579D01*
X15392205Y-14063579D02*
X15401729Y-14082627D01*
X15401729Y-14082627D02*
X15401729Y-14187389D01*
X15401729Y-14082627D02*
X15411253Y-14063579D01*
X15411253Y-14063579D02*
X15430300Y-14054055D01*
X15430300Y-14054055D02*
X15458872Y-14054055D01*
X15458872Y-14054055D02*
X15477919Y-14063579D01*
X15477919Y-14063579D02*
X15487443Y-14082627D01*
X15487443Y-14082627D02*
X15487443Y-14187389D01*
X15582681Y-14187389D02*
X15582681Y-14054055D01*
X15582681Y-14073103D02*
X15592205Y-14063579D01*
X15592205Y-14063579D02*
X15611253Y-14054055D01*
X15611253Y-14054055D02*
X15639824Y-14054055D01*
X15639824Y-14054055D02*
X15658872Y-14063579D01*
X15658872Y-14063579D02*
X15668396Y-14082627D01*
X15668396Y-14082627D02*
X15668396Y-14187389D01*
X15668396Y-14082627D02*
X15677919Y-14063579D01*
X15677919Y-14063579D02*
X15696967Y-14054055D01*
X15696967Y-14054055D02*
X15725538Y-14054055D01*
X15725538Y-14054055D02*
X15744586Y-14063579D01*
X15744586Y-14063579D02*
X15754110Y-14082627D01*
X15754110Y-14082627D02*
X15754110Y-14187389D01*
X16144586Y-13977865D02*
X15973158Y-14235008D01*
X16401729Y-13987389D02*
X16420777Y-13987389D01*
X16420777Y-13987389D02*
X16439824Y-13996913D01*
X16439824Y-13996913D02*
X16449348Y-14006436D01*
X16449348Y-14006436D02*
X16458872Y-14025484D01*
X16458872Y-14025484D02*
X16468396Y-14063579D01*
X16468396Y-14063579D02*
X16468396Y-14111198D01*
X16468396Y-14111198D02*
X16458872Y-14149293D01*
X16458872Y-14149293D02*
X16449348Y-14168341D01*
X16449348Y-14168341D02*
X16439824Y-14177865D01*
X16439824Y-14177865D02*
X16420777Y-14187389D01*
X16420777Y-14187389D02*
X16401729Y-14187389D01*
X16401729Y-14187389D02*
X16382681Y-14177865D01*
X16382681Y-14177865D02*
X16373158Y-14168341D01*
X16373158Y-14168341D02*
X16363634Y-14149293D01*
X16363634Y-14149293D02*
X16354110Y-14111198D01*
X16354110Y-14111198D02*
X16354110Y-14063579D01*
X16354110Y-14063579D02*
X16363634Y-14025484D01*
X16363634Y-14025484D02*
X16373158Y-14006436D01*
X16373158Y-14006436D02*
X16382681Y-13996913D01*
X16382681Y-13996913D02*
X16401729Y-13987389D01*
X16554110Y-14168341D02*
X16563634Y-14177865D01*
X16563634Y-14177865D02*
X16554110Y-14187389D01*
X16554110Y-14187389D02*
X16544586Y-14177865D01*
X16544586Y-14177865D02*
X16554110Y-14168341D01*
X16554110Y-14168341D02*
X16554110Y-14187389D01*
X16687443Y-13987389D02*
X16706491Y-13987389D01*
X16706491Y-13987389D02*
X16725539Y-13996913D01*
X16725539Y-13996913D02*
X16735062Y-14006436D01*
X16735062Y-14006436D02*
X16744586Y-14025484D01*
X16744586Y-14025484D02*
X16754110Y-14063579D01*
X16754110Y-14063579D02*
X16754110Y-14111198D01*
X16754110Y-14111198D02*
X16744586Y-14149293D01*
X16744586Y-14149293D02*
X16735062Y-14168341D01*
X16735062Y-14168341D02*
X16725539Y-14177865D01*
X16725539Y-14177865D02*
X16706491Y-14187389D01*
X16706491Y-14187389D02*
X16687443Y-14187389D01*
X16687443Y-14187389D02*
X16668396Y-14177865D01*
X16668396Y-14177865D02*
X16658872Y-14168341D01*
X16658872Y-14168341D02*
X16649348Y-14149293D01*
X16649348Y-14149293D02*
X16639824Y-14111198D01*
X16639824Y-14111198D02*
X16639824Y-14063579D01*
X16639824Y-14063579D02*
X16649348Y-14025484D01*
X16649348Y-14025484D02*
X16658872Y-14006436D01*
X16658872Y-14006436D02*
X16668396Y-13996913D01*
X16668396Y-13996913D02*
X16687443Y-13987389D01*
X16944586Y-14187389D02*
X16830301Y-14187389D01*
X16887443Y-14187389D02*
X16887443Y-13987389D01*
X16887443Y-13987389D02*
X16868396Y-14015960D01*
X16868396Y-14015960D02*
X16849348Y-14035008D01*
X16849348Y-14035008D02*
X16830301Y-14044532D01*
X17125539Y-13987389D02*
X17030301Y-13987389D01*
X17030301Y-13987389D02*
X17020777Y-14082627D01*
X17020777Y-14082627D02*
X17030301Y-14073103D01*
X17030301Y-14073103D02*
X17049348Y-14063579D01*
X17049348Y-14063579D02*
X17096967Y-14063579D01*
X17096967Y-14063579D02*
X17116015Y-14073103D01*
X17116015Y-14073103D02*
X17125539Y-14082627D01*
X17125539Y-14082627D02*
X17135063Y-14101674D01*
X17135063Y-14101674D02*
X17135063Y-14149293D01*
X17135063Y-14149293D02*
X17125539Y-14168341D01*
X17125539Y-14168341D02*
X17116015Y-14177865D01*
X17116015Y-14177865D02*
X17096967Y-14187389D01*
X17096967Y-14187389D02*
X17049348Y-14187389D01*
X17049348Y-14187389D02*
X17030301Y-14177865D01*
X17030301Y-14177865D02*
X17020777Y-14168341D01*
X17258872Y-13987389D02*
X17277920Y-13987389D01*
X17277920Y-13987389D02*
X17296967Y-13996913D01*
X17296967Y-13996913D02*
X17306491Y-14006436D01*
X17306491Y-14006436D02*
X17316015Y-14025484D01*
X17316015Y-14025484D02*
X17325539Y-14063579D01*
X17325539Y-14063579D02*
X17325539Y-14111198D01*
X17325539Y-14111198D02*
X17316015Y-14149293D01*
X17316015Y-14149293D02*
X17306491Y-14168341D01*
X17306491Y-14168341D02*
X17296967Y-14177865D01*
X17296967Y-14177865D02*
X17277920Y-14187389D01*
X17277920Y-14187389D02*
X17258872Y-14187389D01*
X17258872Y-14187389D02*
X17239824Y-14177865D01*
X17239824Y-14177865D02*
X17230301Y-14168341D01*
X17230301Y-14168341D02*
X17220777Y-14149293D01*
X17220777Y-14149293D02*
X17211253Y-14111198D01*
X17211253Y-14111198D02*
X17211253Y-14063579D01*
X17211253Y-14063579D02*
X17220777Y-14025484D01*
X17220777Y-14025484D02*
X17230301Y-14006436D01*
X17230301Y-14006436D02*
X17239824Y-13996913D01*
X17239824Y-13996913D02*
X17258872Y-13987389D01*
X17401729Y-13987389D02*
X17401729Y-14025484D01*
X17477920Y-13987389D02*
X17477920Y-14025484D01*
X17773158Y-14263579D02*
X17763634Y-14254055D01*
X17763634Y-14254055D02*
X17744586Y-14225484D01*
X17744586Y-14225484D02*
X17735063Y-14206436D01*
X17735063Y-14206436D02*
X17725539Y-14177865D01*
X17725539Y-14177865D02*
X17716015Y-14130246D01*
X17716015Y-14130246D02*
X17716015Y-14092151D01*
X17716015Y-14092151D02*
X17725539Y-14044532D01*
X17725539Y-14044532D02*
X17735063Y-14015960D01*
X17735063Y-14015960D02*
X17744586Y-13996913D01*
X17744586Y-13996913D02*
X17763634Y-13968341D01*
X17763634Y-13968341D02*
X17773158Y-13958817D01*
X17839825Y-14006436D02*
X17849348Y-13996913D01*
X17849348Y-13996913D02*
X17868396Y-13987389D01*
X17868396Y-13987389D02*
X17916015Y-13987389D01*
X17916015Y-13987389D02*
X17935063Y-13996913D01*
X17935063Y-13996913D02*
X17944586Y-14006436D01*
X17944586Y-14006436D02*
X17954110Y-14025484D01*
X17954110Y-14025484D02*
X17954110Y-14044532D01*
X17954110Y-14044532D02*
X17944586Y-14073103D01*
X17944586Y-14073103D02*
X17830301Y-14187389D01*
X17830301Y-14187389D02*
X17954110Y-14187389D01*
X18125539Y-13987389D02*
X18087444Y-13987389D01*
X18087444Y-13987389D02*
X18068396Y-13996913D01*
X18068396Y-13996913D02*
X18058872Y-14006436D01*
X18058872Y-14006436D02*
X18039825Y-14035008D01*
X18039825Y-14035008D02*
X18030301Y-14073103D01*
X18030301Y-14073103D02*
X18030301Y-14149293D01*
X18030301Y-14149293D02*
X18039825Y-14168341D01*
X18039825Y-14168341D02*
X18049348Y-14177865D01*
X18049348Y-14177865D02*
X18068396Y-14187389D01*
X18068396Y-14187389D02*
X18106491Y-14187389D01*
X18106491Y-14187389D02*
X18125539Y-14177865D01*
X18125539Y-14177865D02*
X18135063Y-14168341D01*
X18135063Y-14168341D02*
X18144586Y-14149293D01*
X18144586Y-14149293D02*
X18144586Y-14101674D01*
X18144586Y-14101674D02*
X18135063Y-14082627D01*
X18135063Y-14082627D02*
X18125539Y-14073103D01*
X18125539Y-14073103D02*
X18106491Y-14063579D01*
X18106491Y-14063579D02*
X18068396Y-14063579D01*
X18068396Y-14063579D02*
X18049348Y-14073103D01*
X18049348Y-14073103D02*
X18039825Y-14082627D01*
X18039825Y-14082627D02*
X18030301Y-14101674D01*
X18382682Y-14187389D02*
X18382682Y-13987389D01*
X18468396Y-14187389D02*
X18468396Y-14082627D01*
X18468396Y-14082627D02*
X18458872Y-14063579D01*
X18458872Y-14063579D02*
X18439825Y-14054055D01*
X18439825Y-14054055D02*
X18411253Y-14054055D01*
X18411253Y-14054055D02*
X18392206Y-14063579D01*
X18392206Y-14063579D02*
X18382682Y-14073103D01*
X18592206Y-14187389D02*
X18573158Y-14177865D01*
X18573158Y-14177865D02*
X18563634Y-14168341D01*
X18563634Y-14168341D02*
X18554110Y-14149293D01*
X18554110Y-14149293D02*
X18554110Y-14092151D01*
X18554110Y-14092151D02*
X18563634Y-14073103D01*
X18563634Y-14073103D02*
X18573158Y-14063579D01*
X18573158Y-14063579D02*
X18592206Y-14054055D01*
X18592206Y-14054055D02*
X18620777Y-14054055D01*
X18620777Y-14054055D02*
X18639825Y-14063579D01*
X18639825Y-14063579D02*
X18649348Y-14073103D01*
X18649348Y-14073103D02*
X18658872Y-14092151D01*
X18658872Y-14092151D02*
X18658872Y-14149293D01*
X18658872Y-14149293D02*
X18649348Y-14168341D01*
X18649348Y-14168341D02*
X18639825Y-14177865D01*
X18639825Y-14177865D02*
X18620777Y-14187389D01*
X18620777Y-14187389D02*
X18592206Y-14187389D01*
X18773158Y-14187389D02*
X18754110Y-14177865D01*
X18754110Y-14177865D02*
X18744587Y-14158817D01*
X18744587Y-14158817D02*
X18744587Y-13987389D01*
X18925539Y-14177865D02*
X18906491Y-14187389D01*
X18906491Y-14187389D02*
X18868396Y-14187389D01*
X18868396Y-14187389D02*
X18849348Y-14177865D01*
X18849348Y-14177865D02*
X18839825Y-14158817D01*
X18839825Y-14158817D02*
X18839825Y-14082627D01*
X18839825Y-14082627D02*
X18849348Y-14063579D01*
X18849348Y-14063579D02*
X18868396Y-14054055D01*
X18868396Y-14054055D02*
X18906491Y-14054055D01*
X18906491Y-14054055D02*
X18925539Y-14063579D01*
X18925539Y-14063579D02*
X18935063Y-14082627D01*
X18935063Y-14082627D02*
X18935063Y-14101674D01*
X18935063Y-14101674D02*
X18839825Y-14120722D01*
X19011253Y-14177865D02*
X19030301Y-14187389D01*
X19030301Y-14187389D02*
X19068396Y-14187389D01*
X19068396Y-14187389D02*
X19087444Y-14177865D01*
X19087444Y-14177865D02*
X19096968Y-14158817D01*
X19096968Y-14158817D02*
X19096968Y-14149293D01*
X19096968Y-14149293D02*
X19087444Y-14130246D01*
X19087444Y-14130246D02*
X19068396Y-14120722D01*
X19068396Y-14120722D02*
X19039825Y-14120722D01*
X19039825Y-14120722D02*
X19020777Y-14111198D01*
X19020777Y-14111198D02*
X19011253Y-14092151D01*
X19011253Y-14092151D02*
X19011253Y-14082627D01*
X19011253Y-14082627D02*
X19020777Y-14063579D01*
X19020777Y-14063579D02*
X19039825Y-14054055D01*
X19039825Y-14054055D02*
X19068396Y-14054055D01*
X19068396Y-14054055D02*
X19087444Y-14063579D01*
X19163634Y-14263579D02*
X19173158Y-14254055D01*
X19173158Y-14254055D02*
X19192206Y-14225484D01*
X19192206Y-14225484D02*
X19201729Y-14206436D01*
X19201729Y-14206436D02*
X19211253Y-14177865D01*
X19211253Y-14177865D02*
X19220777Y-14130246D01*
X19220777Y-14130246D02*
X19220777Y-14092151D01*
X19220777Y-14092151D02*
X19211253Y-14044532D01*
X19211253Y-14044532D02*
X19201729Y-14015960D01*
X19201729Y-14015960D02*
X19192206Y-13996913D01*
X19192206Y-13996913D02*
X19173158Y-13968341D01*
X19173158Y-13968341D02*
X19163634Y-13958817D01*
D13*
X14148095Y-14309905D02*
X14148095Y-14409905D01*
X14098095Y-14359905D02*
X14198095Y-14359905D01*
D11*
X14563634Y-14451389D02*
X14449348Y-14451389D01*
X14506491Y-14451389D02*
X14506491Y-14251389D01*
X14506491Y-14251389D02*
X14487443Y-14279960D01*
X14487443Y-14279960D02*
X14468396Y-14299008D01*
X14468396Y-14299008D02*
X14449348Y-14308532D01*
X14649348Y-14432341D02*
X14658872Y-14441865D01*
X14658872Y-14441865D02*
X14649348Y-14451389D01*
X14649348Y-14451389D02*
X14639824Y-14441865D01*
X14639824Y-14441865D02*
X14649348Y-14432341D01*
X14649348Y-14432341D02*
X14649348Y-14451389D01*
X14782681Y-14251389D02*
X14801729Y-14251389D01*
X14801729Y-14251389D02*
X14820777Y-14260913D01*
X14820777Y-14260913D02*
X14830300Y-14270436D01*
X14830300Y-14270436D02*
X14839824Y-14289484D01*
X14839824Y-14289484D02*
X14849348Y-14327579D01*
X14849348Y-14327579D02*
X14849348Y-14375198D01*
X14849348Y-14375198D02*
X14839824Y-14413293D01*
X14839824Y-14413293D02*
X14830300Y-14432341D01*
X14830300Y-14432341D02*
X14820777Y-14441865D01*
X14820777Y-14441865D02*
X14801729Y-14451389D01*
X14801729Y-14451389D02*
X14782681Y-14451389D01*
X14782681Y-14451389D02*
X14763634Y-14441865D01*
X14763634Y-14441865D02*
X14754110Y-14432341D01*
X14754110Y-14432341D02*
X14744586Y-14413293D01*
X14744586Y-14413293D02*
X14735062Y-14375198D01*
X14735062Y-14375198D02*
X14735062Y-14327579D01*
X14735062Y-14327579D02*
X14744586Y-14289484D01*
X14744586Y-14289484D02*
X14754110Y-14270436D01*
X14754110Y-14270436D02*
X14763634Y-14260913D01*
X14763634Y-14260913D02*
X14782681Y-14251389D01*
X14973157Y-14251389D02*
X14992205Y-14251389D01*
X14992205Y-14251389D02*
X15011253Y-14260913D01*
X15011253Y-14260913D02*
X15020777Y-14270436D01*
X15020777Y-14270436D02*
X15030300Y-14289484D01*
X15030300Y-14289484D02*
X15039824Y-14327579D01*
X15039824Y-14327579D02*
X15039824Y-14375198D01*
X15039824Y-14375198D02*
X15030300Y-14413293D01*
X15030300Y-14413293D02*
X15020777Y-14432341D01*
X15020777Y-14432341D02*
X15011253Y-14441865D01*
X15011253Y-14441865D02*
X14992205Y-14451389D01*
X14992205Y-14451389D02*
X14973157Y-14451389D01*
X14973157Y-14451389D02*
X14954110Y-14441865D01*
X14954110Y-14441865D02*
X14944586Y-14432341D01*
X14944586Y-14432341D02*
X14935062Y-14413293D01*
X14935062Y-14413293D02*
X14925538Y-14375198D01*
X14925538Y-14375198D02*
X14925538Y-14327579D01*
X14925538Y-14327579D02*
X14935062Y-14289484D01*
X14935062Y-14289484D02*
X14944586Y-14270436D01*
X14944586Y-14270436D02*
X14954110Y-14260913D01*
X14954110Y-14260913D02*
X14973157Y-14251389D01*
X15163634Y-14251389D02*
X15182681Y-14251389D01*
X15182681Y-14251389D02*
X15201729Y-14260913D01*
X15201729Y-14260913D02*
X15211253Y-14270436D01*
X15211253Y-14270436D02*
X15220777Y-14289484D01*
X15220777Y-14289484D02*
X15230300Y-14327579D01*
X15230300Y-14327579D02*
X15230300Y-14375198D01*
X15230300Y-14375198D02*
X15220777Y-14413293D01*
X15220777Y-14413293D02*
X15211253Y-14432341D01*
X15211253Y-14432341D02*
X15201729Y-14441865D01*
X15201729Y-14441865D02*
X15182681Y-14451389D01*
X15182681Y-14451389D02*
X15163634Y-14451389D01*
X15163634Y-14451389D02*
X15144586Y-14441865D01*
X15144586Y-14441865D02*
X15135062Y-14432341D01*
X15135062Y-14432341D02*
X15125538Y-14413293D01*
X15125538Y-14413293D02*
X15116015Y-14375198D01*
X15116015Y-14375198D02*
X15116015Y-14327579D01*
X15116015Y-14327579D02*
X15125538Y-14289484D01*
X15125538Y-14289484D02*
X15135062Y-14270436D01*
X15135062Y-14270436D02*
X15144586Y-14260913D01*
X15144586Y-14260913D02*
X15163634Y-14251389D01*
X15316015Y-14451389D02*
X15316015Y-14318055D01*
X15316015Y-14337103D02*
X15325538Y-14327579D01*
X15325538Y-14327579D02*
X15344586Y-14318055D01*
X15344586Y-14318055D02*
X15373158Y-14318055D01*
X15373158Y-14318055D02*
X15392205Y-14327579D01*
X15392205Y-14327579D02*
X15401729Y-14346627D01*
X15401729Y-14346627D02*
X15401729Y-14451389D01*
X15401729Y-14346627D02*
X15411253Y-14327579D01*
X15411253Y-14327579D02*
X15430300Y-14318055D01*
X15430300Y-14318055D02*
X15458872Y-14318055D01*
X15458872Y-14318055D02*
X15477919Y-14327579D01*
X15477919Y-14327579D02*
X15487443Y-14346627D01*
X15487443Y-14346627D02*
X15487443Y-14451389D01*
X15582681Y-14451389D02*
X15582681Y-14318055D01*
X15582681Y-14337103D02*
X15592205Y-14327579D01*
X15592205Y-14327579D02*
X15611253Y-14318055D01*
X15611253Y-14318055D02*
X15639824Y-14318055D01*
X15639824Y-14318055D02*
X15658872Y-14327579D01*
X15658872Y-14327579D02*
X15668396Y-14346627D01*
X15668396Y-14346627D02*
X15668396Y-14451389D01*
X15668396Y-14346627D02*
X15677919Y-14327579D01*
X15677919Y-14327579D02*
X15696967Y-14318055D01*
X15696967Y-14318055D02*
X15725538Y-14318055D01*
X15725538Y-14318055D02*
X15744586Y-14327579D01*
X15744586Y-14327579D02*
X15754110Y-14346627D01*
X15754110Y-14346627D02*
X15754110Y-14451389D01*
X16144586Y-14241865D02*
X15973158Y-14499008D01*
X16401729Y-14251389D02*
X16420777Y-14251389D01*
X16420777Y-14251389D02*
X16439824Y-14260913D01*
X16439824Y-14260913D02*
X16449348Y-14270436D01*
X16449348Y-14270436D02*
X16458872Y-14289484D01*
X16458872Y-14289484D02*
X16468396Y-14327579D01*
X16468396Y-14327579D02*
X16468396Y-14375198D01*
X16468396Y-14375198D02*
X16458872Y-14413293D01*
X16458872Y-14413293D02*
X16449348Y-14432341D01*
X16449348Y-14432341D02*
X16439824Y-14441865D01*
X16439824Y-14441865D02*
X16420777Y-14451389D01*
X16420777Y-14451389D02*
X16401729Y-14451389D01*
X16401729Y-14451389D02*
X16382681Y-14441865D01*
X16382681Y-14441865D02*
X16373158Y-14432341D01*
X16373158Y-14432341D02*
X16363634Y-14413293D01*
X16363634Y-14413293D02*
X16354110Y-14375198D01*
X16354110Y-14375198D02*
X16354110Y-14327579D01*
X16354110Y-14327579D02*
X16363634Y-14289484D01*
X16363634Y-14289484D02*
X16373158Y-14270436D01*
X16373158Y-14270436D02*
X16382681Y-14260913D01*
X16382681Y-14260913D02*
X16401729Y-14251389D01*
X16554110Y-14432341D02*
X16563634Y-14441865D01*
X16563634Y-14441865D02*
X16554110Y-14451389D01*
X16554110Y-14451389D02*
X16544586Y-14441865D01*
X16544586Y-14441865D02*
X16554110Y-14432341D01*
X16554110Y-14432341D02*
X16554110Y-14451389D01*
X16687443Y-14251389D02*
X16706491Y-14251389D01*
X16706491Y-14251389D02*
X16725539Y-14260913D01*
X16725539Y-14260913D02*
X16735062Y-14270436D01*
X16735062Y-14270436D02*
X16744586Y-14289484D01*
X16744586Y-14289484D02*
X16754110Y-14327579D01*
X16754110Y-14327579D02*
X16754110Y-14375198D01*
X16754110Y-14375198D02*
X16744586Y-14413293D01*
X16744586Y-14413293D02*
X16735062Y-14432341D01*
X16735062Y-14432341D02*
X16725539Y-14441865D01*
X16725539Y-14441865D02*
X16706491Y-14451389D01*
X16706491Y-14451389D02*
X16687443Y-14451389D01*
X16687443Y-14451389D02*
X16668396Y-14441865D01*
X16668396Y-14441865D02*
X16658872Y-14432341D01*
X16658872Y-14432341D02*
X16649348Y-14413293D01*
X16649348Y-14413293D02*
X16639824Y-14375198D01*
X16639824Y-14375198D02*
X16639824Y-14327579D01*
X16639824Y-14327579D02*
X16649348Y-14289484D01*
X16649348Y-14289484D02*
X16658872Y-14270436D01*
X16658872Y-14270436D02*
X16668396Y-14260913D01*
X16668396Y-14260913D02*
X16687443Y-14251389D01*
X16820777Y-14251389D02*
X16944586Y-14251389D01*
X16944586Y-14251389D02*
X16877920Y-14327579D01*
X16877920Y-14327579D02*
X16906491Y-14327579D01*
X16906491Y-14327579D02*
X16925539Y-14337103D01*
X16925539Y-14337103D02*
X16935063Y-14346627D01*
X16935063Y-14346627D02*
X16944586Y-14365674D01*
X16944586Y-14365674D02*
X16944586Y-14413293D01*
X16944586Y-14413293D02*
X16935063Y-14432341D01*
X16935063Y-14432341D02*
X16925539Y-14441865D01*
X16925539Y-14441865D02*
X16906491Y-14451389D01*
X16906491Y-14451389D02*
X16849348Y-14451389D01*
X16849348Y-14451389D02*
X16830301Y-14441865D01*
X16830301Y-14441865D02*
X16820777Y-14432341D01*
X17039824Y-14451389D02*
X17077920Y-14451389D01*
X17077920Y-14451389D02*
X17096967Y-14441865D01*
X17096967Y-14441865D02*
X17106491Y-14432341D01*
X17106491Y-14432341D02*
X17125539Y-14403770D01*
X17125539Y-14403770D02*
X17135063Y-14365674D01*
X17135063Y-14365674D02*
X17135063Y-14289484D01*
X17135063Y-14289484D02*
X17125539Y-14270436D01*
X17125539Y-14270436D02*
X17116015Y-14260913D01*
X17116015Y-14260913D02*
X17096967Y-14251389D01*
X17096967Y-14251389D02*
X17058872Y-14251389D01*
X17058872Y-14251389D02*
X17039824Y-14260913D01*
X17039824Y-14260913D02*
X17030301Y-14270436D01*
X17030301Y-14270436D02*
X17020777Y-14289484D01*
X17020777Y-14289484D02*
X17020777Y-14337103D01*
X17020777Y-14337103D02*
X17030301Y-14356151D01*
X17030301Y-14356151D02*
X17039824Y-14365674D01*
X17039824Y-14365674D02*
X17058872Y-14375198D01*
X17058872Y-14375198D02*
X17096967Y-14375198D01*
X17096967Y-14375198D02*
X17116015Y-14365674D01*
X17116015Y-14365674D02*
X17125539Y-14356151D01*
X17125539Y-14356151D02*
X17135063Y-14337103D01*
X17306491Y-14318055D02*
X17306491Y-14451389D01*
X17258872Y-14241865D02*
X17211253Y-14384722D01*
X17211253Y-14384722D02*
X17335063Y-14384722D01*
X17401729Y-14251389D02*
X17401729Y-14289484D01*
X17477920Y-14251389D02*
X17477920Y-14289484D01*
X17773158Y-14527579D02*
X17763634Y-14518055D01*
X17763634Y-14518055D02*
X17744586Y-14489484D01*
X17744586Y-14489484D02*
X17735063Y-14470436D01*
X17735063Y-14470436D02*
X17725539Y-14441865D01*
X17725539Y-14441865D02*
X17716015Y-14394246D01*
X17716015Y-14394246D02*
X17716015Y-14356151D01*
X17716015Y-14356151D02*
X17725539Y-14308532D01*
X17725539Y-14308532D02*
X17735063Y-14279960D01*
X17735063Y-14279960D02*
X17744586Y-14260913D01*
X17744586Y-14260913D02*
X17763634Y-14232341D01*
X17763634Y-14232341D02*
X17773158Y-14222817D01*
X17877920Y-14337103D02*
X17858872Y-14327579D01*
X17858872Y-14327579D02*
X17849348Y-14318055D01*
X17849348Y-14318055D02*
X17839825Y-14299008D01*
X17839825Y-14299008D02*
X17839825Y-14289484D01*
X17839825Y-14289484D02*
X17849348Y-14270436D01*
X17849348Y-14270436D02*
X17858872Y-14260913D01*
X17858872Y-14260913D02*
X17877920Y-14251389D01*
X17877920Y-14251389D02*
X17916015Y-14251389D01*
X17916015Y-14251389D02*
X17935063Y-14260913D01*
X17935063Y-14260913D02*
X17944586Y-14270436D01*
X17944586Y-14270436D02*
X17954110Y-14289484D01*
X17954110Y-14289484D02*
X17954110Y-14299008D01*
X17954110Y-14299008D02*
X17944586Y-14318055D01*
X17944586Y-14318055D02*
X17935063Y-14327579D01*
X17935063Y-14327579D02*
X17916015Y-14337103D01*
X17916015Y-14337103D02*
X17877920Y-14337103D01*
X17877920Y-14337103D02*
X17858872Y-14346627D01*
X17858872Y-14346627D02*
X17849348Y-14356151D01*
X17849348Y-14356151D02*
X17839825Y-14375198D01*
X17839825Y-14375198D02*
X17839825Y-14413293D01*
X17839825Y-14413293D02*
X17849348Y-14432341D01*
X17849348Y-14432341D02*
X17858872Y-14441865D01*
X17858872Y-14441865D02*
X17877920Y-14451389D01*
X17877920Y-14451389D02*
X17916015Y-14451389D01*
X17916015Y-14451389D02*
X17935063Y-14441865D01*
X17935063Y-14441865D02*
X17944586Y-14432341D01*
X17944586Y-14432341D02*
X17954110Y-14413293D01*
X17954110Y-14413293D02*
X17954110Y-14375198D01*
X17954110Y-14375198D02*
X17944586Y-14356151D01*
X17944586Y-14356151D02*
X17935063Y-14346627D01*
X17935063Y-14346627D02*
X17916015Y-14337103D01*
X18192206Y-14451389D02*
X18192206Y-14251389D01*
X18277920Y-14451389D02*
X18277920Y-14346627D01*
X18277920Y-14346627D02*
X18268396Y-14327579D01*
X18268396Y-14327579D02*
X18249348Y-14318055D01*
X18249348Y-14318055D02*
X18220777Y-14318055D01*
X18220777Y-14318055D02*
X18201729Y-14327579D01*
X18201729Y-14327579D02*
X18192206Y-14337103D01*
X18401729Y-14451389D02*
X18382682Y-14441865D01*
X18382682Y-14441865D02*
X18373158Y-14432341D01*
X18373158Y-14432341D02*
X18363634Y-14413293D01*
X18363634Y-14413293D02*
X18363634Y-14356151D01*
X18363634Y-14356151D02*
X18373158Y-14337103D01*
X18373158Y-14337103D02*
X18382682Y-14327579D01*
X18382682Y-14327579D02*
X18401729Y-14318055D01*
X18401729Y-14318055D02*
X18430301Y-14318055D01*
X18430301Y-14318055D02*
X18449348Y-14327579D01*
X18449348Y-14327579D02*
X18458872Y-14337103D01*
X18458872Y-14337103D02*
X18468396Y-14356151D01*
X18468396Y-14356151D02*
X18468396Y-14413293D01*
X18468396Y-14413293D02*
X18458872Y-14432341D01*
X18458872Y-14432341D02*
X18449348Y-14441865D01*
X18449348Y-14441865D02*
X18430301Y-14451389D01*
X18430301Y-14451389D02*
X18401729Y-14451389D01*
X18582682Y-14451389D02*
X18563634Y-14441865D01*
X18563634Y-14441865D02*
X18554110Y-14422817D01*
X18554110Y-14422817D02*
X18554110Y-14251389D01*
X18735063Y-14441865D02*
X18716015Y-14451389D01*
X18716015Y-14451389D02*
X18677920Y-14451389D01*
X18677920Y-14451389D02*
X18658872Y-14441865D01*
X18658872Y-14441865D02*
X18649348Y-14422817D01*
X18649348Y-14422817D02*
X18649348Y-14346627D01*
X18649348Y-14346627D02*
X18658872Y-14327579D01*
X18658872Y-14327579D02*
X18677920Y-14318055D01*
X18677920Y-14318055D02*
X18716015Y-14318055D01*
X18716015Y-14318055D02*
X18735063Y-14327579D01*
X18735063Y-14327579D02*
X18744587Y-14346627D01*
X18744587Y-14346627D02*
X18744587Y-14365674D01*
X18744587Y-14365674D02*
X18649348Y-14384722D01*
X18820777Y-14441865D02*
X18839825Y-14451389D01*
X18839825Y-14451389D02*
X18877920Y-14451389D01*
X18877920Y-14451389D02*
X18896968Y-14441865D01*
X18896968Y-14441865D02*
X18906491Y-14422817D01*
X18906491Y-14422817D02*
X18906491Y-14413293D01*
X18906491Y-14413293D02*
X18896968Y-14394246D01*
X18896968Y-14394246D02*
X18877920Y-14384722D01*
X18877920Y-14384722D02*
X18849348Y-14384722D01*
X18849348Y-14384722D02*
X18830301Y-14375198D01*
X18830301Y-14375198D02*
X18820777Y-14356151D01*
X18820777Y-14356151D02*
X18820777Y-14346627D01*
X18820777Y-14346627D02*
X18830301Y-14327579D01*
X18830301Y-14327579D02*
X18849348Y-14318055D01*
X18849348Y-14318055D02*
X18877920Y-14318055D01*
X18877920Y-14318055D02*
X18896968Y-14327579D01*
X18973158Y-14527579D02*
X18982682Y-14518055D01*
X18982682Y-14518055D02*
X19001729Y-14489484D01*
X19001729Y-14489484D02*
X19011253Y-14470436D01*
X19011253Y-14470436D02*
X19020777Y-14441865D01*
X19020777Y-14441865D02*
X19030301Y-14394246D01*
X19030301Y-14394246D02*
X19030301Y-14356151D01*
X19030301Y-14356151D02*
X19020777Y-14308532D01*
X19020777Y-14308532D02*
X19011253Y-14279960D01*
X19011253Y-14279960D02*
X19001729Y-14260913D01*
X19001729Y-14260913D02*
X18982682Y-14232341D01*
X18982682Y-14232341D02*
X18973158Y-14222817D01*
D14*
X14180522Y-14666332D02*
X14180522Y-14581478D01*
X14095668Y-14581478D01*
X14095668Y-14666332D01*
X14180522Y-14666332D01*
D11*
X14563634Y-14715389D02*
X14449348Y-14715389D01*
X14506491Y-14715389D02*
X14506491Y-14515389D01*
X14506491Y-14515389D02*
X14487443Y-14543960D01*
X14487443Y-14543960D02*
X14468396Y-14563008D01*
X14468396Y-14563008D02*
X14449348Y-14572532D01*
X14649348Y-14696341D02*
X14658872Y-14705865D01*
X14658872Y-14705865D02*
X14649348Y-14715389D01*
X14649348Y-14715389D02*
X14639824Y-14705865D01*
X14639824Y-14705865D02*
X14649348Y-14696341D01*
X14649348Y-14696341D02*
X14649348Y-14715389D01*
X14735062Y-14534436D02*
X14744586Y-14524913D01*
X14744586Y-14524913D02*
X14763634Y-14515389D01*
X14763634Y-14515389D02*
X14811253Y-14515389D01*
X14811253Y-14515389D02*
X14830300Y-14524913D01*
X14830300Y-14524913D02*
X14839824Y-14534436D01*
X14839824Y-14534436D02*
X14849348Y-14553484D01*
X14849348Y-14553484D02*
X14849348Y-14572532D01*
X14849348Y-14572532D02*
X14839824Y-14601103D01*
X14839824Y-14601103D02*
X14725538Y-14715389D01*
X14725538Y-14715389D02*
X14849348Y-14715389D01*
X14973157Y-14515389D02*
X14992205Y-14515389D01*
X14992205Y-14515389D02*
X15011253Y-14524913D01*
X15011253Y-14524913D02*
X15020777Y-14534436D01*
X15020777Y-14534436D02*
X15030300Y-14553484D01*
X15030300Y-14553484D02*
X15039824Y-14591579D01*
X15039824Y-14591579D02*
X15039824Y-14639198D01*
X15039824Y-14639198D02*
X15030300Y-14677293D01*
X15030300Y-14677293D02*
X15020777Y-14696341D01*
X15020777Y-14696341D02*
X15011253Y-14705865D01*
X15011253Y-14705865D02*
X14992205Y-14715389D01*
X14992205Y-14715389D02*
X14973157Y-14715389D01*
X14973157Y-14715389D02*
X14954110Y-14705865D01*
X14954110Y-14705865D02*
X14944586Y-14696341D01*
X14944586Y-14696341D02*
X14935062Y-14677293D01*
X14935062Y-14677293D02*
X14925538Y-14639198D01*
X14925538Y-14639198D02*
X14925538Y-14591579D01*
X14925538Y-14591579D02*
X14935062Y-14553484D01*
X14935062Y-14553484D02*
X14944586Y-14534436D01*
X14944586Y-14534436D02*
X14954110Y-14524913D01*
X14954110Y-14524913D02*
X14973157Y-14515389D01*
X15163634Y-14515389D02*
X15182681Y-14515389D01*
X15182681Y-14515389D02*
X15201729Y-14524913D01*
X15201729Y-14524913D02*
X15211253Y-14534436D01*
X15211253Y-14534436D02*
X15220777Y-14553484D01*
X15220777Y-14553484D02*
X15230300Y-14591579D01*
X15230300Y-14591579D02*
X15230300Y-14639198D01*
X15230300Y-14639198D02*
X15220777Y-14677293D01*
X15220777Y-14677293D02*
X15211253Y-14696341D01*
X15211253Y-14696341D02*
X15201729Y-14705865D01*
X15201729Y-14705865D02*
X15182681Y-14715389D01*
X15182681Y-14715389D02*
X15163634Y-14715389D01*
X15163634Y-14715389D02*
X15144586Y-14705865D01*
X15144586Y-14705865D02*
X15135062Y-14696341D01*
X15135062Y-14696341D02*
X15125538Y-14677293D01*
X15125538Y-14677293D02*
X15116015Y-14639198D01*
X15116015Y-14639198D02*
X15116015Y-14591579D01*
X15116015Y-14591579D02*
X15125538Y-14553484D01*
X15125538Y-14553484D02*
X15135062Y-14534436D01*
X15135062Y-14534436D02*
X15144586Y-14524913D01*
X15144586Y-14524913D02*
X15163634Y-14515389D01*
X15316015Y-14715389D02*
X15316015Y-14582055D01*
X15316015Y-14601103D02*
X15325538Y-14591579D01*
X15325538Y-14591579D02*
X15344586Y-14582055D01*
X15344586Y-14582055D02*
X15373158Y-14582055D01*
X15373158Y-14582055D02*
X15392205Y-14591579D01*
X15392205Y-14591579D02*
X15401729Y-14610627D01*
X15401729Y-14610627D02*
X15401729Y-14715389D01*
X15401729Y-14610627D02*
X15411253Y-14591579D01*
X15411253Y-14591579D02*
X15430300Y-14582055D01*
X15430300Y-14582055D02*
X15458872Y-14582055D01*
X15458872Y-14582055D02*
X15477919Y-14591579D01*
X15477919Y-14591579D02*
X15487443Y-14610627D01*
X15487443Y-14610627D02*
X15487443Y-14715389D01*
X15582681Y-14715389D02*
X15582681Y-14582055D01*
X15582681Y-14601103D02*
X15592205Y-14591579D01*
X15592205Y-14591579D02*
X15611253Y-14582055D01*
X15611253Y-14582055D02*
X15639824Y-14582055D01*
X15639824Y-14582055D02*
X15658872Y-14591579D01*
X15658872Y-14591579D02*
X15668396Y-14610627D01*
X15668396Y-14610627D02*
X15668396Y-14715389D01*
X15668396Y-14610627D02*
X15677919Y-14591579D01*
X15677919Y-14591579D02*
X15696967Y-14582055D01*
X15696967Y-14582055D02*
X15725538Y-14582055D01*
X15725538Y-14582055D02*
X15744586Y-14591579D01*
X15744586Y-14591579D02*
X15754110Y-14610627D01*
X15754110Y-14610627D02*
X15754110Y-14715389D01*
X16144586Y-14505865D02*
X15973158Y-14763008D01*
X16401729Y-14515389D02*
X16420777Y-14515389D01*
X16420777Y-14515389D02*
X16439824Y-14524913D01*
X16439824Y-14524913D02*
X16449348Y-14534436D01*
X16449348Y-14534436D02*
X16458872Y-14553484D01*
X16458872Y-14553484D02*
X16468396Y-14591579D01*
X16468396Y-14591579D02*
X16468396Y-14639198D01*
X16468396Y-14639198D02*
X16458872Y-14677293D01*
X16458872Y-14677293D02*
X16449348Y-14696341D01*
X16449348Y-14696341D02*
X16439824Y-14705865D01*
X16439824Y-14705865D02*
X16420777Y-14715389D01*
X16420777Y-14715389D02*
X16401729Y-14715389D01*
X16401729Y-14715389D02*
X16382681Y-14705865D01*
X16382681Y-14705865D02*
X16373158Y-14696341D01*
X16373158Y-14696341D02*
X16363634Y-14677293D01*
X16363634Y-14677293D02*
X16354110Y-14639198D01*
X16354110Y-14639198D02*
X16354110Y-14591579D01*
X16354110Y-14591579D02*
X16363634Y-14553484D01*
X16363634Y-14553484D02*
X16373158Y-14534436D01*
X16373158Y-14534436D02*
X16382681Y-14524913D01*
X16382681Y-14524913D02*
X16401729Y-14515389D01*
X16554110Y-14696341D02*
X16563634Y-14705865D01*
X16563634Y-14705865D02*
X16554110Y-14715389D01*
X16554110Y-14715389D02*
X16544586Y-14705865D01*
X16544586Y-14705865D02*
X16554110Y-14696341D01*
X16554110Y-14696341D02*
X16554110Y-14715389D01*
X16687443Y-14515389D02*
X16706491Y-14515389D01*
X16706491Y-14515389D02*
X16725539Y-14524913D01*
X16725539Y-14524913D02*
X16735062Y-14534436D01*
X16735062Y-14534436D02*
X16744586Y-14553484D01*
X16744586Y-14553484D02*
X16754110Y-14591579D01*
X16754110Y-14591579D02*
X16754110Y-14639198D01*
X16754110Y-14639198D02*
X16744586Y-14677293D01*
X16744586Y-14677293D02*
X16735062Y-14696341D01*
X16735062Y-14696341D02*
X16725539Y-14705865D01*
X16725539Y-14705865D02*
X16706491Y-14715389D01*
X16706491Y-14715389D02*
X16687443Y-14715389D01*
X16687443Y-14715389D02*
X16668396Y-14705865D01*
X16668396Y-14705865D02*
X16658872Y-14696341D01*
X16658872Y-14696341D02*
X16649348Y-14677293D01*
X16649348Y-14677293D02*
X16639824Y-14639198D01*
X16639824Y-14639198D02*
X16639824Y-14591579D01*
X16639824Y-14591579D02*
X16649348Y-14553484D01*
X16649348Y-14553484D02*
X16658872Y-14534436D01*
X16658872Y-14534436D02*
X16668396Y-14524913D01*
X16668396Y-14524913D02*
X16687443Y-14515389D01*
X16925539Y-14582055D02*
X16925539Y-14715389D01*
X16877920Y-14505865D02*
X16830301Y-14648722D01*
X16830301Y-14648722D02*
X16954110Y-14648722D01*
X17011253Y-14515389D02*
X17144586Y-14515389D01*
X17144586Y-14515389D02*
X17058872Y-14715389D01*
X17211253Y-14534436D02*
X17220777Y-14524913D01*
X17220777Y-14524913D02*
X17239824Y-14515389D01*
X17239824Y-14515389D02*
X17287444Y-14515389D01*
X17287444Y-14515389D02*
X17306491Y-14524913D01*
X17306491Y-14524913D02*
X17316015Y-14534436D01*
X17316015Y-14534436D02*
X17325539Y-14553484D01*
X17325539Y-14553484D02*
X17325539Y-14572532D01*
X17325539Y-14572532D02*
X17316015Y-14601103D01*
X17316015Y-14601103D02*
X17201729Y-14715389D01*
X17201729Y-14715389D02*
X17325539Y-14715389D01*
X17401729Y-14515389D02*
X17401729Y-14553484D01*
X17477920Y-14515389D02*
X17477920Y-14553484D01*
X17773158Y-14791579D02*
X17763634Y-14782055D01*
X17763634Y-14782055D02*
X17744586Y-14753484D01*
X17744586Y-14753484D02*
X17735063Y-14734436D01*
X17735063Y-14734436D02*
X17725539Y-14705865D01*
X17725539Y-14705865D02*
X17716015Y-14658246D01*
X17716015Y-14658246D02*
X17716015Y-14620151D01*
X17716015Y-14620151D02*
X17725539Y-14572532D01*
X17725539Y-14572532D02*
X17735063Y-14543960D01*
X17735063Y-14543960D02*
X17744586Y-14524913D01*
X17744586Y-14524913D02*
X17763634Y-14496341D01*
X17763634Y-14496341D02*
X17773158Y-14486817D01*
X17839825Y-14534436D02*
X17849348Y-14524913D01*
X17849348Y-14524913D02*
X17868396Y-14515389D01*
X17868396Y-14515389D02*
X17916015Y-14515389D01*
X17916015Y-14515389D02*
X17935063Y-14524913D01*
X17935063Y-14524913D02*
X17944586Y-14534436D01*
X17944586Y-14534436D02*
X17954110Y-14553484D01*
X17954110Y-14553484D02*
X17954110Y-14572532D01*
X17954110Y-14572532D02*
X17944586Y-14601103D01*
X17944586Y-14601103D02*
X17830301Y-14715389D01*
X17830301Y-14715389D02*
X17954110Y-14715389D01*
X18192206Y-14715389D02*
X18192206Y-14515389D01*
X18277920Y-14715389D02*
X18277920Y-14610627D01*
X18277920Y-14610627D02*
X18268396Y-14591579D01*
X18268396Y-14591579D02*
X18249348Y-14582055D01*
X18249348Y-14582055D02*
X18220777Y-14582055D01*
X18220777Y-14582055D02*
X18201729Y-14591579D01*
X18201729Y-14591579D02*
X18192206Y-14601103D01*
X18401729Y-14715389D02*
X18382682Y-14705865D01*
X18382682Y-14705865D02*
X18373158Y-14696341D01*
X18373158Y-14696341D02*
X18363634Y-14677293D01*
X18363634Y-14677293D02*
X18363634Y-14620151D01*
X18363634Y-14620151D02*
X18373158Y-14601103D01*
X18373158Y-14601103D02*
X18382682Y-14591579D01*
X18382682Y-14591579D02*
X18401729Y-14582055D01*
X18401729Y-14582055D02*
X18430301Y-14582055D01*
X18430301Y-14582055D02*
X18449348Y-14591579D01*
X18449348Y-14591579D02*
X18458872Y-14601103D01*
X18458872Y-14601103D02*
X18468396Y-14620151D01*
X18468396Y-14620151D02*
X18468396Y-14677293D01*
X18468396Y-14677293D02*
X18458872Y-14696341D01*
X18458872Y-14696341D02*
X18449348Y-14705865D01*
X18449348Y-14705865D02*
X18430301Y-14715389D01*
X18430301Y-14715389D02*
X18401729Y-14715389D01*
X18582682Y-14715389D02*
X18563634Y-14705865D01*
X18563634Y-14705865D02*
X18554110Y-14686817D01*
X18554110Y-14686817D02*
X18554110Y-14515389D01*
X18735063Y-14705865D02*
X18716015Y-14715389D01*
X18716015Y-14715389D02*
X18677920Y-14715389D01*
X18677920Y-14715389D02*
X18658872Y-14705865D01*
X18658872Y-14705865D02*
X18649348Y-14686817D01*
X18649348Y-14686817D02*
X18649348Y-14610627D01*
X18649348Y-14610627D02*
X18658872Y-14591579D01*
X18658872Y-14591579D02*
X18677920Y-14582055D01*
X18677920Y-14582055D02*
X18716015Y-14582055D01*
X18716015Y-14582055D02*
X18735063Y-14591579D01*
X18735063Y-14591579D02*
X18744587Y-14610627D01*
X18744587Y-14610627D02*
X18744587Y-14629674D01*
X18744587Y-14629674D02*
X18649348Y-14648722D01*
X18820777Y-14705865D02*
X18839825Y-14715389D01*
X18839825Y-14715389D02*
X18877920Y-14715389D01*
X18877920Y-14715389D02*
X18896968Y-14705865D01*
X18896968Y-14705865D02*
X18906491Y-14686817D01*
X18906491Y-14686817D02*
X18906491Y-14677293D01*
X18906491Y-14677293D02*
X18896968Y-14658246D01*
X18896968Y-14658246D02*
X18877920Y-14648722D01*
X18877920Y-14648722D02*
X18849348Y-14648722D01*
X18849348Y-14648722D02*
X18830301Y-14639198D01*
X18830301Y-14639198D02*
X18820777Y-14620151D01*
X18820777Y-14620151D02*
X18820777Y-14610627D01*
X18820777Y-14610627D02*
X18830301Y-14591579D01*
X18830301Y-14591579D02*
X18849348Y-14582055D01*
X18849348Y-14582055D02*
X18877920Y-14582055D01*
X18877920Y-14582055D02*
X18896968Y-14591579D01*
X18973158Y-14791579D02*
X18982682Y-14782055D01*
X18982682Y-14782055D02*
X19001729Y-14753484D01*
X19001729Y-14753484D02*
X19011253Y-14734436D01*
X19011253Y-14734436D02*
X19020777Y-14705865D01*
X19020777Y-14705865D02*
X19030301Y-14658246D01*
X19030301Y-14658246D02*
X19030301Y-14620151D01*
X19030301Y-14620151D02*
X19020777Y-14572532D01*
X19020777Y-14572532D02*
X19011253Y-14543960D01*
X19011253Y-14543960D02*
X19001729Y-14524913D01*
X19001729Y-14524913D02*
X18982682Y-14496341D01*
X18982682Y-14496341D02*
X18973158Y-14486817D01*
D15*
X14128095Y-14957905D02*
X14198095Y-14887905D01*
X14128095Y-14817905D01*
X14058095Y-14887905D01*
X14128095Y-14957905D01*
D11*
X14563634Y-14979389D02*
X14449348Y-14979389D01*
X14506491Y-14979389D02*
X14506491Y-14779389D01*
X14506491Y-14779389D02*
X14487443Y-14807960D01*
X14487443Y-14807960D02*
X14468396Y-14827008D01*
X14468396Y-14827008D02*
X14449348Y-14836532D01*
X14649348Y-14960341D02*
X14658872Y-14969865D01*
X14658872Y-14969865D02*
X14649348Y-14979389D01*
X14649348Y-14979389D02*
X14639824Y-14969865D01*
X14639824Y-14969865D02*
X14649348Y-14960341D01*
X14649348Y-14960341D02*
X14649348Y-14979389D01*
X14830300Y-14846055D02*
X14830300Y-14979389D01*
X14782681Y-14769865D02*
X14735062Y-14912722D01*
X14735062Y-14912722D02*
X14858872Y-14912722D01*
X14973157Y-14779389D02*
X14992205Y-14779389D01*
X14992205Y-14779389D02*
X15011253Y-14788913D01*
X15011253Y-14788913D02*
X15020777Y-14798436D01*
X15020777Y-14798436D02*
X15030300Y-14817484D01*
X15030300Y-14817484D02*
X15039824Y-14855579D01*
X15039824Y-14855579D02*
X15039824Y-14903198D01*
X15039824Y-14903198D02*
X15030300Y-14941293D01*
X15030300Y-14941293D02*
X15020777Y-14960341D01*
X15020777Y-14960341D02*
X15011253Y-14969865D01*
X15011253Y-14969865D02*
X14992205Y-14979389D01*
X14992205Y-14979389D02*
X14973157Y-14979389D01*
X14973157Y-14979389D02*
X14954110Y-14969865D01*
X14954110Y-14969865D02*
X14944586Y-14960341D01*
X14944586Y-14960341D02*
X14935062Y-14941293D01*
X14935062Y-14941293D02*
X14925538Y-14903198D01*
X14925538Y-14903198D02*
X14925538Y-14855579D01*
X14925538Y-14855579D02*
X14935062Y-14817484D01*
X14935062Y-14817484D02*
X14944586Y-14798436D01*
X14944586Y-14798436D02*
X14954110Y-14788913D01*
X14954110Y-14788913D02*
X14973157Y-14779389D01*
X15163634Y-14779389D02*
X15182681Y-14779389D01*
X15182681Y-14779389D02*
X15201729Y-14788913D01*
X15201729Y-14788913D02*
X15211253Y-14798436D01*
X15211253Y-14798436D02*
X15220777Y-14817484D01*
X15220777Y-14817484D02*
X15230300Y-14855579D01*
X15230300Y-14855579D02*
X15230300Y-14903198D01*
X15230300Y-14903198D02*
X15220777Y-14941293D01*
X15220777Y-14941293D02*
X15211253Y-14960341D01*
X15211253Y-14960341D02*
X15201729Y-14969865D01*
X15201729Y-14969865D02*
X15182681Y-14979389D01*
X15182681Y-14979389D02*
X15163634Y-14979389D01*
X15163634Y-14979389D02*
X15144586Y-14969865D01*
X15144586Y-14969865D02*
X15135062Y-14960341D01*
X15135062Y-14960341D02*
X15125538Y-14941293D01*
X15125538Y-14941293D02*
X15116015Y-14903198D01*
X15116015Y-14903198D02*
X15116015Y-14855579D01*
X15116015Y-14855579D02*
X15125538Y-14817484D01*
X15125538Y-14817484D02*
X15135062Y-14798436D01*
X15135062Y-14798436D02*
X15144586Y-14788913D01*
X15144586Y-14788913D02*
X15163634Y-14779389D01*
X15316015Y-14979389D02*
X15316015Y-14846055D01*
X15316015Y-14865103D02*
X15325538Y-14855579D01*
X15325538Y-14855579D02*
X15344586Y-14846055D01*
X15344586Y-14846055D02*
X15373158Y-14846055D01*
X15373158Y-14846055D02*
X15392205Y-14855579D01*
X15392205Y-14855579D02*
X15401729Y-14874627D01*
X15401729Y-14874627D02*
X15401729Y-14979389D01*
X15401729Y-14874627D02*
X15411253Y-14855579D01*
X15411253Y-14855579D02*
X15430300Y-14846055D01*
X15430300Y-14846055D02*
X15458872Y-14846055D01*
X15458872Y-14846055D02*
X15477919Y-14855579D01*
X15477919Y-14855579D02*
X15487443Y-14874627D01*
X15487443Y-14874627D02*
X15487443Y-14979389D01*
X15582681Y-14979389D02*
X15582681Y-14846055D01*
X15582681Y-14865103D02*
X15592205Y-14855579D01*
X15592205Y-14855579D02*
X15611253Y-14846055D01*
X15611253Y-14846055D02*
X15639824Y-14846055D01*
X15639824Y-14846055D02*
X15658872Y-14855579D01*
X15658872Y-14855579D02*
X15668396Y-14874627D01*
X15668396Y-14874627D02*
X15668396Y-14979389D01*
X15668396Y-14874627D02*
X15677919Y-14855579D01*
X15677919Y-14855579D02*
X15696967Y-14846055D01*
X15696967Y-14846055D02*
X15725538Y-14846055D01*
X15725538Y-14846055D02*
X15744586Y-14855579D01*
X15744586Y-14855579D02*
X15754110Y-14874627D01*
X15754110Y-14874627D02*
X15754110Y-14979389D01*
X16144586Y-14769865D02*
X15973158Y-15027008D01*
X16401729Y-14779389D02*
X16420777Y-14779389D01*
X16420777Y-14779389D02*
X16439824Y-14788913D01*
X16439824Y-14788913D02*
X16449348Y-14798436D01*
X16449348Y-14798436D02*
X16458872Y-14817484D01*
X16458872Y-14817484D02*
X16468396Y-14855579D01*
X16468396Y-14855579D02*
X16468396Y-14903198D01*
X16468396Y-14903198D02*
X16458872Y-14941293D01*
X16458872Y-14941293D02*
X16449348Y-14960341D01*
X16449348Y-14960341D02*
X16439824Y-14969865D01*
X16439824Y-14969865D02*
X16420777Y-14979389D01*
X16420777Y-14979389D02*
X16401729Y-14979389D01*
X16401729Y-14979389D02*
X16382681Y-14969865D01*
X16382681Y-14969865D02*
X16373158Y-14960341D01*
X16373158Y-14960341D02*
X16363634Y-14941293D01*
X16363634Y-14941293D02*
X16354110Y-14903198D01*
X16354110Y-14903198D02*
X16354110Y-14855579D01*
X16354110Y-14855579D02*
X16363634Y-14817484D01*
X16363634Y-14817484D02*
X16373158Y-14798436D01*
X16373158Y-14798436D02*
X16382681Y-14788913D01*
X16382681Y-14788913D02*
X16401729Y-14779389D01*
X16554110Y-14960341D02*
X16563634Y-14969865D01*
X16563634Y-14969865D02*
X16554110Y-14979389D01*
X16554110Y-14979389D02*
X16544586Y-14969865D01*
X16544586Y-14969865D02*
X16554110Y-14960341D01*
X16554110Y-14960341D02*
X16554110Y-14979389D01*
X16687443Y-14779389D02*
X16706491Y-14779389D01*
X16706491Y-14779389D02*
X16725539Y-14788913D01*
X16725539Y-14788913D02*
X16735062Y-14798436D01*
X16735062Y-14798436D02*
X16744586Y-14817484D01*
X16744586Y-14817484D02*
X16754110Y-14855579D01*
X16754110Y-14855579D02*
X16754110Y-14903198D01*
X16754110Y-14903198D02*
X16744586Y-14941293D01*
X16744586Y-14941293D02*
X16735062Y-14960341D01*
X16735062Y-14960341D02*
X16725539Y-14969865D01*
X16725539Y-14969865D02*
X16706491Y-14979389D01*
X16706491Y-14979389D02*
X16687443Y-14979389D01*
X16687443Y-14979389D02*
X16668396Y-14969865D01*
X16668396Y-14969865D02*
X16658872Y-14960341D01*
X16658872Y-14960341D02*
X16649348Y-14941293D01*
X16649348Y-14941293D02*
X16639824Y-14903198D01*
X16639824Y-14903198D02*
X16639824Y-14855579D01*
X16639824Y-14855579D02*
X16649348Y-14817484D01*
X16649348Y-14817484D02*
X16658872Y-14798436D01*
X16658872Y-14798436D02*
X16668396Y-14788913D01*
X16668396Y-14788913D02*
X16687443Y-14779389D01*
X16935063Y-14779389D02*
X16839824Y-14779389D01*
X16839824Y-14779389D02*
X16830301Y-14874627D01*
X16830301Y-14874627D02*
X16839824Y-14865103D01*
X16839824Y-14865103D02*
X16858872Y-14855579D01*
X16858872Y-14855579D02*
X16906491Y-14855579D01*
X16906491Y-14855579D02*
X16925539Y-14865103D01*
X16925539Y-14865103D02*
X16935063Y-14874627D01*
X16935063Y-14874627D02*
X16944586Y-14893674D01*
X16944586Y-14893674D02*
X16944586Y-14941293D01*
X16944586Y-14941293D02*
X16935063Y-14960341D01*
X16935063Y-14960341D02*
X16925539Y-14969865D01*
X16925539Y-14969865D02*
X16906491Y-14979389D01*
X16906491Y-14979389D02*
X16858872Y-14979389D01*
X16858872Y-14979389D02*
X16839824Y-14969865D01*
X16839824Y-14969865D02*
X16830301Y-14960341D01*
X17125539Y-14779389D02*
X17030301Y-14779389D01*
X17030301Y-14779389D02*
X17020777Y-14874627D01*
X17020777Y-14874627D02*
X17030301Y-14865103D01*
X17030301Y-14865103D02*
X17049348Y-14855579D01*
X17049348Y-14855579D02*
X17096967Y-14855579D01*
X17096967Y-14855579D02*
X17116015Y-14865103D01*
X17116015Y-14865103D02*
X17125539Y-14874627D01*
X17125539Y-14874627D02*
X17135063Y-14893674D01*
X17135063Y-14893674D02*
X17135063Y-14941293D01*
X17135063Y-14941293D02*
X17125539Y-14960341D01*
X17125539Y-14960341D02*
X17116015Y-14969865D01*
X17116015Y-14969865D02*
X17096967Y-14979389D01*
X17096967Y-14979389D02*
X17049348Y-14979389D01*
X17049348Y-14979389D02*
X17030301Y-14969865D01*
X17030301Y-14969865D02*
X17020777Y-14960341D01*
X17325539Y-14979389D02*
X17211253Y-14979389D01*
X17268396Y-14979389D02*
X17268396Y-14779389D01*
X17268396Y-14779389D02*
X17249348Y-14807960D01*
X17249348Y-14807960D02*
X17230301Y-14827008D01*
X17230301Y-14827008D02*
X17211253Y-14836532D01*
X17401729Y-14779389D02*
X17401729Y-14817484D01*
X17477920Y-14779389D02*
X17477920Y-14817484D01*
X17773158Y-15055579D02*
X17763634Y-15046055D01*
X17763634Y-15046055D02*
X17744586Y-15017484D01*
X17744586Y-15017484D02*
X17735063Y-14998436D01*
X17735063Y-14998436D02*
X17725539Y-14969865D01*
X17725539Y-14969865D02*
X17716015Y-14922246D01*
X17716015Y-14922246D02*
X17716015Y-14884151D01*
X17716015Y-14884151D02*
X17725539Y-14836532D01*
X17725539Y-14836532D02*
X17735063Y-14807960D01*
X17735063Y-14807960D02*
X17744586Y-14788913D01*
X17744586Y-14788913D02*
X17763634Y-14760341D01*
X17763634Y-14760341D02*
X17773158Y-14750817D01*
X17954110Y-14979389D02*
X17839825Y-14979389D01*
X17896967Y-14979389D02*
X17896967Y-14779389D01*
X17896967Y-14779389D02*
X17877920Y-14807960D01*
X17877920Y-14807960D02*
X17858872Y-14827008D01*
X17858872Y-14827008D02*
X17839825Y-14836532D01*
X18020777Y-14779389D02*
X18154110Y-14779389D01*
X18154110Y-14779389D02*
X18068396Y-14979389D01*
X18382682Y-14979389D02*
X18382682Y-14779389D01*
X18468396Y-14979389D02*
X18468396Y-14874627D01*
X18468396Y-14874627D02*
X18458872Y-14855579D01*
X18458872Y-14855579D02*
X18439825Y-14846055D01*
X18439825Y-14846055D02*
X18411253Y-14846055D01*
X18411253Y-14846055D02*
X18392206Y-14855579D01*
X18392206Y-14855579D02*
X18382682Y-14865103D01*
X18592206Y-14979389D02*
X18573158Y-14969865D01*
X18573158Y-14969865D02*
X18563634Y-14960341D01*
X18563634Y-14960341D02*
X18554110Y-14941293D01*
X18554110Y-14941293D02*
X18554110Y-14884151D01*
X18554110Y-14884151D02*
X18563634Y-14865103D01*
X18563634Y-14865103D02*
X18573158Y-14855579D01*
X18573158Y-14855579D02*
X18592206Y-14846055D01*
X18592206Y-14846055D02*
X18620777Y-14846055D01*
X18620777Y-14846055D02*
X18639825Y-14855579D01*
X18639825Y-14855579D02*
X18649348Y-14865103D01*
X18649348Y-14865103D02*
X18658872Y-14884151D01*
X18658872Y-14884151D02*
X18658872Y-14941293D01*
X18658872Y-14941293D02*
X18649348Y-14960341D01*
X18649348Y-14960341D02*
X18639825Y-14969865D01*
X18639825Y-14969865D02*
X18620777Y-14979389D01*
X18620777Y-14979389D02*
X18592206Y-14979389D01*
X18773158Y-14979389D02*
X18754110Y-14969865D01*
X18754110Y-14969865D02*
X18744587Y-14950817D01*
X18744587Y-14950817D02*
X18744587Y-14779389D01*
X18925539Y-14969865D02*
X18906491Y-14979389D01*
X18906491Y-14979389D02*
X18868396Y-14979389D01*
X18868396Y-14979389D02*
X18849348Y-14969865D01*
X18849348Y-14969865D02*
X18839825Y-14950817D01*
X18839825Y-14950817D02*
X18839825Y-14874627D01*
X18839825Y-14874627D02*
X18849348Y-14855579D01*
X18849348Y-14855579D02*
X18868396Y-14846055D01*
X18868396Y-14846055D02*
X18906491Y-14846055D01*
X18906491Y-14846055D02*
X18925539Y-14855579D01*
X18925539Y-14855579D02*
X18935063Y-14874627D01*
X18935063Y-14874627D02*
X18935063Y-14893674D01*
X18935063Y-14893674D02*
X18839825Y-14912722D01*
X19011253Y-14969865D02*
X19030301Y-14979389D01*
X19030301Y-14979389D02*
X19068396Y-14979389D01*
X19068396Y-14979389D02*
X19087444Y-14969865D01*
X19087444Y-14969865D02*
X19096968Y-14950817D01*
X19096968Y-14950817D02*
X19096968Y-14941293D01*
X19096968Y-14941293D02*
X19087444Y-14922246D01*
X19087444Y-14922246D02*
X19068396Y-14912722D01*
X19068396Y-14912722D02*
X19039825Y-14912722D01*
X19039825Y-14912722D02*
X19020777Y-14903198D01*
X19020777Y-14903198D02*
X19011253Y-14884151D01*
X19011253Y-14884151D02*
X19011253Y-14874627D01*
X19011253Y-14874627D02*
X19020777Y-14855579D01*
X19020777Y-14855579D02*
X19039825Y-14846055D01*
X19039825Y-14846055D02*
X19068396Y-14846055D01*
X19068396Y-14846055D02*
X19087444Y-14855579D01*
X19163634Y-15055579D02*
X19173158Y-15046055D01*
X19173158Y-15046055D02*
X19192206Y-15017484D01*
X19192206Y-15017484D02*
X19201729Y-14998436D01*
X19201729Y-14998436D02*
X19211253Y-14969865D01*
X19211253Y-14969865D02*
X19220777Y-14922246D01*
X19220777Y-14922246D02*
X19220777Y-14884151D01*
X19220777Y-14884151D02*
X19211253Y-14836532D01*
X19211253Y-14836532D02*
X19201729Y-14807960D01*
X19201729Y-14807960D02*
X19192206Y-14788913D01*
X19192206Y-14788913D02*
X19173158Y-14760341D01*
X19173158Y-14760341D02*
X19163634Y-14750817D01*
X13998095Y-15051905D02*
X14198095Y-15251905D01*
X14198095Y-15051905D02*
X13998095Y-15251905D01*
X14198095Y-15151905D02*
G75*
G03*
X14198095Y-15151905I-100000J0D01*
G01*
X14439824Y-15043389D02*
X14563634Y-15043389D01*
X14563634Y-15043389D02*
X14496967Y-15119579D01*
X14496967Y-15119579D02*
X14525538Y-15119579D01*
X14525538Y-15119579D02*
X14544586Y-15129103D01*
X14544586Y-15129103D02*
X14554110Y-15138627D01*
X14554110Y-15138627D02*
X14563634Y-15157674D01*
X14563634Y-15157674D02*
X14563634Y-15205293D01*
X14563634Y-15205293D02*
X14554110Y-15224341D01*
X14554110Y-15224341D02*
X14544586Y-15233865D01*
X14544586Y-15233865D02*
X14525538Y-15243389D01*
X14525538Y-15243389D02*
X14468396Y-15243389D01*
X14468396Y-15243389D02*
X14449348Y-15233865D01*
X14449348Y-15233865D02*
X14439824Y-15224341D01*
X14649348Y-15224341D02*
X14658872Y-15233865D01*
X14658872Y-15233865D02*
X14649348Y-15243389D01*
X14649348Y-15243389D02*
X14639824Y-15233865D01*
X14639824Y-15233865D02*
X14649348Y-15224341D01*
X14649348Y-15224341D02*
X14649348Y-15243389D01*
X14735062Y-15062436D02*
X14744586Y-15052913D01*
X14744586Y-15052913D02*
X14763634Y-15043389D01*
X14763634Y-15043389D02*
X14811253Y-15043389D01*
X14811253Y-15043389D02*
X14830300Y-15052913D01*
X14830300Y-15052913D02*
X14839824Y-15062436D01*
X14839824Y-15062436D02*
X14849348Y-15081484D01*
X14849348Y-15081484D02*
X14849348Y-15100532D01*
X14849348Y-15100532D02*
X14839824Y-15129103D01*
X14839824Y-15129103D02*
X14725538Y-15243389D01*
X14725538Y-15243389D02*
X14849348Y-15243389D01*
X14973157Y-15043389D02*
X14992205Y-15043389D01*
X14992205Y-15043389D02*
X15011253Y-15052913D01*
X15011253Y-15052913D02*
X15020777Y-15062436D01*
X15020777Y-15062436D02*
X15030300Y-15081484D01*
X15030300Y-15081484D02*
X15039824Y-15119579D01*
X15039824Y-15119579D02*
X15039824Y-15167198D01*
X15039824Y-15167198D02*
X15030300Y-15205293D01*
X15030300Y-15205293D02*
X15020777Y-15224341D01*
X15020777Y-15224341D02*
X15011253Y-15233865D01*
X15011253Y-15233865D02*
X14992205Y-15243389D01*
X14992205Y-15243389D02*
X14973157Y-15243389D01*
X14973157Y-15243389D02*
X14954110Y-15233865D01*
X14954110Y-15233865D02*
X14944586Y-15224341D01*
X14944586Y-15224341D02*
X14935062Y-15205293D01*
X14935062Y-15205293D02*
X14925538Y-15167198D01*
X14925538Y-15167198D02*
X14925538Y-15119579D01*
X14925538Y-15119579D02*
X14935062Y-15081484D01*
X14935062Y-15081484D02*
X14944586Y-15062436D01*
X14944586Y-15062436D02*
X14954110Y-15052913D01*
X14954110Y-15052913D02*
X14973157Y-15043389D01*
X15163634Y-15043389D02*
X15182681Y-15043389D01*
X15182681Y-15043389D02*
X15201729Y-15052913D01*
X15201729Y-15052913D02*
X15211253Y-15062436D01*
X15211253Y-15062436D02*
X15220777Y-15081484D01*
X15220777Y-15081484D02*
X15230300Y-15119579D01*
X15230300Y-15119579D02*
X15230300Y-15167198D01*
X15230300Y-15167198D02*
X15220777Y-15205293D01*
X15220777Y-15205293D02*
X15211253Y-15224341D01*
X15211253Y-15224341D02*
X15201729Y-15233865D01*
X15201729Y-15233865D02*
X15182681Y-15243389D01*
X15182681Y-15243389D02*
X15163634Y-15243389D01*
X15163634Y-15243389D02*
X15144586Y-15233865D01*
X15144586Y-15233865D02*
X15135062Y-15224341D01*
X15135062Y-15224341D02*
X15125538Y-15205293D01*
X15125538Y-15205293D02*
X15116015Y-15167198D01*
X15116015Y-15167198D02*
X15116015Y-15119579D01*
X15116015Y-15119579D02*
X15125538Y-15081484D01*
X15125538Y-15081484D02*
X15135062Y-15062436D01*
X15135062Y-15062436D02*
X15144586Y-15052913D01*
X15144586Y-15052913D02*
X15163634Y-15043389D01*
X15316015Y-15243389D02*
X15316015Y-15110055D01*
X15316015Y-15129103D02*
X15325538Y-15119579D01*
X15325538Y-15119579D02*
X15344586Y-15110055D01*
X15344586Y-15110055D02*
X15373158Y-15110055D01*
X15373158Y-15110055D02*
X15392205Y-15119579D01*
X15392205Y-15119579D02*
X15401729Y-15138627D01*
X15401729Y-15138627D02*
X15401729Y-15243389D01*
X15401729Y-15138627D02*
X15411253Y-15119579D01*
X15411253Y-15119579D02*
X15430300Y-15110055D01*
X15430300Y-15110055D02*
X15458872Y-15110055D01*
X15458872Y-15110055D02*
X15477919Y-15119579D01*
X15477919Y-15119579D02*
X15487443Y-15138627D01*
X15487443Y-15138627D02*
X15487443Y-15243389D01*
X15582681Y-15243389D02*
X15582681Y-15110055D01*
X15582681Y-15129103D02*
X15592205Y-15119579D01*
X15592205Y-15119579D02*
X15611253Y-15110055D01*
X15611253Y-15110055D02*
X15639824Y-15110055D01*
X15639824Y-15110055D02*
X15658872Y-15119579D01*
X15658872Y-15119579D02*
X15668396Y-15138627D01*
X15668396Y-15138627D02*
X15668396Y-15243389D01*
X15668396Y-15138627D02*
X15677919Y-15119579D01*
X15677919Y-15119579D02*
X15696967Y-15110055D01*
X15696967Y-15110055D02*
X15725538Y-15110055D01*
X15725538Y-15110055D02*
X15744586Y-15119579D01*
X15744586Y-15119579D02*
X15754110Y-15138627D01*
X15754110Y-15138627D02*
X15754110Y-15243389D01*
X16144586Y-15033865D02*
X15973158Y-15291008D01*
X16401729Y-15043389D02*
X16420777Y-15043389D01*
X16420777Y-15043389D02*
X16439824Y-15052913D01*
X16439824Y-15052913D02*
X16449348Y-15062436D01*
X16449348Y-15062436D02*
X16458872Y-15081484D01*
X16458872Y-15081484D02*
X16468396Y-15119579D01*
X16468396Y-15119579D02*
X16468396Y-15167198D01*
X16468396Y-15167198D02*
X16458872Y-15205293D01*
X16458872Y-15205293D02*
X16449348Y-15224341D01*
X16449348Y-15224341D02*
X16439824Y-15233865D01*
X16439824Y-15233865D02*
X16420777Y-15243389D01*
X16420777Y-15243389D02*
X16401729Y-15243389D01*
X16401729Y-15243389D02*
X16382681Y-15233865D01*
X16382681Y-15233865D02*
X16373158Y-15224341D01*
X16373158Y-15224341D02*
X16363634Y-15205293D01*
X16363634Y-15205293D02*
X16354110Y-15167198D01*
X16354110Y-15167198D02*
X16354110Y-15119579D01*
X16354110Y-15119579D02*
X16363634Y-15081484D01*
X16363634Y-15081484D02*
X16373158Y-15062436D01*
X16373158Y-15062436D02*
X16382681Y-15052913D01*
X16382681Y-15052913D02*
X16401729Y-15043389D01*
X16554110Y-15224341D02*
X16563634Y-15233865D01*
X16563634Y-15233865D02*
X16554110Y-15243389D01*
X16554110Y-15243389D02*
X16544586Y-15233865D01*
X16544586Y-15233865D02*
X16554110Y-15224341D01*
X16554110Y-15224341D02*
X16554110Y-15243389D01*
X16754110Y-15243389D02*
X16639824Y-15243389D01*
X16696967Y-15243389D02*
X16696967Y-15043389D01*
X16696967Y-15043389D02*
X16677920Y-15071960D01*
X16677920Y-15071960D02*
X16658872Y-15091008D01*
X16658872Y-15091008D02*
X16639824Y-15100532D01*
X16830301Y-15062436D02*
X16839824Y-15052913D01*
X16839824Y-15052913D02*
X16858872Y-15043389D01*
X16858872Y-15043389D02*
X16906491Y-15043389D01*
X16906491Y-15043389D02*
X16925539Y-15052913D01*
X16925539Y-15052913D02*
X16935063Y-15062436D01*
X16935063Y-15062436D02*
X16944586Y-15081484D01*
X16944586Y-15081484D02*
X16944586Y-15100532D01*
X16944586Y-15100532D02*
X16935063Y-15129103D01*
X16935063Y-15129103D02*
X16820777Y-15243389D01*
X16820777Y-15243389D02*
X16944586Y-15243389D01*
X17116015Y-15043389D02*
X17077920Y-15043389D01*
X17077920Y-15043389D02*
X17058872Y-15052913D01*
X17058872Y-15052913D02*
X17049348Y-15062436D01*
X17049348Y-15062436D02*
X17030301Y-15091008D01*
X17030301Y-15091008D02*
X17020777Y-15129103D01*
X17020777Y-15129103D02*
X17020777Y-15205293D01*
X17020777Y-15205293D02*
X17030301Y-15224341D01*
X17030301Y-15224341D02*
X17039824Y-15233865D01*
X17039824Y-15233865D02*
X17058872Y-15243389D01*
X17058872Y-15243389D02*
X17096967Y-15243389D01*
X17096967Y-15243389D02*
X17116015Y-15233865D01*
X17116015Y-15233865D02*
X17125539Y-15224341D01*
X17125539Y-15224341D02*
X17135063Y-15205293D01*
X17135063Y-15205293D02*
X17135063Y-15157674D01*
X17135063Y-15157674D02*
X17125539Y-15138627D01*
X17125539Y-15138627D02*
X17116015Y-15129103D01*
X17116015Y-15129103D02*
X17096967Y-15119579D01*
X17096967Y-15119579D02*
X17058872Y-15119579D01*
X17058872Y-15119579D02*
X17039824Y-15129103D01*
X17039824Y-15129103D02*
X17030301Y-15138627D01*
X17030301Y-15138627D02*
X17020777Y-15157674D01*
X17258872Y-15043389D02*
X17277920Y-15043389D01*
X17277920Y-15043389D02*
X17296967Y-15052913D01*
X17296967Y-15052913D02*
X17306491Y-15062436D01*
X17306491Y-15062436D02*
X17316015Y-15081484D01*
X17316015Y-15081484D02*
X17325539Y-15119579D01*
X17325539Y-15119579D02*
X17325539Y-15167198D01*
X17325539Y-15167198D02*
X17316015Y-15205293D01*
X17316015Y-15205293D02*
X17306491Y-15224341D01*
X17306491Y-15224341D02*
X17296967Y-15233865D01*
X17296967Y-15233865D02*
X17277920Y-15243389D01*
X17277920Y-15243389D02*
X17258872Y-15243389D01*
X17258872Y-15243389D02*
X17239824Y-15233865D01*
X17239824Y-15233865D02*
X17230301Y-15224341D01*
X17230301Y-15224341D02*
X17220777Y-15205293D01*
X17220777Y-15205293D02*
X17211253Y-15167198D01*
X17211253Y-15167198D02*
X17211253Y-15119579D01*
X17211253Y-15119579D02*
X17220777Y-15081484D01*
X17220777Y-15081484D02*
X17230301Y-15062436D01*
X17230301Y-15062436D02*
X17239824Y-15052913D01*
X17239824Y-15052913D02*
X17258872Y-15043389D01*
X17401729Y-15043389D02*
X17401729Y-15081484D01*
X17477920Y-15043389D02*
X17477920Y-15081484D01*
X17773158Y-15319579D02*
X17763634Y-15310055D01*
X17763634Y-15310055D02*
X17744586Y-15281484D01*
X17744586Y-15281484D02*
X17735063Y-15262436D01*
X17735063Y-15262436D02*
X17725539Y-15233865D01*
X17725539Y-15233865D02*
X17716015Y-15186246D01*
X17716015Y-15186246D02*
X17716015Y-15148151D01*
X17716015Y-15148151D02*
X17725539Y-15100532D01*
X17725539Y-15100532D02*
X17735063Y-15071960D01*
X17735063Y-15071960D02*
X17744586Y-15052913D01*
X17744586Y-15052913D02*
X17763634Y-15024341D01*
X17763634Y-15024341D02*
X17773158Y-15014817D01*
X17839825Y-15062436D02*
X17849348Y-15052913D01*
X17849348Y-15052913D02*
X17868396Y-15043389D01*
X17868396Y-15043389D02*
X17916015Y-15043389D01*
X17916015Y-15043389D02*
X17935063Y-15052913D01*
X17935063Y-15052913D02*
X17944586Y-15062436D01*
X17944586Y-15062436D02*
X17954110Y-15081484D01*
X17954110Y-15081484D02*
X17954110Y-15100532D01*
X17954110Y-15100532D02*
X17944586Y-15129103D01*
X17944586Y-15129103D02*
X17830301Y-15243389D01*
X17830301Y-15243389D02*
X17954110Y-15243389D01*
X18192206Y-15243389D02*
X18192206Y-15043389D01*
X18277920Y-15243389D02*
X18277920Y-15138627D01*
X18277920Y-15138627D02*
X18268396Y-15119579D01*
X18268396Y-15119579D02*
X18249348Y-15110055D01*
X18249348Y-15110055D02*
X18220777Y-15110055D01*
X18220777Y-15110055D02*
X18201729Y-15119579D01*
X18201729Y-15119579D02*
X18192206Y-15129103D01*
X18401729Y-15243389D02*
X18382682Y-15233865D01*
X18382682Y-15233865D02*
X18373158Y-15224341D01*
X18373158Y-15224341D02*
X18363634Y-15205293D01*
X18363634Y-15205293D02*
X18363634Y-15148151D01*
X18363634Y-15148151D02*
X18373158Y-15129103D01*
X18373158Y-15129103D02*
X18382682Y-15119579D01*
X18382682Y-15119579D02*
X18401729Y-15110055D01*
X18401729Y-15110055D02*
X18430301Y-15110055D01*
X18430301Y-15110055D02*
X18449348Y-15119579D01*
X18449348Y-15119579D02*
X18458872Y-15129103D01*
X18458872Y-15129103D02*
X18468396Y-15148151D01*
X18468396Y-15148151D02*
X18468396Y-15205293D01*
X18468396Y-15205293D02*
X18458872Y-15224341D01*
X18458872Y-15224341D02*
X18449348Y-15233865D01*
X18449348Y-15233865D02*
X18430301Y-15243389D01*
X18430301Y-15243389D02*
X18401729Y-15243389D01*
X18582682Y-15243389D02*
X18563634Y-15233865D01*
X18563634Y-15233865D02*
X18554110Y-15214817D01*
X18554110Y-15214817D02*
X18554110Y-15043389D01*
X18735063Y-15233865D02*
X18716015Y-15243389D01*
X18716015Y-15243389D02*
X18677920Y-15243389D01*
X18677920Y-15243389D02*
X18658872Y-15233865D01*
X18658872Y-15233865D02*
X18649348Y-15214817D01*
X18649348Y-15214817D02*
X18649348Y-15138627D01*
X18649348Y-15138627D02*
X18658872Y-15119579D01*
X18658872Y-15119579D02*
X18677920Y-15110055D01*
X18677920Y-15110055D02*
X18716015Y-15110055D01*
X18716015Y-15110055D02*
X18735063Y-15119579D01*
X18735063Y-15119579D02*
X18744587Y-15138627D01*
X18744587Y-15138627D02*
X18744587Y-15157674D01*
X18744587Y-15157674D02*
X18649348Y-15176722D01*
X18820777Y-15233865D02*
X18839825Y-15243389D01*
X18839825Y-15243389D02*
X18877920Y-15243389D01*
X18877920Y-15243389D02*
X18896968Y-15233865D01*
X18896968Y-15233865D02*
X18906491Y-15214817D01*
X18906491Y-15214817D02*
X18906491Y-15205293D01*
X18906491Y-15205293D02*
X18896968Y-15186246D01*
X18896968Y-15186246D02*
X18877920Y-15176722D01*
X18877920Y-15176722D02*
X18849348Y-15176722D01*
X18849348Y-15176722D02*
X18830301Y-15167198D01*
X18830301Y-15167198D02*
X18820777Y-15148151D01*
X18820777Y-15148151D02*
X18820777Y-15138627D01*
X18820777Y-15138627D02*
X18830301Y-15119579D01*
X18830301Y-15119579D02*
X18849348Y-15110055D01*
X18849348Y-15110055D02*
X18877920Y-15110055D01*
X18877920Y-15110055D02*
X18896968Y-15119579D01*
X18973158Y-15319579D02*
X18982682Y-15310055D01*
X18982682Y-15310055D02*
X19001729Y-15281484D01*
X19001729Y-15281484D02*
X19011253Y-15262436D01*
X19011253Y-15262436D02*
X19020777Y-15233865D01*
X19020777Y-15233865D02*
X19030301Y-15186246D01*
X19030301Y-15186246D02*
X19030301Y-15148151D01*
X19030301Y-15148151D02*
X19020777Y-15100532D01*
X19020777Y-15100532D02*
X19011253Y-15071960D01*
X19011253Y-15071960D02*
X19001729Y-15052913D01*
X19001729Y-15052913D02*
X18982682Y-15024341D01*
X18982682Y-15024341D02*
X18973158Y-15014817D01*
M02*
